<?xml version="1.0" encoding="UTF-8"?><svg xmlns="http://www.w3.org/2000/svg" viewBox="0 0 60 160"><defs><style>.e{fill:#fff;}.f{fill:#222431;}.g{isolation:isolate;}.h{stroke:#222431;stroke-miterlimit:10;}.h,.i{fill:none;}</style></defs><g id="a"/><g id="b"><g id="c"><g><rect class="i" width="60" height="160"/><g><g class="g"><circle class="h" cx="30" cy="79.75" r="28.95"/><g><polyline class="h" points="20.13 84.85 15.03 79.75 20.13 74.65"/><g><line class="h" x1="21.78" y1="79.75" x2="38.22" y2="79.75"/><polyline class="h" points="39.87 74.65 44.97 79.75 39.87 84.85"/></g></g><g><g><line class="h" x1="30" y1="87.97" x2="30" y2="71.53"/><polyline class="h" points="24.9 69.88 30 64.78 35.1 69.88"/></g><polyline class="h" points="35.1 89.62 30 94.72 24.9 89.62"/></g></g><circle class="f" cx="30" cy="17.64" r="13.93"/><g id="d" class="g" transform="translate(48 422) rotate(-90)"><g class="g"><path class="e" d="M33.87,21.88h.04V10.02h1.42v14h-1.78l-8.34-11.98h-.04v11.98h-1.42V10.02h1.78l8.34,11.86Z"/></g></g><polyline class="h" points="24.9 43.74 30 38.63 35.1 43.74"/></g></g></g></g></svg>