<svg xmlns="http://www.w3.org/2000/svg" viewBox="0 0 208.04 201.96"><defs><style>.cls-1{fill:#fff;}</style></defs><g id="Capa_2" data-name="Capa 2"><g id="vias"><path class="cls-1" d="M108.74,147.87a2.18,2.18,0,0,0-1.62.46,2.57,2.57,0,0,0-1,1.7c-.13,1.05-8.2,50.5-8.28,51l1,.16c.33-2,8.15-50,8.28-51a1.54,1.54,0,0,1,.64-1,1.26,1.26,0,0,1,.85-.29c.46.08,1.3.22,1,2-.33,2-8.53,49.67-8.61,50.15l1,.17c.09-.48,8.29-48.17,8.62-50.15C110.94,148.73,109.78,148,108.74,147.87Z"/><path class="cls-1" d="M124.51,65.71c.11-.85.24-1.7.38-2.54,2-1.76,21.1-18.64,22.19-19.66l.44-.44A10.25,10.25,0,0,1,154,39.75c4.14-.58,28.3-3.08,32.21-2.87s14.49,1.18,14.6,1.19l.09-1c-.1,0-10.69-1-14.64-1.19s-27.79,2.23-32.4,2.88a11.33,11.33,0,0,0-7.08,3.6l-.42.42c-1,.91-16.91,15-21.22,18.81.22-1.15.46-2.24.74-3.18.65-2.18,2.29-8.87,2.51-10.4s2.1-15.2,2.32-18c.18-2.26,1.63-11.48,2.24-15.42.13-.82.22-1.39.25-1.6.17-1.18,2.29-11.34,2.31-11.44l-1-.2c-.09.42-2.14,10.29-2.32,11.49,0,.21-.12.78-.25,1.6-.61,3.95-2.06,13.19-2.25,15.49-.22,2.76-2.09,16.4-2.31,17.91S125.58,56,125,58.12a40.81,40.81,0,0,0-1,4.51,2.69,2.69,0,0,1-1.63.48,1.41,1.41,0,0,1-1.13-1c.29-3.46,1.12-14.83,1.15-15.63s3.12-17.11,5.18-27.91a3.54,3.54,0,0,0-.15-1.78l-.94.36a2.32,2.32,0,0,1,.11,1.22c-.53,2.78-5.17,27.19-5.2,28.07s-1.13,15.83-1.23,16.45l-.63,3.1-12.63-.73a16.44,16.44,0,0,0-.07-4.6,3.75,3.75,0,0,0-1.58-1.64c-.7-.5-1.42-1-1.54-1.69a20.36,20.36,0,0,1,1-6.95,10.47,10.47,0,0,1,1-.86c1.94-1.53,3.83-3.14,4.25-4.6,4,.44,8.13.91,8.65.93,1.09,0,2-.38,2.14-1a2.46,2.46,0,0,1,.2-.43,4.45,4.45,0,0,0,.51-1.34c.1-.66.6-4.39.6-4.39l-1-.14s-.5,3.73-.6,4.39a3.83,3.83,0,0,1-.41,1,2.72,2.72,0,0,0-.28.63,1.55,1.55,0,0,1-1.14.29c-.88,0-15-1.66-15.79-1.76s-5.17-.9-5.3-.91a9.64,9.64,0,0,0-2,0c-.85.18-1.08.28-1.23.42a1.07,1.07,0,0,0-.42.88.9.9,0,0,0,.44.65l-1.5-.59a5,5,0,0,0-1-.12,12.08,12.08,0,0,1-1.5-.18,56.22,56.22,0,0,0-6-1.08,1.48,1.48,0,0,0-.76.34c-.06,0-.16.12-.14.13-.23,0-3.12.21-3.53.33s-.65.63-.76,1l-.06.24h0L86.47.17l-1-.17L79.13,37.82c-.26,0-.58-.12-.85-.2A1.87,1.87,0,0,1,78,37c-.11-.37-.24-.82-.7-.87-.3,0-7.57-1.29-10.88-1.86v0l-28.8-3.76-1.17,6.57L32.4,61,.06,59.14l-.06,1,74.68,4.31c-.35,2.5-1.8,12.93-1.92,13.56-.06.34-.1,1.08-.15,1.93a21.92,21.92,0,0,1-.23,2.46.52.52,0,0,1-.91.26c-2.66-1.78-5-2.5-7-2.15-2.82.51-17.31,5.07-17.92,5.26l.3,1c.15,0,15-4.74,17.79-5.24,1.7-.3,3.8.37,6.31,2a1.51,1.51,0,0,0,1.34.24,1.68,1.68,0,0,0,1-1A15,15,0,0,0,73.6,80c.05-.75.1-1.53.15-1.81,0-.09.06-.39.12-.84,1.72.7,5.86,2.38,6.22,2.5l.3-1c-.28-.08-3.8-1.51-6.37-2.56.48-3.32,1.41-10,1.66-11.82l34.08,2c0,1.74-.05,5.56.42,6.41.34.62,1.2.89,2.58.8a.34.34,0,0,1,.36.31l.11,1.3a6,6,0,0,1,.1.94,8.52,8.52,0,0,1-.43,2.06L92.08,77,88.83,95.85l22.25,1.67a1.15,1.15,0,0,1,.92.58l1.11,1.93c-.08.46-.17.92-.25,1.38v0h0L108,129.06l-42.56-12.7-.15,0,.36-11.1-1,0L64.29,116,14.75,101.24l-.28,1L64.11,117l-3.32,8.82-9.36-3-3.16,9.72-34-9.94-.28,1,34,9.94h0l12.25,3.57h0l.74.22.28-1-.72-.21,5.9-18.42,41.41,12.35c-1.54,8.73-2.78,16-2.81,16.2h0l-4.1,24.05-21-5.89,1.81-7.18-1-.25-3.17,12.5-13.94-4.4,3.58-11.91-1-.29-3.58,11.89-16.9-5.34,4-12.18-1-.32-4,12.2-9.8-3.1-.31.95,9.8,3.1-2.61,8-9-4.32-.44.9,41,19.81-14.83,16,.73.68,15.11-16.3c16.58,2.6,21.65,3.33,23.28,3.44L95.67,201l1,.17L106.07,146c.65-3.71,4.85-27.74,7.77-44.37l0-.08a3.64,3.64,0,0,1,.74-1.72,2.41,2.41,0,0,1,2.41-.63,2.45,2.45,0,0,1,1.63,1.73,4.48,4.48,0,0,1,0,1.59l0,.2L102.92,202l19.2-9.59,6.07-20.29-1-.29L125,179.24l-17-3,2.64-16.73a5.28,5.28,0,0,1,1,.87,4.11,4.11,0,0,0,.6.59,3.64,3.64,0,0,0,.7.38,1.78,1.78,0,0,1,.89.63c.14.23,0,.74-.11,1.15a3.28,3.28,0,0,0-.16,1,2,2,0,0,0,.1.58c-.38.15-1,.36-1.63.53l.28,1,.84-.25.25.56s1-.45,1.34-.58a2.94,2.94,0,0,1,.78-.23l.16.12a4.11,4.11,0,0,0,2.27.94l.11-1a3,3,0,0,1-1.77-.73l-.05,0a1.39,1.39,0,0,0,.12-.91.89.89,0,0,0-.76-.55c-.07,0-.16,0-.15,0-.17-.29-.09-.4,0-.46a2.5,2.5,0,0,0,.16-.24c.11-.16.14-.19.45-.18a5.71,5.71,0,0,0,1,.27c.42,0,1.7.36,2.55.57.51.13.93.23,1.07.25l.15,0a13,13,0,0,0,2.32.26,6.49,6.49,0,0,0,.77-.05,10.13,10.13,0,0,0,2.78-1.07c.23-.11.44-.22.63-.3.44-.2.92-.44,1.27-.62l.43-.22-.23-1a3.34,3.34,0,0,0-.65.3c-.34.17-.8.4-1.24.6l-.65.32a10,10,0,0,1-2.49,1,10.25,10.25,0,0,1-2.76-.2l-.16,0c-.13,0-.52-.12-1-.24-1.2-.3-2.24-.55-2.69-.6a21.34,21.34,0,0,1-3.11-1.08,4.32,4.32,0,0,0-.7-.37,2.76,2.76,0,0,1-.52-.28,3.75,3.75,0,0,1-.45-.45,4.85,4.85,0,0,0-1.53-1.23L113.88,139c3.62.41,10.4,1.19,14.85,1.73a1,1,0,0,0-.67.29.8.8,0,0,0-.18.69,3.42,3.42,0,0,1-.51,1.68,1.7,1.7,0,0,1-.53.43c-.16.11-.35.23-.59.42-.44.34-.58.57-.57.93a1.06,1.06,0,0,1-.21.28,3.35,3.35,0,0,0-.38.47,1.55,1.55,0,0,0-.25.84,7.58,7.58,0,0,1-.86.78l.64.77a8.19,8.19,0,0,0,1-1,1.05,1.05,0,0,0,.2-.62.4.4,0,0,1,.08-.26,2.37,2.37,0,0,1,.29-.36,2.07,2.07,0,0,0,.38-.54,1.23,1.23,0,0,0,.09-.39,1.63,1.63,0,0,1,.18-.17,5.28,5.28,0,0,1,.52-.35,2.86,2.86,0,0,0,.77-.65,4.27,4.27,0,0,0,.73-2.31,4.1,4.1,0,0,1,.51,0,18.06,18.06,0,0,1,4,.75,14.72,14.72,0,0,0,3.57,1.5l.1-1a14.22,14.22,0,0,1-3.13-1.35,4.92,4.92,0,0,0-1.3-.42l.4.06c.87.19,9.78-.24,12.79-.4-3.37,11.27-11.72,38.42-16.59,54.22l1,.3c.61-2,12.52-40.59,16.68-54.54l.73,0c-3.37,11.28-11.71,38.42-16.58,54.21l1,.3c.61-2,12.48-40.45,16.66-54.46l22.45.95v7.64h6v-1.09h6.5v-6h.19l17,5.13.29-1-17.09-5.14-.42,0v0L171,140.91h0l-10.11-.43a5.68,5.68,0,0,0,.33-2.71c-.1-.39-.57-1.74-1.17-3.45-.9-2.58-2.4-6.88-2.42-7.43l0-.19a2.83,2.83,0,0,1,1.13-2.52c.86-.51,1.21-.38,2.38.07.29.11.62.24,1,.37,1.47.5,7.49,2.31,9.25,2.11a49.18,49.18,0,0,1,7.92.5c.27.27.11,2.06-.33,3.75l1,.25c.15-.56.85-3.45.23-4.49a1,1,0,0,0-.59-.46,46.42,46.42,0,0,0-8.32-.54c-1.28.16-6.5-1.27-8.8-2.06l-1-.36c-1.22-.48-2-.76-3.24,0a3.79,3.79,0,0,0-1.62,3.3v.18c0,.53.73,2.85,2.47,7.84.56,1.62,1,3,1.14,3.36a5.41,5.41,0,0,1-.4,2.42l-11-.47c.69-2.3,1.11-3.77,1.15-4,.14-.93-3.09-11.81-6.59-23.17a7.2,7.2,0,0,1,2.82-1c1.43.08,39.84,9,54.51,12.46l.23-1c-5.45-1.28-53.3-12.49-54.73-12.49a7.61,7.61,0,0,0-3.13,1c-3.9-12.62-8-25.51-8.1-25.73-.56-1.42-7.7-15.56-9.55-19.22l2.87.42c.3,1.42,1.41,6.3,2.49,7.55a21.55,21.55,0,0,0,3,2.48,13.4,13.4,0,0,1,2,1.59c.09.15.26.39.46.69.65,1,2,3,2.13,3.82a7.33,7.33,0,0,1-.12,1.72c-.17,1.2-.34,2.44.21,3.2a2.08,2.08,0,0,0,1.87,1,10.84,10.84,0,0,0,1.25-.12l-.06-.49-.16-.49c-1.34.17-1.58.18-2.09-.51a4.55,4.55,0,0,1,0-2.47,7.91,7.91,0,0,0,.12-2c-.14-1-1.21-2.65-2.29-4.24-.19-.28-.35-.51-.44-.66a10.38,10.38,0,0,0-2.23-1.87c-.39-.28-.79-.58-1.18-.88,1.3-.14,3.3-.36,4.14-.36a5.13,5.13,0,0,1,1.13.16,3.8,3.8,0,0,0,2.71-.2l.66-.32c1.17-.56,3-1.42,3.55-1.31.89.16,45,6.46,46.9,6.72l.14-1c-.46-.06-46-6.56-46.86-6.71s-2.27.48-4.16,1.39l-.65.31a2.77,2.77,0,0,1-2.08.13,6.39,6.39,0,0,0-1.34-.18c-1.18,0-4.35.38-5.22.49a5.45,5.45,0,0,1-.59-.58c-.77-.89-1.74-4.68-2.19-6.74L207.9,78.89l.14-1ZM33.4,61.06l.65-3.79c.53-.17,1.66-.53,2.45-.87.45-.2,1.09-.58,1.77-1a13.38,13.38,0,0,1,2.34-1.22l.26-.07a17.08,17.08,0,0,0,4.66-1.79,46.43,46.43,0,0,1,6-3.21c.09,0,.33.21.88,1.1l0,.07s0,.06,0,.09a2.93,2.93,0,0,0,0,1.67c.19.71.48,1.72.75,2.65.17.59.33,1.15.45,1.59A10.12,10.12,0,0,1,54,58.76v.32c0,.72.28,2.31.43,3.19Zm22.07,1.27c-.14-.79-.43-2.57-.46-3.3l0-.31A10.14,10.14,0,0,0,54.63,56c-.12-.44-.28-1-.45-1.6-.27-.92-.56-1.92-.75-2.63a2,2,0,0,1,0-1.16,1,1,0,0,0-.06-.81l-.09-.13c-.47-.76-1-1.56-1.71-1.56s-5.63,2.7-6.61,3.38a16.66,16.66,0,0,1-4.35,1.64l-.26.07a13.32,13.32,0,0,0-2.59,1.33,18.92,18.92,0,0,1-1.66.92c-.55.24-1.3.5-1.86.68l3.23-18.91,1-5.62,26.9,3.5c-.24,2.39-.61,5.71-.74,6.24-.19.76-3.15,18.44-3.62,21.28Zm19.36,1.12L62,62.71c1-6.08,3.43-20.47,3.59-21.1s.6-4.79.76-6.33c2.16.38,9.31,1.61,10.66,1.83l.06.19c.13.44.32,1.11.94,1.28a9.37,9.37,0,0,0,1,.22Zm31,1.79-30-1.73,2.47-14.7c1-.94,1.43-2.92,1.65-3.91,0-.14,0-.26.07-.33l.07-.26a1,1,0,0,0,.06-.33c.31-.08,3-.29,3.26-.29a1.26,1.26,0,0,0,.73-.32l.23-.16c.46,0,5.13.86,5.55,1a8.24,8.24,0,0,0,1.79.24c.3,0,.72.06.8.08s1.79.7,2.75,1.1l.6.24.28-2.07-.44-.1a3,3,0,0,1-.71-.31,7.16,7.16,0,0,1,.8-.2h1.62c.19,0,4.57.83,5.28.92l6.23.71c-.49,1.26-2.65,3-3.87,3.93-.44.35-.74.59-1,.78a35.16,35.16,0,0,0-4.56-1.08l-.07,1a32.24,32.24,0,0,1,4.09,1,21.55,21.55,0,0,0-.87,7.11,3.87,3.87,0,0,0,1.94,2.33c.56.4,1.08.77,1.21,1.15A16.36,16.36,0,0,1,105.86,65.24Zm-46.31,70.6-3.86-1.13-6.46-1.88,2.84-8.76,9.32,3,3.68-9.78.38.11ZM42.86,168.5l2.66-8.12,16.92,5.35-3.21,10.68Zm31.19,15.08-13.91-6.73L63.39,166l14,4.42Zm24,3.75c-.8-.08-3.3-.44-6.57-.92L92.79,177l-1-.14-1.35,9.38c-4.69-.7-10.65-1.62-15.44-2.37l4.68-18.51,21,5.92Zm26.71-7.12-3.43,11.46-17.08,8.53,3.64-23Zm-10.18-16.29,0,.05a1.09,1.09,0,0,0,.77.47,1.36,1.36,0,0,1-.09.23,2.25,2.25,0,0,0-.51.13,1,1,0,0,0-.09-.33,1,1,0,0,1-.11-.45S114.54,164,114.54,163.92ZM172,142l10.48.44v5.07H176v1.09h-4ZM112.69,72.68c-1.13.08-1.56-.14-1.64-.28a27.24,27.24,0,0,1-.29-5.88l8.53.5-2.47,12.26-.72-.59a1,1,0,0,0-.6-.24l-1.58-.1a8,8,0,0,0,.41-2.18,7,7,0,0,0-.11-1h0l-.11-1.21A1.31,1.31,0,0,0,112.69,72.68Zm.69,25.81-.51-.89a2.17,2.17,0,0,0-1.72-1.08L90,94.94l2.91-16.88,22.55,1.4,1.13.93c-.44,2.24-.76,3.87-.79,4.15S114.76,90.62,113.38,98.49Zm3.93-.26a3.48,3.48,0,0,0-3,.5c1.39-7.92,2.41-13.74,2.45-14.06.11-.84,3-15.4,4.21-21.09a2,2,0,0,0,1.25.53h.2a3.57,3.57,0,0,0,1.3-.26c-.32,2.12-.56,4.27-.74,6-.12,1.17-3.16,24.47-3.92,29.72A3.39,3.39,0,0,0,117.31,98.23Zm4-7.26,9.08,1.63L129,101.91l-9-1.48,0-.22C120.22,98.84,120.71,95.23,121.28,91Zm-1.68,11.87h0l.23-1.42,9,1.48-1.45,9.58-9-1.49ZM118.16,112l9,1.49L126,121.33,116.9,120Zm7.56-42.39c2.68,5.29,7.93,15.69,8.39,16.86,1,2.7,15,47.35,14.93,49.34,0,.24-.47,1.74-1.18,4.14l-.73,0c.67-2.26,1.08-3.7,1.12-4,.31-2-14.83-49.45-15-49.87-.56-1.43-6.07-12.35-7.49-15.17A4,4,0,0,1,125.72,69.59Zm6.6,16.86c1.06,2.7,15,47.35,14.94,49.34,0,.24-.47,1.72-1.17,4.1-4.78.24-12.22.57-12.88.43-.88-.18-16.11-1.93-19.17-2.28l2.7-17.1,24.65,3.7-.45-1.11-13.93-2,1.18-7.85,9,1.49.16-1-9-1.49,1.45-9.58,5.43.86-.22-1-5.06-.85,1.85-12.28-1-.15-.3,2L121.41,90c1.14-8.56,2.53-19.21,2.61-20,.09-.93.21-2,.34-3.07l.75,1.47a6.7,6.7,0,0,0-.39,2.68C126.08,73.75,131.78,85.06,132.32,86.45Z"/><path class="cls-1" d="M185,172.82h-.09l-.48.08V160.78l-.43-.06a34.43,34.43,0,0,1-4.15-.72,23.89,23.89,0,0,0-3.33-1.49c-.53-.09-8.44,0-10.42,0l-1.76-1.19-4-.44.18-13a1.75,1.75,0,0,0,.33,0,1.61,1.61,0,0,0,.37,0,1.72,1.72,0,0,0,.62-.28.38.38,0,0,1,.2-.08c.44-.06,5.11.1,7.95.2l0-1c-1.79-.06-7.65-.28-8.16-.18a1.35,1.35,0,0,0-.62.25.64.64,0,0,1-.28.11.73.73,0,0,1-.44,0v-.15l-9.1-1a1.63,1.63,0,0,0-1.78,1.31c-.61,3.08-2.61,13.2-2.72,13.92a1.84,1.84,0,0,0,.09.9l-.72,2a10.68,10.68,0,0,0-.56,4.45l1.21,14,.49,0c.11,0,10.87-.68,12.23-.62h0c1.74,0,22.44-3.36,25.24-3.82l14.19,2.72,6.18,2.7.4-.92-6.23-2.72Zm-25.78,3.82c-2.22,0-9.37.47-11.34.6l-1.12-13a9.52,9.52,0,0,1,.51-4l.48-1.38a1,1,0,0,0,.57.23c.3,0,6.58.6,11,1Zm.11-17.6c-3.08-.29-10.61-1-10.91-1h0a1.06,1.06,0,0,1-.48-1c.08-.56,1.46-7.54,2.71-13.89a.62.62,0,0,1,.69-.5l8.21.91Zm24.1,14c-8.75,1.42-20.59,3.26-23.21,3.54l.1-17h0l0-1.72,3.63.39,1.82,1.23H166c3.78,0,9.93-.06,10.39,0a25.06,25.06,0,0,1,3,1.38,25.7,25.7,0,0,0,4,.77Z"/><path class="cls-1" d="M84.35,37.89l-.21,1a3.18,3.18,0,0,0,.65.07,2.2,2.2,0,0,0,.5-.06c.83,2.4,1.07,2.5,1.28,2.57l.24-.62.26-.21a17.23,17.23,0,0,1-1-2.44c.32-.93.92-3.8,1.78-8.57l-1-.18c-.68,3.77-1.53,8-1.73,8.44A1.4,1.4,0,0,1,84.35,37.89Z"/></g></g></svg>