<?xml version="1.0" encoding="UTF-8"?><svg xmlns="http://www.w3.org/2000/svg" viewBox="0 0 60 160"><defs><style>.d{fill:#222431;}.e{fill:none;}</style></defs><g id="a"/><g id="b"><g id="c"><g><rect class="e" width="60" height="160"/><g><path class="d" d="M30,50.3C13.76,50.3,.55,63.51,.55,79.75s13.21,29.45,29.45,29.45,29.45-13.21,29.45-29.45-13.21-29.45-29.45-29.45Zm0,57.91c-15.69,0-28.45-12.76-28.45-28.45s12.76-28.45,28.45-28.45,28.45,12.76,28.45,28.45-12.76,28.45-28.45,28.45Z"/><polygon class="d" points="19.77 74.3 14.32 79.75 19.77 85.2 20.48 84.5 15.73 79.75 20.48 75 19.77 74.3"/><polygon class="d" points="39.52 75 44.27 79.75 39.52 84.5 40.23 85.2 45.68 79.75 40.23 74.3 39.52 75"/><polygon class="d" points="30.5 71.53 29.5 71.53 29.5 79.25 21.78 79.25 21.78 80.25 29.5 80.25 29.5 87.97 30.5 87.97 30.5 80.25 38.22 80.25 38.22 79.25 30.5 79.25 30.5 71.53"/><polygon class="d" points="30 65.48 34.75 70.23 35.46 69.52 30 64.07 24.55 69.52 25.25 70.23 30 65.48"/><polygon class="d" points="30 94.02 25.25 89.27 24.55 89.98 30 95.43 35.46 89.98 34.75 89.27 30 94.02"/><path class="d" d="M30,31.57c7.69,0,13.93-6.24,13.93-13.93S37.69,3.71,30,3.71s-13.93,6.24-13.93,13.93,6.24,13.93,13.93,13.93Zm-6.25-21.55h1.78l8.34,11.86h.04V10.02h1.42v14h-1.78l-8.34-11.98h-.04v11.98h-1.42V10.02Z"/><polygon class="d" points="24.55 43.38 25.25 44.09 30 39.34 34.75 44.09 35.46 43.38 30 37.93 24.55 43.38"/></g></g></g></g></svg>