<svg fill="none" height="54" width="101" xmlns="http://www.w3.org/2000/svg" xmlns:xlink="http://www.w3.org/1999/xlink"><mask id="a" height="13" maskUnits="userSpaceOnUse" width="9" x="92" y="41"><path d="m92.27 41.676h8.39v12.324h-8.39z" fill="#fff"/></mask><g clip-rule="evenodd" fill="#2a3341" fill-rule="evenodd"><path d="m51.162 2.011c-.417.808-.94 1.558-1.597 2.147-.674.616-1.53 1.028-2.414 1.023-.85-.018-1.72-.003-2.532-.315.162.298.315.602.467.906h12.152c.152-.305.304-.611.469-.91-.749.358-1.58.361-2.381.337-.56-.015-1.129-.099-1.638-.367-1.125-.557-1.957-1.642-2.526-2.82zm0-2.011c.596 1.465 1.412 2.903 2.665 3.781.578.43 1.286.611 1.979.58 1.464-.062 2.872-.788 3.923-1.904-.608 1.325-1.201 2.657-1.805 3.983h-13.524c-.603-1.326-1.195-2.66-1.805-3.983 1.123 1.194 2.66 1.943 4.232 1.905.828-.015 1.608-.441 2.228-1.024.938-.9 1.608-2.092 2.109-3.338zm-6.764 6.936h13.527l-.27.493c-4.327.001-8.655 0-12.984.002zm4.736 2.937v2.109h-3.931v-2.034c-1.308 0-2.616.001-3.924-.002.002 3.119-.004 6.237.005 9.356.048 2.776 1.21 5.42 2.877 7.476 1.908 2.317 4.317 4.16 7 5.24 2.26-.925 4.305-2.416 6.047-4.23 1.754-1.832 3.18-4.147 3.652-6.78.246-1.226.17-2.488.182-3.733v-7.327l-3.856-.002c0 .68-.002 1.358-.001 2.036h-3.997v-2.109zm-8.794-.956h5.79c0 .73-.002 1.46 0 2.19h2.136v-2.19h5.79c0 .73-.002 1.46.001 2.191l2.136-.001v-2.19h5.79v7.915c-.016 1.502.077 3.025-.245 4.5-.588 3.02-2.303 5.642-4.39 7.668-1.828 1.758-3.925 3.196-6.187 4.192-2.265-.998-4.366-2.436-6.196-4.199-1.913-1.86-3.508-4.205-4.212-6.921a12.789 12.789 0 0 1 -.412-3.215c-.002-3.313-.001-6.627-.001-9.94z"/><path d="m50.108 11.096c.002.58-.002 1.16 0 1.738h-6.336c0-.555-.003-1.11-.002-1.664h-1.431c-.002 2.632 0 5.263-.002 7.895 0 .9.12 1.801.364 2.663.683 2.433 2.264 4.467 4.108 6.021a17.573 17.573 0 0 0 4.352 2.71c2.083-.915 4.025-2.224 5.627-3.92 1.847-1.903 3.172-4.518 3.193-7.302.007-2.713.002-5.427.003-8.14h-1.376c0 .579-.002 1.158-.001 1.737h-6.324c-.002-.58 0-1.16 0-1.74-.725.002-1.45.002-2.175.002zm-.582-.692h3.34v1.874h5.047v-1.874h2.716v8.207c.02.938-.063 1.878-.283 2.787-.6 2.585-2.17 4.796-4.051 6.494-1.536 1.38-3.27 2.517-5.135 3.32-2.622-1.152-5.04-2.897-6.897-5.198-1.49-1.866-2.505-4.234-2.564-6.709-.012-2.941-.002-5.883-.005-8.825h2.716v1.798h5.117v-1.874z"/><path d="m47.555 16.141a13.882 13.882 0 0 1 0-.288h4.848l.001.288c-.34.099-.699.175-.995.398-.253.2-.301.576-.306.896-.002 2.226 0 4.454 0 6.681-.007.336.086.73.384.881.371.183.788.183 1.186.195.582.001 1.212-.088 1.677-.514.435-.405.737-.954 1.019-1.495h.302l-.3 2.578h-7.815c-.002-.098-.002-.195-.002-.292.365-.111.771-.184 1.06-.48.214-.29.215-.69.231-1.047.003-2.14.002-4.282 0-6.423-.006-.34-.042-.737-.296-.967-.29-.238-.653-.315-.994-.41zm-11.721 11.317c.074-1.07 1.155-1.877 2.134-1.662.435.073.787.374 1.122.655-.329-.032-.679-.063-.987.092-.467.193-.753.794-.587 1.304a.8.8 0 0 0 .496.498c.353.133.735.077 1.102.077.975-.026 1.965.027 2.904.328.686.216 1.326.571 1.93.974a7.197 7.197 0 0 0 -2.51-.463c-.944-.016-1.873.18-2.808.276-.584.043-1.209.046-1.733-.266-.617-.35-1.112-1.046-1.063-1.813zm26.494-1.01c.347-.283.71-.59 1.158-.658.996-.201 2.085.66 2.105 1.75-.002.985-.813 1.8-1.695 1.968-.799.13-1.601-.037-2.394-.139-1.345-.2-2.743-.145-4.028.355.686-.46 1.42-.852 2.211-1.056 1.002-.274 2.043-.267 3.07-.237.373.013.813-.043 1.052-.387.325-.486.075-1.214-.412-1.462-.326-.19-.71-.167-1.067-.134"/><path d="m31.808 30.062c-.295 1.103.228 2.368 1.104 2.893.71.409 1.551.479 2.315.25.98-.318 1.838-.972 2.748-1.478-.887.316-1.792.572-2.713.71a2.764 2.764 0 0 1 -2.389-.82c-.486-.505-.637-1.386-.34-2.06.136-.37.423-.618.686-.866-.631.145-1.232.636-1.412 1.371zm.93-2.234c.663-.208 1.45-.039 1.925.562.237.317.232.765.166 1.153-.222-.233-.478-.54-.81-.457-.651.139-.91 1.208-.451 1.74.462.533 1.149.686 1.781.673.722.008 1.41-.27 2.088-.527 1.257-.498 2.516-1.124 3.869-1.135 1.56-.075 3.252.238 4.444 1.488-1.431-.726-3.083-.937-4.593-.42-1.182.379-2.168 1.252-3.243 1.895-1.137.708-2.364 1.327-3.676 1.38-1.06.053-2.193-.416-2.828-1.43-.75-1.14-.713-2.855.078-3.956.33-.441.75-.821 1.25-.966zm35.457.863c.283.26.585.533.716.939.266.678.092 1.537-.397 2.021a2.805 2.805 0 0 1 -1.08.672 2.756 2.756 0 0 1 -1.259.12 13.928 13.928 0 0 1 -2.732-.718c.76.42 1.473.95 2.264 1.297.88.407 1.92.443 2.78-.055.953-.553 1.498-2.004 1.037-3.15-.232-.619-.776-.988-1.33-1.126zm-1.46-.264c.5-.69 1.396-.83 2.106-.545.984.438 1.679 1.6 1.707 2.81.042 1.03-.376 2.067-1.08 2.704-.575.516-1.307.761-2.03.785-.864.033-1.714-.23-2.51-.595-1.239-.57-2.351-1.424-3.516-2.155-1.764-1.07-3.944-1.047-5.741-.098 1.176-1.245 2.852-1.564 4.396-1.497 1.313-.001 2.545.582 3.763 1.076.731.283 1.477.6 2.26.59.63.012 1.316-.151 1.77-.691.459-.546.165-1.637-.505-1.732-.32-.051-.552.245-.766.465-.052-.374-.09-.81.146-1.117"/><path d="m41.443 31.07c1.147-.475 2.397-.405 3.58-.179 1.21.246 2.39.733 3.433 1.499-1.592-.74-3.358-.87-5.042-.595-.581.135-1.23.237-1.676.736-.305.331-.154.972.214 1.147.452.225.955.16 1.432.14-.529.578-1.254.925-1.981.851-.517-.052-1.063-.305-1.348-.842a1.418 1.418 0 0 1 -.118-1.04c.196-.837.826-1.442 1.506-1.716zm11.973 1.313c1.463-1.067 3.182-1.604 4.898-1.666.895-.017 1.828.1 2.62.628.54.366 1 1 1.046 1.753.044.589-.326 1.104-.76 1.339-.905.507-2.024.178-2.73-.618.497.017 1.035.095 1.496-.181.34-.22.43-.835.123-1.138-.444-.467-1.068-.571-1.632-.704-1.69-.28-3.462-.148-5.06.587zm7.942 5.044c1.106-.345 2.295-.37 3.401-.019.476.131.926.389 1.42.428.299.016.555-.183.776-.387h.314l.001 3.175-.326.002c-.458-1.307-1.472-2.361-2.688-2.698-.834-.227-1.768-.171-2.508.355-.667.472-1.105 1.262-1.362 2.086-.357 1.166-.422 2.42-.373 3.645.061 1.204.31 2.485 1.068 3.387.616.75 1.555 1.042 2.438.996.444-.022.958-.105 1.252-.527.265-.404.155-.935.179-1.401-.028-.55.085-1.142-.141-1.656-.18-.402-.573-.587-.943-.682 0-.11 0-.217.002-.324h4.428v.325c-.3.11-.625.244-.806.557-.19.336-.216.748-.22 1.136 0 .805 0 1.61-.002 2.414-1.3.646-2.74.81-4.148.807-1.196-.003-2.412-.335-3.415-1.09-1.227-.912-2.05-2.469-2.2-4.116-.113-1.264.083-2.586.667-3.682.706-1.32 1.87-2.317 3.186-2.73zm-49.602.308c.618-.281 1.424.175 1.512.96.12.72-.43 1.431-1.056 1.43-.598.055-1.192-.53-1.182-1.235-.015-.518.314-.984.726-1.155zm27.507 0c.617-.28 1.42.173 1.51.955.122.72-.427 1.437-1.054 1.435-.6.057-1.195-.532-1.183-1.238-.013-.517.315-.983.727-1.152zm9.645.112c.963-.062 1.924-.169 2.888-.195.002 1.984-.003 3.967.004 5.95.394-.684.91-1.356 1.636-1.58.777-.232 1.698-.148 2.321.475.482.47.706 1.2.713 1.905.004 1.027 0 2.054.002 3.08.003.3.037.634.233.86.204.233.498.309.77.393a8.009 8.009 0 0 0 0 .31h-3.919v-.31c.409-.12.902-.349.96-.892.076-.782.014-1.575.034-2.36-.019-.66.085-1.39-.244-1.979-.263-.466-.82-.557-1.263-.435-.532.142-.904.63-1.245 1.076-.003 1.112-.001 2.224-.002 3.337.002.3.035.637.236.858.211.226.502.304.774.393v.313h-3.898l-.001-.31c.266-.094.557-.18.749-.425.19-.251.217-.6.219-.916 0-2.607 0-5.216.002-7.823-.003-.328.017-.696-.177-.966-.2-.263-.513-.349-.793-.449v-.31zm-48.699-.195h5.384l.001.334c-.37.105-.755.198-1.081.438-.283.212-.355.631-.36.993 0 2.623-.004 5.246.002 7.868-.014.454.25.903.651.98.737.178 1.523.19 2.253-.041.889-.298 1.39-1.283 1.832-2.144h.334l-.332 2.966h-8.684l-.001-.337c.399-.122.834-.21 1.156-.527.25-.312.258-.772.275-1.172v-7.513c-.007-.383-.066-.828-.357-1.066-.318-.252-.705-.342-1.074-.445l.001-.334zm14.428 4.234c1.001-.083 1.999-.226 3-.271.004.556-.001 1.111.004 1.667.339-.592.776-1.148 1.366-1.43.822-.398 1.87-.309 2.548.384.437.42.663 1.064.67 1.702.009 1.032 0 2.065.004 3.098.008.283.035.597.217.815.203.227.492.306.759.398l-.001.301h-3.844c0-.075 0-.225-.002-.3.41-.1.904-.321.96-.855.061-.765.01-1.536.027-2.305-.017-.623.084-1.311-.235-1.865-.23-.423-.705-.585-1.125-.508-.594.073-1.073.575-1.338 1.148-.02.998 0 1.996-.01 2.994.008.322.003.682.19.948.188.243.475.335.734.44v.303h-3.767l-.008-.304c.267-.09.554-.172.757-.4.188-.212.219-.526.218-.81v-3.625c0-.309-.04-.656-.258-.873-.24-.233-.566-.284-.866-.35zm33.656-.27h.26c.05.835.1 1.67.152 2.505h-.298c-.323-.698-.74-1.391-1.372-1.786-.734-.458-1.748-.398-2.375.25-.518.528-.737 1.316-.783 2.074-.053.85.032 1.763.48 2.484.621 1.057 1.95 1.243 2.954.837.503-.221.889-.662 1.242-1.099.088 0 .265.004.354.005-.412.925-1.165 1.662-2.069 1.94-.96.296-2.008.302-2.96-.035-.937-.342-1.76-1.156-2.043-2.22-.265-1.013-.17-2.165.358-3.058.579-.98 1.553-1.647 2.597-1.826.937-.183 1.879.025 2.81.144.25.05.488-.07.693-.216zm-38.164.27c1.009-.084 2.015-.225 3.027-.271 0 1.837-.002 3.674 0 5.512-.002.296.081.606.29.804.2.204.475.265.735.32l.005.3h-3.973v-.303c.284-.082.598-.137.824-.366.192-.222.214-.552.223-.845 0-1.207-.002-2.415 0-3.622-.004-.313-.031-.677-.265-.888-.253-.204-.57-.263-.867-.338v-.303zm15.67.583c-.41.48-.534 1.175-.572 1.825h2.719c-.052-.726-.253-1.513-.785-1.96a.962.962 0 0 0 -1.362.135zm.147-.78c.99-.193 2.086-.025 2.893.709.637.55 1.017 1.42 1.126 2.32-1.58.007-3.16.001-4.739.003-.024.733.057 1.496.386 2.137.293.583.769 1.068 1.347 1.22.757.196 1.582-.073 2.152-.677.224-.217.387-.502.585-.745l.272-.019c-.428 1.171-1.381 2.028-2.449 2.296-.835.205-1.738.143-2.516-.283a3.492 3.492 0 0 1 -1.118-1.01 3.585 3.585 0 0 1 -.598-1.398c-.173-.913-.08-1.913.337-2.723.497-.959 1.367-1.646 2.322-1.83zm11.444.201c1.075-.072 2.146-.232 3.223-.275.002 1.897 0 3.795 0 5.693-.005.323.102.664.346.863.21.183.477.235.733.294v.308h-4.202c-.001-.105-.002-.21-.001-.313.32-.089.69-.146.92-.43.213-.315.192-.73.196-1.1-.004-1.183.003-2.368-.003-3.553-.003-.354-.1-.776-.435-.924-.307-.133-.665-.316-.987-.134-.505.22-.803.75-1.053 1.242-.853 1.824-1.687 3.658-2.534 5.485h-.378c-.837-1.788-1.673-3.575-2.512-5.362-.209-.418-.429-.85-.773-1.158-.244-.215-.56-.288-.865-.323l.001-.31h4.154v.303c-.2.078-.438.134-.555.348-.14.248-.06.555.056.793l1.523 3.18c.414-.88.829-1.76 1.24-2.641.164-.38.33-.836.166-1.247-.135-.31-.473-.382-.753-.43v-.306c.83-.003 1.662.004 2.492-.003zm31.357-.004c1.02-.084 2.037-.225 3.06-.271 0 .723-.004 1.446 0 2.17.36-.785.776-1.638 1.53-2.026.582-.302 1.3-.101 1.723.42-.138.674-.282 1.35-.418 2.026-.466-.436-1.008-.967-1.666-.846-.456.056-.805.424-1.079.801-.16.177-.07.446-.09.667.023.883-.05 1.773.04 2.65.06.555.628.674 1.033.77-.002.1-.003.2-.002.303h-4.03a34.002 34.002 0 0 1 -.001-.302c.295-.097.623-.17.848-.423.193-.237.205-.579.21-.882v-3.44c-.002-.342-.059-.717-.291-.965-.231-.247-.563-.307-.867-.352zm9.921.286c-.389.103-.722.39-.935.762-.43.75-.507 1.669-.511 2.537.002.901.166 1.879.752 2.549.606.709 1.755.7 2.34-.036.566-.703.692-1.692.704-2.601-.002-.92-.1-1.925-.646-2.66-.402-.55-1.104-.72-1.703-.551zm-.574-.461c.997-.175 2.055-.13 2.997.303.895.42 1.67 1.245 1.956 2.294.266 1.014.128 2.175-.448 3.03a3.784 3.784 0 0 1 -2.645 1.647c-1.166.162-2.428.025-3.426-.715-.773-.564-1.358-1.486-1.444-2.525a3.76 3.76 0 0 1 1.102-3.079c.535-.517 1.214-.821 1.908-.955zm5.535.184c.963-.087 1.924-.23 2.89-.28.002 1.59.002 3.182 0 4.773-.006.366-.006.772.215 1.068.296.411.813.482 1.25.408.59-.101.988-.684 1.283-1.225.026-1.025.001-2.052.012-3.078-.005-.29.021-.611-.139-.857-.196-.318-.547-.417-.859-.5v-.309c.968-.087 1.932-.234 2.901-.279.003 1.832 0 3.664.002 5.496.011.323.013.695.217.95.217.229.517.3.794.393-.001.104-.002.207 0 .311l-2.918.277c0-.572.002-1.142 0-1.713-.31.48-.659.94-1.11 1.252a2.548 2.548 0 0 1 -2.541.227c-.595-.278-.993-.974-1-1.702-.018-1.274 0-2.55-.009-3.825-.009-.26-.056-.54-.226-.728-.209-.22-.498-.276-.763-.35v-.309"/></g><g mask="url(#a)"><path clip-rule="evenodd" d="m95.463 43.222c-.081.106-.229.194-.214.358-.003 1.317-.002 2.632 0 3.948.31.32.665.605 1.076.717.519.151 1.11.032 1.51-.39.495-.508.716-1.278.758-2.02.037-.736-.019-1.506-.314-2.172-.209-.47-.566-.876-1.02-1.01-.633-.197-1.328.052-1.796.569zm-3.191-1.27c.992-.085 1.981-.23 2.975-.276 0 .435.003.87-.002 1.305.409-.495.902-.917 1.474-1.123.732-.265 1.557-.251 2.26.125.779.428 1.364 1.28 1.572 2.241.272 1.273.048 2.743-.782 3.687-.775.946-2.001 1.264-3.085.998-.54-.146-.994-.533-1.437-.896.003 1.46-.002 2.92.002 4.38.011.326.044.7.268.932.249.23.572.3.873.387-.002.095-.002.19-.002.288h-4.116a8.592 8.592 0 0 1 0-.305c.32-.066.698-.12.91-.444.18-.336.187-.748.201-1.13.002-2.815 0-5.63 0-8.444-.01-.344-.015-.736-.224-1.007-.242-.257-.58-.322-.887-.41z" fill="#2a3341" fill-rule="evenodd"/></g></svg>