<svg fill="none" height="88" width="60" xmlns="http://www.w3.org/2000/svg"><g fill="#eceae1"><path d="m59.225 44.731h-12.083v.614h12.083z"/><path d="m58.23 30.871h-2.266v14.475h2.266v-14.476zm-49.396 44.686-.687.888-.034.034s-.034 0-.068-.034l-.07-.103c-.033-.034 0-.068 0-.102l.687-.888.996-.205c.034 0 .069 0 .103.034l.068.103c.035.034 0 .034 0 .068h-.034zm-1.03.341c-.034 0-.068 0-.103-.034l-.068-.102c-.035-.034 0-.068 0-.103l1.716-1.058c.034 0 .069 0 .103.034l.069.103c.034.034 0 .068 0 .102zm1.202-1.775.034-.034s.034 0 .069.034l.068.103c.035.034 0 .068 0 .102l-.618.785-1.132.24c-.035 0-.069 0-.103-.035l-.069-.102c-.034-.034 0-.034 0-.069h.034l1.099-.204zm.961 4.677c-.034.034-.068.034-.103 0l-.068-.068c-.035-.034-.035-.069 0-.103l.824-.648c.171-.137.446-.342.446-.342l-1.682.478c-.034 0-.069 0-.103-.034l-.069-.102c-.034-.034-.034-.069 0-.103l1.58-1.263c.034-.034.068-.034.102 0l.069.069c.034.034.034.068 0 .102l-.824.683a5.45 5.45 0 0 1 -.412.307l1.682-.478c.034 0 .069 0 .103.034l.069.103c.034.034.034.068 0 .102zm1.957 1.946c-.035.034-.07.034-.104 0l-.068-.068c-.035-.034-.035-.069 0-.103l1.27-1.331-.378-.341c-.034-.035-.034-.069 0-.103l.069-.068c.034-.034.069-.034.103 0l.961.887c.034.034.034.069 0 .103l-.069.068c-.034.034-.068.034-.103 0l-.377-.376zm1.785 1.502.069-.068c.034-.035.068-.035.102 0 .07.034.172.034.31-.103.377-.444.652-.785.995-1.229.034-.034.069-.034.103 0l.652.478c.034.034.034.069 0 .103l-1.167 1.604c-.034.034-.069.034-.103 0l-.103-.068c-.034-.034-.034-.068-.034-.103l1.064-1.468-.343-.273c-.31.376-.721.888-.927 1.127-.172.205-.412.239-.618.102-.034-.034-.034-.068 0-.102zm4.359.956a.344.344 0 0 0 -.137-.444c-.206-.102-.378-.034-.446.102l-.515.922a.344.344 0 0 0 .137.444c.206.102.378.034.446-.102zm-.274 1.058a.586.586 0 0 1 -.79.205c-.343-.17-.412-.546-.275-.785l.515-.922c.138-.239.447-.376.79-.205.343.17.412.512.274.785zm2.574-.342-.24.615.274.103c.137.034.275 0 .31-.137l.068-.17c.034-.137 0-.274-.138-.308l-.274-.102zm-.618 1.537.274.102c.138.069.31-.034.344-.136l.068-.205c.035-.103.035-.273-.171-.342l-.275-.102zm.961-1.639a.497.497 0 0 1 .309.615l-.069.17a.486.486 0 0 1 -.309.273c.07.137.103.274.035.444l-.069.205c-.103.273-.412.376-.686.273l-.447-.17c-.034-.035-.068-.069-.034-.069l.72-1.843c0-.034.035-.034.104-.034zm2.884 3.004c0 .034-.034.069-.069.034l-.103-.034a.073.073 0 0 1 -.068-.068l.24-.99c.069-.205.137-.512.137-.512l-1.064 1.366c-.034.034-.069.034-.103.034l-.103-.034c-.034 0-.068-.035-.068-.069l.48-1.911c0-.035.035-.069.069-.035l.103.035c.034 0 .068.034.068.068l-.274 1.024a7.605 7.605 0 0 1 -.137.478l1.03-1.366c.034-.034.068-.034.102-.034l.103.034c.035 0 .069.034.069.069zm2.677-2.184c.035 0 .069.034.069.068 0 .068 0 .17.103.17h.103c.103 0 .137-.068.137-.136 0-.034.035-.034.069-.034h.137c.034 0 .034.034.034.068-.034.17-.171.307-.411.273h-.069c-.24-.034-.343-.205-.309-.375 0-.034.034-.034.034-.034zm.515 2.696c0 .034-.034.069-.068.069h-.103c-.035 0-.07-.035-.07-.069l.138-1.024c.035-.239.069-.546.069-.546l-.858 1.468c0 .034-.035.068-.103.034h-.103c-.035 0-.069-.034-.069-.068l.24-1.98c0-.034.035-.068.07-.068h.102c.034 0 .069.034.069.068l-.138 1.058a33.39 33.39 0 0 1 -.068.512l.858-1.468c0-.034.034-.068.103-.034h.103c.034 0 .069.034.069.068l-.24 1.98zm5.663-1.16.824.956.035.034c0 .034 0 .034-.035.034l-.171.034c-.035 0-.069-.034-.103-.034l-.824-.956.137 1.024c0 .034 0 .068-.068.068h-.103c-.035 0-.069-.034-.069-.034l-.275-1.98c0-.034 0-.068.069-.068h.103c.034 0 .069.034.069.034l.137.922.515-.99c0-.034.034-.068.069-.068l.171-.035c.034 0 .069 0 .069.035v.034zm3.262-1.127a.318.318 0 0 0 -.412-.205c-.206.069-.31.24-.24.376l.274 1.024c.034.17.206.273.412.205s.309-.24.24-.376zm.549.956c.069.273-.069.58-.446.683-.378.102-.652-.103-.721-.376l-.275-1.024c-.068-.273.069-.58.447-.683.377-.102.652.103.72.376zm2.369-1.263c0 .034 0 .068-.035.068l-.137.034c-.035.034-.069 0-.103-.034l-.515-.512s.137.307.309.717l.309.717c0 .034 0 .068-.035.068l-.102.034c-.035 0-.07 0-.103-.034l-.756-1.843c0-.034 0-.069.035-.069l.137-.068c.034 0 .069 0 .103.034l.652.683-.034-.956c0-.034 0-.068.034-.068l.137-.068c.035-.034.07 0 .103.034l.756 1.843c0 .035 0 .069-.035.069l-.103.034c-.034 0-.068 0-.103-.034l-.308-.717c-.172-.444-.275-.717-.275-.717zm3.639-.785c0 .034 0 .068-.035.102l-.103.069c-.034.034-.068 0-.103-.035l-.892-1.57-.584.307.893 1.57c0 .035 0 .069-.035.103l-.103.068c-.034.034-.068 0-.103-.034l-.995-1.74c0-.035 0-.07.034-.103l.893-.512c.034-.035.068 0 .103.034l1.03 1.74zm1.578-1.025-.068-.068c-.035-.034 0-.068 0-.102.068-.068.103-.17 0-.307-.31-.478-.584-.854-.893-1.297 0-.035 0-.069.035-.103l.652-.478c.034-.034.068 0 .103.034l1.201 1.57c.034.035 0 .069-.034.103l-.103.068c-.035.035-.069.035-.103 0l-1.099-1.433-.343.273c.275.41.652.956.824 1.229.137.239.103.443-.103.58 0 0-.034 0-.069-.068zm2.78-2.116c-.034.034-.068.034-.103 0l-1.407-1.434c-.034-.034-.034-.068 0-.102l.652-.615c.035-.034.069-.034.103 0l.069.069c.034.034.034.068 0 .102l-.515.512.446.478.48-.444c.035-.034.07-.034.104 0l.068.069c.035.034.035.068 0 .102l-.48.444.55.546.548-.512c.035-.034.069-.034.103 0l.069.068c.034.034.034.069 0 .103zm1.614-3.311 1.27.136h.035v.069l-.103.136c-.035.034-.069.034-.103.034l-1.236-.136.824.648c.034.035.034.069 0 .103l-.069.102c-.034.034-.069.034-.103 0l-1.579-1.263c-.034-.034-.034-.068 0-.102l.069-.103c.034-.034.068-.034.103 0l.72.58-.308-1.058c0-.034-.035-.068 0-.102l.103-.136c.034-.035.034-.035.068 0 0 0 0 .034.035.034zm2.815-1.912c-.171.274-.515.376-.79.205l-.926-.546a.556.556 0 0 1 -.172-.785c.206-.307.584-.307.721-.239.034 0 .034.068 0 .102l-.069.103c-.034.034-.068.034-.102.034-.104-.034-.31-.034-.378.136-.103.171-.069.342.103.444l.927.546c.137.103.343.035.446-.102.103-.136.069-.341-.103-.444-.034 0-.034-.068 0-.102l.069-.102c.034-.035.068-.035.103-.035.24.171.343.512.171.785zm-13.799-44.72h-2.267v14.475h2.266v-14.476zm8.444 0h-2.266v14.475h2.266v-14.476z"/><path d="m44.053 37.801h-7.551v.615h7.551v-.616zm-41.603-6.93h-2.266v14.475h2.266v-14.476z"/><path d="m7.702 30.871h-7.518v.615h7.518zm50.117 0h-7.793v.615h7.792v-.615zm-45.621 0h-2.265v14.475h2.265v-14.476z"/><path d="m19.235 35.582c0-2.799-2.575-4.71-5.287-4.71h-1.784v.614h.652c3.158 0 4.29 1.911 4.29 4.233 0 2.321-1.132 4.199-4.256 4.199h-.652v.614h1.785c2.712 0 5.286-1.912 5.286-4.71v-.24zm13.937 9.764h-2.575l-6.11-14.475h2.575z"/><path d="m25.242 30.871-5.767 14.475h-.72l5.765-14.476h.721z"/><path d="m29.773 42.273h-9.749l.31-.614h9.44v.614zm24.201 8.296h-2.266v14.474h2.266v-14.475z"/><path d="m59.191 50.569h-7.483v.614h7.483zm0 13.893h-7.483v.615h7.483zm-1.751-6.93h-5.663v.615h5.664v-.614zm.996-9.046-4.462 1.16-.172-.614 4.463-1.194zm-51.009 2.083h-5.937v.614h5.938v-.614z"/><path d="m2.45 50.569h-2.266v14.474h2.266v-14.475z"/><path d="m9.52 60.332c0 2.799-2.575 4.71-5.286 4.71h-1.785v-.614h.651c3.158 0 4.29-1.911 4.29-4.233 0-2.321-1.166-4.233-4.29-4.233h-.652v-.614h1.785c2.711 0 5.286 1.911 5.286 4.71v.274zm16.854-.717h-.686v-8.432h.686c3.159 0 4.291 1.912 4.291 4.233s-1.167 4.199-4.29 4.199zm1.099-9.047h-4.051v14.475h2.266v-4.814h1.785c2.712 0 5.286-1.843 5.286-4.847 0-2.936-2.574-4.813-5.286-4.813zm-6.728.001c-.584 1.502-2.506 6.52-3.57 9.217l-4.29-9.218h-2.266l5.526 11.778c-.72 1.639-1.236 2.116-2.197 2.116-1.235 0-1.785-1.058-1.785-1.775h-.755c0 1.195.961 2.526 2.54 2.526 1.785 0 2.438-1.4 3.227-3.413.343-.854 3.81-9.9 4.325-11.231zm27.632-5.223v-.615c3.33 0 4.051-10.958 4.051-13.655h.618c0 .99-.138 4.506-.755 7.75-.79 4.3-2.129 6.52-3.914 6.52zm-6.177 5.223h-2.266v14.474h2.266v-14.475z"/><path d="m32.04 63.131c0 1.16.926 2.082 2.128 2.082 3.982 0 3.26-4.984 5.252-4.984h1.27v-.478h-1.545c-4.12 0-2.918 4.677-5.252 4.677-.858 0-1.339-.717-1.339-1.331-.343.034-.309.034-.514.034z"/><path d="m40.964 60.298c-2.986 0-3.639-2.629-4.188-4.95-.549-2.22-1.03-4.165-3.158-4.165v-.614c2.643 0 3.227 2.355 3.776 4.642.55 2.287 1.099 4.472 3.604 4.472v.615zm9.166 2.833c0 1.16-.927 2.082-2.129 2.082-3.981 0-3.26-4.984-5.251-4.984h-1.27v-.478h1.544c4.12 0 2.918 4.677 5.252 4.677.858 0 1.339-.717 1.339-1.331.309.034.309.034.515.034z"/><path d="m41.205 60.298v-.58c2.505 0 3.02-2.186 3.604-4.473.55-2.287 1.133-4.642 3.776-4.642v.614c-2.163 0-2.609 1.946-3.158 4.165-.584 2.321-1.236 4.916-4.222 4.916zm-17.027-45.267c.138-.068.24-.136.378-.204.103-.069.24-.24.24-.24s-.206-.033-.309-.102c-.377-.17-.652-.58-.583-.99.103-.716.858-.819 1.441-.614 1.133.444 1.923 1.639 2.197 2.765.035.137.069.375.103.546h-.515v.649h2.026c-.069.82-.584 1.707-1.785 1.707.377.58.927.99 1.544 1.229.103.785.447 1.502.996 2.048a3.42 3.42 0 0 0 .995-2.048 3.047 3.047 0 0 0 1.545-1.23c-1.201 0-1.716-.887-1.785-1.706h2.025v-.649h-.515c.035-.17.069-.41.103-.546.31-1.127 1.064-2.321 2.231-2.765.584-.205 1.34-.103 1.442.614.035.41-.206.82-.583.99-.103.035-.206.103-.31.103 0 0 .207.136.275.205.103.068.24.17.378.204 1.064.478 2.197 0 2.815-.921.995-1.468.171-3.414-1.442-4.029-1.339-.512-2.883.035-3.776 1.059-.995 1.126-1.51 2.56-1.716 3.994-.035.273-.069.785-.103 1.092h-.755v-.341c.034-.956.24-1.912.549-2.834.343-.99.755-1.945 1.098-2.935a9.504 9.504 0 0 0 .584-3.243c0-3.175-2.952-5.94-2.986-5.906-.07.034-3.021 2.765-3.021 5.974 0 1.092.206 2.219.583 3.243.343 1.024.79 1.946 1.099 2.936.309.921.549 1.843.549 2.833v.341h-.755c-.035-.307-.069-.785-.103-1.092-.206-1.434-.721-2.902-1.716-3.994-.927-1.024-2.438-1.57-3.776-1.058-1.614.614-2.438 2.56-1.442 4.028.583.887 1.716 1.365 2.78.887z"/></g></svg>