<?xml version="1.0" encoding="UTF-8"?>
<svg id="Capa_2" data-name="Capa 2" xmlns="http://www.w3.org/2000/svg" width="80.6mm" height="29.2mm" viewBox="0 0 228.6 82.7">
  <g id="Capa_1-2" data-name="Capa 1">
    <g>
      <path d="M21.9,42v3.6c-3.7-2.2-6.8-3.2-9.5-3.2s-4.7,.8-6.4,2.3c-1.7,1.5-2.6,3.5-2.6,5.7s.5,3.1,1.5,4.4c1,1.3,3.1,2.6,6.3,3.8s5.5,2.2,7,3c1.5,.8,2.7,2,3.8,3.5,1,1.5,1.5,3.5,1.5,6s-1.2,6-3.6,8.2c-2.4,2.2-5.3,3.4-8.7,3.4s-7.1-1.2-10.8-3.7v-3.8c4.1,3,7.6,4.5,10.7,4.5s4.6-.8,6.3-2.4,2.6-3.6,2.6-6-.5-3.4-1.6-4.9-3.2-2.8-6.5-4c-3.3-1.3-5.6-2.3-7-3-1.4-.8-2.6-1.9-3.6-3.3-1-1.4-1.5-3.3-1.5-5.5s1.2-5.8,3.6-7.9c2.4-2.2,5.2-3.3,8.6-3.3s6.5,.9,9.8,2.7Z" style="fill: #fff;"/>
      <path d="M74.8,39.9l-16.4,19.6v22.7h-3.3v-22.7l-16.4-19.6h4l14.1,16.8,14.1-16.8h4Z" style="fill: #fff;"/>
      <path d="M92.1,39.9h10.8c4.5,0,8,1,10.4,3,2.4,2,3.6,4.6,3.6,8,0,4.9-2.7,8.3-8.1,10.3,1.4,.7,3.3,2.8,5.6,6.4l9.6,14.6h-3.9l-7.4-11.6c-2.5-3.9-4.4-6.3-5.8-7.3s-3.4-1.4-6-1.4h-5.7v20.3h-3.3V39.9Zm3.3,2.7v16.6h7c3.6,0,6.3-.7,8.2-2.2,1.9-1.4,2.8-3.5,2.8-6.1s-1-4.6-2.9-6.1c-1.9-1.5-4.7-2.2-8.3-2.2h-6.9Z" style="fill: #fff;"/>
      <path d="M156.7,39.6l19.6,42.6h-3.4l-6.7-14.6h-20.7l-6.7,14.6h-3.4l19.6-42.6h1.8Zm8.2,25.2l-9.1-19.9-9.1,19.9h18.2Zm-.3-38.1l-9.4,9.7h-2.1l6.4-9.7h5Z" style="fill: #fff;"/>
      <path d="M228.6,39.9v42.3h-3.3v-20h-28.2v20h-3.3V39.9h3.3v19.5h28.2v-19.5h3.3Z" style="fill: #fff;"/>
    </g>
    <g>
      <path d="M10.8,7.1h4.6v5.8c-1.7,.7-3.3,1.1-5,1.1s-4.1-.7-5.4-2-2-2.9-2-4.9,.7-3.7,2.1-5.1S8.2,0,10.3,0s1.5,0,2.2,.2,1.6,.5,2.6,.9v2c-1.6-.9-3.2-1.4-4.8-1.4s-2.7,.5-3.8,1.5-1.5,2.3-1.5,3.7,.5,2.8,1.5,3.8,2.3,1.5,3.9,1.5,1.7-.2,2.8-.5h.2v-2.9h-2.6v-1.7Z" style="fill: #fff;"/>
      <path d="M22.3,13.8V.2h3.4c1.4,0,2.5,.3,3.3,1s1.2,1.6,1.2,2.8-.2,1.5-.6,2.1-1,1-1.7,1.3c.4,.3,.9,.7,1.3,1.2s1,1.4,1.8,2.6c.5,.8,.9,1.4,1.1,1.7l.7,1h-2.3l-.6-.9s0,0-.1-.2l-.4-.5-.6-1-.7-1.1c-.4-.6-.8-1-1.1-1.3-.3-.3-.6-.6-.9-.7-.3-.1-.7-.2-1.4-.2h-.5v5.9h-2ZM24.9,1.8h-.6V6.1h.7c1,0,1.7,0,2-.3s.7-.4,.9-.8,.3-.7,.3-1.2-.1-.8-.3-1.2-.5-.6-1-.7-1.1-.2-2.1-.2Z" style="fill: #fff;"/>
      <path d="M42.7,0h1.4l6.1,13.7h-2l-1.8-4h-5.8l-1.7,4h-2L42.7,0Zm2.9,7.9l-2.2-4.9-2,4.9h4.2Z" style="fill: #fff;"/>
      <path d="M66.5,.2h1.9V13.8h-1.7L57.6,3.3V13.8h-1.8V.2h1.6l9.2,10.6V.2Z" style="fill: #fff;"/>
      <path d="M84.9,13.8V.2h3.4c1.4,0,2.5,.3,3.3,1s1.2,1.6,1.2,2.8-.2,1.5-.6,2.1-1,1-1.7,1.3c.4,.3,.9,.7,1.3,1.2s1,1.4,1.8,2.6c.5,.8,.9,1.4,1.1,1.7l.7,1h-2.3l-.6-.9s0,0-.1-.2l-.4-.5-.6-1-.7-1.1c-.4-.6-.8-1-1.1-1.3-.3-.3-.6-.6-.9-.7-.3-.1-.7-.2-1.4-.2h-.5v5.9h-2Zm2.5-12h-.6V6.1h.7c1,0,1.7,0,2-.3s.7-.4,.9-.8,.3-.7,.3-1.2-.1-.8-.3-1.2-.5-.6-1-.7-1.1-.2-2.1-.2Z" style="fill: #fff;"/>
      <path d="M101,.2h7.7V1.9h-5.8V6.1h5.6v1.7h-5.6v4.2h6v1.7h-7.9V.2Z" style="fill: #fff;"/>
      <path d="M118.3,8.1l-1.5-.9c-.9-.6-1.6-1.1-2-1.7s-.6-1.2-.6-1.9c0-1.1,.4-1.9,1.1-2.6s1.7-1,2.9-1,2.2,.3,3.1,1V3.2c-1-.9-2-1.4-3.2-1.4s-1.2,.1-1.6,.4c-.4,.3-.6,.7-.6,1.1s.2,.8,.5,1.1c.3,.4,.8,.7,1.5,1.1l1.5,.9c1.7,1,2.5,2.3,2.5,3.8s-.4,2-1.1,2.7-1.7,1-2.9,1-2.6-.4-3.7-1.2v-2.5c1.1,1.3,2.3,2,3.7,2s1.1-.2,1.5-.5c.4-.3,.6-.8,.6-1.3,0-.8-.6-1.6-1.8-2.4Z" style="fill: #fff;"/>
      <path d="M128.1,.2h7.7V1.9h-5.8V6.1h5.6v1.7h-5.6v4.2h6v1.7h-7.9V.2Z" style="fill: #fff;"/>
      <path d="M142.2,13.8V.2h3.4c1.4,0,2.5,.3,3.3,1s1.2,1.6,1.2,2.8-.2,1.5-.6,2.1-1,1-1.7,1.3c.4,.3,.9,.7,1.3,1.2s1,1.4,1.8,2.6c.5,.8,.9,1.4,1.1,1.7l.7,1h-2.3l-.6-.9s0,0-.1-.2l-.4-.5-.6-1-.7-1.1c-.4-.6-.8-1-1.1-1.3-.3-.3-.6-.6-.9-.7-.3-.1-.7-.2-1.4-.2h-.5v5.9h-2Zm2.5-12h-.6V6.1h.7c1,0,1.7,0,2-.3s.7-.4,.9-.8,.3-.7,.3-1.2-.1-.8-.3-1.2-.5-.6-1-.7-1.1-.2-2.1-.2Z" style="fill: #fff;"/>
      <path d="M166.8,.2h1.9l-5.8,13.7h-.4L156.7,.2h2l4.1,9.6L166.8,.2Z" style="fill: #fff;"/>
      <path d="M178.6,0h1.4l6.1,13.7h-2l-1.8-4h-5.8l-1.7,4h-2L178.6,0Zm2.9,7.9l-2.2-4.9-2,4.9h4.2Z" style="fill: #fff;"/>
      <path d="M201.2,13.8V.2h4.6c1.9,0,3.3,.3,4.4,.8s1.9,1.4,2.6,2.5,1,2.3,1,3.5-.2,1.8-.5,2.6-.9,1.6-1.5,2.2c-.7,.7-1.4,1.1-2.3,1.5-.5,.2-1,.3-1.4,.4s-1.2,.1-2.5,.1h-4.3Zm4.4-11.9h-2.4V12.1h2.5c1,0,1.7,0,2.3-.2s1-.3,1.4-.5,.7-.5,1-.8c1-1,1.4-2.2,1.4-3.7s-.5-2.7-1.5-3.6c-.4-.3-.8-.6-1.3-.8s-.9-.4-1.3-.4-1.1-.1-2-.1Z" style="fill: #fff;"/>
      <path d="M220.2,.2h7.7V1.9h-5.8V6.1h5.6v1.7h-5.6v4.2h6v1.7h-7.9V.2Z" style="fill: #fff;"/>
    </g>
  </g>
</svg>