{"asset":{"version":"2.0","generator":"babylon.js glTF exporter for 3dsmax 2021 v20211219.2"},"scene":0,"scenes":[{"nodes":[0]}],"nodes":[{"mesh":0,"translation":[-58.0179634,-0.151176065,100.2694],"name":"Urbano"}],"meshes":[{"primitives":[{"attributes":{"POSITION":1,"NORMAL":2,"TEXCOORD_0":3},"indices":0}],"name":"Urbano"}],"accessors":[{"bufferView":0,"componentType":5123,"count":40956,"type":"SCALAR","name":"accessorIndices"},{"bufferView":1,"componentType":5126,"count":14528,"max":[148.421677,4.11033625E-06,45.2022057],"min":[-148.421677,-2.35843654E-05,-45.2022057],"type":"VEC3","name":"accessorPositions"},{"bufferView":1,"byteOffset":174336,"componentType":5126,"count":14528,"type":"VEC3","name":"accessorNormals"},{"bufferView":2,"componentType":5126,"count":14528,"type":"VEC2","name":"accessorUVs"}],"bufferViews":[{"buffer":0,"byteLength":81912,"name":"bufferViewScalar"},{"buffer":0,"byteOffset":81912,"byteLength":348672,"byteStride":12,"name":"bufferViewFloatVec3"},{"buffer":0,"byteOffset":430584,"byteLength":116224,"byteStride":8,"name":"bufferViewFloatVec2"}],"buffers":[{"uri":"Urbano.bin","byteLength":546808}]}