{"asset":{"version":"2.0","generator":"babylon.js glTF exporter for 3dsmax 2021 v20211219.2"},"scene":0,"scenes":[{"nodes":[0]}],"nodes":[{"mesh":0,"translation":[30.0120335,-0.5224707,93.4601059],"name":"Comunal001 LOW POLY"}],"meshes":[{"primitives":[{"attributes":{"POSITION":1,"NORMAL":2,"TEXCOORD_0":3},"indices":0,"material":0}],"name":"Comunal001 LOW POLY"}],"accessors":[{"bufferView":0,"componentType":5123,"count":9063,"type":"SCALAR","name":"accessorIndices"},{"bufferView":1,"componentType":5126,"count":5749,"max":[42.57867,20.63747,26.5098724],"min":[-42.57867,0.0,-26.5098782],"type":"VEC3","name":"accessorPositions"},{"bufferView":1,"byteOffset":68988,"componentType":5126,"count":5749,"type":"VEC3","name":"accessorNormals"},{"bufferView":2,"componentType":5126,"count":5749,"type":"VEC2","name":"accessorUVs"}],"bufferViews":[{"buffer":0,"byteLength":18128,"name":"bufferViewScalar"},{"buffer":0,"byteOffset":18128,"byteLength":137976,"byteStride":12,"name":"bufferViewFloatVec3"},{"buffer":0,"byteOffset":156104,"byteLength":45992,"byteStride":8,"name":"bufferViewFloatVec2"}],"buffers":[{"uri":"Comunal.bin","byteLength":202096}],"materials":[{"pbrMetallicRoughness":{"baseColorFactor":[0.5,0.5,0.5,1.0],"metallicFactor":0.0,"roughnessFactor":0.0},"doubleSided":true,"name":"Material #2147470223","extras":{"babylonSeparateCullingPass":false}}]}