{"asset":{"version":"2.0","generator":"babylon.js glTF exporter for 3dsmax 2021 v20211219.2"},"scene":0,"scenes":[{"nodes":[0]}],"nodes":[{"mesh":0,"translation":[-31.8705711,23.8988571,100.662788],"rotation":[-0.0391446948,0.0,0.999233544,0.0],"scale":[1.0,-1.0,1.0],"name":"Torre Sole 004 Bake"}],"meshes":[{"primitives":[{"attributes":{"POSITION":1,"NORMAL":2,"TEXCOORD_0":3},"indices":0}],"name":"Torre Sole 004 Bake"}],"accessors":[{"bufferView":0,"componentType":5123,"count":45459,"type":"SCALAR","name":"accessorIndices"},{"bufferView":1,"componentType":5126,"count":22927,"max":[20.9382362,24.0500336,9.776276],"min":[-20.938242,-24.0500355,-9.776282],"type":"VEC3","name":"accessorPositions"},{"bufferView":1,"byteOffset":275124,"componentType":5126,"count":22927,"type":"VEC3","name":"accessorNormals"},{"bufferView":2,"componentType":5126,"count":22927,"type":"VEC2","name":"accessorUVs"}],"bufferViews":[{"buffer":0,"byteLength":90920,"name":"bufferViewScalar"},{"buffer":0,"byteOffset":90920,"byteLength":550248,"byteStride":12,"name":"bufferViewFloatVec3"},{"buffer":0,"byteOffset":641168,"byteLength":183416,"byteStride":8,"name":"bufferViewFloatVec2"}],"buffers":[{"uri":"torre 2.bin","byteLength":824584}]}