<?xml version="1.0" encoding="UTF-8"?>
<svg xmlns="http://www.w3.org/2000/svg" width="196.9" height="176" viewBox="0 0 196.9 176">
  <defs>
    <style>
      .cls-1 {
        fill: #fbb03b;
      }
    </style>
  </defs>
  <g id="Capa_1" data-name="Capa 1"/>
  <g id="Capa_2" data-name="Capa 2">
    <g id="andenes_nuevos" data-name="andenes nuevos">
      <g>
        <rect class="cls-1" x="84.7" y="83.5" width="1.6" height="2.7"/>
        <rect class="cls-1" x="82.9" y="86.6" width="1.6" height="2.7"/>
        <rect class="cls-1" x="77.1" y="83.4" width="1.6" height="2.7"/>
        <rect class="cls-1" x="77.2" y="86.6" width="1.6" height="2.7"/>
        <rect class="cls-1" x="77.8" y="74.8" width="1.6" height="2.7"/>
        <rect class="cls-1" x="84.8" y="86.6" width="1.6" height="2.7"/>
        <rect class="cls-1" x="81" y="83.5" width="1.6" height="2.7"/>
        <rect class="cls-1" x="78.7" y="70.6" width="1.6" height="2.7"/>
        <rect class="cls-1" x="80.6" y="70.6" width="1.6" height="2.7"/>
        <path class="cls-1" d="M78.1,51.7l1.6-11.2-7.9-.7c-.3,2.4-1.1,7.6-1.5,10.4,.7,.3,1.4,.6,2.1,.8l5.6,.6Z"/>
        <rect class="cls-1" x="82.8" y="83.5" width="1.6" height="2.7"/>
        <rect class="cls-1" x="79.1" y="86.6" width="1.6" height="2.7"/>
        <rect class="cls-1" x="81" y="86.6" width="1.6" height="2.7"/>
        <path class="cls-1" d="M126.4,66.7l-8.8-1.6c-.6,4.7-1.1,7.9-1.2,9.1h0l8.7,1.5,1.4-9.1Z"/>
        <rect class="cls-1" x="71.2" y="73.6" width="2.7" height="1.6" transform="translate(-10.4 137.1) rotate(-82.8)"/>
        <polygon class="cls-1" points="113.2 93.9 122.1 95.2 123.3 87.6 114.5 86.2 113.2 93.9"/>
        <path class="cls-1" d="M92.6,16.1c.3,0,.6,0,1.1,0,0,0,.4,0,1.1,.2,1.4,.3,3.8,.7,4.3,.7,.8,0,14.9,1.7,15.8,1.8,0,0,0,0,0,0,.6,0,.9-.2,.9-.2,0-.2,.2-.4,.3-.6,.2-.3,.4-.7,.4-1,0-.7,.6-4.4,.6-4.4h1.3v.2s-.5,3.7-.6,4.4c0,.5-.3,1-.5,1.4,0,.1-.2,.3-.2,.4-.1,.4-.5,.8-1.1,1l1.6,.2c.3-1.9,1.8-10.1,3.1-17.1L98.4,0l-7,1.9-1.8,7,1,5.3,2,1.9Z"/>
        <path class="cls-1" d="M117.8,63.9l8.9,1.6,.3-2,1.1,.2c-.3-.9-1-1.5-2-1.6l-7.8-1.3c-.1,1.1-.3,2.1-.4,3.1Z"/>
        <path class="cls-1" d="M109.5,72.2s2.3-13.4,2.4-13.6c0-.3,.3-1.6,.8-4.1l-1-.9-22.4-1.4-2.9,16.6,21,1.6c1.7,.1,2.1,1.7,2.1,1.7Z"/>
        <polygon class="cls-1" points="124.9 77 116.1 75.6 115.9 76.9 115.9 76.9 114.7 84.9 123.4 86.4 124.9 77"/>
        <rect class="cls-1" x="79.7" y="74.9" width="1.6" height="2.7"/>
        <path class="cls-1" d="M78,107.1l13.9,3.3c.7,.2,1.5-.3,1.6-1l1.7-7.8-16.2-4.8-2.1,8.6c-.2,.8,.3,1.6,1.1,1.7Z"/>
        <rect class="cls-1" x="75.2" y="70.6" width="1.6" height="2.7"/>
        <rect class="cls-1" x="79.1" y="83.5" width="1.6" height="2.7"/>
        <rect class="cls-1" x="75.3" y="75.7" width="1.6" height="2.7"/>
        <path class="cls-1" d="M104.9,84.6l-13-1.1v2.9l.6,.6-4.4,1.7,3.8,10.6,2.1,.6-1-2.1,4.7-2.2-1.5-3.7,8.5-4.4s.2-2.8,.2-3Z"/>
        <polygon class="cls-1" points="105.1 149.6 120.5 152.5 122.3 145.8 116.3 146.2 113.5 145.8 106.5 142.3 105.1 149.6"/>
        <polygon class="cls-1" points="75.9 132.2 63.9 128.4 62.7 132.4 65.6 133.2 65 136 61.7 135 60.5 139 73.2 142.9 75.9 132.2"/>
        <polygon class="cls-1" points="88.8 134.6 78.7 131.9 77.2 138.1 96.7 143.6 97.5 138.3 88.4 135.7 88.8 134.6"/>
        <polygon class="cls-1" points="104.9 152.5 103.2 161.4 117.3 163.3 119.7 155.1 104.9 152.5"/>
        <polygon class="cls-1" points="101.6 172.6 116.5 164.2 103.2 162.7 101.6 172.6"/>
        <path class="cls-1" d="M68.2,115.6l-2.6,7.8c-.2,.7,.1,1.4,.8,1.6l31.5,11.6,2.1-12.4-30.5-9.3c-.5-.2-1.1,.1-1.3,.7Z"/>
        <polygon class="cls-1" points="81.6 152.8 78.4 152.4 80.9 142.1 76.3 140.6 72 157.1 85.8 159 87.1 149.9 89.9 150.4 88.4 159.7 93.6 160.5 95.9 146.1 83.6 143 81.6 152.8"/>
        <polygon class="cls-1" points="77.8 174.2 90.2 176 92.8 163.3 80.1 161.4 77.8 174.2"/>
        <path class="cls-1" d="M194.6,110.4v-3.7l-12.8-4.2-1.8,5.9-6.9-2.1,.9-2.7c.2-.5-.2-1-.7-1-1.9,0-5.6,0-6.8,0-1.6-.1-4.1-.7-4.1-.7l-.8,3.9,.9,9.1,4.7,.2h.1l12.6,.5h.3l14.6,4.4,2.1-8.9-2.3-.5Z"/>
        <polygon class="cls-1" points="119 166.5 125 168.4 131.9 145.5 125.4 145.9 119 166.5"/>
        <polygon class="cls-1" points="70.7 159.5 63.2 169.3 63.2 172.3 76.9 174.5 79.5 161 70.7 159.5"/>
        <polygon class="cls-1" points="168.4 122.5 172.1 122.5 172.1 121.4 178.6 121.4 178.6 116.6 168.4 116.1 168.4 122.5"/>
        <polygon class="cls-1" points="181.6 142.1 194.6 139.5 194.6 122.2 180.9 118 181.6 142.1"/>
        <path class="cls-1" d="M164,85.6l19.3,1.9,.6-8.4-18.6-2.4,.5-3.6-8.1-.7-1.8,15.1c2.3,.5,4.9,1.1,7.5,1.7l.6-3.7Z"/>
        <path class="cls-1" d="M128.1,64.1l-1.8,11.9,5,.8,.3,1.3h-.2l-5.3-.9-1.4,9.3,9,1.5-.2,1.2-9-1.5-1.1,7.6,13.9,2,.6,1.4h-.2l-24.5-3.7-2.7,16.8c2.4,.3,18.2,2.1,19,2.3,.6,.1,6.6-.1,11.4-.4l.7-3c.3-1,.2-2.1,0-3.2l-13.4-43.6Z"/>
        <polygon class="cls-1" points="36.1 77.6 26.8 75.1 25.6 79.5 34.7 82.3 36.1 77.6"/>
        <polygon class="cls-1" points="43 125.9 44 121.9 35.1 119.2 31.8 129.4 40.8 132.4 42.1 128.7 38.4 127.6 39.2 124.9 43 125.9"/>
        <polygon class="cls-1" points="61.5 91.5 61.3 91.5 57.7 101.3 57.5 101.2 48.3 98.3 45.6 106.8 55.7 109.7 61.5 91.5"/>
        <polygon class="cls-1" points="58.1 138 59.4 134.3 56.5 133.5 57.3 130.5 60.6 131.5 61.6 127.4 46 123.2 43 133.2 46.9 134.5 48.9 127.9 50.9 128.5 49 135 58.1 138"/>
        <rect class="cls-1" x="71.6" y="70.7" width="2.7" height="1.6" transform="translate(-7.1 134.9) rotate(-82.8)"/>
        <polygon class="cls-1" points="69.8 156.5 72.6 144.9 60.2 140.9 57.2 150.6 69.8 156.5"/>
        <polygon class="cls-1" points="52.3 151.6 47.3 158.2 51.7 162 55 158.8 59.1 162 56.3 165.1 59.5 167.7 66.7 159.2 52.3 151.6"/>
        <path class="cls-1" d="M59.2,80.6v4.1l1.3,.4,.2-6h1.2v.2l-.2,6.2,3.8,1.1,3.5-7.3c.3-.6,0-1.4-.6-1.6l-4.9-2.1,.7-1.6c.3-.7,0-1.5-.8-1.7l-8.8-2.7c-.5-.2-1,.3-1,.8l.8,9.2,4.7,1.3Z"/>
        <polygon class="cls-1" points="57.5 140 42.6 135 40.2 142.6 54.9 149.3 57.5 140"/>
        <polygon class="cls-1" points="35.5 136.3 34.3 135.9 35.1 132.8 30.7 131.5 29.3 137.4 37.6 141.3 39.7 134.2 36.4 133.2 35.5 136.3"/>
        <polygon class="cls-1" points="10.5 76.3 10.9 75.1 11 75.2 14.6 76.2 16.4 71.6 10.1 70.2 8 75.1 2.6 73.8 0 82.8 15.7 87.4 14.4 90.7 5.1 88.1 2.4 95.2 10.1 97.3 10.4 96.5 10.5 96.5 24.6 100.6 30.8 82.4 10.5 76.3"/>
        <path class="cls-1" d="M40.7,97.4l6,2.1,.9-2.8h.1l1.9,.7,2.4-8.6-9.9-3-2.6,9.4c-.3,.9,.3,1.9,1.2,2.3Z"/>
        <rect class="cls-1" x="70.8" y="76.6" width="2.7" height="1.6" transform="translate(-13.7 139.3) rotate(-82.8)"/>
        <path class="cls-1" d="M107.3,71.7c-5.4-.3-21.2-1.6-21.2-1.6l-1.4,7.7c.5,0,.6,0,1,.1l1.2-6.7c3.4,.3,15.3,1.2,20.1,1.5,.2,.2,.7,.9,1.1,1.6l-1.4,8.2-21.2-2.9v-.5c0,0-.5,0-.9-.2l-.3,1.5,23.2,3.1,1.7-9.5s-1.3-2.3-1.8-2.4Z"/>
      </g>
    </g>
  </g>
</svg>