<?xml version="1.0" encoding="UTF-8"?><svg xmlns="http://www.w3.org/2000/svg" viewBox="0 0 196.88 176"><defs><style>.d{fill:#ede0ce;}</style></defs><g id="a"/><g id="b"><g id="c"><g><path class="d" d="M128.01,63.82c-.28-.92-1.06-1.6-2.01-1.76l-7.96-1.31-8.07,51.83,19.33,2.28,11.33-.33,.89-3.66c.27-1.05,.24-2.15-.08-3.18l-13.44-43.86Z"/><polygon class="d" points="109.68 72.79 113.09 54.18 110.62 53.01 88.86 51.74 85.92 69.19 107.36 71.07 109.68 72.79"/><path class="d" d="M68.15,115.6l-2.57,7.8c-.21,.65,.12,1.35,.77,1.59l31.52,11.63,2.11-12.39-30.52-9.31c-.55-.17-1.12,.13-1.3,.67Z"/><path class="d" d="M194.59,110.37v-3.7l-12.81-4.22-1.78,5.85-6.89-2.15,.92-2.71c.16-.48-.2-.98-.71-.98-1.86,.03-5.65,.09-6.8-.02-1.56-.15-4.15-.74-4.15-.74l-.81,3.85,.96,9.63,5.19,.52v7.33h4.89v-1.15h6.52v-5.89l4.89,1.27,10.59,3.19,2.3-9.56-2.3-.52Z"/><polygon class="d" points="163.99 85.63 183.33 87.57 183.92 79.19 165.33 76.81 165.85 73.26 157.7 72.53 155.76 88.37 163.25 89.93 163.99 85.63"/><polygon class="d" points="79.7 40.56 71.1 39.78 69.55 50.81 78.07 51.74 79.7 40.56"/><path class="d" d="M78,107.08l13.91,3.34c.74,.18,1.48-.29,1.64-1.03l1.79-8.42-16.15-4.81-2.25,9.18c-.19,.78,.29,1.56,1.07,1.75Z"/><path class="d" d="M59.18,80.59v4.07l6.34,1.86,3.49-7.32c.29-.62,.02-1.35-.61-1.62l-4.86-2.11,.66-1.64c.28-.69-.09-1.48-.8-1.7l-8.79-2.74c-.52-.16-1.04,.25-.99,.8l.8,9.16,4.74,1.26Z"/><path class="d" d="M40.67,97.4l6.6,2.34-2.53,7.3,11.41,3.42,6.37-19.11-1.53-.6-3.73,9.87-7.87-2.53,2.81-9.98-9.97-2.84-2.72,9.88c-.26,.94,.25,1.93,1.18,2.26Z"/><polygon class="d" points="34.59 82.74 36.07 77.63 26.81 75.07 25.4 80.15 14.36 76.89 16.36 71.56 10.14 70.22 7.99 75.07 2.59 73.78 0 82.85 15.7 87.41 14.36 90.74 5.1 88.15 2.44 95.19 24.36 101.26 31.03 81.78 34.59 82.74"/><polygon class="d" points="93.18 16.67 118.14 20.22 121.18 3.11 98.44 0 91.4 1.93 89.62 8.89 90.59 14.22 93.18 16.67"/><polygon class="d" points="88.8 134.6 78.74 131.86 77.19 138.14 96.65 143.6 97.5 138.27 88.44 135.65 88.8 134.6"/><polygon class="d" points="69.82 156.49 72.6 144.88 60.19 140.89 57.16 150.56 69.82 156.49"/><polygon class="d" points="75.9 132.2 63.86 128.39 62.66 132.43 65.65 133.25 64.99 136.03 61.71 135.04 60.51 139.03 73.24 142.94 75.9 132.2"/><polygon class="d" points="58.09 137.96 59.4 134.35 56.47 133.46 57.34 130.52 60.58 131.48 61.58 127.44 45.98 123.25 42.96 133.23 46.9 134.52 48.92 127.87 50.9 128.45 48.96 135.01 58.09 137.96"/><polygon class="d" points="42.95 125.93 44.04 121.91 35.12 119.2 31.78 129.39 40.79 132.35 42.14 128.68 38.36 127.59 39.16 124.89 42.95 125.93"/><polygon class="d" points="35.48 136.26 34.25 135.94 35.08 132.83 30.7 131.5 29.27 137.38 37.59 141.34 39.67 134.19 36.4 133.17 35.48 136.26"/><polygon class="d" points="57.52 139.97 42.6 135.03 40.18 142.63 54.86 149.28 57.52 139.97"/><polygon class="d" points="81.59 152.8 78.38 152.41 80.88 142.13 76.31 140.64 72.01 157.07 85.81 159.02 87.09 149.91 89.86 150.4 88.42 159.74 93.64 160.46 95.92 146.07 83.64 142.97 81.59 152.8"/><polygon class="d" points="77.79 174.24 90.22 176 92.81 163.33 80.14 161.37 77.79 174.24"/><polygon class="d" points="70.67 159.53 63.2 169.31 63.2 172.28 76.91 174.5 79.47 160.96 70.67 159.53"/><polygon class="d" points="52.28 151.56 47.25 158.22 51.7 162 54.96 158.81 59.1 162 56.34 165.11 59.55 167.7 66.73 159.19 52.28 151.56"/><polygon class="d" points="104.88 152.52 103.18 161.37 117.33 163.33 119.7 155.11 104.88 152.52"/><polygon class="d" points="101.62 172.59 116.51 164.22 103.18 162.73 101.62 172.59"/><polygon class="d" points="105.09 149.63 120.48 152.52 122.31 145.8 116.25 146.24 113.48 145.8 106.53 142.31 105.09 149.63"/><polygon class="d" points="119.03 166.52 124.98 168.41 131.92 145.52 125.42 145.85 119.03 166.52"/><polygon class="d" points="181.64 142.06 194.59 139.46 194.59 122.19 180.92 117.96 181.64 142.06"/><rect class="d" x="75.18" y="70.59" width="1.63" height="2.7"/><rect class="d" x="71.61" y="70.66" width="2.7" height="1.63" transform="translate(-7.06 134.94) rotate(-82.82)"/><rect class="d" x="71.2" y="73.63" width="2.7" height="1.63" transform="translate(-10.38 137.12) rotate(-82.82)"/><rect class="d" x="70.81" y="76.6" width="2.7" height="1.63" transform="translate(-13.67 139.34) rotate(-82.82)"/><rect class="d" x="78.7" y="70.59" width="1.63" height="2.7"/><rect class="d" x="80.62" y="70.63" width="1.63" height="2.7"/><rect class="d" x="77.77" y="74.81" width="1.63" height="2.7"/><rect class="d" x="75.33" y="75.68" width="1.63" height="2.7"/><rect class="d" x="79.7" y="74.85" width="1.63" height="2.7"/><rect class="d" x="77.14" y="83.44" width="1.63" height="2.7"/><rect class="d" x="79.07" y="83.48" width="1.63" height="2.7"/><rect class="d" x="80.96" y="83.48" width="1.63" height="2.7"/><rect class="d" x="82.85" y="83.48" width="1.63" height="2.7"/><rect class="d" x="84.73" y="83.48" width="1.63" height="2.7"/><rect class="d" x="77.18" y="86.59" width="1.63" height="2.7"/><rect class="d" x="79.1" y="86.63" width="1.63" height="2.7"/><rect class="d" x="80.99" y="86.63" width="1.63" height="2.7"/><rect class="d" x="82.88" y="86.63" width="1.63" height="2.7"/><rect class="d" x="84.77" y="86.63" width="1.63" height="2.7"/><path class="d" d="M104.92,84.64l-13.04-1.15v2.95l.62,.62-4.37,1.7,3.93,10.99,2.19,.69-1.18-2.57,4.74-2.19-1.54-3.71,8.46-4.37s.17-2.8,.2-2.95Z"/></g></g></g></svg>