<?xml version="1.0" encoding="UTF-8"?><svg xmlns="http://www.w3.org/2000/svg" viewBox="0 0 196.88 176"><defs><style>.d{fill:#fbb03b;}</style></defs><g id="a"/><g id="b"><g id="c"><path class="d" d="M79.1,89.33h1.63v-2.7h-1.63v2.7Zm3.15-18.7h-1.63v2.7h1.63v-2.7Zm-.93,4.22h-1.63v2.7h1.63v-2.7Zm-5.43,57.35l-12.04-3.81-1.21,4.04,2.99,.82-.66,2.79-3.28-.99-1.2,3.99,12.73,3.91,2.66-10.74Zm6.98-42.86h1.63v-2.7h-1.63v2.7Zm1.59-5.85h-1.63v2.7h1.63v-2.7Zm-6.7-5.96h1.63v-2.7h-1.63v2.7Zm3.19,8.67h1.63v-2.7h-1.63v2.7Zm-3.78,3.11h1.63v-2.7h-1.63v2.7Zm9.19-5.81h-1.63v2.7h1.63v-2.7Zm-9.22,2.67h1.63v-2.7h-1.63v2.7Zm1.56-12.85h1.63v-2.7h-1.63v2.7Zm2.3,16.04h1.63v-2.7h-1.63v2.7Zm-1.93-3.15h1.63v-2.7h-1.63v2.7Zm25.81,66.33l-1.7,8.85,14.15,1.97,2.37-8.22-14.81-2.59ZM59.18,80.59v4.07l1.34,.39,.2-5.96,1.25,.04v.12l-.21,6.16,3.76,1.1,3.49-7.32c.29-.62,.02-1.35-.61-1.62l-4.86-2.11,.66-1.64c.28-.69-.09-1.48-.8-1.7l-8.79-2.74c-.52-.16-1.04,.25-.99,.8l.8,9.16,4.74,1.26Zm22.41,72.2l-3.21-.39,2.51-10.28-4.57-1.49-4.3,16.44,13.8,1.94,1.28-9.11,2.78,.49-1.44,9.34,5.22,.72,2.28-14.39-12.28-3.11-2.06,9.83Zm20.04,19.8l14.89-8.37-13.33-1.49-1.56,9.86Zm26.46-108.53l-1.81,11.95,5.02,.84,.28,1.26-.18-.03-5.31-.84-1.41,9.33,9.03,1.49-.2,1.23-9.01-1.49-1.15,7.6,13.89,2.05,.55,1.38-.22-.03-24.52-3.69-2.66,16.84c2.39,.27,18.15,2.08,19.05,2.27,.57,.12,6.65-.13,11.37-.37l.73-3.02c.27-1.05,.24-2.15-.08-3.18l-13.37-43.62Zm-66.6,27.47l-.15-.04-3.68,9.78-.11-.04-9.2-2.97-2.76,8.51,10.08,2.95,5.82-18.19Zm12.04-18.33l-1.62-.2-.34,2.68,1.62,.2,.34-2.68Zm11.25,13.42v2.7h1.63v-2.7h-1.63Zm-13.59-7.97l1.62,.2,.34-2.68-1.62-.2-.34,2.68Zm-13.67,61.31l-14.92-4.94-2.42,7.6,14.68,6.65,2.66-9.32Zm16.43-69.73l-1.62-.2-.34,2.68,1.62,.2,.34-2.68Zm2.87,.36h-1.63v2.7h1.63v-2.7Zm.15,5.08h-1.63v2.7h1.63v-2.7Zm27.97,8.96l-13.04-1.15v2.95l.62,.62-4.37,1.7,3.78,10.56,2.11,.63-.96-2.08,4.74-2.19-1.54-3.71,8.46-4.37s.17-2.8,.2-2.95Zm-16.12,49.97l-10.06-2.74-1.55,6.28,19.46,5.46,.85-5.33-9.06-2.62,.35-1.05Zm-52.73-56.97l-9.26-2.56-1.23,4.44,9.16,2.73,1.33-4.62Zm158.52,32.74v-3.7l-12.81-4.22-1.78,5.85-6.89-2.15,.92-2.71c.16-.48-.2-.98-.71-.98-1.86,.03-5.65,.09-6.8-.02-1.56-.15-4.15-.74-4.15-.74l-.81,3.85,.91,9.07,4.66,.2h.13l12.6,.53v.02l.33,.02,14.57,4.39,2.14-8.89-2.3-.52Zm-26.22,12.1h3.72v-1.1h6.5v-4.82l-10.23-.43v6.35Zm-127.7-25.07l5.96,2.11,.91-2.81,.12,.04,1.92,.62,2.43-8.65-9.93-2.96-2.59,9.39c-.26,.94,.25,1.93,1.18,2.26Zm-5.19,38.86l-1.23-.31,.83-3.12-4.39-1.33-1.43,5.88,8.32,3.96,2.08-7.15-3.27-1.02-.92,3.08Zm146.16,5.8l12.94-2.59v-17.28l-13.67-4.22,.72,24.09ZM92.6,16.12c.27,0,.62,0,1.11,.01,.05,0,.38,.06,1.06,.19,1.41,.25,3.77,.67,4.25,.73,.79,.1,14.89,1.72,15.78,1.75,.03,0,.06,0,.09,0,.58,0,.87-.17,.93-.22,.05-.19,.16-.39,.29-.63,.16-.3,.35-.67,.4-.98,.1-.66,.59-4.35,.6-4.38l.02-.12,1.24,.17-.02,.12s-.5,3.74-.6,4.39c-.07,.51-.33,.99-.53,1.38-.06,.12-.18,.34-.19,.4-.11,.45-.53,.79-1.11,.98l1.56,.22c.29-1.89,1.83-10.09,3.14-17.09L98.44,0l-7.04,1.93-1.78,6.96,.96,5.33,2.01,1.9Zm-14.8,158.12l12.42,1.76,2.59-12.67-12.67-1.97-2.35,12.87Zm41.24-7.72l5.94,1.89,6.94-22.89-6.5,.33-6.39,20.67Zm-48.36-6.99l-7.47,9.78v2.96l13.72,2.22,2.56-13.54-8.8-1.42ZM10.51,76.33l.36-1.2,.12,.04,3.62,1.08,1.76-4.69-6.22-1.33-2.15,4.85-5.41-1.3-2.59,9.07,15.7,4.56-1.33,3.33-9.26-2.59-2.67,7.04,7.68,2.13,.24-.82,.12,.04,14.09,4.12,6.25-18.26-20.31-6.06Zm41.77,75.23l-5.03,6.67,4.44,3.78,3.26-3.19,4.15,3.19-2.77,3.11,3.21,2.59,7.19-8.52-14.46-7.63Zm111.72-65.93l19.33,1.94,.59-8.39-18.59-2.37,.52-3.56-8.15-.73-1.84,15.08c2.35,.53,4.88,1.11,7.5,1.72l.64-3.69ZM42.95,125.93l1.09-4.03-8.92-2.71-3.33,10.19,9.01,2.96,1.35-3.67-3.78-1.1,.79-2.7,3.79,1.05Zm65.17-55.29l1.76-.61c1.25-7.14,1.96-11.21,2-11.47,.03-.25,.29-1.59,.78-4.09l-1.05-.85-22.4-1.39-2.87,16.63,21.01,1.57c.25,.02,.5,.09,.76,.21Zm-38.3,85.84l2.78-11.62-12.41-3.98-3.02,9.67,12.65,5.93Zm8.25-104.75l1.63-11.18-7.88-.72c-.34,2.45-1.06,7.6-1.47,10.44,.7,.28,1.4,.57,2.07,.84l5.64,.61Zm-9.91,63.86l-2.57,7.8c-.21,.65,.12,1.35,.77,1.59l31.52,11.63,2.11-12.39-30.52-9.31c-.55-.17-1.12,.13-1.3,.67Zm9.84-8.52l13.91,3.34c.74,.18,1.48-.29,1.64-1.03l1.65-7.79-16.17-4.82-2.09,8.56c-.19,.78,.29,1.56,1.07,1.75Zm-19.91,30.88l1.31-3.61-2.93-.89,.87-2.94,3.24,.96,1-4.04-15.6-4.19-3.02,9.99,3.94,1.29,2.02-6.65,1.98,.58-1.94,6.56,9.13,2.95ZM117.75,63.91l8.85,1.59,.3-1.96,1.05,.16c-.31-.85-1.05-1.49-1.95-1.64l-7.83-1.29c-.14,1.07-.28,2.12-.42,3.14Zm-12.66,85.72l15.39,2.89,1.83-6.72-6.06,.44-2.78-.44-6.94-3.49-1.44,7.32Zm21.33-82.89l-8.83-1.59c-.62,4.65-1.06,7.89-1.25,9.12l-.02,.1,8.72,1.44,1.37-9.07Zm-13.18,27.15l8.87,1.34,1.15-7.61-8.8-1.45-1.22,7.73Zm11.62-16.85l-8.73-1.44-.21,1.3h0l-1.27,8.02,8.79,1.45,1.41-9.34Z"/></g></g></svg>