{"asset":{"version":"2.0","generator":"babylon.js glTF exporter for 3dsmax 2021 v20211219.2"},"scene":0,"scenes":[{"nodes":[0]}],"nodes":[{"mesh":0,"translation":[66.64748,0.0,99.489975],"rotation":[-0.03479287,0.7289145,-0.00280726934,0.6837143],"scale":[0.97999984,0.979999959,0.979999959],"name":"Fp Arbustos altos_Arbol Nice A_12"}],"meshes":[{"primitives":[{"attributes":{"POSITION":1,"NORMAL":2,"TEXCOORD_0":3,"TEXCOORD_1":4},"indices":0}],"name":"Fp Arbustos altos_Arbol Nice A_12"}],"accessors":[{"bufferView":0,"componentType":5123,"count":17742,"type":"SCALAR","name":"accessorIndices"},{"bufferView":1,"componentType":5126,"count":17578,"max":[12.0537691,17.4009323,1.726774],"min":[-29.02117,-1.14261115,-261.2302],"type":"VEC3","name":"accessorPositions"},{"bufferView":1,"byteOffset":210936,"componentType":5126,"count":17578,"type":"VEC3","name":"accessorNormals"},{"bufferView":2,"componentType":5126,"count":17578,"type":"VEC2","name":"accessorUVs"},{"bufferView":2,"byteOffset":140624,"componentType":5126,"count":17578,"type":"VEC2","name":"accessorUV2s"}],"bufferViews":[{"buffer":0,"byteLength":35484,"name":"bufferViewScalar"},{"buffer":0,"byteOffset":35484,"byteLength":421872,"byteStride":12,"name":"bufferViewFloatVec3"},{"buffer":0,"byteOffset":457356,"byteLength":281248,"byteStride":8,"name":"bufferViewFloatVec2"}],"buffers":[{"uri":"Arboles.bin","byteLength":738604}]}