{"asset":{"version":"2.0","generator":"babylon.js glTF exporter for 3dsmax 2021 v20211219.2"},"scene":0,"scenes":[{"nodes":[0]}],"nodes":[{"mesh":0,"translation":[-118.377762,22.6988564,93.87501],"rotation":[0.0,-0.039137736,0.0,0.999233842],"name":"Torre baja001 Bake"}],"meshes":[{"primitives":[{"attributes":{"POSITION":1,"NORMAL":2,"TEXCOORD_0":3},"indices":0}],"name":"Torre baja001 Bake"}],"accessors":[{"bufferView":0,"componentType":5123,"count":43191,"type":"SCALAR","name":"accessorIndices"},{"bufferView":1,"componentType":5126,"count":21920,"max":[20.93824,22.8500328,9.776278],"min":[-20.93824,-22.8500328,-9.77628],"type":"VEC3","name":"accessorPositions"},{"bufferView":1,"byteOffset":263040,"componentType":5126,"count":21920,"type":"VEC3","name":"accessorNormals"},{"bufferView":2,"componentType":5126,"count":21920,"type":"VEC2","name":"accessorUVs"}],"bufferViews":[{"buffer":0,"byteLength":86384,"name":"bufferViewScalar"},{"buffer":0,"byteOffset":86384,"byteLength":526080,"byteStride":12,"name":"bufferViewFloatVec3"},{"buffer":0,"byteOffset":612464,"byteLength":175360,"byteStride":8,"name":"bufferViewFloatVec2"}],"buffers":[{"uri":"torre baja.bin","byteLength":787824}]}