<?xml version="1.0" encoding="utf-8"?>
<!-- Generator: Adobe Illustrator 26.5.0, SVG Export Plug-In . SVG Version: 6.00 Build 0)  -->
<svg version="1.1" id="Capa_1" xmlns="http://www.w3.org/2000/svg" xmlns:xlink="http://www.w3.org/1999/xlink" x="0px" y="0px"
	 viewBox="0 0 196.9 176" style="enable-background:new 0 0 196.9 176;" xml:space="preserve">
<style type="text/css">
	.st0{fill:#3D72F9;}
</style>
<g id="Capa_1_00000013166855014042065320000014091394796725777343_">
</g>
<g>
	<rect x="84.7" y="83.4" class="st0" width="1.6" height="2.7"/>
	<rect x="82.9" y="86.6" class="st0" width="1.6" height="2.7"/>
	<rect x="77.2" y="83.4" class="st0" width="1.6" height="2.7"/>
	<rect x="77.2" y="86.5" class="st0" width="1.6" height="2.7"/>
	<rect x="77.8" y="74.8" class="st0" width="1.6" height="2.7"/>
	<rect x="84.8" y="86.6" class="st0" width="1.6" height="2.7"/>
	<rect x="81" y="83.4" class="st0" width="1.6" height="2.7"/>
	<rect x="78.7" y="70.5" class="st0" width="1.6" height="2.7"/>
	<rect x="80.6" y="70.6" class="st0" width="1.6" height="2.7"/>
	<path class="st0" d="M78.1,51.7l1.6-11.2l-7.9-0.7c-0.3,2.4-1.1,7.6-1.5,10.4c0.7,0.3,1.4,0.6,2.1,0.8L78.1,51.7z"/>
	<rect x="82.9" y="83.4" class="st0" width="1.6" height="2.7"/>
	<rect x="79.1" y="86.6" class="st0" width="1.6" height="2.7"/>
	<rect x="81" y="86.6" class="st0" width="1.6" height="2.7"/>
	<path class="st0" d="M126.4,66.7l-8.8-1.6c-0.6,4.7-1.1,7.9-1.2,9.1l0,0.1l8.7,1.4L126.4,66.7z"/>
	<rect x="71.2" y="73.6" transform="matrix(0.125 -0.9922 0.9922 0.125 -10.3188 137.0863)" class="st0" width="2.7" height="1.6"/>
	<polygon class="st0" points="113.2,93.8 122.1,95.2 123.3,87.6 114.5,86.1 	"/>
	<path class="st0" d="M92.6,16.1c0.3,0,0.6,0,1.1,0c0.1,0,0.4,0.1,1.1,0.2c1.4,0.3,3.8,0.7,4.3,0.7c0.8,0.1,14.9,1.7,15.8,1.8
		c0,0,0.1,0,0.1,0c0.6,0,0.9-0.2,0.9-0.2c0.1-0.2,0.2-0.4,0.3-0.6c0.2-0.3,0.4-0.7,0.4-1c0.1-0.7,0.6-4.4,0.6-4.4l0-0.1l1.2,0.2
		l0,0.1c0,0-0.5,3.7-0.6,4.4c-0.1,0.5-0.3,1-0.5,1.4c-0.1,0.1-0.2,0.3-0.2,0.4c-0.1,0.4-0.5,0.8-1.1,1l1.6,0.2
		c0.3-1.9,1.8-10.1,3.1-17.1l-22.2-3l-7,1.9l-1.8,7l1,5.3L92.6,16.1z"/>
	<path class="st0" d="M117.8,63.9l8.9,1.6l0.3-2l1.1,0.2c-0.3-0.9-1-1.5-2-1.6l-7.8-1.3C118,61.8,117.9,62.8,117.8,63.9z"/>
	<path class="st0" d="M87.8,72.4l19.5-2c1.7,0.1,2.1,1.7,2.1,1.7s2.3-13.4,2.4-13.6c0-0.3,0.3-1.6,0.8-4.1l-1-0.9l-20.5-1.2
		c-2.9-0.2-5.3,2.1-5.3,5v13.2C85.8,71.7,86.8,72.5,87.8,72.4z"/>
	<polygon class="st0" points="124.9,77 116.1,75.6 115.9,76.9 115.9,76.9 114.7,84.9 123.5,86.3 	"/>
	<rect x="79.7" y="74.8" class="st0" width="1.6" height="2.7"/>
	<path class="st0" d="M78,107l13.9,3.3c0.7,0.2,1.5-0.3,1.6-1l1.7-7.8L79,96.7l-2.1,8.6C76.7,106.1,77.2,106.8,78,107z"/>
	<rect x="75.2" y="70.5" class="st0" width="1.6" height="2.7"/>
	<rect x="79.1" y="83.4" class="st0" width="1.6" height="2.7"/>
	<rect x="75.3" y="75.6" class="st0" width="1.6" height="2.7"/>
	<path class="st0" d="M104.9,84.6l-13-1.1v2.9l0.6,0.6l-4.4,1.7l3.8,10.6l2.1,0.6l-1-2.1l4.7-2.2l-1.5-3.7l8.5-4.4
		C104.7,87.5,104.9,84.7,104.9,84.6z"/>
	<polygon class="st0" points="122.3,145.7 116.3,146.2 113.5,145.7 106.5,142.3 105.1,149.6 120.5,152.5 	"/>
	<polygon class="st0" points="75.9,132.1 63.9,128.3 62.7,132.4 65.7,133.2 65,136 61.7,135 60.5,139 73.2,142.9 	"/>
	<polygon class="st0" points="88.8,134.6 78.7,131.8 77.2,138.1 96.7,143.5 97.5,138.2 88.5,135.6 	"/>
	<polygon class="st0" points="104.9,152.5 103.2,161.3 117.3,163.3 119.7,155.1 	"/>
	<polygon class="st0" points="101.6,172.5 116.5,164.2 103.2,162.7 	"/>
	<path class="st0" d="M68.2,115.6l-2.6,7.8c-0.2,0.7,0.1,1.4,0.8,1.6l31.5,11.6l2.1-12.4l-30.5-9.3C68.9,114.7,68.3,115,68.2,115.6z
		"/>
	<polygon class="st0" points="81.6,152.7 78.4,152.4 80.9,142.1 76.3,140.6 72,157 85.8,159 87.1,149.9 89.9,150.3 88.4,159.7 
		93.7,160.4 95.9,146 83.7,142.9 	"/>
	<polygon class="st0" points="77.8,174.2 90.2,176 92.8,163.3 80.2,161.3 	"/>
	<path class="st0" d="M194.6,110.3v-3.7l-12.8-4.2l-1.8,5.9l-6.9-2.1l0.9-2.7c0.2-0.5-0.2-1-0.7-1c-1.9,0-5.6,0.1-6.8,0
		c-1.6-0.1-4.1-0.7-4.1-0.7l-0.8,3.9l0.9,9.1l4.7,0.2l0.1,0l12.6,0.5v0l0.3,0l14.6,4.4l2.1-8.9L194.6,110.3z"/>
	<polygon class="st0" points="119,166.5 125,168.4 131.9,145.5 125.4,145.8 	"/>
	<polygon class="st0" points="70.7,159.5 63.2,169.3 63.2,172.2 76.9,174.4 79.5,160.9 	"/>
	<polygon class="st0" points="168.4,122.4 172.1,122.4 172.1,121.3 178.6,121.3 178.6,116.5 168.4,116.1 	"/>
	<polygon class="st0" points="181.7,142 194.6,139.4 194.6,122.1 180.9,117.9 	"/>
	<path class="st0" d="M164,85.6l19.3,1.9l0.6-8.4l-18.6-2.4l0.5-3.6l-8.1-0.7l-1.8,15.1c2.3,0.5,4.9,1.1,7.5,1.7L164,85.6z"/>
	<path class="st0" d="M128.1,64L126.3,76l5,0.8l0.3,1.3l-0.2,0l-5.3-0.8l-1.4,9.3l9,1.5l-0.2,1.2l-9-1.5l-1.1,7.6l13.9,2l0.6,1.4
		l-0.2,0l-24.5-3.7l-2.7,16.8c2.4,0.3,18.2,2.1,19,2.3c0.6,0.1,6.6-0.1,11.4-0.4l0.7-3c0.3-1,0.2-2.1-0.1-3.2L128.1,64z"/>
	<polygon class="st0" points="36.1,77.6 26.8,75 25.6,79.5 34.7,82.2 	"/>
	<polygon class="st0" points="43,125.9 44,121.9 35.1,119.2 31.8,129.3 40.8,132.3 42.1,128.6 38.4,127.5 39.2,124.8 	"/>
	<polygon class="st0" points="61.5,91.5 61.3,91.4 57.7,101.2 57.6,101.2 48.4,98.2 45.6,106.7 55.7,109.7 	"/>
	<polygon class="st0" points="58.1,137.9 59.4,134.3 56.5,133.4 57.4,130.5 60.6,131.4 61.6,127.4 46,123.2 43,133.2 46.9,134.5 
		48.9,127.8 50.9,128.4 49,135 	"/>
	
		<rect x="71.6" y="70.6" transform="matrix(0.1249 -0.9922 0.9922 0.1249 -7.0041 134.9005)" class="st0" width="2.7" height="1.6"/>
	<polygon class="st0" points="69.8,156.4 72.6,144.8 60.2,140.8 57.2,150.5 	"/>
	<polygon class="st0" points="52.3,151.5 47.3,158.2 51.7,161.9 55,158.8 59.1,161.9 56.3,165.1 59.6,167.7 66.7,159.1 	"/>
	<path class="st0" d="M59.2,80.5v4.1l1.3,0.4l0.2-6l1.2,0l0,0.1l-0.2,6.2l3.8,1.1l3.5-7.3c0.3-0.6,0-1.4-0.6-1.6l-4.9-2.1l0.7-1.6
		c0.3-0.7-0.1-1.5-0.8-1.7l-8.8-2.7c-0.5-0.2-1,0.3-1,0.8l0.8,9.2L59.2,80.5z"/>
	<polygon class="st0" points="57.5,139.9 42.6,135 40.2,142.6 54.9,149.2 	"/>
	<polygon class="st0" points="35.5,136.2 34.3,135.9 35.1,132.8 30.7,131.4 29.3,137.3 37.6,141.3 39.7,134.1 36.4,133.1 	"/>
	<polygon class="st0" points="10.5,76.3 10.9,75.1 11,75.1 14.6,76.2 16.4,71.5 10.2,70.2 8,75 2.6,73.7 0,82.8 15.7,87.4 
		14.4,90.7 5.1,88.1 2.4,95.1 10.1,97.3 10.4,96.4 10.5,96.5 24.6,100.6 30.8,82.3 	"/>
	<path class="st0" d="M40.7,97.3l6,2.1l0.9-2.8l0.1,0l1.9,0.6l2.4-8.6l-9.9-3l-2.6,9.4C39.2,96,39.8,97,40.7,97.3z"/>
	<rect x="70.8" y="76.6" transform="matrix(0.125 -0.9922 0.9922 0.125 -13.6078 139.3014)" class="st0" width="2.7" height="1.6"/>
	<polygon class="st0" points="106.5,72.4 95.7,73.8 97.8,82.9 106.1,83.4 	"/>
	<polygon class="st0" points="94.2,82.4 94.6,74 85.8,74.9 87.8,82.2 	"/>
	
		<rect x="72" y="56.9" transform="matrix(0.9963 -8.624855e-02 8.624855e-02 0.9963 -5.0662 6.8606)" class="st0" width="9.7" height="10.3"/>
</g>
</svg>
