<?xml version="1.0" encoding="UTF-8"?>
<svg id="personas" xmlns="http://www.w3.org/2000/svg" width="2152" height="2152" viewBox="0 0 2152 2152">
  <path d="M1053.2,1093.1c1.9,0,1.9-3,0-3s-1.9,3,0,3h0Z" style="fill: #ff0567;"/>
  <path d="M1066.2,1082.5c1.9,0,1.9-3,0-3s-1.9,3,0,3h0Z" style="fill: #ff0567;"/>
  <path d="M1071.9,1079.9c1.9,0,1.9-3,0-3s-1.9,3,0,3h0Z" style="fill: #ff0567;"/>
  <path d="M1078.3,1059.5c1.9,0,1.9-3,0-3s-1.9,3,0,3h0Z" style="fill: #ff0567;"/>
  <path d="M1088.6,1092.6c1.9,0,1.9-3,0-3s-1.9,3,0,3h0Z" style="fill: #ff0567;"/>
  <path d="M1075.3,1110.5c1.9,0,1.9-3,0-3s-1.9,3,0,3h0Z" style="fill: #ff0567;"/>
  <path d="M1078.3,1101.5c1.9,0,1.9-3,0-3s-1.9,3,0,3h0Z" style="fill: #ff0567;"/>
  <path d="M1085.1,1100c1.9,0,1.9-3,0-3s-1.9,3,0,3h0Z" style="fill: #ff0567;"/>
  <path d="M1037.8,1054.1c1.9,0,1.9-3,0-3s-1.9,3,0,3h0Z" style="fill: #ff0567;"/>
  <path d="M1042.3,1050.4c1.9,0,1.9-3,0-3s-1.9,3,0,3h0Z" style="fill: #ff0567;"/>
  <path d="M1048.1,1050.4c1.9,0,1.9-3,0-3s-1.9,3,0,3h0Z" style="fill: #ff0567;"/>
  <path d="M1058.6,1027.2c1.9,0,1.9-3,0-3s-1.9,3,0,3h0Z" style="fill: #ff0567;"/>
  <path d="M1053.8,1019.3c1.9,0,1.9-3,0-3s-1.9,3,0,3h0Z" style="fill: #ff0567;"/>
  <path d="M1073.8,1063c1.9,0,1.9-3,0-3s-1.9,3,0,3h0Z" style="fill: #ff0567;"/>
  <path d="M1055.2,1045.3c1.9,0,1.9-3,0-3s-1.9,3,0,3h0Z" style="fill: #ff0567;"/>
  <path d="M1060.6,1041.1c1.9,0,1.9-3,0-3s-1.9,3,0,3h0Z" style="fill: #ff0567;"/>
  <path d="M1073.1,1045.3c1.9,0,1.9-3,0-3s-1.9,3,0,3h0Z" style="fill: #ff0567;"/>
  <path d="M1072.3,1051.9c1.9,0,1.9-3,0-3s-1.9,3,0,3h0Z" style="fill: #ff0567;"/>
  <path d="M1025,1091.6c1.9,0,1.9-3,0-3s-1.9,3,0,3h0Z" style="fill: #ff0567;"/>
  <path d="M1000.4,1033.5c1.9,0,1.9-3,0-3s-1.9,3,0,3h0Z" style="fill: #ff0567;"/>
</svg>