<?xml version="1.0" encoding="utf-8"?>
<!-- Generator: Adobe Illustrator 26.5.0, SVG Export Plug-In . SVG Version: 6.00 Build 0)  -->
<svg version="1.1" id="Capa_1" xmlns="http://www.w3.org/2000/svg" xmlns:xlink="http://www.w3.org/1999/xlink" x="0px" y="0px"
	 viewBox="0 0 193.9 171.9" style="enable-background:new 0 0 193.9 171.9;" xml:space="preserve">
<style type="text/css">
	.st0{fill:#84E070;}
</style>
<g id="a">
</g>
<polygon class="st0" points="85.7,133.3 86,132.3 78,130.1 76.9,134.4 94.3,139.3 94.9,136 "/>
<polygon class="st0" points="59.3,139.1 56.9,147 67.6,152 69.9,142.5 "/>
<polygon class="st0" points="63,126.6 62.4,128.7 65.3,129.5 64.2,134.3 60.9,133.3 60.3,135.3 71,138.7 73.2,129.8 "/>
<polygon class="st0" points="45.2,121.4 42.7,129.6 44.7,130.2 46.7,123.6 50.6,124.8 48.7,131.3 56,133.7 56.6,132 53.7,131.1 
	55.2,126.3 58.4,127.2 58.9,125.1 "/>
<polygon class="st0" points="34.3,117.4 31.5,125.7 38.7,128.1 39.3,126.3 35.6,125.2 37,120.6 40.8,121.7 41.3,119.6 "/>
<polygon class="st0" points="35.6,131.4 34.7,134.4 31.5,133.6 32.4,130.5 29.9,129.7 28.9,133.8 35.5,136.9 36.9,131.8 "/>
<polygon class="st0" points="41.7,133.3 39.9,139.1 52.7,144.9 54.8,137.6 "/>
<polygon class="st0" points="82.9,141.2 81.1,150 80.9,150.9 80,150.8 76.8,150.4 75.6,150.2 75.9,149.2 78.2,139.8 75.5,138.9 
	71.8,153.2 83.5,154.9 84.6,146.7 84.7,145.7 85.8,145.9 88.5,146.4 89.5,146.6 89.4,147.5 88.1,155.9 91.3,156.3 93.3,143.8 "/>
<polygon class="st0" points="79.5,159.5 77.5,170.4 87.9,171.9 90.1,161.1 "/>
<polygon class="st0" points="69.6,157.6 62.7,166.6 62.7,168.4 74.6,170.3 76.8,158.8 "/>
<polygon class="st0" points="51.1,149.8 47.1,155.1 50.2,157.6 52.8,155.1 53.4,154.5 54.1,155 58.2,158.2 59.1,158.8 58.4,159.6 
	56.3,162 57.9,163.3 63.7,156.5 "/>
<polygon class="st0" points="104.2,150.7 102.9,157.5 115.1,159.2 116.9,152.9 "/>
<polygon class="st0" points="111.8,161.9 102.5,160.8 101.4,167.7 "/>
<polygon class="st0" points="114.8,144.2 114.7,144.2 114.6,144.2 111.8,143.8 111.7,143.7 111.5,143.7 105.8,140.8 104.8,145.8 
	118.3,148.3 119.5,143.9 "/>
<polygon class="st0" points="124.7,143.8 118.8,162.8 122.8,164.1 129.1,143.6 "/>
<polygon class="st0" points="180.5,116.3 181.1,137.8 192.1,135.6 192.1,119.9 "/>
<polygon class="st0" points="45.1,103.2 47.4,96.5 55.3,99.3 53.4,105.5 "/>
<polygon class="st0" points="180.9,100.8 192.1,104.6 192.1,109.4 179.6,105.8 "/>
<polygon class="st0" points="185.8,108.5 193.8,111.1 192.3,116.3 184.4,113.4 "/>
<polygon class="st0" points="161.5,100.2 167.6,101.1 165.3,109.9 161.8,109.5 161.1,102.7 "/>
<polygon class="st0" points="166.9,108 166.9,111.8 175.1,112.1 175.1,108 "/>
<polygon class="st0" points="110,108 110.6,103.3 117.3,103.7 116.8,108.9 "/>
<polygon class="st0" points="123,109.9 123.8,99.8 130.8,100.2 130.4,110.4 "/>
<polygon class="st0" points="136.7,109.9 135.2,100.2 137.5,100.3 139.1,110.1 "/>
<polygon class="st0" points="112.1,92.9 123.8,94.7 123.3,98.4 111.5,97.1 "/>
<polygon class="st0" points="111.5,97.9 110.8,102.8 114.6,103.1 114.8,98 "/>
<polygon class="st0" points="124.6,94.9 136.7,96.3 137.5,99.7 124.2,98.3 "/>
<polygon class="st0" points="113.3,83.9 121.2,85.2 120.9,87.1 112.9,86 "/>
<polygon class="st0" points="112.7,86.6 120.7,87.9 120.1,91.9 112.1,90.6 "/>
<polygon class="st0" points="130.3,86.5 133.7,87.1 135.5,93.9 129.4,92.9 "/>
<polygon class="st0" points="123.4,85.6 129.5,86.5 128.8,92.8 122.3,92.1 "/>
<polygon class="st0" points="116.5,73.5 115.2,81.7 121.4,82.8 122.7,74.4 "/>
<polygon class="st0" points="125.1,75.1 130.2,76 132.2,84.4 123.8,83.1 "/>
<polygon class="st0" points="117,58.4 125,60 124.8,61.9 116.8,60.6 "/>
<polygon class="st0" points="116.6,62.8 124.3,64.2 123.9,67.3 116,66.2 "/>
<polygon class="st0" points="115.9,66.9 120.1,67.6 119.6,71.7 115.3,70.9 "/>
<polygon class="st0" points="125.4,72.3 126.4,65.1 127.1,65.2 129.5,73 "/>
<polygon class="st0" points="156.8,70.6 155.1,84.3 161.3,85.7 162.9,75.3 158.9,74.7 159.1,70.7 "/>
<polygon class="st0" points="174.5,76.4 174.1,82.8 181,83.7 181.7,76.9 "/>
<polygon class="st0" points="163.8,75.7 172,76.7 171.9,82.7 162.9,81.6 "/>
<polygon class="st0" points="69.5,46.8 70.3,39.6 76.6,40.1 75.9,47.7 "/>
<polygon class="st0" points="60.8,72.6 59.8,74.8 63.5,76.5 61.3,81.7 63.4,82.5 66.9,75.2 "/>
<circle class="st0" cx="57.5" cy="75.2" r="1.2"/>
<polygon class="st0" points="53.4,67.2 60.3,69.5 59.5,72 53.4,70 "/>
<polygon class="st0" points="78.8,95.6 92.1,99.1 90.5,105.8 76.8,102.2 "/>
<polygon class="st0" points="68,113.7 71.8,114.7 69.6,122.4 65.5,120.9 "/>
<path class="st0" d="M42.1,86l3.8,1l-2.2,6.4l-3.6-1.2L42.1,86 M41.4,84.8l-2.6,8l5.4,1.8l2.9-8.3L41.4,84.8L41.4,84.8z"/>
<polygon class="st0" points="26,73.1 33.4,75.2 32.6,78.3 25.1,76.1 "/>
<polygon class="st0" points="17.3,86.6 25.1,88.9 22.7,96.7 14.6,94.2 "/>
<polygon class="st0" points="28,79.7 9.1,74.1 8.2,81.8 25.4,87.4 "/>
<polygon class="st0" points="4.3,86.5 14.4,89.3 13.1,93.7 2.8,90.8 "/>
<polygon class="st0" points="1.6,72.6 7.8,74 6.7,81.1 -0.1,79.2 "/>
<polygon class="st0" points="98.8,13.2 106.8,14.4 107,7.3 98.5,6.4 "/>
<polygon class="st0" points="99.8,0 106.4,0.7 106.4,3.6 99.5,3 "/>
<polygon class="st0" points="90.1,1.1 96.7,1.3 96.4,6.1 89.1,5.8 "/>
<polygon class="st0" points="87.9,86.6 89.2,90.2 92.7,88.8 91.2,85.2 "/>
<path class="st0" d="M92.6,87.1l0.2-2.6L91.4,83v-1.4l11,1c0,0.3-0.1,0.8-0.1,1.4L94.4,88L92.6,87.1z"/>
<polygon class="st0" points="95.5,71.5 104,70.5 104.2,73.2 95.9,74.2 "/>
<polygon class="st0" points="93.1,52.6 95.6,52.8 95.5,55 92.9,54.8 "/>
<polygon class="st0" points="92.9,56.2 95.5,56.3 95.4,63.9 92.8,64.4 "/>
</svg>
