<?xml version="1.0" encoding="utf-8"?>
<!-- Generator: Adobe Illustrator 26.5.0, SVG Export Plug-In . SVG Version: 6.00 Build 0)  -->
<svg version="1.1" id="Capa_1" xmlns="http://www.w3.org/2000/svg" xmlns:xlink="http://www.w3.org/1999/xlink" x="0px" y="0px"
	 viewBox="0 0 193.9 171.9" style="enable-background:new 0 0 193.9 171.9;" xml:space="preserve">
<style type="text/css">
	.st0{fill:#5968B2;}
</style>
<g id="a">
</g>
<rect x="71.7" y="55.2" transform="matrix(0.9963 -8.626677e-02 8.626677e-02 0.9963 -4.6469 6.4875)" class="st0" width="2.1" height="3.7"/>
<rect x="74.8" y="54.9" transform="matrix(0.9963 -8.626677e-02 8.626677e-02 0.9963 -4.6126 6.7506)" class="st0" width="2.1" height="3.7"/>
<rect x="74.1" y="59.7" transform="matrix(0.9963 -8.626677e-02 8.626677e-02 0.9963 -5.0313 6.7107)" class="st0" width="2.1" height="3.7"/>
<rect x="77.2" y="59.5" transform="matrix(0.9963 -8.626677e-02 8.626677e-02 0.9963 -4.997 6.9738)" class="st0" width="2.1" height="3.7"/>
<polygon class="st0" points="85.5,72.4 88.3,72.1 88.8,78.3 87,78.5 "/>
<polygon class="st0" points="89.6,72.1 92.6,71.9 92.5,74.3 89.7,74.3 "/>
<polygon class="st0" points="89.7,75.9 92.5,75.9 92.3,78.3 90,78.2 "/>
<polygon class="st0" points="96.4,75 99.2,74.9 99.9,79.3 96.9,79.3 "/>
<polygon class="st0" points="101,74.7 104.3,74.7 104,79.2 101.5,79.2 "/>
<rect x="87.2" y="53.5" class="st0" width="2.6" height="2.6"/>
<rect x="87.2" y="62.8" class="st0" width="2.6" height="2.6"/>
<rect x="87.2" y="57" class="st0" width="2.6" height="4.6"/>
</svg>
