<?xml version="1.0" encoding="UTF-8"?>
<svg id="edificios" xmlns="http://www.w3.org/2000/svg" width="2152" height="2152" viewBox="0 0 2152 2152">
  <polygon points="806.8 1142.7 818.7 1153.4 813.7 1158.9 816.8 1161.7 810.2 1169 805.7 1164.9 805.2 1165.5 806.1 1166.2 800.8 1172.1 799.9 1171.4 797.8 1173.7 787.8 1164.7 789.9 1162.3 788.8 1161.4 794.2 1155.5 795.2 1156.4 795.7 1155.9 789.9 1150.6 796.5 1143.3 801.8 1148.2 806.8 1142.7" style="fill: #254496;"/>
  <polygon points="943.1 1086.8 943.1 1092.5 937.8 1092.5 937.8 1095.7 932.6 1095.7 932.6 1092.6 927.5 1092.6 927.5 1086.9 932.6 1086.9 932.6 1083.2 937.8 1083.2 937.8 1086.8 943.1 1086.8" style="fill: #254496;"/>
  <polygon points="1114.8 1362.7 1110.1 1365.8 1107.2 1361.4 1104.5 1363.2 1101.7 1358.8 1104.3 1357.1 1101.5 1352.8 1106.3 1349.7 1109.1 1354 1112.2 1352 1115 1356.3 1112 1358.3 1114.8 1362.7" style="fill: #254496;"/>
  <polygon points="1132.4 1351.6 1127.6 1354.7 1124.7 1350.3 1122.1 1352 1119.2 1347.6 1121.8 1345.9 1119.1 1341.7 1123.8 1338.6 1126.6 1342.8 1129.7 1340.8 1132.5 1345.2 1129.5 1347.2 1132.4 1351.6" style="fill: #254496;"/>
  <polygon points="964.5 1087.2 964.5 1092.9 959.2 1092.9 959.2 1096.1 954 1096.1 954 1093 948.9 1093 948.9 1087.3 954 1087.3 954 1083.6 959.2 1083.6 959.2 1087.2 964.5 1087.2" style="fill: #254496;"/>
  <polygon points="942.8 1070 948.5 1070 948.5 1075.2 951.7 1075.2 951.7 1080.5 948.6 1080.5 948.6 1085.5 942.9 1085.5 942.9 1080.5 939.2 1080.5 939.2 1075.2 942.8 1075.2 942.8 1070" style="fill: #254496;"/>
  <polygon points="898.2 972.1 902 968.7 905.1 972.2 907.2 970.3 910.2 973.8 908.2 975.6 911.2 979 907.4 982.4 904.4 979 901.9 981.2 898.9 977.7 901.3 975.6 898.2 972.1" style="fill: #254496;"/>
  <polygon points="910.2 960.6 914 957.3 917.1 960.8 919.2 958.9 922.2 962.4 920.2 964.2 923.2 967.6 919.4 970.9 916.4 967.6 913.9 969.7 910.9 966.3 913.3 964.1 910.2 960.6" style="fill: #254496;"/>
  <polygon points="922 949.8 925.8 946.5 928.9 950 931 948.1 934.1 951.5 932 953.4 935 956.8 931.2 960.1 928.2 956.7 925.8 958.9 922.7 955.4 925.1 953.3 922 949.8" style="fill: #254496;"/>
  <polygon points="911.9 983.2 915.7 979.9 918.8 983.4 920.9 981.5 923.9 984.9 921.9 986.8 924.9 990.2 921.1 993.5 918.1 990.1 915.6 992.3 912.6 988.8 915 986.7 911.9 983.2" style="fill: #254496;"/>
  <polygon points="932.8 1003.6 936 999.7 939.6 1002.7 941.4 1000.5 945 1003.4 943.2 1005.5 946.7 1008.4 943.5 1012.3 940 1009.4 937.9 1012 934.4 1009 936.4 1006.5 932.8 1003.6" style="fill: #254496;"/>
  <polygon points="916.9 1022.6 920.1 1018.7 923.7 1021.7 925.6 1019.5 929.1 1022.5 927.4 1024.6 930.8 1027.5 927.6 1031.4 924.2 1028.5 922.1 1031 918.5 1028.1 920.5 1025.6 916.9 1022.6" style="fill: #254496;"/>
  <polygon points="905.8 1035.9 909 1032 912.6 1035 914.4 1032.8 917.9 1035.7 916.2 1037.9 919.7 1040.8 916.5 1044.7 913 1041.8 910.9 1044.3 907.3 1041.4 909.4 1038.9 905.8 1035.9" style="fill: #254496;"/>
  <polygon points="895.3 1048.5 898.5 1044.7 902.1 1047.6 903.9 1045.4 907.5 1048.4 905.7 1050.5 909.2 1053.4 906 1057.3 902.5 1054.4 900.4 1057 896.8 1054 898.9 1051.5 895.3 1048.5" style="fill: #254496;"/>
  <polygon points="883.5 1061.7 886.7 1057.8 890.3 1060.8 892.1 1058.6 895.7 1061.5 893.9 1063.7 897.4 1066.5 894.2 1070.4 890.7 1067.5 888.6 1070.1 885.1 1067.2 887.1 1064.7 883.5 1061.7" style="fill: #254496;"/>
  <polygon points="943.5 991.1 946.7 987.2 950.3 990.2 952.1 988 955.7 990.9 953.9 993.1 957.4 995.9 954.2 999.8 950.7 996.9 948.6 999.5 945.1 996.5 947.1 994 943.5 991.1" style="fill: #254496;"/>
  <polygon points="953.9 979.1 957.1 975.2 960.7 978.2 962.5 976 966.1 979 964.3 981.1 967.8 984 964.6 987.9 961.1 985 959 987.5 955.4 984.6 957.5 982.1 953.9 979.1" style="fill: #254496;"/>
  <polygon points="964.8 967.2 968 963.3 971.6 966.3 973.4 964.1 977 967 975.2 969.2 978.7 972 975.5 975.9 972 973 969.9 975.6 966.4 972.7 968.4 970.2 964.8 967.2" style="fill: #254496;"/>
  <polygon points="923.9 971.8 927.7 968.4 930.8 971.9 932.9 970 935.9 973.5 933.9 975.3 936.9 978.7 933.1 982.1 930.1 978.7 927.6 980.9 924.6 977.4 927 975.3 923.9 971.8" style="fill: #254496;"/>
  <polygon points="935.7 960.9 939.5 957.6 942.6 961.1 944.7 959.2 947.8 962.7 945.7 964.5 948.7 967.9 944.9 971.2 941.9 967.9 939.5 970 936.4 966.6 938.8 964.4 935.7 960.9" style="fill: #254496;"/>
  <polygon points="943.5 1093.8 949.2 1093.8 949.2 1099 952.4 1099 952.4 1104.3 949.3 1104.3 949.3 1109.3 943.6 1109.3 943.6 1104.3 939.9 1104.3 939.9 1099 943.5 1099 943.5 1093.8" style="fill: #254496;"/>
  <polygon points="910.9 1127.6 908.7 1130.3 911.2 1132.4 909.8 1134 907.3 1132 905.1 1134.7 909.2 1138.1 910.1 1137 911.2 1138 915.4 1132.9 914.3 1132 915.1 1131.1 910.9 1127.6" style="fill: #254496;"/>
  <polygon points="918.2 1132.1 920.8 1134.3 917.8 1137.9 916.2 1136.6 914.7 1138.3 916.4 1139.7 913.3 1143.4 910.6 1141.2 911.3 1140.4 910.5 1139.8 916.7 1132.3 917.5 1132.9 918.2 1132.1" style="fill: #254496;"/>
  <polygon points="902.7 1132.7 904.9 1130 902.4 1128 903.8 1126.4 906.3 1128.4 908.5 1125.7 904.4 1122.3 903.5 1123.3 902.4 1122.4 898.2 1127.5 899.3 1128.4 898.5 1129.3 902.7 1132.7" style="fill: #254496;"/>
  <polygon points="1100.5 1335.9 1096.7 1330.1 1091.3 1333.5 1089 1330 1094.3 1326.5 1090.5 1320.7 1081.5 1326.5 1083 1328.8 1080.6 1330.3 1087.8 1341.3 1090.2 1339.8 1091.5 1341.8 1100.5 1335.9" style="fill: #254496;"/>
  <polygon points="895.4 1128.2 892.8 1126 895.8 1122.4 897.4 1123.8 898.9 1122 897.2 1120.7 900.3 1117 903 1119.2 902.3 1120 903 1120.6 896.9 1128.1 896.1 1127.4 895.4 1128.2" style="fill: #254496;"/>
  <polygon points="922.7 1113.2 920.5 1115.9 922.9 1117.9 921.6 1119.6 919.1 1117.6 916.9 1120.2 921 1123.7 921.9 1122.6 923 1123.5 927.2 1118.5 926.1 1117.6 926.9 1116.6 922.7 1113.2" style="fill: #254496;"/>
  <polygon points="929.9 1117.7 932.6 1119.9 929.6 1123.5 927.9 1122.2 926.5 1123.9 928.1 1125.3 925.1 1129 922.4 1126.8 923.1 1126 922.3 1125.3 928.5 1117.9 929.3 1118.5 929.9 1117.7" style="fill: #254496;"/>
  <polygon points="914.4 1118.3 916.7 1115.6 914.2 1113.6 915.6 1111.9 918 1114 920.3 1111.3 916.1 1107.8 915.3 1108.9 914.2 1108 910 1113.1 911.1 1114 910.3 1114.9 914.4 1118.3" style="fill: #254496;"/>
  <polygon points="907.2 1113.8 904.6 1111.6 907.6 1108 909.2 1109.4 910.7 1107.6 909 1106.3 912.1 1102.6 914.7 1104.8 914.1 1105.6 914.8 1106.2 908.6 1113.6 907.9 1113 907.2 1113.8" style="fill: #254496;"/>
  <polygon points="1053.6 1245.4 1055.2 1248.5 1053.1 1249.6 1053.4 1250.1 1052.2 1250.8 1050.5 1247.8 1047.3 1249.6 1048.9 1252.6 1047.6 1253.3 1047.3 1252.8 1045.3 1253.9 1043.6 1250.9 1044.1 1250.6 1042.2 1247.2 1041.7 1247.5 1040 1244.5 1042.1 1243.3 1041.8 1242.8 1043.1 1242.1 1044.7 1245.1 1048 1243.3 1046.3 1240.4 1047.6 1239.7 1047.9 1240.2 1050 1239 1051.7 1242 1050.9 1242.4 1052.8 1245.8 1053.6 1245.4" style="fill: #254496;"/>
  <polygon points="1054.1 1226.8 1055.8 1229.8 1053.7 1231 1053.9 1231.5 1052.7 1232.2 1051 1229.2 1047.8 1231 1049.4 1233.9 1048.1 1234.6 1047.9 1234.1 1045.8 1235.3 1044.1 1232.2 1044.6 1231.9 1042.7 1228.6 1042.2 1228.9 1040.5 1225.8 1042.6 1224.7 1042.3 1224.2 1043.6 1223.5 1045.3 1226.4 1048.5 1224.7 1046.9 1221.7 1048.1 1221 1048.4 1221.5 1050.5 1220.4 1052.2 1223.4 1051.4 1223.8 1053.3 1227.2 1054.1 1226.8" style="fill: #254496;"/>
  <polygon points="1070.2 1235.8 1071.9 1238.9 1069.8 1240 1070.1 1240.6 1068.8 1241.3 1067.1 1238.3 1063.9 1240 1065.5 1243 1064.3 1243.7 1064 1243.2 1061.9 1244.3 1060.2 1241.3 1060.7 1241 1058.9 1237.6 1058.3 1237.9 1056.6 1234.9 1058.7 1233.7 1058.4 1233.2 1059.7 1232.5 1061.4 1235.5 1064.6 1233.7 1063 1230.8 1064.2 1230.1 1064.5 1230.6 1066.6 1229.4 1068.3 1232.5 1067.6 1232.9 1069.4 1236.3 1070.2 1235.8" style="fill: #254496;"/>
  <polygon points="1070.3 1252.1 1072 1255.1 1069.9 1256.3 1070.1 1256.8 1068.9 1257.5 1067.2 1254.5 1064 1256.3 1065.6 1259.2 1064.4 1259.9 1064.1 1259.4 1062 1260.6 1060.3 1257.6 1060.8 1257.3 1058.9 1253.9 1058.4 1254.2 1056.7 1251.1 1058.8 1250 1058.5 1249.5 1059.8 1248.8 1061.5 1251.8 1064.7 1250 1063.1 1247 1064.3 1246.3 1064.6 1246.8 1066.7 1245.7 1068.4 1248.7 1067.6 1249.1 1069.5 1252.5 1070.3 1252.1" style="fill: #254496;"/>
  <rect x="904" y="1193.3" width="43.5" height="9.4" transform="translate(-547.1 847.3) rotate(-38.9)" style="fill: #254496;"/>
  <rect x="911.6" y="1202.9" width="43.5" height="9.4" transform="translate(-551.4 854.1) rotate(-38.9)" style="fill: #254496;"/>
  <polygon points="951.1 1137.1 947.2 1142.3 944.7 1140.4 943 1142.7 944.7 1151.6 938.3 1152.9 936.5 1143.9 936.1 1144.4 931.6 1141 935.5 1135.8 939 1138.5 940.2 1136.9 936.9 1134.4 940.9 1129.2 945.4 1132.6 942.6 1136.3 943.8 1137.3 946.6 1133.6 951.1 1137.1" style="fill: #254496;"/>
  <polygon points="956.2 1163.3 950.6 1160.1 949 1162.7 946.6 1161.3 944.9 1152.7 938.5 1154 940.2 1162.6 939.5 1162.2 936.6 1166.9 942.2 1170.1 944.5 1166.4 946.1 1167.4 944 1170.8 949.5 1174 952.5 1169.3 948.5 1167.1 949.4 1165.8 953.2 1168 956.2 1163.3" style="fill: #254496;"/>
  <polygon points="965.4 1147.6 956.6 1162.6 950.7 1159.2 956.4 1149.5 947.5 1142.6 951.6 1137.3 961.5 1144.8 965.4 1147.6" style="fill: #254496;"/>
  <polygon points="873.7 1154.2 874.9 1156.6 872.4 1157.8 875 1163.2 872.5 1164.4 871.1 1161.5 865.9 1164 864.8 1161.6 868 1160 865.2 1154.2 867.7 1153 869.3 1156.3 873.7 1154.2" style="fill: #254496;"/>
  <polygon points="1072.6 1375.7 1073.8 1378.2 1071.3 1379.4 1073.9 1384.7 1071.5 1385.9 1070.1 1383 1064.9 1385.6 1063.7 1383.1 1067 1381.5 1064.2 1375.7 1066.6 1374.5 1068.2 1377.8 1072.6 1375.7" style="fill: #254496;"/>
  <polygon points="1086.9 1367.3 1088.1 1369.8 1085.7 1371 1088.3 1376.4 1085.8 1377.5 1084.4 1374.7 1079.2 1377.2 1078 1374.7 1081.3 1373.1 1078.5 1367.4 1081 1366.2 1082.6 1369.5 1086.9 1367.3" style="fill: #254496;"/>
  <polygon points="1082.8 1390.5 1084 1393 1081.6 1394.2 1084.2 1399.6 1081.7 1400.7 1080.3 1397.9 1075.1 1400.4 1073.9 1397.9 1077.2 1396.3 1074.4 1390.6 1076.8 1389.4 1078.5 1392.7 1082.8 1390.5" style="fill: #254496;"/>
  <polygon points="1097.2 1382.2 1098.4 1384.6 1095.9 1385.8 1098.5 1391.2 1096.1 1392.4 1094.7 1389.5 1089.5 1392 1088.3 1389.6 1091.6 1388 1088.7 1382.2 1091.2 1381 1092.8 1384.3 1097.2 1382.2" style="fill: #254496;"/>
  <polygon points="884.4 1153.5 885.6 1155.9 883.2 1157.1 885.8 1162.5 883.3 1163.7 881.9 1160.8 876.7 1163.3 875.5 1160.8 878.8 1159.3 876 1153.5 878.5 1152.3 880.1 1155.6 884.4 1153.5" style="fill: #254496;"/>
  <polygon points="876.7 1166.3 877.9 1168.8 875.4 1170 878 1175.3 875.6 1176.5 874.1 1173.6 869 1176.1 867.8 1173.7 871 1172.1 868.2 1166.3 870.7 1165.1 872.3 1168.4 876.7 1166.3" style="fill: #254496;"/>
  <polygon points="887.4 1165.6 888.6 1168.1 886.2 1169.2 888.8 1174.6 886.3 1175.8 884.9 1172.9 879.7 1175.4 878.5 1173 881.8 1171.4 879 1165.6 881.5 1164.4 883.1 1167.7 887.4 1165.6" style="fill: #254496;"/>
  <polygon points="897.7 1164.3 898.9 1166.8 896.5 1167.9 899.1 1173.3 896.6 1174.5 895.2 1171.6 890 1174.1 888.9 1171.7 892.1 1170.1 889.3 1164.3 891.8 1163.1 893.4 1166.4 897.7 1164.3" style="fill: #254496;"/>
  <polygon points="888.6 1178 889.7 1180.4 887.3 1181.6 889.9 1187 887.4 1188.2 886 1185.3 880.8 1187.8 879.7 1185.4 882.9 1183.8 880.1 1178 882.6 1176.8 884.2 1180.1 888.6 1178" style="fill: #254496;"/>
  <rect x="1122.8" y="1183" width="13.4" height="13.4" transform="translate(-452.1 754.1) rotate(-31.1)" style="fill: #254496;"/>
  <rect x="1111.1" y="1238.5" width="26.8" height="13.4" transform="translate(-504.6 844) rotate(-34.1)" style="fill: #254496;"/>
  <rect x="1153.1" y="1216.5" width="13.7" height="38.5" transform="translate(-478.1 800.8) rotate(-31.9)" style="fill: #254496;"/>
  <rect x="1177.9" y="1268.4" width="31.3" height="8.3" transform="translate(-492.5 824.1) rotate(-31.9)" style="fill: #254496;"/>
  <rect x="1137.7" y="1173.8" width="13.4" height="13.4" transform="translate(-445.2 760.4) rotate(-31.1)" style="fill: #254496;"/>
  <rect x="929.4" y="815.2" width="13.4" height="43.5" transform="translate(-297.7 603.5) rotate(-31.1)" style="fill: #254496;"/>
  <rect x="924" y="824.8" width="9.6" height="31.3" transform="translate(-300.6 600.3) rotate(-31.1)" style="fill: #254496;"/>
  <rect x="1131" y="1196.4" width="13.4" height="13.4" transform="translate(-457.8 760.3) rotate(-31.1)" style="fill: #254496;"/>
  <rect x="1146" y="1187.2" width="13.4" height="13.4" transform="translate(-450.9 766.6) rotate(-31.1)" style="fill: #254496;"/>
  <rect x="709.6" y="1087.6" width="13.4" height="13.4" transform="translate(-564 827) rotate(-45)" style="fill: #254496;"/>
  <rect x="724.9" y="1070.9" width="13.4" height="13.4" transform="translate(-547.7 832.9) rotate(-45)" style="fill: #254496;"/>
  <rect x="722.2" y="1100.6" width="13.4" height="13.4" transform="translate(-569.5 839.7) rotate(-45)" style="fill: #254496;"/>
  <rect x="737.4" y="1083.9" width="13.4" height="13.4" transform="translate(-553.2 845.6) rotate(-45)" style="fill: #254496;"/>
  <rect x="882.1" y="986.4" width="8.5" height="41" transform="translate(-455 988.9) rotate(-47.9)" style="fill: #254496;"/>
  <rect x="890.8" y="975.6" width="8.5" height="41.9" transform="translate(-444.4 991.9) rotate(-47.9)" style="fill: #254496;"/>
  <rect x="864.8" y="1007" width="8.5" height="41" transform="translate(-475.9 982.8) rotate(-47.9)" style="fill: #254496;"/>
  <rect x="825.5" y="966.5" width="8.5" height="51.1" transform="translate(-462.6 942) rotate(-47.9)" style="fill: #254496;"/>
  <rect x="873.5" y="996.2" width="8.5" height="41.9" transform="translate(-465.4 985.8) rotate(-47.9)" style="fill: #254496;"/>
  <rect x="841.6" y="971.2" width="8.5" height="32.3" transform="translate(-453.8 952.4) rotate(-47.9)" style="fill: #254496;"/>
  <rect x="847.5" y="954.5" width="8.5" height="40.1" transform="translate(-442.4 952.6) rotate(-47.9)" style="fill: #254496;"/>
  <rect x="861.9" y="955.5" width="8.5" height="25.9" transform="translate(-433.1 961.2) rotate(-47.9)" style="fill: #254496;"/>
  <rect x="1087.4" y="1208" width="13.4" height="13.4" transform="translate(-485.3 792.6) rotate(-33)" style="fill: #254496;"/>
  <rect x="1063.7" y="1276.2" width="8" height="8" transform="translate(-525.2 788.8) rotate(-33)" style="fill: #254496;"/>
  <rect x="1039.7" y="1317.4" width="26.7" height="11.3" transform="translate(-551 787.8) rotate(-33)" style="fill: #254496;"/>
  <rect x="1004.8" y="1405.1" width="41.6" height="6.6" transform="translate(-601.9 786.6) rotate(-33)" style="fill: #254496;"/>
  <rect x="965.1" y="1338.8" width="41.6" height="13.5" transform="translate(-574.1 754.8) rotate(-33)" style="fill: #254496;"/>
  <rect x="978.4" y="1347.5" width="23.3" height="6.6" transform="translate(-576.3 757.9) rotate(-33)" style="fill: #254496;"/>
  <rect x="970.8" y="1335.9" width="23.3" height="6.6" transform="translate(-571.2 751.9) rotate(-33)" style="fill: #254496;"/>
  <rect x="758" y="1029.1" width="41.6" height="13.5" transform="translate(-504.3 854.1) rotate(-45)" style="fill: #254496;"/>
  <rect x="777.9" y="1066.6" width="31.7" height="8.7" transform="translate(-533 941.3) rotate(-47.9)" style="fill: #254496;"/>
  <rect x="794" y="1066.5" width="34.5" height="8.7" transform="translate(927.9 -267.5) rotate(42.1)" style="fill: #254496;"/>
  <rect x="797" y="1083.9" width="31.7" height="8.7" transform="translate(-539.5 961.1) rotate(-47.9)" style="fill: #254496;"/>
  <rect x="828.2" y="1115.4" width="27.6" height="12.7" transform="translate(-554.7 993.8) rotate(-47.9)" style="fill: #254496;"/>
  <rect x="848.7" y="1091.7" width="28.1" height="12.7" transform="translate(-530.4 1001.4) rotate(-47.9)" style="fill: #254496;"/>
  <rect x="762.1" y="1122.1" width="31.7" height="8.7" transform="translate(2135.2 1305) rotate(132.1)" style="fill: #254496;"/>
  <rect x="743.2" y="1122.2" width="34.5" height="8.7" transform="translate(568.8 2472.1) rotate(-137.9)" style="fill: #254496;"/>
  <rect x="743" y="1104.8" width="31.7" height="8.7" transform="translate(2090.5 1290.4) rotate(132.1)" style="fill: #254496;"/>
  <rect x="772.3" y="1036.8" width="23.3" height="6.6" transform="translate(-505.8 859) rotate(-45)" style="fill: #254496;"/>
  <rect x="762.5" y="1027" width="23.3" height="6.6" transform="translate(-501.8 849.1) rotate(-45)" style="fill: #254496;"/>
  <rect x="1028.6" y="1428.6" width="66.4" height="6.6" transform="translate(1683.6 -238.8) rotate(57)" style="fill: #254496;"/>
  <rect x="1020.3" y="1434" width="66.4" height="6.6" transform="translate(1684.3 -229.4) rotate(57)" style="fill: #254496;"/>
  <rect x="1011.9" y="1419.2" width="21.5" height="6.6" transform="translate(-610.1 787.3) rotate(-33)" style="fill: #254496;"/>
  <rect x="1019.8" y="1431.4" width="21.5" height="6.6" transform="translate(-615.5 793.6) rotate(-33)" style="fill: #254496;"/>
  <rect x="1027.7" y="1443.5" width="21.5" height="6.6" transform="translate(-620.7 799.8) rotate(-33)" style="fill: #254496;"/>
  <rect x="1033.7" y="1448.1" width="14.1" height="4.5" transform="translate(-622.3 801.6) rotate(-33)" style="fill: #254496;"/>
  <rect x="1017.4" y="1423.2" width="14.1" height="4.5" transform="translate(-611.4 788.7) rotate(-33)" style="fill: #254496;"/>
  <rect x="1024.8" y="1435.4" width="14.1" height="4.5" transform="translate(-616.8 794.7) rotate(-33)" style="fill: #254496;"/>
  <rect x="1049.9" y="1353.6" width="10.3" height="10.3" transform="translate(-570.1 794.6) rotate(-33)" style="fill: #254496;"/>
  <rect x="1042.2" y="1456.3" width="18.7" height="18.7" transform="translate(-628.9 810) rotate(-33)" style="fill: #254496;"/>
  <rect x="1114.9" y="1451.6" width="41.1" height="7.8" transform="translate(-609.9 854.1) rotate(-33)" style="fill: #254496;"/>
  <rect x="1153.2" y="1420.2" width="10.3" height="18.9" transform="translate(-592 862.4) rotate(-33)" style="fill: #254496;"/>
  <rect x="1063.9" y="1344.2" width="10.3" height="10.3" transform="translate(-562.7 800.7) rotate(-33)" style="fill: #254496;"/>
  <rect x="932.1" y="1290.2" width="9.5" height="5.5" transform="translate(-47.4 35.7) rotate(-2.1)" style="fill: #254496;"/>
  <rect x="932.1" y="1279.7" width="9.6" height="5.5" transform="translate(-47 35.7) rotate(-2.1)" style="fill: #254496;"/>
  <rect x="931.9" y="1269.2" width="9.7" height="5.5" transform="translate(-46.6 35.7) rotate(-2.1)" style="fill: #254496;"/>
  <rect x="1019.9" y="1256.6" width="8" height="8" rx="3.5" ry="3.5" transform="translate(-521.6 761.8) rotate(-33)" style="fill: #254496;"/>
  <rect x="1031.2" y="1259.5" width="8" height="8" rx="3.5" ry="3.5" transform="translate(-521.4 768.4) rotate(-33)" style="fill: #254496;"/>
  <rect x="1030" y="1271.6" width="8" height="8" rx="3.5" ry="3.5" transform="translate(-528.2 769.8) rotate(-33)" style="fill: #254496;"/>
  <rect x="1017.2" y="1271.6" width="8" height="8" rx="3.5" ry="3.5" transform="translate(-530.3 762.7) rotate(-33)" style="fill: #254496;"/>
  <rect x="1010.1" y="1282.9" width="8" height="8" rx="3.5" ry="3.5" transform="translate(-537.6 760.7) rotate(-33)" style="fill: #254496;"/>
  <rect x="1007.3" y="1265.9" width="8" height="8" rx="3.5" ry="3.5" transform="translate(-528.8 756.4) rotate(-33)" style="fill: #254496;"/>
  <rect x="1070.1" y="1285.5" width="8" height="8" transform="translate(-529.3 793.8) rotate(-33)" style="fill: #254496;"/>
  <rect x="1100.5" y="1326.1" width="8" height="6.9" transform="translate(-546.2 816.9) rotate(-33)" style="fill: #254496;"/>
  <rect x="1093.6" y="1316.6" width="8" height="6.9" transform="translate(-542.1 811.6) rotate(-33)" style="fill: #254496;"/>
  <rect x="1080.5" y="1265.2" width="8" height="8" transform="translate(-516.5 796.2) rotate(-33)" style="fill: #254496;"/>
  <rect x="1087" y="1274.6" width="8" height="8" transform="translate(-520.6 801.3) rotate(-33)" style="fill: #254496;"/>
  <rect x="1076.5" y="1295.7" width="8" height="8" transform="translate(-533.8 799) rotate(-33)" style="fill: #254496;"/>
  <rect x="1036.5" y="1324.8" width="14.1" height="26.1" transform="translate(-551.5 759.3) rotate(-32.1)" style="fill: #254496;"/>
  <rect x="1156.6" y="1409.5" width="26.1" height="26.1" transform="translate(-577.2 839.3) rotate(-32.1)" style="fill: #254496;"/>
  <rect x="1083" y="1305.1" width="8" height="8" transform="translate(-537.9 804) rotate(-33)" style="fill: #254496;"/>
  <rect x="1020.4" y="1373.1" width="8" height="8" transform="translate(-585.1 780.9) rotate(-33)" style="fill: #254496;"/>
  <rect x="1010.1" y="1379.8" width="8" height="8" transform="translate(-590.4 776.4) rotate(-33)" style="fill: #254496;"/>
  <rect x="1013.3" y="1362.1" width="8" height="8" transform="translate(-580.2 775.3) rotate(-33)" style="fill: #254496;"/>
  <rect x="1003" y="1368.7" width="8" height="8" transform="translate(-585.5 770.7) rotate(-33)" style="fill: #254496;"/>
  <rect x="1005.6" y="1350.9" width="8" height="8" transform="translate(-575.3 769.2) rotate(-33)" style="fill: #254496;"/>
  <rect x="995.3" y="1357.6" width="8" height="8" transform="translate(-580.7 764.7) rotate(-33)" style="fill: #254496;"/>
  <rect x="985.8" y="1367.3" width="5.2" height="35.5" transform="translate(-595.2 762.6) rotate(-33)" style="fill: #254496;"/>
  <rect x="969.8" y="1275.9" width="3.6" height="22.1" transform="translate(422.1 2803) rotate(-123)" style="fill: #254496;"/>
  <rect x="947.9" y="1312.5" width="5.1" height="22.1" transform="translate(2468.7 1915.2) rotate(147)" style="fill: #254496;"/>
  <rect x="951.5" y="1324.8" width="16.1" height="5.5" transform="translate(2487.7 1917.6) rotate(147)" style="fill: #254496;"/>
  <rect x="957.1" y="1306.5" width="5.1" height="22.1" transform="translate(2482.4 1899.1) rotate(147)" style="fill: #254496;"/>
  <rect x="971.7" y="1284" width="3.6" height="18.8" transform="translate(419.7 2814.5) rotate(-123)" style="fill: #254496;"/>
  <rect x="974.1" y="1290.3" width="3.6" height="17" transform="translate(418.9 2825) rotate(-123)" style="fill: #254496;"/>
  <rect x="977.2" y="1295" width="3.6" height="17" transform="translate(419.7 2834.8) rotate(-123)" style="fill: #254496;"/>
  <rect x="978.7" y="1303.1" width="3.6" height="13" transform="translate(417 2845.4) rotate(-123)" style="fill: #254496;"/>
  <rect x="994.1" y="1361.9" width="5.2" height="35.5" transform="translate(-590.9 766.2) rotate(-33)" style="fill: #254496;"/>
  <rect x="955.7" y="1225.1" width="5.2" height="35.5" transform="translate(981 2812.1) rotate(-143.2)" style="fill: #254496;"/>
  <rect x="934.1" y="1263.8" width="4.9" height="35.5" transform="translate(1873 2563.1) rotate(180)" style="fill: #254496;"/>
  <rect x="945.4" y="1296.9" width="9.5" height="5.5" transform="translate(-47.6 36.2) rotate(-2.1)" style="fill: #254496;"/>
  <rect x="945.4" y="1286.5" width="9.6" height="5.5" transform="translate(-47.2 36.2) rotate(-2.1)" style="fill: #254496;"/>
  <rect x="945.2" y="1276" width="9.7" height="5.5" transform="translate(-46.8 36.2) rotate(-2.1)" style="fill: #254496;"/>
  <rect x="947.4" y="1270.6" width="4.9" height="35.5" transform="translate(1899.6 2576.6) rotate(180)" style="fill: #254496;"/>
  <rect x="964.7" y="1234.1" width="5.2" height="29.5" transform="translate(993.5 2828.3) rotate(-143.2)" style="fill: #254496;"/>
  <rect x="973.5" y="1240.1" width="5.2" height="29.5" transform="translate(1005.7 2844.4) rotate(-143.2)" style="fill: #254496;"/>
  <rect x="981.5" y="1245.6" width="5.2" height="29.5" transform="translate(1016.9 2859) rotate(-143.2)" style="fill: #254496;"/>
  <rect x="971.7" y="1222.2" width="5.2" height="15" transform="translate(-255.3 2204) rotate(-90)" style="fill: #254496;"/>
  <rect x="948.4" y="1253.8" width="5.2" height="15" transform="translate(-424.7 485) rotate(-23.5)" style="fill: #254496;"/>
  <rect x="1093.4" y="1284.8" width="8" height="8" transform="translate(-525.1 806.4) rotate(-33)" style="fill: #254496;"/>
  <rect x="1099.9" y="1294.1" width="8" height="8" transform="translate(-529.2 811.4) rotate(-33)" style="fill: #254496;"/>
  <rect x="1106.2" y="1307.9" width="13" height="18" transform="translate(-537.9 819.3) rotate(-33)" style="fill: #254496;"/>
  <rect x="1144.5" y="1354.5" width="8.4" height="40.2" transform="translate(-563.6 848.3) rotate(-33)" style="fill: #254496;"/>
  <rect x="1131.3" y="1363.3" width="8.1" height="40.2" transform="translate(-570.6 842.4) rotate(-33)" style="fill: #254496;"/>
  <rect x="1102" y="1198.3" width="13.4" height="13.4" transform="translate(-477.6 799) rotate(-33)" style="fill: #254496;"/>
  <rect x="1096.1" y="1221.1" width="13.4" height="13.4" transform="translate(-491 799.5) rotate(-33)" style="fill: #254496;"/>
  <rect x="1121.1" y="1257" width="11.9" height="11.9" transform="translate(-506.3 818.4) rotate(-33)" style="fill: #254496;"/>
  <polygon points="1145.9 1297.1 1151.3 1293.7 1154.2 1298.1 1156.2 1296.8 1149.7 1286.8 1139.7 1293.3 1146.2 1303.3 1148.8 1301.6 1145.9 1297.1" style="fill: #254496;"/>
  <polygon points="1158.4 1289.5 1163.7 1286 1166.6 1290.4 1168.7 1289.1 1162.2 1279.1 1152.2 1285.6 1158.7 1295.6 1161.3 1293.9 1158.4 1289.5" style="fill: #254496;"/>
  <polygon points="1151.1 1261.7 1144.4 1266.3 1147.8 1271.5 1139.9 1276.6 1136.6 1271.6 1128.9 1276.7 1138.2 1290.4 1160.4 1275.4 1151.1 1261.7" style="fill: #254496;"/>
  <rect x="1133.8" y="1248.8" width="11.9" height="11.9" transform="translate(-499.7 824) rotate(-33)" style="fill: #254496;"/>
  <rect x="1203.9" y="1286.8" width="11.9" height="9" transform="translate(-483.6 778) rotate(-30)" style="fill: #254496;"/>
  <rect x="1110.7" y="1211.4" width="13.4" height="13.4" transform="translate(-483.4 805.9) rotate(-33)" style="fill: #254496;"/>
  <rect x="1174.6" y="1230" width="12.8" height="13.4" transform="translate(-469 787.5) rotate(-31.1)" style="fill: #254496;"/>
  <rect x="1227" y="1355.8" width="40.7" height="12.6" transform="translate(-533.2 871.3) rotate(-32.1)" style="fill: #254496;"/>
  <rect x="1196.3" y="1378.4" width="28.9" height="4.6" transform="translate(-548.7 854.8) rotate(-32.1)" style="fill: #254496;"/>
  <rect x="1185.4" y="1361.3" width="28.9" height="6.5" transform="translate(-541.8 846.5) rotate(-32.1)" style="fill: #254496;"/>
  <rect x="1189.1" y="1357.5" width="17.1" height="6.5" transform="translate(-540.1 844.7) rotate(-32.1)" style="fill: #254496;"/>
  <rect x="1180" y="1343.4" width="17.1" height="6.5" transform="translate(-534 837.7) rotate(-32.1)" style="fill: #254496;"/>
  <rect x="1176.7" y="1347.4" width="28.9" height="6.5" transform="translate(-535.7 839.7) rotate(-32.1)" style="fill: #254496;"/>
  <rect x="1154.7" y="1309.2" width="26.8" height="8.7" transform="translate(-519.5 821.8) rotate(-32.1)" style="fill: #254496;"/>
  <rect x="1163.8" y="1324.5" width="12.7" height="13.2" transform="translate(-545.1 884.7) rotate(-34.1)" style="fill: #254496;"/>
  <rect x="1176.7" y="1315.8" width="12.7" height="13.2" transform="translate(-537.9 890.5) rotate(-34.1)" style="fill: #254496;"/>
  <rect x="1210.3" y="1399.3" width="27" height="4.6" transform="translate(-557.8 864.9) rotate(-32.1)" style="fill: #254496;"/>
  <rect x="1192.4" y="1395.4" width="29.3" height="4.5" transform="translate(1749.3 -367.7) rotate(57.9)" style="fill: #254496;"/>
  <rect x="1201.5" y="1393.5" width="14.6" height="4.5" transform="translate(1748.6 -370) rotate(57.9)" style="fill: #254496;"/>
  <rect x="1218.3" y="1383.8" width="14.6" height="4.5" transform="translate(1748.1 -388.8) rotate(57.9)" style="fill: #254496;"/>
  <rect x="1216.5" y="1396.4" width="11.5" height="4.5" transform="translate(-556.5 863.6) rotate(-32.1)" style="fill: #254496;"/>
  <rect x="1206.8" y="1381" width="11.5" height="4.5" transform="translate(-549.8 856.1) rotate(-32.1)" style="fill: #254496;"/>
  <rect x="1213" y="1382.4" width="29.3" height="4.5" transform="translate(1748 -391.2) rotate(57.9)" style="fill: #254496;"/>
  <rect x="1016.2" y="1304.5" width="18.5" height="2.9" transform="translate(-537.3 744.8) rotate(-32.1)" style="fill: #254496;"/>
  <rect x="1025.2" y="1317.8" width="17.3" height="3" transform="translate(-543.1 751.3) rotate(-32.1)" style="fill: #254496;"/>
  <rect x="1013.7" y="1315.3" width="18.7" height="2.9" transform="translate(1594.6 -249.7) rotate(57.9)" style="fill: #254496;"/>
  <rect x="1026.9" y="1307" width="18.7" height="2.9" transform="translate(1593.8 -264.8) rotate(57.9)" style="fill: #254496;"/>
  <rect x="1034.5" y="1293" width="18.5" height="2.9" transform="translate(-528.4 752.8) rotate(-32.1)" style="fill: #254496;"/>
  <rect x="1043.5" y="1306.4" width="17.3" height="3" transform="translate(-534.2 759.3) rotate(-32.1)" style="fill: #254496;"/>
  <rect x="1032" y="1303.8" width="18.7" height="2.9" transform="translate(1593.5 -270.6) rotate(57.9)" style="fill: #254496;"/>
  <rect x="1045.2" y="1295.6" width="18.7" height="2.9" transform="translate(1592.6 -285.7) rotate(57.9)" style="fill: #254496;"/>
  <rect x="1235.9" y="1370" width="40.7" height="12.4" transform="translate(-539.3 878.2) rotate(-32.1)" style="fill: #254496;"/>
  <rect x="1212.5" y="1281.3" width="12.8" height="30.4" transform="translate(-494.4 815.6) rotate(-31.1)" style="fill: #254496;"/>
  <rect x="1230.9" y="1312.9" width="12.8" height="28.3" transform="translate(-507.5 829.5) rotate(-31.1)" style="fill: #254496;"/>
  <rect x="1216" y="1321.3" width="12.8" height="29.5" transform="translate(-514.3 823) rotate(-31.1)" style="fill: #254496;"/>
  <rect x="1200.8" y="1301.6" width="30.2" height="13.4" transform="translate(-500.9 815.7) rotate(-31.1)" style="fill: #254496;"/>
  <rect x="1189.6" y="1242.8" width="8.4" height="19.1" transform="translate(-475.2 796.3) rotate(-31.1)" style="fill: #254496;"/>
  <rect x="1178" y="1249.8" width="8.4" height="19.1" transform="translate(-480.5 791.3) rotate(-31.1)" style="fill: #254496;"/>
  <rect x="1163.1" y="1208.9" width="12.2" height="18.2" transform="translate(-481.7 864.4) rotate(-34.1)" style="fill: #254496;"/>
  <rect x="1096" y="1210.9" width="14.1" height="2.7" transform="translate(-482.5 797.1) rotate(-33)" style="fill: #254496;"/>
  <rect x="1104.4" y="1223.6" width="14.1" height="3.1" transform="translate(-488.2 803.8) rotate(-33)" style="fill: #254496;"/>
  <rect x="796.8" y="1232.7" width="26.5" height="4.2" transform="translate(-638 944.6) rotate(-45.4)" style="fill: #254496;"/>
  <rect x="813.7" y="1248.6" width="24.8" height="4.3" transform="translate(-644.5 960.8) rotate(-45.4)" style="fill: #254496;"/>
  <rect x="796.9" y="1248.6" width="26.8" height="4.1" transform="translate(1111.4 -208.8) rotate(44.6)" style="fill: #254496;"/>
  <rect x="811.2" y="1227" width="12" height="32.4" transform="translate(1108.1 -215.8) rotate(44.6)" style="fill: #254496;"/>
  <rect x="812.3" y="1225.3" width="10.6" height="33.2" transform="translate(-640.8 952.1) rotate(-45.4)" style="fill: #254496;"/>
  <rect x="812.5" y="1232.7" width="26.8" height="4.2" transform="translate(1104.7 -224.4) rotate(44.6)" style="fill: #254496;"/>
  <rect x="822.8" y="1204.1" width="26.5" height="4.2" transform="translate(-621.3 1032.4) rotate(-48.5)" style="fill: #254496;"/>
  <rect x="840.6" y="1219.1" width="24.8" height="4.3" transform="translate(-626.8 1050.1) rotate(-48.5)" style="fill: #254496;"/>
  <rect x="823.7" y="1220" width="26.8" height="4.1" transform="translate(1020.6 -247.8) rotate(41.5)" style="fill: #254496;"/>
  <rect x="838.6" y="1195.7" width="12.3" height="35.3" transform="translate(1016.8 -255.1) rotate(41.5)" style="fill: #254496;"/>
  <rect x="839.1" y="1196.2" width="10.6" height="34.3" transform="translate(-623.8 1041) rotate(-48.5)" style="fill: #254496;"/>
  <rect x="838.5" y="1203.3" width="26.8" height="4.2" transform="translate(1013.3 -261.8) rotate(41.5)" style="fill: #254496;"/>
  <rect x="827" y="1261.3" width="26.5" height="4.2" transform="translate(-649.4 974.7) rotate(-45.4)" style="fill: #254496;"/>
  <rect x="843.9" y="1277.2" width="24.8" height="4.3" transform="translate(-655.9 990.9) rotate(-45.4)" style="fill: #254496;"/>
  <rect x="827.1" y="1277.2" width="26.8" height="4.1" transform="translate(1140.2 -221.8) rotate(44.6)" style="fill: #254496;"/>
  <rect x="840.9" y="1254.5" width="13.4" height="33.5" transform="translate(1136.6 -229.1) rotate(44.6)" style="fill: #254496;"/>
  <rect x="843.1" y="1253.7" width="10.6" height="35" transform="translate(-652.5 982.8) rotate(-45.4)" style="fill: #254496;"/>
  <rect x="842.7" y="1261.3" width="26.8" height="4.2" transform="translate(1133.5 -237.3) rotate(44.6)" style="fill: #254496;"/>
  <rect x="853" y="1232.8" width="26.5" height="4.2" transform="translate(-632.5 1064.7) rotate(-48.5)" style="fill: #254496;"/>
  <rect x="870.8" y="1247.7" width="24.8" height="4.3" transform="translate(-638 1082.4) rotate(-48.5)" style="fill: #254496;"/>
  <rect x="853.9" y="1248.6" width="26.8" height="4.1" transform="translate(1047.2 -260.7) rotate(41.5)" style="fill: #254496;"/>
  <rect x="867.5" y="1225.2" width="13.4" height="33.9" transform="translate(1043.2 -267.3) rotate(41.5)" style="fill: #254496;"/>
  <rect x="869.7" y="1224.6" width="10.6" height="35.5" transform="translate(-635.2 1073.8) rotate(-48.5)" style="fill: #254496;"/>
  <rect x="868.7" y="1231.9" width="26.8" height="4.2" transform="translate(1039.8 -274.7) rotate(41.5)" style="fill: #254496;"/>
  <polygon points="1128.9 1140.5 1131.9 1145.5 1127.9 1147.9 1128.8 1149.3 1111.6 1159.9 1112.3 1160.9 1105.6 1165 1098.9 1154.2 1098.9 1154.2 1098.9 1154.1 1122.7 1139.5 1124.9 1143 1128.9 1140.5" style="fill: #254496;"/>
  <rect x="1109.3" y="1163" width="7.2" height="13.7" transform="translate(-446.6 751.3) rotate(-31.4)" style="fill: #254496;"/>
  <rect x="1125.6" y="1149.7" width="12.3" height="15.3" transform="translate(-437.3 759.3) rotate(-31.4)" style="fill: #254496;"/>
  <polygon points="1080.2 1185.5 1080.2 1188.9 1077.8 1188.9 1077.8 1189.5 1076.3 1189.5 1076.3 1186.1 1072.6 1186.1 1072.6 1189.5 1071.2 1189.5 1071.2 1188.9 1068.8 1188.9 1068.8 1185.4 1069.4 1185.4 1069.4 1181.5 1068.8 1181.5 1068.8 1178.1 1071.2 1178.1 1071.2 1177.5 1072.6 1177.5 1072.6 1180.9 1076.3 1180.9 1076.3 1177.5 1077.8 1177.5 1077.8 1178.1 1080.2 1178.1 1080.2 1181.6 1079.3 1181.6 1079.3 1185.5 1080.2 1185.5" style="fill: #254496;"/>
  <polygon points="1102.2 1183.5 1102.2 1187 1099.8 1187 1099.8 1187.6 1098.3 1187.6 1098.3 1184.2 1094.6 1184.2 1094.6 1187.5 1093.2 1187.5 1093.2 1186.9 1090.8 1186.9 1090.8 1183.5 1091.4 1183.5 1091.4 1179.6 1090.8 1179.6 1090.8 1176.1 1093.2 1176.1 1093.2 1175.6 1094.6 1175.6 1094.6 1179 1098.3 1179 1098.3 1175.6 1099.8 1175.6 1099.8 1176.2 1102.1 1176.2 1102.1 1179.6 1101.3 1179.6 1101.3 1183.5 1102.2 1183.5" style="fill: #254496;"/>
  <polygon points="1088 1197.7 1088 1201.1 1085.6 1201.1 1085.6 1201.7 1084.2 1201.7 1084.2 1198.3 1080.5 1198.3 1080.5 1201.7 1079 1201.7 1079 1201.1 1076.6 1201.1 1076.6 1197.6 1077.2 1197.6 1077.2 1193.8 1076.6 1193.8 1076.6 1190.3 1079 1190.3 1079 1189.7 1080.5 1189.7 1080.5 1193.1 1084.2 1193.1 1084.2 1189.7 1085.6 1189.7 1085.6 1190.3 1088 1190.3 1088 1193.8 1087.2 1193.8 1087.2 1197.7 1088 1197.7" style="fill: #254496;"/>
  <polygon points="998.9 1108.2 998.9 1115 993 1115 993 1117.5 986.9 1117.5 986.9 1104.6 993 1104.6 993 1108.2 998.9 1108.2" style="fill: #254496;"/>
  <polygon points="992.6 1118.4 992.6 1125.3 990.8 1125.3 990.8 1126.3 989.6 1126.3 989.6 1127.2 982 1127.2 982 1126.3 980.8 1126.3 980.8 1125.3 979 1125.3 979 1118.4 992.6 1118.4" style="fill: #254496;"/>
  <polygon points="976 1103.9 976 1097 977.8 1097 977.8 1096 979 1096 979 1095.1 986.6 1095.1 986.6 1096 987.7 1096 987.7 1097 989.5 1097 989.5 1103.9 976 1103.9" style="fill: #254496;"/>
  <polygon points="967.9 1114 967.9 1107.2 973.7 1107.2 973.7 1104.7 979.9 1104.7 979.9 1117.6 973.7 1117.6 973.7 1114 967.9 1114" style="fill: #254496;"/>
  <polygon points="988.4 1019.4 995.6 1025.5 995.2 1025.9 995.4 1026.1 994.8 1026.8 995.2 1027.1 990.6 1032.5 990.3 1032.2 989.7 1032.9 989.4 1032.7 989.1 1033.1 981.9 1027.1 982.3 1026.6 982 1026.4 982.6 1025.8 982.2 1025.5 986.8 1020 987.2 1020.3 987.8 1019.6 988 1019.8 988.4 1019.4" style="fill: #254496;"/>
  <polygon points="997.8 1012.9 1005 1019 1004.6 1019.4 1004.8 1019.6 1004.2 1020.3 1004.6 1020.6 1000 1026 999.7 1025.7 999.1 1026.4 998.8 1026.2 998.5 1026.6 991.3 1020.6 991.7 1020.1 991.5 1019.9 992 1019.3 991.6 1019 996.2 1013.5 996.6 1013.8 997.2 1013.1 997.4 1013.3 997.8 1012.9" style="fill: #254496;"/>
  <polygon points="1006.4 1006 1013.6 1012 1013.2 1012.4 1013.4 1012.6 1012.8 1013.3 1013.2 1013.6 1008.6 1019.1 1008.3 1018.8 1007.7 1019.5 1007.4 1019.3 1007.1 1019.7 999.9 1013.6 1000.3 1013.2 1000 1013 1000.6 1012.3 1000.2 1012 1004.8 1006.6 1005.2 1006.9 1005.8 1006.2 1006 1006.4 1006.4 1006" style="fill: #254496;"/>
  <polygon points="1015.2 999.1 1022.4 1005.2 1022 1005.6 1022.2 1005.8 1021.6 1006.5 1022 1006.8 1017.4 1012.2 1017.1 1011.9 1016.5 1012.7 1016.2 1012.4 1015.9 1012.8 1008.7 1006.8 1009.1 1006.4 1008.8 1006.2 1009.4 1005.5 1009 1005.2 1013.6 999.8 1014 1000.1 1014.6 999.3 1014.8 999.5 1015.2 999.1" style="fill: #254496;"/>
  <rect x="1004.1" y="1036.1" width="7.1" height="20.1" transform="translate(-395.5 670.6) rotate(-31.1)" style="fill: #254496;"/>
  <rect x="1013.7" y="1022.9" width="7.1" height="20.1" transform="translate(1376.6 -371.6) rotate(58.9)" style="fill: #254496;"/>
  <rect x="1043.2" y="1018.5" width="7.1" height="20.1" transform="translate(2474.3 1368.9) rotate(148.9)" style="fill: #254496;"/>
  <rect x="1033.7" y="1031.5" width="7.1" height="20.1" transform="translate(680.9 2467.7) rotate(-121.1)" style="fill: #254496;"/>
  <polygon points="1094.3 1171.5 1094.3 1174.9 1091.9 1174.9 1091.9 1175.5 1090.4 1175.5 1090.4 1172.1 1086.7 1172.1 1086.7 1175.5 1085.3 1175.5 1085.3 1174.9 1082.9 1174.9 1082.9 1171.4 1083.5 1171.4 1083.5 1167.5 1082.9 1167.5 1082.9 1164.1 1085.3 1164.1 1085.3 1163.5 1086.7 1163.5 1086.7 1166.9 1090.4 1166.9 1090.4 1163.5 1091.9 1163.5 1091.9 1164.1 1094.2 1164.1 1094.2 1167.6 1093.4 1167.6 1093.4 1171.5 1094.3 1171.5" style="fill: #254496;"/>
  <polygon points="1005.7 1168.4 985.7 1181.7 981.6 1175.3 991.9 1168.5 990.2 1165.8 993.7 1163.6 995.4 1166.2 1001.7 1162.1 1005.7 1168.4" style="fill: #254496;"/>
  <polygon points="1000.7 1158.2 980.7 1171.4 976.6 1165.1 987 1158.3 985.2 1155.6 988.7 1153.3 990.4 1156 996.7 1151.9 1000.7 1158.2" style="fill: #254496;"/>
  <polygon points="1009.1 1180 989 1193.2 984.9 1186.9 995.3 1180 993.6 1177.4 997 1175.1 998.7 1177.8 1005 1173.6 1009.1 1180" style="fill: #254496;"/>
</svg>