<?xml version="1.0" encoding="UTF-8"?>
<svg id="edificios-bajos" xmlns="http://www.w3.org/2000/svg" width="2152" height="2152" viewBox="0 0 2152 2152">
  <polygon points="1092.3 936.5 1075.6 949.2 1071.7 944.1 1068.8 946.3 1064 939.9 1066.9 937.7 1063 932.5 1079.7 919.8 1083.7 925.1 1087.3 922.3 1092.1 928.6 1088.4 931.4 1092.3 936.5" style="fill: #b1deec;"/>
  <polygon points="1448.1 1043.9 1431.3 1056.5 1427.4 1051.4 1424.5 1053.6 1419.7 1047.3 1422.7 1045.1 1418.7 1039.9 1435.4 1027.2 1439.4 1032.4 1443.1 1029.6 1447.8 1036 1444.2 1038.7 1448.1 1043.9" style="fill: #b1deec;"/>
  <polygon points="1477.4 1061.3 1460.6 1073.9 1456.8 1068.8 1453.8 1071 1449.1 1064.7 1452 1062.5 1448 1057.2 1464.7 1044.6 1468.7 1049.8 1472.4 1047 1477.1 1053.3 1473.5 1056.1 1477.4 1061.3" style="fill: #b1deec;"/>
  <polygon points="1281.7 797.8 1270.6 808.7 1267.3 805.3 1265.3 807.2 1261.2 803 1263.1 801.1 1259.7 797.7 1270.8 786.7 1274.2 790.2 1276.6 787.8 1280.8 791.9 1278.3 794.4 1281.7 797.8" style="fill: #b1deec;"/>
  <polygon points="841.8 831.4 852.5 842.9 848.9 846.1 850.8 848.1 846.5 852.1 844.6 850.1 841.1 853.4 830.4 842 834 838.7 831.7 836.2 836 832.2 838.3 834.7 841.8 831.4" style="fill: #b1deec;"/>
  <polygon points="860.1 810.6 870.7 822 867.2 825.3 869 827.3 864.7 831.3 862.9 829.3 859.3 832.6 848.7 821.2 852.3 817.9 849.9 815.4 854.2 811.3 856.6 813.9 860.1 810.6" style="fill: #b1deec;"/>
  <polygon points="1119.5 972.7 1100.9 986.8 1096.5 981.1 1098.7 979.4 1079.2 953.9 1086.6 948.2 1085.2 946.4 1095.9 938.3 1104.1 949.2 1102.5 950.4 1119.5 972.7" style="fill: #b1deec;"/>
  <polygon points="1388.8 1003.3 1370.2 1017.4 1365.9 1011.7 1368 1010 1348.5 984.5 1355.9 978.8 1354.6 977 1365.2 968.9 1373.4 979.8 1371.8 981 1388.8 1003.3" style="fill: #b1deec;"/>
  <rect x="1094.1" y="888.6" width="5.7" height="7.5" transform="translate(1241.7 2299.1) rotate(-135)" style="fill: #b1deec;"/>
  <rect x="1100.4" y="882.2" width="5.7" height="7.5" transform="translate(1256.8 2292.5) rotate(-135)" style="fill: #b1deec;"/>
  <rect x="1106.6" y="875.8" width="5.7" height="7.5" transform="translate(1272 2286) rotate(-135)" style="fill: #b1deec;"/>
  <rect x="1100.5" y="894" width="5.7" height="7.5" transform="translate(1248.7 2312.6) rotate(-135)" style="fill: #b1deec;"/>
  <rect x="1037.3" y="816.7" width="5.7" height="12.9" transform="translate(1193.7 2140.6) rotate(-135)" style="fill: #b1deec;"/>
  <rect x="1047.1" y="808.8" width="14.8" height="12.9" transform="translate(1223.7 2137.3) rotate(-135)" style="fill: #b1deec;"/>
  <rect x="754.6" y="930.2" width="14.8" height="12.9" transform="translate(586.2 2131.2) rotate(-132.5)" style="fill: #b1deec;"/>
  <rect x="739" y="944.5" width="14.8" height="12.9" transform="translate(549.5 2143.7) rotate(-132.5)" style="fill: #b1deec;"/>
  <rect x="1021.2" y="797.1" width="14.8" height="12.9" transform="translate(1137.6 2104.3) rotate(-132.8)" style="fill: #b1deec;"/>
  <rect x="1032.8" y="785.9" width="14.8" height="12.9" transform="translate(1165.2 2094) rotate(-132.8)" style="fill: #b1deec;"/>
  <rect x="1065.9" y="752.1" width="14.8" height="12.9" transform="translate(1245.7 2061.5) rotate(-132.8)" style="fill: #b1deec;"/>
  <rect x="1070.3" y="788.5" width="14.8" height="7" transform="translate(1279.7 2114.1) rotate(-135)" style="fill: #b1deec;"/>
  <rect x="1043.2" y="822.5" width="5.7" height="12.9" transform="translate(1199.5 2154.7) rotate(-135)" style="fill: #b1deec;"/>
  <rect x="975.7" y="729.4" width="5.7" height="12.9" transform="translate(1150.2 1948.1) rotate(-135)" style="fill: #b1deec;"/>
  <rect x="985.5" y="721.5" width="14.8" height="12.9" transform="translate(1180.2 1944.7) rotate(-135)" style="fill: #b1deec;"/>
  <rect x="981.6" y="735.2" width="5.7" height="12.9" transform="translate(1156.1 1962.1) rotate(-135)" style="fill: #b1deec;"/>
  <rect x="1106.7" y="887.6" width="5.7" height="7.5" transform="translate(1263.9 2306.1) rotate(-135)" style="fill: #b1deec;"/>
  <rect x="1112.9" y="881.2" width="5.7" height="7.5" transform="translate(1279 2299.6) rotate(-135)" style="fill: #b1deec;"/>
  <rect x="1063.6" y="829.9" width="5.7" height="7.5" transform="translate(1231.1 2177.3) rotate(-135)" style="fill: #b1deec;"/>
  <rect x="1069.9" y="823.5" width="5.7" height="7.5" transform="translate(1246.3 2170.8) rotate(-135)" style="fill: #b1deec;"/>
  <rect x="1076" y="819.5" width="14" height="6.6" transform="translate(1267 2170.4) rotate(-135)" style="fill: #b1deec;"/>
  <rect x="1082.3" y="813.3" width="14" height="6.6" transform="translate(1282.1 2164.2) rotate(-135)" style="fill: #b1deec;"/>
  <rect x="1089.1" y="806.4" width="14" height="6.6" transform="translate(1298.6 2157.3) rotate(-135)" style="fill: #b1deec;"/>
  <rect x="1070" y="835.3" width="5.7" height="7.5" transform="translate(1238.1 2190.8) rotate(-135)" style="fill: #b1deec;"/>
  <rect x="1076.2" y="828.9" width="5.7" height="7.5" transform="translate(1253.3 2184.3) rotate(-135)" style="fill: #b1deec;"/>
  <rect x="1057.6" y="798.9" width="5.7" height="7.5" transform="translate(1242.9 2120) rotate(-135)" style="fill: #b1deec;"/>
  <rect x="1063.9" y="792.5" width="5.7" height="7.5" transform="translate(1258 2113.5) rotate(-135)" style="fill: #b1deec;"/>
  <rect x="1063.7" y="804.4" width="5.7" height="7.5" transform="translate(1249.2 2133.7) rotate(-135)" style="fill: #b1deec;"/>
  <rect x="1069.9" y="798" width="5.7" height="7.5" transform="translate(1264.4 2127.2) rotate(-135)" style="fill: #b1deec;"/>
  <rect x="1044.5" y="775.8" width="5.7" height="7.5" transform="translate(1236.8 2071.4) rotate(-135)" style="fill: #b1deec;"/>
  <rect x="1050.8" y="769.4" width="5.7" height="7.5" transform="translate(1251.9 2064.9) rotate(-135)" style="fill: #b1deec;"/>
  <rect x="1050.6" y="781.4" width="5.7" height="7.5" transform="translate(1243.1 2085.1) rotate(-135)" style="fill: #b1deec;"/>
  <rect x="1056.8" y="775" width="5.7" height="7.5" transform="translate(1258.3 2078.6) rotate(-135)" style="fill: #b1deec;"/>
  <rect x="1090.5" y="725.8" width="6.5" height="11.9" transform="translate(1349.6 2022.5) rotate(-135)" style="fill: #b1deec;"/>
  <rect x="1097.4" y="732" width="6.5" height="11.9" transform="translate(1357.1 2038) rotate(-135)" style="fill: #b1deec;"/>
  <rect x="1129.1" y="764.2" width="11.9" height="11.9" transform="translate(1393 2117.3) rotate(-135)" style="fill: #b1deec;"/>
  <rect x="1161.7" y="763.5" width="11.9" height="11.9" transform="translate(1449.2 2139.3) rotate(-135)" style="fill: #b1deec;"/>
  <rect x="1117.6" y="775.6" width="11.9" height="11.9" transform="translate(1365.4 2128.7) rotate(-135)" style="fill: #b1deec;"/>
  <rect x="1076.5" y="742.2" width="6.5" height="8.4" transform="translate(1315.4 2037.7) rotate(-135)" style="fill: #b1deec;"/>
  <rect x="1082.3" y="748" width="6.5" height="8.4" transform="translate(1321.2 2051.7) rotate(-135)" style="fill: #b1deec;"/>
  <rect x="1162.1" y="821" width="5.7" height="7.5" transform="translate(1405.5 2231.7) rotate(-135)" style="fill: #b1deec;"/>
  <rect x="1092.8" y="843.3" width="5.7" height="7.5" transform="translate(1271.5 2220.7) rotate(-135)" style="fill: #b1deec;"/>
  <rect x="1100.4" y="835.3" width="5.7" height="7.5" transform="translate(1290 2212.4) rotate(-135)" style="fill: #b1deec;"/>
  <rect x="1109.3" y="824.4" width="5.7" height="11.3" transform="translate(1311.7 2203.5) rotate(-135)" style="fill: #b1deec;"/>
  <rect x="1087.1" y="838.4" width="5.7" height="7.5" transform="translate(1265.2 2208.2) rotate(-135)" style="fill: #b1deec;"/>
  <rect x="1048.8" y="843.3" width="5.7" height="7.5" transform="translate(1196.3 2189.5) rotate(-135)" style="fill: #b1deec;"/>
  <rect x="1046.2" y="738.1" width="14.3" height="7.5" transform="translate(1273.7 2011.3) rotate(-135)" style="fill: #b1deec;"/>
  <rect x="1054" y="728.6" width="5.6" height="7.5" transform="translate(1286.3 1997.4) rotate(-135)" style="fill: #b1deec;"/>
  <rect x="1060.8" y="721.6" width="5.6" height="7.5" transform="translate(1302.7 1990.4) rotate(-135)" style="fill: #b1deec;"/>
  <rect x="1067.9" y="714.7" width="5.6" height="7.5" transform="translate(1319.8 1983.5) rotate(-135)" style="fill: #b1deec;"/>
  <rect x="1075.3" y="718.4" width="5.6" height="7.5" transform="translate(1329.9 1995.1) rotate(-135)" style="fill: #b1deec;"/>
  <rect x="1063.3" y="723.5" width="6.9" height="20.1" transform="translate(1302.4 2006.5) rotate(-135)" style="fill: #b1deec;"/>
  <rect x="1055.4" y="838.8" width="11.8" height="7.5" transform="translate(1216 2188.7) rotate(-135)" style="fill: #b1deec;"/>
  <rect x="1062.6" y="844.3" width="6" height="4.6" transform="translate(1220.4 2198.7) rotate(-135)" style="fill: #b1deec;"/>
  <rect x="1054.6" y="849.4" width="5.7" height="7.5" transform="translate(1201.9 2204) rotate(-135)" style="fill: #b1deec;"/>
  <rect x="1269.8" y="923.5" width="5.7" height="7.5" transform="translate(1516.9 2482.8) rotate(-135)" style="fill: #b1deec;"/>
  <rect x="1276.4" y="919" width="11.8" height="7.5" transform="translate(1536.5 2482) rotate(-135)" style="fill: #b1deec;"/>
  <rect x="1283.6" y="924.5" width="6" height="4.6" transform="translate(1540.9 2491.9) rotate(-135)" style="fill: #b1deec;"/>
  <rect x="1275.6" y="929.6" width="5.7" height="7.5" transform="translate(1522.4 2497.3) rotate(-135)" style="fill: #b1deec;"/>
  <rect x="1118.9" y="808.4" width="4.6" height="6" transform="translate(1340.2 2178) rotate(-135)" style="fill: #b1deec;"/>
  <rect x="1124.2" y="804.8" width="9.5" height="6" transform="translate(1356.1 2177.4) rotate(-135)" style="fill: #b1deec;"/>
  <rect x="1130" y="809.2" width="4.8" height="3.7" transform="translate(1359.6 2185.4) rotate(-135)" style="fill: #b1deec;"/>
  <rect x="1130.5" y="798.9" width="9.5" height="6" transform="translate(1371 2171.7) rotate(-135)" style="fill: #b1deec;"/>
  <rect x="1136.3" y="803.3" width="4.8" height="3.7" transform="translate(1374.6 2179.7) rotate(-135)" style="fill: #b1deec;"/>
  <rect x="1123.6" y="813.3" width="4.6" height="6" transform="translate(1344.7 2189.7) rotate(-135)" style="fill: #b1deec;"/>
  <rect x="1136.9" y="790.7" width="4.6" height="6" transform="translate(1383.5 2160.6) rotate(-135)" style="fill: #b1deec;"/>
  <rect x="1141.6" y="795.7" width="4.6" height="6" transform="translate(1388 2172.3) rotate(-135)" style="fill: #b1deec;"/>
  <rect x="1142.9" y="784.9" width="4.6" height="6" transform="translate(1397.8 2154.8) rotate(-135)" style="fill: #b1deec;"/>
  <rect x="1147.8" y="781" width="11.4" height="6" transform="translate(1414.8 2154) rotate(-135)" style="fill: #b1deec;"/>
  <rect x="1183" y="745.2" width="11.4" height="6" transform="translate(1500.1 2117.7) rotate(-135)" style="fill: #b1deec;"/>
  <rect x="1147.5" y="789.8" width="4.6" height="6" transform="translate(1402.3 2166.5) rotate(-135)" style="fill: #b1deec;"/>
  <rect x="1171.7" y="754.9" width="4.6" height="6" transform="translate(1468.2 2124) rotate(-135)" style="fill: #b1deec;"/>
  <rect x="1170.8" y="732" width="4.6" height="10" transform="translate(1481.5 2087.7) rotate(-135)" style="fill: #b1deec;"/>
  <rect x="1176.4" y="759.9" width="4.6" height="6" transform="translate(1472.7 2135.8) rotate(-135)" style="fill: #b1deec;"/>
  <rect x="1177.7" y="749.1" width="4.6" height="6" transform="translate(1482.5 2118.3) rotate(-135)" style="fill: #b1deec;"/>
  <rect x="1145.8" y="747.3" width="4.6" height="8.9" transform="translate(1428.3 2095.2) rotate(-135)" style="fill: #b1deec;"/>
  <rect x="1182.3" y="754" width="4.6" height="6" transform="translate(1487 2130) rotate(-135)" style="fill: #b1deec;"/>
  <rect x="1094.6" y="830.4" width="5.7" height="7.5" transform="translate(1283.7 2200) rotate(-135)" style="fill: #b1deec;"/>
  <rect x="1103.6" y="819.5" width="5.7" height="11.3" transform="translate(1305.4 2191) rotate(-135)" style="fill: #b1deec;"/>
  <rect x="1168.3" y="814.6" width="5.7" height="7.5" transform="translate(1420.6 2225.2) rotate(-135)" style="fill: #b1deec;"/>
  <rect x="1174.5" y="808.2" width="5.7" height="7.5" transform="translate(1435.8 2218.7) rotate(-135)" style="fill: #b1deec;"/>
  <rect x="1168.4" y="826.4" width="5.7" height="7.5" transform="translate(1412.5 2245.3) rotate(-135)" style="fill: #b1deec;"/>
  <rect x="1174.6" y="820" width="5.7" height="7.5" transform="translate(1427.6 2238.8) rotate(-135)" style="fill: #b1deec;"/>
  <rect x="1180.9" y="813.6" width="5.7" height="7.5" transform="translate(1442.8 2232.2) rotate(-135)" style="fill: #b1deec;"/>
  <rect x="1008.2" y="776.5" width="5.7" height="7.5" transform="translate(1174.2 2046.8) rotate(-135)" style="fill: #b1deec;"/>
  <rect x="1014.4" y="770.1" width="5.7" height="7.5" transform="translate(1189.4 2040.2) rotate(-135)" style="fill: #b1deec;"/>
  <rect x="1020.6" y="763.7" width="5.7" height="7.5" transform="translate(1204.5 2033.7) rotate(-135)" style="fill: #b1deec;"/>
  <rect x="1014.5" y="781.8" width="5.7" height="7.5" transform="translate(1181.2 2060.3) rotate(-135)" style="fill: #b1deec;"/>
  <rect x="1020.7" y="775.4" width="5.7" height="7.5" transform="translate(1196.4 2053.8) rotate(-135)" style="fill: #b1deec;"/>
  <rect x="1026.9" y="769" width="5.7" height="7.5" transform="translate(1211.5 2047.3) rotate(-135)" style="fill: #b1deec;"/>
  <rect x="1027.6" y="756.7" width="5.7" height="7.5" transform="translate(1221.3 2026.8) rotate(-135)" style="fill: #b1deec;"/>
  <rect x="1033.8" y="750.4" width="5.7" height="7.5" transform="translate(1236.4 2020.3) rotate(-135)" style="fill: #b1deec;"/>
  <rect x="1033.9" y="762.1" width="5.7" height="7.5" transform="translate(1228.3 2040.4) rotate(-135)" style="fill: #b1deec;"/>
  <rect x="1040.1" y="755.7" width="5.7" height="7.5" transform="translate(1243.5 2033.9) rotate(-135)" style="fill: #b1deec;"/>
  <rect x="1086" y="770.9" width="5.7" height="7.5" transform="translate(1311 2092.3) rotate(-135)" style="fill: #b1deec;"/>
  <rect x="1092.2" y="764.5" width="5.7" height="7.5" transform="translate(1326.2 2085.8) rotate(-135)" style="fill: #b1deec;"/>
  <rect x="1098.5" y="758.1" width="5.7" height="7.5" transform="translate(1341.3 2079.3) rotate(-135)" style="fill: #b1deec;"/>
  <rect x="1092.3" y="776.2" width="5.7" height="7.5" transform="translate(1318 2105.9) rotate(-135)" style="fill: #b1deec;"/>
  <rect x="1106.1" y="782.5" width="5.3" height="17.1" transform="translate(1333.4 2134.5) rotate(-135)" style="fill: #b1deec;"/>
  <rect x="1111.8" y="788.2" width="5.3" height="17.1" transform="translate(1339.1 2148.2) rotate(-135)" style="fill: #b1deec;"/>
  <rect x="1155.7" y="739.1" width="5.3" height="25.6" transform="translate(1445.7 2102.7) rotate(-135)" style="fill: #b1deec;"/>
  <rect x="1161.1" y="723.3" width="5.3" height="25.6" transform="translate(1466.1 2079.5) rotate(-135)" style="fill: #b1deec;"/>
  <rect x="1098.5" y="769.8" width="5.7" height="7.5" transform="translate(1333.2 2099.4) rotate(-135)" style="fill: #b1deec;"/>
  <rect x="1104.8" y="763.4" width="5.7" height="7.5" transform="translate(1348.4 2092.9) rotate(-135)" style="fill: #b1deec;"/>
  <rect x="1105.4" y="751.2" width="5.7" height="7.5" transform="translate(1358.1 2072.4) rotate(-135)" style="fill: #b1deec;"/>
  <rect x="1111.6" y="744.8" width="5.7" height="7.5" transform="translate(1373.2 2065.9) rotate(-135)" style="fill: #b1deec;"/>
  <rect x="1111.7" y="756.5" width="5.7" height="7.5" transform="translate(1365.1 2086) rotate(-135)" style="fill: #b1deec;"/>
  <rect x="1117.9" y="750.1" width="5.7" height="7.5" transform="translate(1380.3 2079.4) rotate(-135)" style="fill: #b1deec;"/>
  <rect x="1144.1" y="724.2" width="5.7" height="7.5" transform="translate(1443.2 2053.6) rotate(-135)" style="fill: #b1deec;"/>
  <rect x="1137.8" y="717.9" width="5.7" height="7.5" transform="translate(1436.9 2038.5) rotate(-135)" style="fill: #b1deec;"/>
  <rect x="1112.1" y="906" width="5.7" height="7.5" transform="translate(1260 2341.3) rotate(-135)" style="fill: #b1deec;"/>
  <rect x="1118.3" y="899.6" width="5.7" height="7.5" transform="translate(1275.2 2334.8) rotate(-135)" style="fill: #b1deec;"/>
  <rect x="1124.5" y="893.2" width="5.7" height="7.5" transform="translate(1290.4 2328.3) rotate(-135)" style="fill: #b1deec;"/>
  <rect x="1118.4" y="911.3" width="5.7" height="7.5" transform="translate(1267.1 2354.9) rotate(-135)" style="fill: #b1deec;"/>
  <rect x="1124.6" y="904.9" width="5.7" height="7.5" transform="translate(1282.2 2348.4) rotate(-135)" style="fill: #b1deec;"/>
  <rect x="1157.3" y="898.8" width="15.6" height="7.5" transform="translate(1350.6 2364.6) rotate(-135)" style="fill: #b1deec;"/>
  <rect x="1172" y="916.6" width="15.6" height="7.5" transform="translate(1363.3 2405.3) rotate(-135)" style="fill: #b1deec;"/>
  <rect x="1184.2" y="928.2" width="15.6" height="7.5" transform="translate(1375.9 2433.9) rotate(-135)" style="fill: #b1deec;"/>
  <rect x="1178.1" y="910" width="15.6" height="7.5" transform="translate(1378.3 2398.5) rotate(-135)" style="fill: #b1deec;"/>
  <rect x="1202" y="888.6" width="15.6" height="7.5" transform="translate(1434.2 2378.8) rotate(-135)" style="fill: #b1deec;"/>
  <rect x="1249.4" y="912.5" width="12.9" height="7.5" transform="translate(1496 2452.2) rotate(-135)" style="fill: #b1deec;"/>
  <rect x="1256.3" y="905.8" width="12.9" height="7.5" transform="translate(1512.6 2445.5) rotate(-135)" style="fill: #b1deec;"/>
  <rect x="1263.2" y="899.7" width="12.9" height="7.5" transform="translate(1528.6 2440) rotate(-135)" style="fill: #b1deec;"/>
  <rect x="1194.9" y="896.8" width="15.6" height="7.5" transform="translate(1416.4 2387.7) rotate(-135)" style="fill: #b1deec;"/>
  <rect x="1138.9" y="880.5" width="15.6" height="7.5" transform="translate(1332.3 2320.3) rotate(-135)" style="fill: #b1deec;"/>
  <rect x="982.7" y="805.2" width="19.6" height="7.5" transform="translate(883.2 2084.7) rotate(-124.3)" style="fill: #b1deec;"/>
  <rect x="993.3" y="795.3" width="9.6" height="7.5" transform="translate(900.3 2073.9) rotate(-124.3)" style="fill: #b1deec;"/>
  <rect x="983.3" y="772.7" width="5.5" height="7.5" transform="translate(1000.1 2031.5) rotate(-128.9)" style="fill: #b1deec;"/>
  <rect x="978.3" y="766.1" width="5.5" height="7.5" transform="translate(997.2 2016.8) rotate(-128.9)" style="fill: #b1deec;"/>
  <rect x="1002.5" y="753.2" width="5.5" height="7.5" transform="translate(1046.6 2014.6) rotate(-128.9)" style="fill: #b1deec;"/>
  <rect x="997.5" y="746.6" width="5.5" height="7.5" transform="translate(1043.7 2000) rotate(-128.9)" style="fill: #b1deec;"/>
  <rect x="1010.8" y="745.7" width="5.5" height="7.5" transform="translate(1065.9 2008.9) rotate(-128.9)" style="fill: #b1deec;"/>
  <rect x="1033.8" y="721.9" width="5.3" height="7.1" transform="translate(1256.4 1971.2) rotate(-135)" style="fill: #b1deec;"/>
  <rect x="1005.8" y="739.1" width="5.5" height="7.5" transform="translate(1063 1994.2) rotate(-128.9)" style="fill: #b1deec;"/>
  <rect x="1002.4" y="717.7" width="5.5" height="7.5" transform="translate(1205.8 1942.4) rotate(-135)" style="fill: #b1deec;"/>
  <rect x="996.8" y="711.7" width="5.5" height="7.5" transform="translate(1200.5 1928.1) rotate(-135)" style="fill: #b1deec;"/>
  <rect x="987.8" y="757.4" width="15.7" height="7.5" transform="translate(1027.7 2014) rotate(-128.9)" style="fill: #b1deec;"/>
  <rect x="1014.2" y="731.6" width="11.3" height="12.3" transform="translate(1085.3 1994.7) rotate(-128.9)" style="fill: #b1deec;"/>
  <rect x="1000.3" y="805.5" width="9.6" height="7.5" transform="translate(902.7 2095.5) rotate(-124.3)" style="fill: #b1deec;"/>
  <rect x="1012.5" y="841.7" width="9.6" height="7.5" transform="translate(891.9 2162.2) rotate(-124.3)" style="fill: #b1deec;"/>
  <rect x="1004.2" y="824.7" width="27.9" height="7.5" transform="translate(907.3 2136.4) rotate(-124.3)" style="fill: #b1deec;"/>
  <rect x="996.8" y="825.9" width="19.6" height="7.5" transform="translate(888.2 2128.7) rotate(-124.3)" style="fill: #b1deec;"/>
  <rect x="1121.9" y="858.3" width="15.6" height="13.4" transform="translate(1316.9 2275.5) rotate(-135)" style="fill: #b1deec;"/>
  <rect x="1181" y="836.8" width="15.6" height="13.4" transform="translate(1433 2280.5) rotate(-135)" style="fill: #b1deec;"/>
  <rect x="1189.1" y="792" width="15.6" height="13.4" transform="translate(1478.4 2209.7) rotate(-135)" style="fill: #b1deec;"/>
  <rect x="1190.9" y="828.6" width="15.6" height="9.9" transform="translate(1456.9 2270.6) rotate(-135)" style="fill: #b1deec;"/>
  <rect x="1126.6" y="728.1" width="15.6" height="14.3" transform="translate(1416.6 2057.4) rotate(-135)" style="fill: #b1deec;"/>
  <rect x="1163.4" y="856" width="15.6" height="7.5" transform="translate(1391.5 2295.7) rotate(-135)" style="fill: #b1deec;"/>
  <rect x="1157.5" y="861.8" width="15.6" height="7.5" transform="translate(1377.3 2301.6) rotate(-135)" style="fill: #b1deec;"/>
  <rect x="1190.4" y="921.7" width="15.6" height="7.5" transform="translate(1391 2427) rotate(-135)" style="fill: #b1deec;"/>
  <rect x="1130.9" y="898.5" width="5.7" height="7.5" transform="translate(1297.4 2341.9) rotate(-135)" style="fill: #b1deec;"/>
  <rect x="1130" y="923.3" width="5.7" height="7.5" transform="translate(1278.4 2383.6) rotate(-135)" style="fill: #b1deec;"/>
  <rect x="1136.2" y="916.9" width="5.7" height="7.5" transform="translate(1293.6 2377.1) rotate(-135)" style="fill: #b1deec;"/>
  <rect x="1142.5" y="910.5" width="5.7" height="7.5" transform="translate(1308.7 2370.6) rotate(-135)" style="fill: #b1deec;"/>
  <rect x="1136.3" y="928.7" width="5.7" height="7.5" transform="translate(1285.4 2397.2) rotate(-135)" style="fill: #b1deec;"/>
  <rect x="1142.6" y="922.3" width="5.7" height="7.5" transform="translate(1300.6 2390.7) rotate(-135)" style="fill: #b1deec;"/>
  <rect x="775.8" y="914.2" width="5.7" height="7.5" transform="translate(627.8 2112.2) rotate(-132.5)" style="fill: #b1deec;"/>
  <rect x="782.9" y="907.6" width="5.7" height="7.5" transform="translate(644.6 2106.3) rotate(-132.5)" style="fill: #b1deec;"/>
  <rect x="781.9" y="919.8" width="5.7" height="7.5" transform="translate(633.8 2126.1) rotate(-132.5)" style="fill: #b1deec;"/>
  <rect x="789" y="913.2" width="5.7" height="7.5" transform="translate(650.6 2120.2) rotate(-132.5)" style="fill: #b1deec;"/>
  <rect x="802.2" y="880.3" width="5.7" height="7.5" transform="translate(697.1 2074.8) rotate(-132.5)" style="fill: #b1deec;"/>
  <rect x="809.3" y="873.6" width="5.7" height="7.5" transform="translate(713.9 2068.9) rotate(-132.5)" style="fill: #b1deec;"/>
  <rect x="809.2" y="887.1" width="5.7" height="7.5" transform="translate(703.8 2091.4) rotate(-132.5)" style="fill: #b1deec;"/>
  <rect x="816.3" y="880.4" width="5.7" height="7.5" transform="translate(720.6 2085.5) rotate(-132.5)" style="fill: #b1deec;"/>
  <rect x="791.5" y="900.7" width="5.7" height="7.5" transform="translate(664.1 2101) rotate(-132.5)" style="fill: #b1deec;"/>
  <rect x="797.6" y="906.3" width="5.7" height="7.5" transform="translate(670.1 2114.9) rotate(-132.5)" style="fill: #b1deec;"/>
  <rect x="801.5" y="928" width="5.7" height="7.5" transform="translate(775.9 2162.2) rotate(-137.9)" style="fill: #b1deec;"/>
  <rect x="807.9" y="920.7" width="5.7" height="7.5" transform="translate(792 2153.9) rotate(-137.9)" style="fill: #b1deec;"/>
  <rect x="808.1" y="933" width="5.7" height="7.5" transform="translate(784 2175.4) rotate(-137.9)" style="fill: #b1deec;"/>
  <rect x="814.5" y="925.7" width="5.7" height="7.5" transform="translate(800.1 2167) rotate(-137.9)" style="fill: #b1deec;"/>
  <rect x="815.8" y="913" width="5.7" height="7.5" transform="translate(810.9 2145.8) rotate(-137.9)" style="fill: #b1deec;"/>
  <rect x="822.4" y="918" width="5.7" height="7.5" transform="translate(819 2158.9) rotate(-137.9)" style="fill: #b1deec;"/>
  <rect x="825.8" y="899.3" width="5.7" height="7.5" transform="translate(837.6 2128.7) rotate(-137.9)" style="fill: #b1deec;"/>
  <rect x="832.3" y="892" width="5.7" height="7.5" transform="translate(853.7 2120.3) rotate(-137.9)" style="fill: #b1deec;"/>
  <rect x="832.4" y="904.3" width="5.7" height="7.5" transform="translate(845.7 2141.8) rotate(-137.9)" style="fill: #b1deec;"/>
  <rect x="838.9" y="897" width="5.7" height="7.5" transform="translate(861.8 2133.4) rotate(-137.9)" style="fill: #b1deec;"/>
  <rect x="840.2" y="884.3" width="5.7" height="7.5" transform="translate(872.6 2112.2) rotate(-137.9)" style="fill: #b1deec;"/>
  <rect x="846.7" y="889.3" width="5.7" height="7.5" transform="translate(880.7 2125.3) rotate(-137.9)" style="fill: #b1deec;"/>
  <rect x="867.2" y="850.3" width="5.7" height="7.5" transform="translate(942.5 2071) rotate(-137.9)" style="fill: #b1deec;"/>
  <rect x="873.8" y="855.3" width="5.7" height="7.5" transform="translate(950.6 2084.1) rotate(-137.9)" style="fill: #b1deec;"/>
  <rect x="875.1" y="842.6" width="5.7" height="7.5" transform="translate(961.4 2062.9) rotate(-137.9)" style="fill: #b1deec;"/>
  <rect x="881.7" y="847.6" width="5.7" height="7.5" transform="translate(969.5 2076) rotate(-137.9)" style="fill: #b1deec;"/>
  <rect x="758.6" y="894.2" width="5.7" height="7.5" transform="translate(577.1 2060.6) rotate(-130.7)" style="fill: #b1deec;"/>
  <rect x="765.9" y="887.7" width="5.7" height="7.5" transform="translate(594 2055.6) rotate(-130.7)" style="fill: #b1deec;"/>
  <rect x="764.5" y="900" width="5.7" height="7.5" transform="translate(582.4 2074.7) rotate(-130.7)" style="fill: #b1deec;"/>
  <rect x="771.8" y="893.5" width="5.7" height="7.5" transform="translate(599.4 2069.6) rotate(-130.7)" style="fill: #b1deec;"/>
  <rect x="774.6" y="881.1" width="5.7" height="7.5" transform="translate(613.6 2051.3) rotate(-130.7)" style="fill: #b1deec;"/>
  <rect x="793.6" y="860" width="5.7" height="14" transform="translate(658.4 2036.2) rotate(-130.7)" style="fill: #b1deec;"/>
  <rect x="811.4" y="846.4" width="13.2" height="14" transform="translate(793 2035.4) rotate(-135)" style="fill: #b1deec;"/>
  <rect x="855.5" y="863.3" width="13.2" height="14" transform="translate(856.3 2095.4) rotate(-135)" style="fill: #b1deec;"/>
  <rect x="799.4" y="866.6" width="5.7" height="14" transform="translate(662.9 2051.6) rotate(-130.7)" style="fill: #b1deec;"/>
  <rect x="824.4" y="855.7" width="5.7" height="14" transform="translate(712.5 2052.4) rotate(-130.7)" style="fill: #b1deec;"/>
  <rect x="830.1" y="862.4" width="5.7" height="14" transform="translate(716.9 2067.8) rotate(-130.7)" style="fill: #b1deec;"/>
  <rect x="780.5" y="886.9" width="5.7" height="7.5" transform="translate(618.9 2065.3) rotate(-130.7)" style="fill: #b1deec;"/>
  <rect x="1148.8" y="915.9" width="5.7" height="7.5" transform="translate(1315.7 2384.2) rotate(-135)" style="fill: #b1deec;"/>
  <rect x="1215.6" y="875.4" width="5.7" height="7.5" transform="translate(1458.3 2362.4) rotate(-135)" style="fill: #b1deec;"/>
  <rect x="1221.8" y="869.1" width="5.7" height="7.5" transform="translate(1473.5 2355.9) rotate(-135)" style="fill: #b1deec;"/>
  <rect x="1228" y="862.7" width="5.7" height="7.5" transform="translate(1488.6 2349.4) rotate(-135)" style="fill: #b1deec;"/>
  <rect x="1204.5" y="863.3" width="5.7" height="7.5" transform="translate(1448 2333.8) rotate(-135)" style="fill: #b1deec;"/>
  <rect x="1210.7" y="856.9" width="5.7" height="7.5" transform="translate(1463.2 2327.3) rotate(-135)" style="fill: #b1deec;"/>
  <rect x="1217" y="850.5" width="5.7" height="7.5" transform="translate(1478.3 2320.8) rotate(-135)" style="fill: #b1deec;"/>
  <rect x="1221.7" y="881.2" width="5.7" height="7.5" transform="translate(1464.7 2376.5) rotate(-135)" style="fill: #b1deec;"/>
  <rect x="1227.9" y="874.8" width="5.7" height="7.5" transform="translate(1479.8 2370) rotate(-135)" style="fill: #b1deec;"/>
  <rect x="1234.1" y="868.4" width="5.7" height="7.5" transform="translate(1495 2363.5) rotate(-135)" style="fill: #b1deec;"/>
  <rect x="1209.3" y="810.6" width="5.7" height="7.5" transform="translate(1493.5 2247.4) rotate(-135)" style="fill: #b1deec;"/>
  <rect x="1215.6" y="804.2" width="5.7" height="7.5" transform="translate(1508.6 2240.9) rotate(-135)" style="fill: #b1deec;"/>
  <rect x="1221.8" y="797.8" width="5.7" height="7.5" transform="translate(1523.8 2234.3) rotate(-135)" style="fill: #b1deec;"/>
  <rect x="1215.4" y="816.4" width="5.7" height="7.5" transform="translate(1499.8 2261.4) rotate(-135)" style="fill: #b1deec;"/>
  <rect x="1221.7" y="810" width="5.7" height="7.5" transform="translate(1515 2254.9) rotate(-135)" style="fill: #b1deec;"/>
  <rect x="1227.9" y="803.6" width="5.7" height="7.5" transform="translate(1530.2 2248.4) rotate(-135)" style="fill: #b1deec;"/>
  <rect x="1228.3" y="792" width="5.7" height="7.5" transform="translate(1539 2229) rotate(-135)" style="fill: #b1deec;"/>
  <rect x="1248.7" y="784.6" width="5.7" height="7.5" transform="translate(1579.1 2230.7) rotate(-135)" style="fill: #b1deec;"/>
  <rect x="1234.4" y="797.7" width="5.7" height="7.5" transform="translate(1545.4 2243) rotate(-135)" style="fill: #b1deec;"/>
  <rect x="1257.2" y="774.9" width="5.7" height="7.5" transform="translate(1600.5 2220.2) rotate(-135)" style="fill: #b1deec;"/>
  <rect x="1275.5" y="781.3" width="16.1" height="7.5" transform="translate(1636.2 2247.8) rotate(-135)" style="fill: #b1deec;"/>
  <rect x="1262.4" y="864.4" width="5.7" height="7.5" transform="translate(1546 2376.6) rotate(-135)" style="fill: #b1deec;"/>
  <rect x="1268.6" y="858" width="5.7" height="7.5" transform="translate(1561.2 2370.1) rotate(-135)" style="fill: #b1deec;"/>
  <rect x="1274.8" y="851.6" width="5.7" height="7.5" transform="translate(1576.3 2363.6) rotate(-135)" style="fill: #b1deec;"/>
  <rect x="1268.5" y="870.1" width="5.7" height="7.5" transform="translate(1552.4 2390.7) rotate(-135)" style="fill: #b1deec;"/>
  <rect x="1274.7" y="863.7" width="5.7" height="7.5" transform="translate(1567.5 2384.2) rotate(-135)" style="fill: #b1deec;"/>
  <rect x="1280.9" y="857.3" width="5.7" height="7.5" transform="translate(1582.7 2377.7) rotate(-135)" style="fill: #b1deec;"/>
  <rect x="1281.3" y="845.8" width="5.7" height="7.5" transform="translate(1591.6 2358.2) rotate(-135)" style="fill: #b1deec;"/>
  <rect x="1287.4" y="851.5" width="5.7" height="7.5" transform="translate(1597.9 2372.3) rotate(-135)" style="fill: #b1deec;"/>
  <rect x="1313.6" y="849" width="5.7" height="7.5" transform="translate(1644.4 2386.6) rotate(-135)" style="fill: #b1deec;"/>
  <rect x="1319.9" y="842.6" width="5.7" height="7.5" transform="translate(1659.6 2380.1) rotate(-135)" style="fill: #b1deec;"/>
  <rect x="1319.7" y="854.7" width="5.7" height="7.5" transform="translate(1650.8 2400.7) rotate(-135)" style="fill: #b1deec;"/>
  <rect x="1326" y="848.4" width="5.7" height="7.5" transform="translate(1665.9 2394.2) rotate(-135)" style="fill: #b1deec;"/>
  <rect x="1326.4" y="836.8" width="5.7" height="7.5" transform="translate(1674.8 2374.8) rotate(-135)" style="fill: #b1deec;"/>
  <rect x="1332.7" y="831.7" width="14.2" height="7.5" transform="translate(1696.5 2373.6) rotate(-135)" style="fill: #b1deec;"/>
  <rect x="1332.5" y="842.5" width="5.7" height="7.5" transform="translate(1681.2 2388.8) rotate(-135)" style="fill: #b1deec;"/>
  <rect x="1287.6" y="803.3" width="5.7" height="7.5" transform="translate(1632.3 2290.1) rotate(-135)" style="fill: #b1deec;"/>
  <rect x="1293.7" y="809" width="5.7" height="7.5" transform="translate(1638.6 2304.2) rotate(-135)" style="fill: #b1deec;"/>
  <rect x="1294.1" y="797.4" width="5.7" height="7.5" transform="translate(1647.5 2284.7) rotate(-135)" style="fill: #b1deec;"/>
  <rect x="1300.2" y="803.1" width="5.7" height="7.5" transform="translate(1653.9 2298.8) rotate(-135)" style="fill: #b1deec;"/>
  <rect x="1294.7" y="832.8" width="5.7" height="7.5" transform="translate(1623.6 2345.5) rotate(-135)" style="fill: #b1deec;"/>
  <rect x="1300.8" y="838.5" width="5.7" height="7.5" transform="translate(1629.9 2359.5) rotate(-135)" style="fill: #b1deec;"/>
  <rect x="1200.3" y="782.4" width="5.7" height="7.5" transform="translate(1498.1 2192.7) rotate(-135)" style="fill: #b1deec;"/>
  <rect x="1206.4" y="788.1" width="5.7" height="7.5" transform="translate(1504.4 2206.8) rotate(-135)" style="fill: #b1deec;"/>
  <rect x="1206.8" y="776.5" width="5.7" height="7.5" transform="translate(1513.3 2187.3) rotate(-135)" style="fill: #b1deec;"/>
  <rect x="1211.5" y="773.8" width="15.5" height="6.3" transform="translate(1532 2188.5) rotate(-135)" style="fill: #b1deec;"/>
  <rect x="1223.2" y="763.6" width="21" height="8" transform="translate(1563.3 2182.7) rotate(-135)" style="fill: #b1deec;"/>
  <rect x="1212.9" y="782.2" width="5.7" height="7.5" transform="translate(1519.7 2201.4) rotate(-135)" style="fill: #b1deec;"/>
  <rect x="1252.1" y="815.4" width="5.7" height="7.5" transform="translate(1563.1 2285.7) rotate(-135)" style="fill: #b1deec;"/>
  <rect x="1235.4" y="889.7" width="5.7" height="7.5" transform="translate(1482.1 2400.9) rotate(-135)" style="fill: #b1deec;"/>
  <rect x="1241.7" y="883.4" width="5.7" height="7.5" transform="translate(1497.3 2394.4) rotate(-135)" style="fill: #b1deec;"/>
  <rect x="1148.8" y="941" width="5.7" height="7.5" transform="translate(1298 2427.1) rotate(-135)" style="fill: #b1deec;"/>
  <rect x="1155" y="934.6" width="5.7" height="7.5" transform="translate(1313.1 2420.6) rotate(-135)" style="fill: #b1deec;"/>
  <rect x="1161.3" y="928.2" width="5.7" height="7.5" transform="translate(1328.3 2414.1) rotate(-135)" style="fill: #b1deec;"/>
  <rect x="1175.8" y="864.2" width="5.7" height="35.9" transform="translate(1388.3 2339.4) rotate(-135)" style="fill: #b1deec;"/>
  <rect x="1142.2" y="827.4" width="5.7" height="30.4" transform="translate(1358.9 2248) rotate(-135)" style="fill: #b1deec;"/>
  <rect x="1071" y="845.8" width="12.2" height="30.4" transform="translate(1229.9 2231.4) rotate(-135)" style="fill: #b1deec;"/>
  <rect x="1151.5" y="835.4" width="5.7" height="20.5" transform="translate(1372.6 2259.7) rotate(-135)" style="fill: #b1deec;"/>
  <rect x="1187.6" y="873.2" width="5.7" height="18.9" transform="translate(1408.2 2348.5) rotate(-135)" style="fill: #b1deec;"/>
  <rect x="1237.1" y="803.1" width="5.7" height="37.9" transform="translate(1498.7 2287.1) rotate(-133.6)" style="fill: #b1deec;"/>
  <rect x="1238" y="821.1" width="5.7" height="23.6" transform="translate(1492.4 2306) rotate(-133.6)" style="fill: #b1deec;"/>
  <rect x="1321.4" y="887.4" width="5.7" height="7.5" transform="translate(1630.5 2457.7) rotate(-135)" style="fill: #b1deec;"/>
  <rect x="1306.4" y="875.1" width="5.7" height="37.9" transform="translate(1563.6 2459) rotate(-133.6)" style="fill: #b1deec;"/>
  <rect x="1340.7" y="865.5" width="5.7" height="15.4" transform="translate(1636.5 2448.6) rotate(-133.6)" style="fill: #b1deec;"/>
  <rect x="1355.7" y="851.3" width="5.7" height="15.4" transform="translate(1672.3 2435.4) rotate(-133.6)" style="fill: #b1deec;"/>
  <rect x="1346.7" y="829.3" width="5.7" height="50.1" transform="translate(1660.3 2421) rotate(-133.6)" style="fill: #b1deec;"/>
  <rect x="1307.4" y="893.1" width="5.7" height="23.6" transform="translate(1557.3 2478) rotate(-133.6)" style="fill: #b1deec;"/>
  <rect x="1296.5" y="861.9" width="5.1" height="17.7" transform="translate(1563.1 2412.2) rotate(-133.6)" style="fill: #b1deec;"/>
  <rect x="1301.7" y="867.4" width="5.1" height="17.7" transform="translate(1567.9 2425.2) rotate(-133.6)" style="fill: #b1deec;"/>
  <rect x="1204.1" y="841" width="5.7" height="27.4" transform="translate(1455.9 2312.5) rotate(-135)" style="fill: #b1deec;"/>
  <rect x="1244" y="883.9" width="5.7" height="23.1" transform="translate(1495.4 2410.3) rotate(-135)" style="fill: #b1deec;"/>
  <rect x="1155.1" y="946.4" width="5.7" height="7.5" transform="translate(1305 2440.7) rotate(-135)" style="fill: #b1deec;"/>
  <rect x="1161.4" y="940" width="5.7" height="7.5" transform="translate(1320.1 2434.2) rotate(-135)" style="fill: #b1deec;"/>
  <rect x="1167.6" y="933.6" width="5.7" height="7.5" transform="translate(1335.3 2427.7) rotate(-135)" style="fill: #b1deec;"/>
  <rect x="1197.9" y="937" width="5.7" height="7.5" transform="translate(1384.7 2455) rotate(-135)" style="fill: #b1deec;"/>
  <rect x="1214.5" y="905.6" width="5.7" height="37" transform="translate(1424.8 2438.3) rotate(-135)" style="fill: #b1deec;"/>
  <rect x="1151" y="1002.1" width="5.7" height="7.5" transform="translate(1165.8 2536.4) rotate(-131.5)" style="fill: #b1deec;"/>
  <rect x="1157.6" y="996.1" width="5.7" height="7.5" transform="translate(1181.2 2531.4) rotate(-131.5)" style="fill: #b1deec;"/>
  <rect x="1164.2" y="990.1" width="5.7" height="7.5" transform="translate(1196.7 2526.4) rotate(-131.5)" style="fill: #b1deec;"/>
  <rect x="1157" y="1007.8" width="5.7" height="7.5" transform="translate(1171.4 2550.4) rotate(-131.5)" style="fill: #b1deec;"/>
  <rect x="1163.6" y="1001.8" width="5.7" height="7.5" transform="translate(1186.9 2545.4) rotate(-131.5)" style="fill: #b1deec;"/>
  <rect x="1170.2" y="995.8" width="5.7" height="7.5" transform="translate(1202.4 2540.3) rotate(-131.5)" style="fill: #b1deec;"/>
  <rect x="1175" y="978.7" width="5.7" height="7.5" transform="translate(1223.2 2515.5) rotate(-131.5)" style="fill: #b1deec;"/>
  <rect x="1181.6" y="972.7" width="5.7" height="7.5" transform="translate(1238.7 2510.5) rotate(-131.5)" style="fill: #b1deec;"/>
  <rect x="1188.2" y="966.7" width="5.7" height="7.5" transform="translate(1254.2 2505.5) rotate(-131.5)" style="fill: #b1deec;"/>
  <rect x="1209.9" y="949.2" width="13.3" height="7.5" transform="translate(1309.6 2495.4) rotate(-131.5)" style="fill: #b1deec;"/>
  <rect x="1234.8" y="926.2" width="13.3" height="7.5" transform="translate(1368.1 2475.9) rotate(-131.5)" style="fill: #b1deec;"/>
  <rect x="1181" y="984.4" width="5.7" height="7.5" transform="translate(1228.9 2529.5) rotate(-131.5)" style="fill: #b1deec;"/>
  <rect x="1187.6" y="978.4" width="5.7" height="7.5" transform="translate(1244.3 2524.5) rotate(-131.5)" style="fill: #b1deec;"/>
  <rect x="1220.1" y="937.8" width="5.7" height="7.5" transform="translate(1328.8 2481.4) rotate(-131.5)" style="fill: #b1deec;"/>
  <rect x="1227.3" y="931.1" width="5.7" height="7.5" transform="translate(1345.8 2475.6) rotate(-131.5)" style="fill: #b1deec;"/>
  <rect x="1225.6" y="944" width="5.7" height="7.5" transform="translate(1333.2 2495.7) rotate(-131.5)" style="fill: #b1deec;"/>
  <rect x="1233.3" y="936.8" width="5.7" height="7.5" transform="translate(1351.5 2489.6) rotate(-131.5)" style="fill: #b1deec;"/>
  <rect x="1225.6" y="964.9" width="13.3" height="7.5" transform="translate(1324 2533.4) rotate(-131.5)" style="fill: #b1deec;"/>
  <rect x="1250.5" y="942" width="13.3" height="7.5" transform="translate(1382.5 2513.9) rotate(-131.5)" style="fill: #b1deec;"/>
  <rect x="1235.9" y="953.6" width="5.7" height="7.5" transform="translate(1343.2 2519.3) rotate(-131.5)" style="fill: #b1deec;"/>
  <rect x="1243.1" y="946.9" width="5.7" height="7.5" transform="translate(1360.2 2513.6) rotate(-131.5)" style="fill: #b1deec;"/>
  <rect x="1241.3" y="959.7" width="5.7" height="7.5" transform="translate(1347.6 2533.7) rotate(-131.5)" style="fill: #b1deec;"/>
  <rect x="1249.1" y="952.6" width="5.7" height="7.5" transform="translate(1365.9 2527.6) rotate(-131.5)" style="fill: #b1deec;"/>
  <rect x="1194.2" y="972.4" width="5.7" height="7.5" transform="translate(1259.8 2519.4) rotate(-131.5)" style="fill: #b1deec;"/>
  <rect x="1167.2" y="1019.9" width="5.7" height="7.5" transform="translate(1179.3 2578.2) rotate(-131.5)" style="fill: #b1deec;"/>
  <rect x="1173.8" y="1013.9" width="5.7" height="7.5" transform="translate(1194.8 2573.2) rotate(-131.5)" style="fill: #b1deec;"/>
  <rect x="1180.4" y="1007.9" width="5.7" height="7.5" transform="translate(1210.2 2568.1) rotate(-131.5)" style="fill: #b1deec;"/>
  <rect x="1173.2" y="1025.6" width="5.7" height="7.5" transform="translate(1185 2592.2) rotate(-131.5)" style="fill: #b1deec;"/>
  <rect x="1179.8" y="1019.6" width="5.7" height="7.5" transform="translate(1200.4 2587.1) rotate(-131.5)" style="fill: #b1deec;"/>
  <rect x="1186.4" y="1013.6" width="5.7" height="7.5" transform="translate(1215.9 2582.1) rotate(-131.5)" style="fill: #b1deec;"/>
  <rect x="1197.7" y="990.3" width="5.7" height="7.5" transform="translate(1252.2 2551.9) rotate(-131.5)" style="fill: #b1deec;"/>
  <rect x="1204.3" y="984.3" width="5.7" height="7.5" transform="translate(1267.7 2546.9) rotate(-131.5)" style="fill: #b1deec;"/>
  <rect x="1211" y="978.3" width="5.7" height="7.5" transform="translate(1283.2 2541.9) rotate(-131.5)" style="fill: #b1deec;"/>
  <rect x="1203.7" y="996.1" width="5.7" height="7.5" transform="translate(1257.9 2565.9) rotate(-131.5)" style="fill: #b1deec;"/>
  <rect x="1210.3" y="990.1" width="5.7" height="7.5" transform="translate(1273.4 2560.9) rotate(-131.5)" style="fill: #b1deec;"/>
  <rect x="1216.9" y="984" width="5.7" height="7.5" transform="translate(1288.9 2555.8) rotate(-131.5)" style="fill: #b1deec;"/>
  <rect x="1163.7" y="958.3" width="5.7" height="7.5" transform="translate(1219.6 2473.3) rotate(-131.5)" style="fill: #b1deec;"/>
  <rect x="1119.6" y="1013.7" width="5.7" height="4.7" transform="translate(1105.9 2530) rotate(-131.5)" style="fill: #b1deec;"/>
  <rect x="1126" y="1006" width="5.7" height="8.7" transform="translate(1120.8 2525.4) rotate(-131.5)" style="fill: #b1deec;"/>
  <rect x="1124.5" y="1018.3" width="5.7" height="8.7" transform="translate(1109.1 2544.6) rotate(-131.5)" style="fill: #b1deec;"/>
  <rect x="1132.3" y="1011.4" width="5.7" height="8.7" transform="translate(1127.2 2539) rotate(-131.5)" style="fill: #b1deec;"/>
  <rect x="1135.9" y="1033.4" width="19.6" height="8.7" transform="translate(1128.4 2583.4) rotate(-131.5)" style="fill: #b1deec;"/>
  <polygon points="1180.9 1088.1 1188.4 1098.1 1183.3 1102.5 1175.8 1092.5 1180.9 1088.1" style="fill: #b1deec;"/>
  <polygon points="1196.6 1118.1 1217.5 1150.3 1213.9 1153 1193.2 1120.6 1196.6 1118.1" style="fill: #b1deec;"/>
  <rect x="1129.2" y="1024.6" width="5.7" height="8.7" transform="translate(1112.2 2558.6) rotate(-131.5)" style="fill: #b1deec;"/>
  <rect x="1137" y="1017.7" width="5.7" height="8.7" transform="translate(1130.2 2553) rotate(-131.5)" style="fill: #b1deec;"/>
  <rect x="1170.3" y="952.3" width="5.7" height="7.5" transform="translate(1235.1 2468.2) rotate(-131.5)" style="fill: #b1deec;"/>
  <rect x="1176.9" y="946.3" width="5.7" height="7.5" transform="translate(1250.6 2463.2) rotate(-131.5)" style="fill: #b1deec;"/>
  <rect x="1169.7" y="964" width="5.7" height="7.5" transform="translate(1225.3 2487.2) rotate(-131.5)" style="fill: #b1deec;"/>
  <rect x="1176.3" y="958" width="5.7" height="7.5" transform="translate(1240.8 2482.2) rotate(-131.5)" style="fill: #b1deec;"/>
  <rect x="1182.9" y="952" width="5.7" height="7.5" transform="translate(1256.3 2477.1) rotate(-131.5)" style="fill: #b1deec;"/>
  <rect x="1140.3" y="989" width="5.7" height="7.5" transform="translate(1157.7 2506.7) rotate(-131.5)" style="fill: #b1deec;"/>
  <rect x="1146.9" y="983" width="5.7" height="7.5" transform="translate(1173.2 2501.6) rotate(-131.5)" style="fill: #b1deec;"/>
  <rect x="1153.5" y="977" width="5.7" height="7.5" transform="translate(1188.7 2496.6) rotate(-131.5)" style="fill: #b1deec;"/>
  <rect x="1242.6" y="849.2" width="5.7" height="4.7" transform="translate(1524 2334.4) rotate(-135)" style="fill: #b1deec;"/>
  <rect x="1273.9" y="819.2" width="15.9" height="5.2" transform="translate(1607.2 2309.3) rotate(-135)" style="fill: #b1deec;"/>
  <rect x="1279.3" y="813.9" width="15.9" height="5.2" transform="translate(1620.2 2304) rotate(-135)" style="fill: #b1deec;"/>
  <rect x="1258.7" y="830.3" width="14.2" height="14.2" transform="translate(1568.8 2324.6) rotate(-135)" style="fill: #b1deec;"/>
  <rect x="1307.4" y="818.3" width="14.2" height="14.2" transform="translate(1660.3 2338.5) rotate(-135)" style="fill: #b1deec;"/>
  <rect x="1279.9" y="880" width="14.2" height="14.2" transform="translate(1535.4 2430.3) rotate(-133.7)" style="fill: #b1deec;"/>
  <rect x="1248.7" y="841.2" width="5.7" height="8.7" transform="translate(1538.6 2328.4) rotate(-135)" style="fill: #b1deec;"/>
  <rect x="1248.6" y="855.1" width="5.7" height="4.7" transform="translate(1530.1 2348.7) rotate(-135)" style="fill: #b1deec;"/>
  <rect x="1254.6" y="847" width="5.7" height="8.7" transform="translate(1544.7 2342.6) rotate(-135)" style="fill: #b1deec;"/>
  <rect x="1385.5" y="1077.9" width="10.7" height="17.4" style="fill: #b1deec;"/>
  <rect x="1398.5" y="1090.2" width="10.7" height="17.4" style="fill: #b1deec;"/>
  <rect x="1283.1" y="1057.8" width="10.7" height="17.4" style="fill: #b1deec;"/>
  <rect x="1297.5" y="1061" width="10.7" height="17.4" style="fill: #b1deec;"/>
  <rect x="1458.8" y="1007.4" width="10.7" height="17.4" style="fill: #b1deec;"/>
  <rect x="1472.9" y="1017.9" width="10.7" height="17.4" style="fill: #b1deec;"/>
  <rect x="1411.8" y="1085.1" width="10.7" height="17.4" style="fill: #b1deec;"/>
  <rect x="1414.4" y="1105.6" width="10.7" height="17.4" style="fill: #b1deec;"/>
  <rect x="1428" y="1100.2" width="10.7" height="31.6" style="fill: #b1deec;"/>
</svg>