<?xml version="1.0" encoding="UTF-8"?>
<svg id="transitio_export" xmlns="http://www.w3.org/2000/svg" width="2152" height="2152" viewBox="0 0 2152 2152">
  <g>
    <polygon points="1011.5 946.1 1011.3 945.9 1011.9 945.1 1012.1 945.3 1011.5 946.1" style="fill: #dfdc00;"/>
    <path d="M842.2,1143l-.2-.2,1.3-1.5,.2,.2-1.3,1.5Zm2.6-3l-.2-.2,1.3-1.5,.2,.2-1.3,1.5Zm2.6-3l-.2-.2,1.3-1.5,.2,.2-1.3,1.5Zm2.6-3l-.2-.2,1.3-1.5,.2,.2-1.3,1.5Zm2.6-3l-.2-.2,1.3-1.5,.2,.2-1.3,1.5Zm2.6-3l-.2-.2,1.3-1.5,.2,.2-1.3,1.5Zm2.6-3l-.2-.2,1.3-1.5,.2,.2-1.3,1.5Zm2.6-3l-.2-.2,1.3-1.5,.2,.2-1.3,1.5Zm2.6-3l-.2-.2,1.3-1.5,.2,.2-1.3,1.5Zm2.6-3l-.2-.2,1.3-1.5,.2,.2-1.3,1.5Zm2.6-3l-.2-.2,1.3-1.5,.2,.2-1.3,1.5Zm2.6-3l-.2-.2,1.3-1.5,.2,.2-1.3,1.5Zm2.6-3l-.2-.2,1.3-1.5,.2,.2-1.3,1.5Zm2.6-3l-.2-.2,1.3-1.5,.2,.2-1.3,1.5Zm2.6-3l-.2-.2,1.3-1.5,.2,.2-1.3,1.5Zm2.6-3l-.2-.2,1.3-1.5,.2,.2-1.3,1.5Zm2.6-3l-.2-.2,1.3-1.5,.2,.2-1.3,1.5Zm2.6-3l-.2-.2,1.3-1.5,.2,.2-1.3,1.5Zm2.6-3l-.2-.2,1.3-1.5,.2,.2-1.3,1.5Zm2.6-3l-.2-.2,1.3-1.5,.2,.2-1.3,1.5Zm2.6-3l-.2-.2,1.3-1.5,.2,.2-1.3,1.5Zm2.6-3l-.2-.2,1.3-1.5,.2,.2-1.3,1.5Zm2.6-3l-.2-.2,1.3-1.5,.2,.2-1.3,1.5Zm2.6-3l-.2-.2,1.3-1.5,.2,.2-1.3,1.5Zm2.6-3l-.2-.2,1.3-1.5,.2,.2-1.3,1.5Zm2.6-3l-.2-.2,1.3-1.5,.2,.2-1.3,1.5Zm2.6-3l-.2-.2,1.3-1.5,.2,.2-1.3,1.5Zm2.6-3l-.2-.2,1.3-1.5,.2,.2-1.3,1.5Zm2.6-3l-.2-.2,1.3-1.5,.2,.2-1.3,1.5Zm2.6-3l-.2-.2,1.3-1.5,.2,.2-1.3,1.5Zm2.6-3l-.2-.2,1.3-1.5,.2,.2-1.3,1.5Zm2.6-3l-.2-.2,1.3-1.5,.2,.2-1.3,1.5Zm2.6-3l-.2-.2,1.3-1.5,.2,.2-1.3,1.5Zm2.6-3l-.2-.2,1.3-1.5,.2,.2-1.3,1.5Zm2.6-3l-.2-.2,1.3-1.5,.2,.2-1.3,1.5Zm2.6-3l-.2-.2,1.3-1.5,.2,.2-1.3,1.5Zm2.6-3l-.2-.2,1.3-1.5,.2,.2-1.3,1.5Zm2.6-3l-.2-.2,1.3-1.5,.2,.2-1.3,1.5Zm2.6-3l-.2-.2,1.3-1.5,.2,.2-1.3,1.5Zm2.6-3l-.2-.2,1.3-1.5,.2,.2-1.3,1.5Zm2.6-3l-.2-.2,1.3-1.5,.2,.2-1.3,1.5Zm2.6-3l-.2-.2,1.3-1.5,.2,.2-1.3,1.5Zm2.6-3l-.2-.2,1.3-1.5,.2,.2-1.3,1.5Zm2.6-3l-.2-.2,1.3-1.5,.2,.2-1.3,1.5Zm2.6-3l-.2-.2,1.3-1.5,.2,.2-1.3,1.5Zm2.6-3l-.2-.2,1.3-1.5,.2,.2-1.3,1.5Zm2.6-3l-.2-.2,1.3-1.5,.2,.2-1.3,1.5Zm2.6-3l-.2-.2,1.3-1.5,.2,.2-1.3,1.5Zm2.6-3l-.2-.2,1.3-1.5,.2,.2-1.3,1.5Zm2.6-3l-.2-.2,1.3-1.5,.2,.2-1.3,1.5Zm2.6-3l-.2-.2,1.3-1.5,.2,.2-1.3,1.5Zm2.6-3l-.2-.2,1.3-1.5,.2,.2-1.3,1.5Zm2.6-3l-.2-.2,1.3-1.5,.2,.2-1.3,1.5Zm2.6-3l-.2-.2,1.3-1.5,.2,.2-1.3,1.5Zm2.6-3l-.2-.2,1.3-1.5,.2,.2-1.3,1.5Zm2.6-3l-.2-.2,1.3-1.5,.2,.2-1.3,1.5Zm2.6-3l-.2-.2,1.3-1.5,.2,.2-1.3,1.5Zm2.6-3l-.2-.2,1.3-1.5,.2,.2-1.3,1.5Zm2.6-3l-.2-.2,1.3-1.5,.2,.2-1.3,1.5Zm2.6-3l-.2-.2,1.3-1.5,.2,.2-1.3,1.5Zm2.6-3l-.2-.2,1.3-1.5,.2,.2-1.3,1.5Zm2.6-3l-.2-.2,1.3-1.5,.2,.2-1.3,1.5Zm2.6-3l-.2-.2,1.3-1.5,.2,.2-1.3,1.5Zm2.6-3l-.2-.2,1.3-1.5,.2,.2-1.3,1.5Zm2.6-3l-.2-.2,1.3-1.5,.2,.2-1.3,1.5Z" style="fill: #dfdc00;"/>
    <polygon points="840.3 1145.3 840.1 1145.1 840.7 1144.4 840.9 1144.6 840.3 1145.3" style="fill: #dfdc00;"/>
  </g>
  <g>
    <polygon points="1015.3 949.8 1015.1 949.6 1015.7 948.9 1015.9 949 1015.3 949.8" style="fill: #dfdc00;"/>
    <path d="M846,1146.8l-.2-.2,1.3-1.5,.2,.2-1.3,1.5Zm2.6-3l-.2-.2,1.3-1.5,.2,.2-1.3,1.5Zm2.6-3l-.2-.2,1.3-1.5,.2,.2-1.3,1.5Zm2.6-3l-.2-.2,1.3-1.5,.2,.2-1.3,1.5Zm2.6-3l-.2-.2,1.3-1.5,.2,.2-1.3,1.5Zm2.6-3l-.2-.2,1.3-1.5,.2,.2-1.3,1.5Zm2.6-3l-.2-.2,1.3-1.5,.2,.2-1.3,1.5Zm2.6-3l-.2-.2,1.3-1.5,.2,.2-1.3,1.5Zm2.6-3l-.2-.2,1.3-1.5,.2,.2-1.3,1.5Zm2.6-3l-.2-.2,1.3-1.5,.2,.2-1.3,1.5Zm2.6-3l-.2-.2,1.3-1.5,.2,.2-1.3,1.5Zm2.6-3l-.2-.2,1.3-1.5,.2,.2-1.3,1.5Zm2.6-3l-.2-.2,1.3-1.5,.2,.2-1.3,1.5Zm2.6-3l-.2-.2,1.3-1.5,.2,.2-1.3,1.5Zm2.6-3l-.2-.2,1.3-1.5,.2,.2-1.3,1.5Zm2.6-3l-.2-.2,1.3-1.5,.2,.2-1.3,1.5Zm2.6-3l-.2-.2,1.3-1.5,.2,.2-1.3,1.5Zm2.6-3l-.2-.2,1.3-1.5,.2,.2-1.3,1.5Zm2.6-3l-.2-.2,1.3-1.5,.2,.2-1.3,1.5Zm2.6-3l-.2-.2,1.3-1.5,.2,.2-1.3,1.5Zm2.6-3l-.2-.2,1.3-1.5,.2,.2-1.3,1.5Zm2.6-3l-.2-.2,1.3-1.5,.2,.2-1.3,1.5Zm2.6-3l-.2-.2,1.3-1.5,.2,.2-1.3,1.5Zm2.6-3l-.2-.2,1.3-1.5,.2,.2-1.3,1.5Zm2.6-3l-.2-.2,1.3-1.5,.2,.2-1.3,1.5Zm2.6-3l-.2-.2,1.3-1.5,.2,.2-1.3,1.5Zm2.6-3l-.2-.2,1.3-1.5,.2,.2-1.3,1.5Zm2.6-3l-.2-.2,1.3-1.5,.2,.2-1.3,1.5Zm2.6-3l-.2-.2,1.3-1.5,.2,.2-1.3,1.5Zm2.6-3l-.2-.2,1.3-1.5,.2,.2-1.3,1.5Zm2.6-3l-.2-.2,1.3-1.5,.2,.2-1.3,1.5Zm2.6-3l-.2-.2,1.3-1.5,.2,.2-1.3,1.5Zm2.6-3l-.2-.2,1.3-1.5,.2,.2-1.3,1.5Zm2.6-3l-.2-.2,1.3-1.5,.2,.2-1.3,1.5Zm2.6-3l-.2-.2,1.3-1.5,.2,.2-1.3,1.5Zm2.6-3l-.2-.2,1.3-1.5,.2,.2-1.3,1.5Zm2.6-3l-.2-.2,1.3-1.5,.2,.2-1.3,1.5Zm2.6-3l-.2-.2,1.3-1.5,.2,.2-1.3,1.5Zm2.6-3l-.2-.2,1.3-1.5,.2,.2-1.3,1.5Zm2.6-3l-.2-.2,1.3-1.5,.2,.2-1.3,1.5Zm2.6-3l-.2-.2,1.3-1.5,.2,.2-1.3,1.5Zm2.6-3l-.2-.2,1.3-1.5,.2,.2-1.3,1.5Zm2.6-3l-.2-.2,1.3-1.5,.2,.2-1.3,1.5Zm2.6-3l-.2-.2,1.3-1.5,.2,.2-1.3,1.5Zm2.6-3l-.2-.2,1.3-1.5,.2,.2-1.3,1.5Zm2.6-3l-.2-.2,1.3-1.5,.2,.2-1.3,1.5Zm2.6-3l-.2-.2,1.3-1.5,.2,.2-1.3,1.5Zm2.6-3l-.2-.2,1.3-1.5,.2,.2-1.3,1.5Zm2.6-3l-.2-.2,1.3-1.5,.2,.2-1.3,1.5Zm2.6-3l-.2-.2,1.3-1.5,.2,.2-1.3,1.5Zm2.6-3l-.2-.2,1.3-1.5,.2,.2-1.3,1.5Zm2.6-3l-.2-.2,1.3-1.5,.2,.2-1.3,1.5Zm2.6-3l-.2-.2,1.3-1.5,.2,.2-1.3,1.5Zm2.6-3l-.2-.2,1.3-1.5,.2,.2-1.3,1.5Zm2.6-3l-.2-.2,1.3-1.5,.2,.2-1.3,1.5Zm2.6-3l-.2-.2,1.3-1.5,.2,.2-1.3,1.5Zm2.6-3l-.2-.2,1.3-1.5,.2,.2-1.3,1.5Zm2.6-3l-.2-.2,1.3-1.5,.2,.2-1.3,1.5Zm2.6-3l-.2-.2,1.3-1.5,.2,.2-1.3,1.5Zm2.6-3l-.2-.2,1.3-1.5,.2,.2-1.3,1.5Zm2.6-3l-.2-.2,1.3-1.5,.2,.2-1.3,1.5Zm2.6-3l-.2-.2,1.3-1.5,.2,.2-1.3,1.5Zm2.6-3l-.2-.2,1.3-1.5,.2,.2-1.3,1.5Zm2.6-3l-.2-.2,1.3-1.5,.2,.2-1.3,1.5Zm2.6-3l-.2-.2,1.3-1.5,.2,.2-1.3,1.5Z" style="fill: #dfdc00;"/>
    <polygon points="844.1 1149 843.9 1148.9 844.6 1148.1 844.7 1148.3 844.1 1149" style="fill: #dfdc00;"/>
  </g>
  <g>
    <polygon points="1021.7 955.4 1021.6 955.2 1022.2 954.5 1022.4 954.6 1021.7 955.4" style="fill: #dfdc00;"/>
    <path d="M852.5,1152.4l-.2-.2,1.3-1.5,.2,.2-1.3,1.5Zm2.6-3l-.2-.2,1.3-1.5,.2,.2-1.3,1.5Zm2.6-3l-.2-.2,1.3-1.5,.2,.2-1.3,1.5Zm2.6-3l-.2-.2,1.3-1.5,.2,.2-1.3,1.5Zm2.6-3l-.2-.2,1.3-1.5,.2,.2-1.3,1.5Zm2.6-3l-.2-.2,1.3-1.5,.2,.2-1.3,1.5Zm2.6-3l-.2-.2,1.3-1.5,.2,.2-1.3,1.5Zm2.6-3l-.2-.2,1.3-1.5,.2,.2-1.3,1.5Zm2.6-3l-.2-.2,1.3-1.5,.2,.2-1.3,1.5Zm2.6-3l-.2-.2,1.3-1.5,.2,.2-1.3,1.5Zm2.6-3l-.2-.2,1.3-1.5,.2,.2-1.3,1.5Zm2.6-3l-.2-.2,1.3-1.5,.2,.2-1.3,1.5Zm2.6-3l-.2-.2,1.3-1.5,.2,.2-1.3,1.5Zm2.6-3l-.2-.2,1.3-1.5,.2,.2-1.3,1.5Zm2.6-3l-.2-.2,1.3-1.5,.2,.2-1.3,1.5Zm2.6-3l-.2-.2,1.3-1.5,.2,.2-1.3,1.5Zm2.6-3l-.2-.2,1.3-1.5,.2,.2-1.3,1.5Zm2.6-3l-.2-.2,1.3-1.5,.2,.2-1.3,1.5Zm2.6-3l-.2-.2,1.3-1.5,.2,.2-1.3,1.5Zm2.6-3l-.2-.2,1.3-1.5,.2,.2-1.3,1.5Zm2.6-3l-.2-.2,1.3-1.5,.2,.2-1.3,1.5Zm2.6-3l-.2-.2,1.3-1.5,.2,.2-1.3,1.5Zm2.6-3l-.2-.2,1.3-1.5,.2,.2-1.3,1.5Zm2.6-3l-.2-.2,1.3-1.5,.2,.2-1.3,1.5Zm2.6-3l-.2-.2,1.3-1.5,.2,.2-1.3,1.5Zm2.6-3l-.2-.2,1.3-1.5,.2,.2-1.3,1.5Zm2.6-3l-.2-.2,1.3-1.5,.2,.2-1.3,1.5Zm2.6-3l-.2-.2,1.3-1.5,.2,.2-1.3,1.5Zm2.6-3l-.2-.2,1.3-1.5,.2,.2-1.3,1.5Zm2.6-3l-.2-.2,1.3-1.5,.2,.2-1.3,1.5Zm2.6-3l-.2-.2,1.3-1.5,.2,.2-1.3,1.5Zm2.6-3l-.2-.2,1.3-1.5,.2,.2-1.3,1.5Zm2.6-3l-.2-.2,1.3-1.5,.2,.2-1.3,1.5Zm2.6-3l-.2-.2,1.3-1.5,.2,.2-1.3,1.5Zm2.6-3l-.2-.2,1.3-1.5,.2,.2-1.3,1.5Zm2.6-3l-.2-.2,1.3-1.5,.2,.2-1.3,1.5Zm2.6-3l-.2-.2,1.3-1.5,.2,.2-1.3,1.5Zm2.6-3l-.2-.2,1.3-1.5,.2,.2-1.3,1.5Zm2.6-3l-.2-.2,1.3-1.5,.2,.2-1.3,1.5Zm2.6-3l-.2-.2,1.3-1.5,.2,.2-1.3,1.5Zm2.6-3l-.2-.2,1.3-1.5,.2,.2-1.3,1.5Zm2.6-3l-.2-.2,1.3-1.5,.2,.2-1.3,1.5Zm2.6-3l-.2-.2,1.3-1.5,.2,.2-1.3,1.5Zm2.6-3l-.2-.2,1.3-1.5,.2,.2-1.3,1.5Zm2.6-3l-.2-.2,1.3-1.5,.2,.2-1.3,1.5Zm2.6-3l-.2-.2,1.3-1.5,.2,.2-1.3,1.5Zm2.6-3l-.2-.2,1.3-1.5,.2,.2-1.3,1.5Zm2.6-3l-.2-.2,1.3-1.5,.2,.2-1.3,1.5Zm2.6-3l-.2-.2,1.3-1.5,.2,.2-1.3,1.5Zm2.6-3l-.2-.2,1.3-1.5,.2,.2-1.3,1.5Zm2.6-3l-.2-.2,1.3-1.5,.2,.2-1.3,1.5Zm2.6-3l-.2-.2,1.3-1.5,.2,.2-1.3,1.5Zm2.6-3l-.2-.2,1.3-1.5,.2,.2-1.3,1.5Zm2.6-3l-.2-.2,1.3-1.5,.2,.2-1.3,1.5Zm2.6-3l-.2-.2,1.3-1.5,.2,.2-1.3,1.5Zm2.6-3l-.2-.2,1.3-1.5,.2,.2-1.3,1.5Zm2.6-3l-.2-.2,1.3-1.5,.2,.2-1.3,1.5Zm2.6-3l-.2-.2,1.3-1.5,.2,.2-1.3,1.5Zm2.6-3l-.2-.2,1.3-1.5,.2,.2-1.3,1.5Zm2.6-3l-.2-.2,1.3-1.5,.2,.2-1.3,1.5Zm2.6-3l-.2-.2,1.3-1.5,.2,.2-1.3,1.5Zm2.6-3l-.2-.2,1.3-1.5,.2,.2-1.3,1.5Zm2.6-3l-.2-.2,1.3-1.5,.2,.2-1.3,1.5Zm2.6-3l-.2-.2,1.3-1.5,.2,.2-1.3,1.5Zm2.6-3l-.2-.2,1.3-1.5,.2,.2-1.3,1.5Z" style="fill: #dfdc00;"/>
    <polygon points="850.6 1154.7 850.4 1154.5 851 1153.7 851.2 1153.9 850.6 1154.7" style="fill: #dfdc00;"/>
  </g>
  <g>
    <polygon points="1025 957.9 1024.8 957.8 1025.4 957 1025.6 957.2 1025 957.9" style="fill: #dfdc00;"/>
    <path d="M855.7,1154.9l-.2-.2,1.3-1.5,.2,.2-1.3,1.5Zm2.6-3l-.2-.2,1.3-1.5,.2,.2-1.3,1.5Zm2.6-3l-.2-.2,1.3-1.5,.2,.2-1.3,1.5Zm2.6-3l-.2-.2,1.3-1.5,.2,.2-1.3,1.5Zm2.6-3l-.2-.2,1.3-1.5,.2,.2-1.3,1.5Zm2.6-3l-.2-.2,1.3-1.5,.2,.2-1.3,1.5Zm2.6-3l-.2-.2,1.3-1.5,.2,.2-1.3,1.5Zm2.6-3l-.2-.2,1.3-1.5,.2,.2-1.3,1.5Zm2.6-3l-.2-.2,1.3-1.5,.2,.2-1.3,1.5Zm2.6-3l-.2-.2,1.3-1.5,.2,.2-1.3,1.5Zm2.6-3l-.2-.2,1.3-1.5,.2,.2-1.3,1.5Zm2.6-3l-.2-.2,1.3-1.5,.2,.2-1.3,1.5Zm2.6-3l-.2-.2,1.3-1.5,.2,.2-1.3,1.5Zm2.6-3l-.2-.2,1.3-1.5,.2,.2-1.3,1.5Zm2.6-3l-.2-.2,1.3-1.5,.2,.2-1.3,1.5Zm2.6-3l-.2-.2,1.3-1.5,.2,.2-1.3,1.5Zm2.6-3l-.2-.2,1.3-1.5,.2,.2-1.3,1.5Zm2.6-3l-.2-.2,1.3-1.5,.2,.2-1.3,1.5Zm2.6-3l-.2-.2,1.3-1.5,.2,.2-1.3,1.5Zm2.6-3l-.2-.2,1.3-1.5,.2,.2-1.3,1.5Zm2.6-3l-.2-.2,1.3-1.5,.2,.2-1.3,1.5Zm2.6-3l-.2-.2,1.3-1.5,.2,.2-1.3,1.5Zm2.6-3l-.2-.2,1.3-1.5,.2,.2-1.3,1.5Zm2.6-3l-.2-.2,1.3-1.5,.2,.2-1.3,1.5Zm2.6-3l-.2-.2,1.3-1.5,.2,.2-1.3,1.5Zm2.6-3l-.2-.2,1.3-1.5,.2,.2-1.3,1.5Zm2.6-3l-.2-.2,1.3-1.5,.2,.2-1.3,1.5Zm2.6-3l-.2-.2,1.3-1.5,.2,.2-1.3,1.5Zm2.6-3l-.2-.2,1.3-1.5,.2,.2-1.3,1.5Zm2.6-3l-.2-.2,1.3-1.5,.2,.2-1.3,1.5Zm2.6-3l-.2-.2,1.3-1.5,.2,.2-1.3,1.5Zm2.6-3l-.2-.2,1.3-1.5,.2,.2-1.3,1.5Zm2.6-3l-.2-.2,1.3-1.5,.2,.2-1.3,1.5Zm2.6-3l-.2-.2,1.3-1.5,.2,.2-1.3,1.5Zm2.6-3l-.2-.2,1.3-1.5,.2,.2-1.3,1.5Zm2.6-3l-.2-.2,1.3-1.5,.2,.2-1.3,1.5Zm2.6-3l-.2-.2,1.3-1.5,.2,.2-1.3,1.5Zm2.6-3l-.2-.2,1.3-1.5,.2,.2-1.3,1.5Zm2.6-3l-.2-.2,1.3-1.5,.2,.2-1.3,1.5Zm2.6-3l-.2-.2,1.3-1.5,.2,.2-1.3,1.5Zm2.6-3l-.2-.2,1.3-1.5,.2,.2-1.3,1.5Zm2.6-3l-.2-.2,1.3-1.5,.2,.2-1.3,1.5Zm2.6-3l-.2-.2,1.3-1.5,.2,.2-1.3,1.5Zm2.6-3l-.2-.2,1.3-1.5,.2,.2-1.3,1.5Zm2.6-3l-.2-.2,1.3-1.5,.2,.2-1.3,1.5Zm2.6-3l-.2-.2,1.3-1.5,.2,.2-1.3,1.5Zm2.6-3l-.2-.2,1.3-1.5,.2,.2-1.3,1.5Zm2.6-3l-.2-.2,1.3-1.5,.2,.2-1.3,1.5Zm2.6-3l-.2-.2,1.3-1.5,.2,.2-1.3,1.5Zm2.6-3l-.2-.2,1.3-1.5,.2,.2-1.3,1.5Zm2.6-3l-.2-.2,1.3-1.5,.2,.2-1.3,1.5Zm2.6-3l-.2-.2,1.3-1.5,.2,.2-1.3,1.5Zm2.6-3l-.2-.2,1.3-1.5,.2,.2-1.3,1.5Zm2.6-3l-.2-.2,1.3-1.5,.2,.2-1.3,1.5Zm2.6-3l-.2-.2,1.3-1.5,.2,.2-1.3,1.5Zm2.6-3l-.2-.2,1.3-1.5,.2,.2-1.3,1.5Zm2.6-3l-.2-.2,1.3-1.5,.2,.2-1.3,1.5Zm2.6-3l-.2-.2,1.3-1.5,.2,.2-1.3,1.5Zm2.6-3l-.2-.2,1.3-1.5,.2,.2-1.3,1.5Zm2.6-3l-.2-.2,1.3-1.5,.2,.2-1.3,1.5Zm2.6-3l-.2-.2,1.3-1.5,.2,.2-1.3,1.5Zm2.6-3l-.2-.2,1.3-1.5,.2,.2-1.3,1.5Zm2.6-3l-.2-.2,1.3-1.5,.2,.2-1.3,1.5Zm2.6-3l-.2-.2,1.3-1.5,.2,.2-1.3,1.5Zm2.6-3l-.2-.2,1.3-1.5,.2,.2-1.3,1.5Z" style="fill: #dfdc00;"/>
    <polygon points="853.8 1157.2 853.6 1157 854.3 1156.3 854.4 1156.4 853.8 1157.2" style="fill: #dfdc00;"/>
  </g>
  <path d="M1044.1,996.1h-.3s0-.3,0-.3h.3c.5,0,1.1,0,1.7,0v.2c-.6,0-1.1,0-1.7,0Zm-2.3,0c-.7,0-1.3,0-2-.1v-.2c.7,0,1.3,.1,2,.1v.2Zm6,0v-.2c.6,0,1.3,0,2-.2v.2c-.7,0-1.3,.1-2,.2Zm-10-.3c-.7,0-1.3-.2-2-.3v-.2c.7,.1,1.4,.2,2,.3v.2Zm14,0v-.2c.6,0,1.3-.2,1.9-.3v.2c-.6,.1-1.3,.2-1.9,.3Zm4-.6v-.2c.3,0,.7-.1,1-.2v.2c-.3,0-.7,.1-1,.2Zm-21.9-.1c-.7-.2-1.3-.4-1.9-.6v-.2c.7,.2,1.3,.4,2,.6v.2Zm-3.9-1.2c-.6-.3-1.2-.5-1.8-.8v-.2c.7,.3,1.3,.6,1.9,.8v.2Zm-3.7-1.8c-.6-.4-1.1-.7-1.7-1.1v-.2c.7,.4,1.2,.8,1.8,1.1v.2Zm-3.4-2.4c-.5-.4-1-.9-1.4-1.4l.2-.2c.4,.5,.9,.9,1.4,1.4l-.2,.2Zm-2.7-2.9c-.4-.5-.8-1.1-1.1-1.7h.2c.3,.4,.7,1,1.1,1.5l-.2,.2Zm-2.1-3.4c-.3-.6-.6-1.2-.8-1.8h.2c.2,.5,.5,1.1,.8,1.7h-.2Zm-1.4-3.6c-.3-1.2-.4-2-.4-2h.2s0,.7,.4,1.9h-.2Z" style="fill: #dfdc00;"/>
  <path d="M922.2,1242.4c-.2,0-.4,0-.6,0h-.2c-.1,0-.2,0-.3,0v-.2c.1,0,.2,0,.4,0h.2c.2,0,.4,0,.6,0,.3,0,.6,0,.9,0v.2c-.3,0-.6,0-.9,0Zm-3-.3c-.7-.1-1.3-.3-1.9-.5v-.2c.7,.2,1.3,.4,2,.5v.2Zm5.9,0v-.2c.6-.2,1.2-.4,1.8-.7v.2c-.5,.3-1.1,.5-1.8,.7Zm-9.8-1.2c-.6-.3-1.2-.6-1.8-1v-.2c.7,.3,1.3,.7,1.9,.9v.2Zm13.3-.5v-.2c-.1,0,1.5-1.1,1.5-1.1v.2c.1,0-1.5,1.1-1.5,1.1Zm-16.8-1.6c-.5-.4-1-.9-1.5-1.3l.2-.2c.5,.5,1,.9,1.5,1.3l-.2,.2Zm20.1-.7v-.2c-.1,0,1.5-1.1,1.5-1.1v.2c.1,0-1.5,1.1-1.5,1.1Zm-23-2.1l-1.4-1.4,.2-.2,1.4,1.4-.2,.2Zm26.3-.1v-.2c-.1,0,1.5-1.1,1.5-1.1v.2c.1,0-1.5,1.1-1.5,1.1Zm3.3-2.2v-.2c-.1,0,1.5-1.1,1.5-1.1v.2c.1,0-1.5,1.1-1.5,1.1Zm-32.4-.5l-1.4-1.4,.2-.2,1.4,1.4-.2,.2Zm35.7-1.7v-.2c-.1,0,1.5-1.1,1.5-1.1v.2c.1,0-1.5,1.1-1.5,1.1Zm-38.4-1.2l-1.4-1.4,.2-.2,1.4,1.4-.2,.2Zm41.7-1.1v-.2c-.1,0,1.5-1.1,1.5-1.1v.2c.1,0-1.5,1.1-1.5,1.1Zm-44.5-1.8l-1.4-1.4,.2-.2,1.4,1.4-.2,.2Zm47.8-.4v-.2c-.1,0,1.5-1.1,1.5-1.1v.2c.1,0-1.5,1.1-1.5,1.1Zm3.3-2.2v-.2c-.1,0,1.5-1.1,1.5-1.1v.2c.1,0-1.5,1.1-1.5,1.1Zm-53.9-.2l-1.4-1.4,.2-.2,1.4,1.4-.2,.2Zm57.2-2v-.2c-.1,0,1.5-1.1,1.5-1.1v.2c.1,0-1.5,1.1-1.5,1.1Zm-59.9-.9l-1.4-1.4,.2-.2,1.4,1.4-.2,.2Zm63.2-1.3v-.2c-.1,0,1.5-1.1,1.5-1.1v.2c.1,0-1.5,1.1-1.5,1.1Zm-66-1.5l-1.4-1.4,.2-.2,1.4,1.4-.2,.2Zm69.3-.7v-.2c-.1,0,1.5-1.1,1.5-1.1v.2c.1,0-1.5,1.1-1.5,1.1Zm-72-2.2l-1.4-1.4,.2-.2,1.4,1.4-.2,.2Zm75.3,0v-.2c-.1,0,1.5-1.1,1.5-1.1v.2c.1,0-1.5,1.1-1.5,1.1Zm3.3-2.2v-.2c-.1,0,1.5-1.1,1.5-1.1v.2c.1,0-1.5,1.1-1.5,1.1Zm-81.4-.6l-1.4-1.4,.2-.2,1.4,1.4-.2,.2Zm84.7-1.6v-.2c-.1,0,1.5-1.1,1.5-1.1v.2c.1,0-1.5,1.1-1.5,1.1Zm-87.4-1.3l-1.3-1.5,.2-.2,1.3,1.5-.2,.2Zm90.7-.9v-.2c-.1,0,1.5-1.1,1.5-1.1v.2c.1,0-1.5,1.1-1.5,1.1Zm-93.3-2.1l-1.3-1.5,.2-.2,1.3,1.5-.2,.2Zm96.6,0v-.2c-.1,0,1.5-1.1,1.5-1.1v.2c.1,0-1.5,1.1-1.5,1.1Zm3.3-2.2v-.2c-.1,0,1.5-1.1,1.5-1.1v.2c.1,0-1.5,1.1-1.5,1.1Zm-102.4-.7l-1.3-1.5,.2-.2,1.3,1.5-.2,.2Zm105.8-1.5v-.2c-.1,0,1.5-1.1,1.5-1.1v.2c.1,0-1.5,1.1-1.5,1.1Zm-108.3-1.6l-1.3-1.5,.2-.2,1.3,1.5-.2,.2Zm111.6-.6v-.2c-.1,0,1.5-1.1,1.5-1.1v.2c.1,0-1.5,1.1-1.5,1.1Zm3.3-2.2v-.2c-.1,0,1.5-1.1,1.5-1.1v.2c.1,0-1.5,1.1-1.5,1.1Zm-117.5-.2l-1.3-1.5,.2-.2,1.3,1.5-.2,.2Zm120.8-2v-.2c-.1,0,1.5-1.1,1.5-1.1v.2c.1,0-1.5,1.1-1.5,1.1Zm-123.4-1l-1.3-1.5,.2-.2,1.3,1.5-.2,.2Zm126.7-1.2v-.2c-.1,0,1.5-1.1,1.5-1.1v.2c.1,0-1.5,1.1-1.5,1.1Zm-129.2-1.9l-1.3-1.5,.2-.2,1.3,1.5-.2,.2Zm132.6-.4v-.2c-.1,0,1.5-1.1,1.5-1.1v.2c.1,0-1.5,1.1-1.5,1.1Zm3.3-2.2v-.2c-.1,0,1.5-1.1,1.5-1.1v.2c.1,0-1.5,1.1-1.5,1.1Zm-138.4-.5l-1.3-1.5,.2-.2,1.3,1.5-.2,.2Zm141.7-1.7v-.2c-.1,0,1.5-1.1,1.5-1.1v.2c.1,0-1.5,1.1-1.5,1.1Zm-144.3-1.3l-1.3-1.5,.2-.2,1.3,1.5-.2,.2Zm147.6-.9v-.2c-.1,0,1.5-1.1,1.5-1.1v.2c.1,0-1.5,1.1-1.5,1.1Zm-150.2-2.2l-1.3-1.5,.2-.2,1.3,1.5-.2,.2Zm153.5,0v-.2c-.1,0,1.5-1.1,1.5-1.1v.2c.1,0-1.5,1.1-1.5,1.1Zm3.3-2.2v-.2c-.1,0,1.5-1.1,1.5-1.1v.2c.1,0-1.5,1.1-1.5,1.1Zm-159.4-.8l-1.3-1.5,.2-.2,1.3,1.5-.2,.2Zm162.7-1.5v-.2c-.1,0,1.5-1.1,1.5-1.1v.2c.1,0-1.5,1.1-1.5,1.1Zm-165.2-1.6l-1.3-1.5,.2-.2,1.3,1.5-.2,.2Zm168.5-.6v-.2c-.1,0,1.5-1.1,1.5-1.1v.2c.1,0-1.5,1.1-1.5,1.1Zm3.3-2.2v-.2c-.1,0,1.5-1.1,1.5-1.1v.2c.1,0-1.5,1.1-1.5,1.1Zm-174.4-.2l-1.3-1.5,.2-.2,1.3,1.5-.2,.2Zm177.7-2v-.2c-.1,0,1.5-1.1,1.5-1.1v.2c.1,0-1.5,1.1-1.5,1.1Zm-180.3-1.1l-1.3-1.5,.2-.2,1.3,1.5-.2,.2Zm183.6-1.2v-.2c-.1,0,1.5-1.1,1.5-1.1v.2c.1,0-1.5,1.1-1.5,1.1Zm-186.2-1.9l-.9-1.1,.2-.2,.9,1.1-.2,.2Zm189.5-.3v-.2c-.1,0,1.5-1.1,1.5-1.1v.2c.1,0-1.5,1.1-1.5,1.1Zm3.3-2.2v-.2c-.1,0,1.5-1.1,1.5-1.1v.2c.1,0-1.5,1.1-1.5,1.1Zm3.3-2.2v-.2c-.1,0,1.5-1.1,1.5-1.1v.2c.1,0-1.5,1.1-1.5,1.1Zm3.3-2.2v-.2c-.1,0,1.5-1.1,1.5-1.1v.2c.1,0-1.5,1.1-1.5,1.1Zm3.3-2.2v-.2c-.1,0,1.5-1.1,1.5-1.1v.2c.1,0-1.5,1.1-1.5,1.1Zm3.3-2.2v-.2c-.1,0,1.5-1.1,1.5-1.1v.2c.1,0-1.5,1.1-1.5,1.1Zm3.3-2.2v-.2c-.1,0,1.5-1.1,1.5-1.1v.2c.1,0-1.5,1.1-1.5,1.1Zm3.3-2.2v-.2c-.1,0,1.5-1.1,1.5-1.1v.2c.1,0-1.5,1.1-1.5,1.1Zm3.2-2.4l-.2-.2c.5-.5,.9-.9,1.4-1.4l.2,.2c-.5,.5-.9,1-1.4,1.4Zm2.8-2.9l-.2-.2c.5-.5,.9-1,1.4-1.4l.2,.2c-.5,.5-.9,1-1.4,1.4Zm2.7-2.9l-.2-.2c.5-.5,.9-1,1.4-1.5l.2,.2c-.4,.5-.9,1-1.4,1.5Zm2.7-3l-.2-.2c.4-.5,.9-1,1.3-1.5l.2,.2c-.4,.5-.9,1-1.3,1.5Zm2.6-3l-.2-.2c.4-.5,.9-1,1.3-1.5l.2,.2c-.4,.5-.9,1-1.3,1.5Zm2.6-3l-.2-.2c.4-.5,.9-1,1.3-1.5l.2,.2c-.4,.5-.9,1-1.3,1.5Zm2.6-3.1l-.2-.2c.4-.5,.9-1,1.3-1.5l.2,.2c-.4,.5-.8,1-1.3,1.5Zm2.5-3.1l-.2-.2c.4-.5,.8-1,1.3-1.5l.2,.2c-.4,.5-.8,1-1.3,1.5Zm2.5-3.1l-.2-.2c.4-.5,.8-1,1.2-1.6l.2,.2c-.4,.5-.8,1-1.2,1.6Zm2.5-3.1l-.2-.2c.4-.5,.8-1.1,1.2-1.6l.2,.2c-.4,.5-.8,1-1.2,1.6Zm2.5-3.1l-.2-.2c.4-.5,.8-1.1,1.2-1.6l.2,.2c-.4,.5-.8,1-1.2,1.6Zm2.4-3.2l-.2-.2c.4-.6,.8-1.1,1.2-1.6l.2,.2c-.4,.5-.8,1-1.2,1.6Zm2.4-3.2h-.2c.5-.8,.9-1.4,1.2-1.8h.2c-.3,.5-.7,1.1-1.2,1.8Zm2.1-3.4h-.2c.2-.6,.4-1.2,.7-2h.2c-.3,.8-.5,1.5-.7,2Zm1.4-3.7h-.2c.2-.7,.4-1.3,.7-2h.2c-.2,.7-.5,1.4-.7,2Zm1.3-3.8h-.2c.2-.7,.4-1.3,.6-2h.2c-.2,.7-.4,1.4-.6,2Zm1.3-3.8h-.2c.2-.7,.4-1.3,.6-2h.2c-.2,.7-.4,1.4-.6,2Zm1.2-3.8h-.2c.2-.7,.4-1.3,.5-2h.2c-.2,.7-.4,1.3-.5,2Zm1.1-3.9h-.2c.2-.7,.3-1.4,.5-2h.2c-.1,.7-.3,1.4-.5,2Zm.9-3.9h-.2c0-.5,.2-.9,.2-1.4,0-.2,0-.4,0-.6h.2c0,.2,0,.5,0,.7,0,.4-.2,.9-.2,1.3Zm.1-4c0-.6-.1-1.3-.2-2h.2c.1,.7,.2,1.3,.2,2h-.2Zm-.6-3.9c-.1-.6-.3-1.3-.5-1.9h.2c.2,.6,.4,1.3,.5,1.9h-.2Zm-1.1-3.8c-.2-.6-.4-1.2-.7-1.9h.2c.2,.6,.5,1.2,.7,1.8h-.2Zm-1.4-3.7c-.2-.6-.5-1.2-.8-1.8h.2c.3,.5,.5,1.1,.8,1.7h-.2Zm-1.6-3.6c-.3-.6-.6-1.2-.8-1.8h.2c.3,.5,.6,1.1,.8,1.7h-.2Zm-1.7-3.5c-.3-.6-.6-1.2-.9-1.8h.2c.3,.5,.6,1.1,.9,1.7h-.2Zm-1.8-3.4c-.3-.6-.6-1.2-1-1.7h.2c.3,.5,.6,1.1,1,1.6h-.2Zm-1.9-3.4c-.3-.6-.7-1.1-1-1.7h.2c.3,.5,.7,1,1,1.6h-.2Zm-2-3.3c-.3-.6-.7-1.1-1-1.7h.2c.4,.4,.7,1,1,1.6h-.2Zm-2.1-3.3c-.4-.6-.7-1.1-1.1-1.7h.2c.4,.4,.7,1,1.1,1.5h-.2Zm-2.2-3.2c-.4-.6-.7-1.1-1.1-1.7h.2c.4,.4,.7,1,1.1,1.5h-.2Zm-2.2-3.2c-.4-.5-.7-1.1-1.1-1.6h.2c.4,.4,.8,1,1.1,1.5h-.2Zm-2.3-3.1c-.4-.5-.8-1.1-1.2-1.6h.2c.4,.4,.8,.9,1.2,1.5h-.2Zm-2.3-3.1c-.4-.5-.8-1.1-1.2-1.6h.2c.4,.4,.8,.9,1.2,1.5h-.2Zm-2.4-3.1c-.4-.5-.8-1.1-1.2-1.6l.2-.2c.4,.5,.8,1.1,1.2,1.6h-.2Zm-2.4-3c-.4-.5-.8-1-1.2-1.6l.2-.2c.4,.5,.8,1.1,1.2,1.6l-.2,.2Zm-2.5-3.1c-.4-.5-.8-1-1.2-1.6l.2-.2c.4,.5,.8,1,1.2,1.6l-.2,.2Zm-2.5-3.1c-.4-.5-.8-1-1.3-1.5l.2-.2c.4,.5,.8,1,1.3,1.5l-.2,.2Zm-2.5-3.1l-.4-.5c-.3-.4-.6-.7-.9-1.1l.2-.2c.3,.3,.6,.7,.9,1.1l.4,.5-.2,.2Zm-2.6-3c-.4-.5-.9-1-1.3-1.5l.2-.2c.4,.5,.9,1,1.3,1.5l-.2,.2Zm-2.7-2.9c-.5-.5-.9-1-1.4-1.4l.2-.2c.5,.5,.9,.9,1.4,1.4l-.2,.2Zm-2.8-2.8c-.5-.5-1-.9-1.5-1.4l.2-.2c.5,.4,1,.9,1.5,1.4l-.2,.2Zm-2.9-2.7c-.5-.4-1-.9-1.5-1.3l.2-.2c.5,.4,1,.8,1.5,1.3l-.2,.2Zm-3.1-2.5c-.5-.4-1.1-.8-1.6-1.1v-.2c.7,.4,1.2,.7,1.8,1.1v.2Zm-3.5-2.2c-.6-.3-1.2-.7-1.7-.9v-.2c.7,.3,1.3,.6,1.9,1v.2Zm-3.7-1.8c-.6-.3-1.2-.5-1.9-.7v-.2c.7,.2,1.3,.4,1.9,.7v.2Zm-3.8-1.3c-.6-.2-1.3-.3-1.9-.4v-.2c.7,.1,1.4,.3,2,.4v.2Zm-4-.7c-.6,0-1.2-.1-2-.2v-.2c.7,0,1.4,0,2,.2v.2Zm-4-.3h-.2c-.6,0-1.2,0-1.7,0v-.2c.6,0,1.2,0,1.8,0h.2s0,.3,0,.3Zm-4-.2c-.7,0-1.4-.2-2-.3v-.2c.7,.1,1.3,.2,2,.3v.2Zm-3.9-.8c-.6-.2-1.3-.4-1.9-.7v-.2c.7,.3,1.3,.5,1.9,.7v.2Zm-3.8-1.5c-.6-.3-1.2-.6-1.8-.8v-.2c.7,.3,1.3,.5,1.9,.8v.2Zm-3.8-1.6c-.6-.3-1.2-.5-1.8-.8v-.2c.7,.2,1.3,.5,1.9,.8v.2Zm-3.8-1.5c-.6-.2-1.3-.5-1.9-.7v-.2c.7,.2,1.3,.4,2,.7v.2Zm-3.8-1.3c-.6-.2-1.3-.4-1.9-.6v-.2c.7,.2,1.3,.4,2,.6v.2Zm-3.9-1.2c-.6-.2-1.3-.4-1.9-.5v-.2c.7,.2,1.3,.3,2,.5v.2Zm-3.9-1c-.7-.1-1.3-.3-1.9-.4v-.2c.7,.1,1.3,.2,2,.4v.2Zm-4-.7c-1.3-.2-1.9-.2-2-.2v-.2s.7,0,2,.2v.2Z" style="fill: #dfdc00;"/>
  <rect x="1074.3" y="90.8" width=".3" height="1844.1" transform="translate(-376.8 740.7) rotate(-32.7)" style="fill: #ad1480;"/>
  <polygon points="1587.7 1779.6 597.7 222.6 597.9 222.4 1587.9 1779.4 1587.7 1779.6" style="fill: #ad1480;"/>
  <polygon points="1582.3 1784.4 589.4 225.3 589.6 225.2 1582.5 1784.2 1582.3 1784.4" style="fill: #ad1480;"/>
  <rect x="1078.8" y="85.2" width=".3" height="1844.2" transform="translate(-372.6 739.5) rotate(-32.6)" style="fill: #ad1480;"/>
  <path d="M1074.5,1128.2s0,0-.2,0h-.1c0,0,.1-.3,.1-.3h.1c0,0,0,.1,0,.1h0c0,.1,0,.2,0,.2,0,0,0,0,0,0Zm-2-1.2l-1.7-1v-.2c.1,0,1.9,1,1.9,1v.2Zm-3.6-2l-1.7-1v-.2c.1,0,1.9,1,1.9,1v.2Zm-3.6-2l-1.7-1v-.2c.1,0,1.9,1,1.9,1v.2Zm-3.6-2l-1.7-1v-.2c.1,0,1.9,1,1.9,1v.2Zm-3.6-2l-1.7-1v-.2c.1,0,1.9,1,1.9,1v.2Zm-3.6-2l-1.7-1v-.2c.1,0,1.9,1,1.9,1v.2Zm-3.6-2l-1.7-1v-.2c.1,0,1.9,1,1.9,1v.2Zm-3.6-2l-1.7-1v-.2c.1,0,1.9,1,1.9,1v.2Zm-3.6-2l-1.7-1v-.2c.1,0,1.9,1,1.9,1v.2Zm-3.6-2c-.6-.3-1.2-.7-1.7-1v-.2c.7,.3,1.3,.7,1.9,1v.2Zm-3.6-2l-1.7-1v-.2c.1,0,1.9,1,1.9,1v.2Zm-3.6-2l-1.7-1v-.2c.1,0,1.9,1,1.9,1v.2Zm-3.6-2l-1.7-1v-.2c.1,0,1.9,1,1.9,1v.2Zm-3.6-2l-1.7-1v-.2c.1,0,1.9,1,1.9,1v.2Zm-3.6-2c-.6-.3-1.1-.7-1.7-1v-.2c.7,.3,1.3,.7,1.8,1v.2Zm-3.5-2.1c-.6-.4-1.1-.7-1.7-1.1v-.2c.7,.4,1.2,.7,1.8,1.1v.2Zm-3.5-2.2c-.6-.4-1.1-.8-1.6-1.2v-.2c.7,.4,1.2,.8,1.8,1.2v.2Zm-3.4-2.4c-.5-.4-1.1-.8-1.6-1.2l.2-.2c.5,.4,1,.8,1.6,1.2l-.2,.2Zm-3.2-2.5c-.5-.4-1-.9-1.5-1.3l.2-.2c.5,.4,1,.8,1.5,1.3l-.2,.2Zm-3.1-2.6c-.5-.5-1-.9-1.5-1.3l.2-.2c.5,.4,1,.9,1.5,1.3l-.2,.2Zm-3-2.7c-.5-.5-1-.9-1.4-1.4l.2-.2c.5,.5,1,.9,1.4,1.4l-.2,.2Zm-2.8-2.8c-.5-.5-.9-1-1.4-1.5l.2-.2c.4,.5,.9,1,1.4,1.5l-.2,.2Zm-2.7-3c-.5-.5-.9-1.1-1.3-1.5l.2-.2c.4,.5,.8,1,1.3,1.5l-.2,.2Zm-2.5-3.1c0-.1-.2-.2-.3-.4-.3-.4-.6-.8-.9-1.3h.2c.3,.3,.6,.8,.9,1.2,0,.1,.2,.2,.2,.4h-.2Zm-2.2-3.2c-.3-.5-.7-1.1-1.1-1.7h.2c.4,.5,.7,1,1.1,1.6h-.2Zm-2.1-3.3c-.3-.6-.7-1.1-1-1.7h.2c.3,.5,.7,1,1,1.6h-.2Zm-2.1-3.3c-.3-.6-.7-1.1-1-1.7h.2c.3,.5,.7,1,1,1.6h-.2Zm-2-3.3c-.3-.6-.7-1.2-1-1.7h.2c.3,.5,.7,1,1,1.6h-.2Zm-2-3.4l-1-1.7h.2c0-.1,1,1.6,1,1.6h-.2Zm-2-3.4l-1-1.8h.2c0-.1,1,1.6,1,1.6h-.2Zm-2-3.4l-1-1.8h.2c0-.1,1,1.6,1,1.6h-.2Zm-1.9-3.4l-1-1.8h.2c0-.1,1,1.6,1,1.6h-.2Zm-1.9-3.4c-.3-.6-.6-1.2-1-1.8h.2c.3,.5,.6,1,1,1.6h-.2Zm-1.9-3.4l-1-1.8h.2c0-.1,1,1.6,1,1.6h-.2Zm-1.9-3.4l-1-1.8h.2c0-.1,1,1.6,1,1.6h-.2Zm-1.9-3.4c-.3-.6-.7-1.2-.9-1.8h.2c.3,.4,.6,1,.9,1.7h-.2Zm-1.9-3.4c-.6-1.1-.9-1.8-.9-1.8h.2c0-.1,.3,.5,.9,1.7h-.2Z" style="fill: #dfdc00;"/>
  <path d="M1049.4,912.3l-.2-.2,1.4-1.4,.2,.2-1.4,1.4Zm2.8-2.9l-.2-.2,1.4-1.4,.2,.2-1.4,1.4Zm2.8-2.9l-.2-.2,1.4-1.4,.2,.2-1.4,1.4Zm2.8-2.9l-.2-.2,1.4-1.4,.2,.2-1.4,1.4Zm2.8-2.9l-.2-.2,1.4-1.4,.2,.2-1.4,1.4Zm2.8-2.9l-.2-.2,1.4-1.4,.2,.2-1.4,1.4Zm2.8-2.9l-.2-.2,1.4-1.4,.2,.2-1.4,1.4Zm2.8-2.9l-.2-.2,1.4-1.4,.2,.2-1.4,1.4Zm2.8-2.9l-.2-.2,1.4-1.4,.2,.2-1.4,1.4Zm2.8-2.9l-.2-.2,1.4-1.4,.2,.2-1.4,1.4Zm2.8-2.9l-.2-.2,1.4-1.4,.2,.2-1.4,1.4Zm2.8-2.9l-.2-.2,1.4-1.4,.2,.2-1.4,1.4Zm2.8-2.9l-.2-.2,1.4-1.4,.2,.2-1.4,1.4Zm2.8-2.9l-.2-.2,1.4-1.4,.2,.2-1.4,1.4Zm2.8-2.9l-.2-.2,1.4-1.4,.2,.2-1.4,1.4Zm2.8-2.9l-.2-.2,1.4-1.4,.2,.2-1.4,1.4Zm2.8-2.9l-.2-.2,1.4-1.4,.2,.2-1.4,1.4Zm2.8-2.9l-.2-.2,1.4-1.4,.2,.2-1.4,1.4Zm2.8-2.9l-.2-.2,1.4-1.4,.2,.2-1.4,1.4Zm2.8-2.9l-.2-.2,1.4-1.4,.2,.2-1.4,1.4Zm2.8-2.9l-.2-.2,1.4-1.4,.2,.2-1.4,1.4Zm2.8-2.9l-.2-.2,1.4-1.4,.2,.2-1.4,1.4Zm2.8-2.9l-.2-.2,1.4-1.4,.2,.2-1.4,1.4Zm2.8-2.9l-.2-.2,1.4-1.4,.2,.2-1.4,1.4Zm2.8-2.9l-.2-.2,1.4-1.4,.2,.2-1.4,1.4Zm2.8-2.9l-.2-.2,1.4-1.4,.2,.2-1.4,1.4Z" style="fill: #dfdc00;"/>
  <path d="M1047.8,909.2l-.2-.2,1.4-1.4,.2,.2-1.4,1.4Zm2.8-2.9l-.2-.2,1.4-1.4,.2,.2-1.4,1.4Zm2.8-2.9l-.2-.2,1.4-1.4,.2,.2-1.4,1.4Zm2.8-2.9l-.2-.2,1.4-1.4,.2,.2-1.4,1.4Zm2.8-2.9l-.2-.2,1.4-1.4,.2,.2-1.4,1.4Zm2.8-2.9l-.2-.2,1.4-1.4,.2,.2-1.4,1.4Zm2.8-2.9l-.2-.2,1.4-1.4,.2,.2-1.4,1.4Zm2.8-2.9l-.2-.2,1.4-1.4,.2,.2-1.4,1.4Zm2.8-2.9l-.2-.2,1.4-1.4,.2,.2-1.4,1.4Zm2.8-2.9l-.2-.2,1.4-1.4,.2,.2-1.4,1.4Zm2.8-2.9l-.2-.2,1.4-1.4,.2,.2-1.4,1.4Zm2.8-2.9l-.2-.2,1.4-1.4,.2,.2-1.4,1.4Zm2.8-2.9l-.2-.2,1.4-1.4,.2,.2-1.4,1.4Zm2.8-2.9l-.2-.2,1.4-1.4,.2,.2-1.4,1.4Zm2.8-2.9l-.2-.2,1.4-1.4,.2,.2-1.4,1.4Zm2.8-2.9l-.2-.2,1.4-1.4,.2,.2-1.4,1.4Zm2.8-2.9l-.2-.2,1.4-1.4,.2,.2-1.4,1.4Zm2.8-2.9l-.2-.2,1.4-1.4,.2,.2-1.4,1.4Zm2.8-2.9l-.2-.2,1.4-1.4,.2,.2-1.4,1.4Zm2.8-2.9l-.2-.2,1.4-1.4,.2,.2-1.4,1.4Zm2.8-2.9l-.2-.2,1.4-1.4,.2,.2-1.4,1.4Zm2.8-2.9l-.2-.2,1.4-1.4,.2,.2-1.4,1.4Zm2.8-2.9l-.2-.2,1.4-1.4,.2,.2-1.4,1.4Zm2.8-2.9l-.2-.2,1.4-1.4,.2,.2-1.4,1.4Zm2.8-2.9l-.2-.2,1.4-1.4,.2,.2-1.4,1.4Zm2.8-2.9l-.2-.2,1.4-1.4,.2,.2-1.4,1.4Z" style="fill: #dfdc00;"/>
  <path d="M1053.5,924.3l-.2-.2,1.4-1.4,.2,.2-1.4,1.4Zm2.8-2.9l-.2-.2,1.4-1.4,.2,.2-1.4,1.4Zm2.8-2.9l-.2-.2,1.4-1.4,.2,.2-1.4,1.4Zm2.8-2.9l-.2-.2,1.4-1.4,.2,.2-1.4,1.4Zm2.8-2.9l-.2-.2,1.4-1.4,.2,.2-1.4,1.4Zm2.8-2.9l-.2-.2,1.4-1.4,.2,.2-1.4,1.4Zm2.8-2.9l-.2-.2,1.4-1.4,.2,.2-1.4,1.4Zm2.8-2.9l-.2-.2,1.4-1.4,.2,.2-1.4,1.4Zm2.8-2.9l-.2-.2,1.4-1.4,.2,.2-1.4,1.4Zm2.8-2.9l-.2-.2,1.4-1.4,.2,.2-1.4,1.4Zm2.8-2.9l-.2-.2,1.4-1.4,.2,.2-1.4,1.4Zm2.8-2.9l-.2-.2,1.4-1.4,.2,.2-1.4,1.4Zm2.8-2.9l-.2-.2,1.4-1.4,.2,.2-1.4,1.4Zm2.8-2.9l-.2-.2,1.4-1.4,.2,.2-1.4,1.4Zm2.8-2.9l-.2-.2,1.4-1.4,.2,.2-1.4,1.4Zm2.8-2.9l-.2-.2,1.4-1.4,.2,.2-1.4,1.4Zm2.8-2.9l-.2-.2,1.4-1.4,.2,.2-1.4,1.4Zm2.8-2.9l-.2-.2,1.4-1.4,.2,.2-1.4,1.4Zm2.8-2.9l-.2-.2,1.4-1.4,.2,.2-1.4,1.4Zm2.8-2.9l-.2-.2,1.4-1.4,.2,.2-1.4,1.4Zm2.8-2.9l-.2-.2,1.4-1.4,.2,.2-1.4,1.4Zm2.8-2.9l-.2-.2,1.4-1.4,.2,.2-1.4,1.4Zm2.8-2.9l-.2-.2,1.4-1.4,.2,.2-1.4,1.4Zm2.8-2.9l-.2-.2,1.4-1.4,.2,.2-1.4,1.4Zm2.8-2.9l-.2-.2,1.4-1.4,.2,.2-1.4,1.4Zm2.8-2.9l-.2-.2,1.4-1.4,.2,.2-1.4,1.4Z" style="fill: #dfdc00;"/>
  <path d="M1051.2,920.9l-.2-.2,1.4-1.4,.2,.2-1.4,1.4Zm2.8-2.9l-.2-.2,1.4-1.4,.2,.2-1.4,1.4Zm2.8-2.9l-.2-.2,1.4-1.4,.2,.2-1.4,1.4Zm2.8-2.9l-.2-.2,1.4-1.4,.2,.2-1.4,1.4Zm2.8-2.9l-.2-.2,1.4-1.4,.2,.2-1.4,1.4Zm2.8-2.9l-.2-.2,1.4-1.4,.2,.2-1.4,1.4Zm2.8-2.9l-.2-.2,1.4-1.4,.2,.2-1.4,1.4Zm2.8-2.9l-.2-.2,1.4-1.4,.2,.2-1.4,1.4Zm2.8-2.9l-.2-.2,1.4-1.4,.2,.2-1.4,1.4Zm2.8-2.9l-.2-.2,1.4-1.4,.2,.2-1.4,1.4Zm2.8-2.9l-.2-.2,1.4-1.4,.2,.2-1.4,1.4Zm2.8-2.9l-.2-.2,1.4-1.4,.2,.2-1.4,1.4Zm2.8-2.9l-.2-.2,1.4-1.4,.2,.2-1.4,1.4Zm2.8-2.9l-.2-.2,1.4-1.4,.2,.2-1.4,1.4Zm2.8-2.9l-.2-.2,1.4-1.4,.2,.2-1.4,1.4Zm2.8-2.9l-.2-.2,1.4-1.4,.2,.2-1.4,1.4Zm2.8-2.9l-.2-.2,1.4-1.4,.2,.2-1.4,1.4Zm2.8-2.9l-.2-.2,1.4-1.4,.2,.2-1.4,1.4Zm2.8-2.9l-.2-.2,1.4-1.4,.2,.2-1.4,1.4Zm2.8-2.9l-.2-.2,1.4-1.4,.2,.2-1.4,1.4Zm2.8-2.9l-.2-.2,1.4-1.4,.2,.2-1.4,1.4Zm2.8-2.9l-.2-.2,1.4-1.4,.2,.2-1.4,1.4Zm2.8-2.9l-.2-.2,1.4-1.4,.2,.2-1.4,1.4Zm2.8-2.9l-.2-.2,1.4-1.4,.2,.2-1.4,1.4Zm2.8-2.9l-.2-.2,1.4-1.4,.2,.2-1.4,1.4Zm2.8-2.9l-.2-.2,1.4-1.4,.2,.2-1.4,1.4Z" style="fill: #dfdc00;"/>
  <path d="M1109.2,1008.2l-.2-.2c.2-.2,19.3-17.1,28.7-26.9,2.9-3,4.5-6.5,5-10.4,.6-5.3-1.5-10.9-5.5-14.9l-49.8-49.6,.2-.2,49.8,49.6c4.1,4.1,6.2,9.7,5.6,15.2-.4,4-2.1,7.6-5,10.6-9.4,9.9-28.5,26.8-28.7,26.9Z" style="fill: #ad1480;"/>
  <polygon points="1155.1 1070.4 1154.9 1070.2 1213.5 1017 1213.7 1017.2 1155.1 1070.4" style="fill: #ad1480;"/>
  <path d="M1157.9,1075.6l-.2-.2,1.5-1.3,.2,.2-1.5,1.3Zm3-2.6l-.2-.2,1.5-1.3,.2,.2-1.5,1.3Zm3-2.6l-.2-.2,1.5-1.3,.2,.2-1.5,1.3Zm3-2.6l-.2-.2,1.5-1.3,.2,.2-1.5,1.3Zm3-2.6l-.2-.2,1.5-1.3,.2,.2-1.5,1.3Zm3-2.6l-.2-.2,1.5-1.3,.2,.2-1.5,1.3Zm3-2.6l-.2-.2,1.5-1.3,.2,.2-1.5,1.3Zm3-2.6l-.2-.2,1.5-1.3,.2,.2-1.5,1.3Zm3-2.6l-.2-.2,1.5-1.3,.2,.2-1.5,1.3Zm3-2.6l-.2-.2,1.5-1.3,.2,.2-1.5,1.3Zm3-2.6l-.2-.2,1.5-1.3,.2,.2-1.5,1.3Zm3-2.6l-.2-.2,1.5-1.3,.2,.2-1.5,1.3Zm3-2.6l-.2-.2,1.5-1.3,.2,.2-1.5,1.3Zm3-2.6l-.2-.2,1.5-1.3,.2,.2-1.5,1.3Zm3-2.6l-.2-.2,1.5-1.3,.2,.2-1.5,1.3Zm3-2.6l-.2-.2,1.5-1.3,.2,.2-1.5,1.3Zm3-2.6l-.2-.2,1.5-1.3,.2,.2-1.5,1.3Zm3-2.6l-.2-.2,1.5-1.3,.2,.2-1.5,1.3Zm3-2.6l-.2-.2,1.5-1.3,.2,.2-1.5,1.3Zm3-2.6l-.2-.2,1.5-1.3,.2,.2-1.5,1.3Zm3-2.6l-.2-.2,1.5-1.3,.2,.2-1.5,1.3Zm3-2.6l-.2-.2,1.5-1.3,.2,.2-1.5,1.3Zm3-2.6l-.2-.2,1.5-1.3,.2,.2-1.5,1.3Zm3-2.6l-.2-.2,1.5-1.3,.2,.2-1.5,1.3Zm3-2.6l-.2-.2,1.5-1.3,.2,.2-1.5,1.3Zm3-2.6l-.2-.2,1.5-1.3,.2,.2-1.5,1.3Zm3-2.6l-.2-.2,1.5-1.3,.2,.2-1.5,1.3Zm3-2.6l-.2-.2,1.5-1.3,.2,.2-1.5,1.3Zm3-2.6l-.2-.2,1.5-1.3,.2,.2-1.5,1.3Zm3-2.6l-.2-.2,1.5-1.3,.2,.2-1.5,1.3Zm3-2.6l-.2-.2,1.5-1.3,.2,.2-1.5,1.3Zm3-2.6l-.2-.2,1.5-1.3,.2,.2-1.5,1.3Zm3-2.6l-.2-.2,1.5-1.3,.2,.2-1.5,1.3Zm3-2.6l-.2-.2,1.5-1.3,.2,.2-1.5,1.3Zm3-2.6l-.2-.2,1.5-1.3,.2,.2-1.5,1.3Zm3-2.6l-.2-.2,1.5-1.3,.2,.2-1.5,1.3Zm3-2.6l-.2-.2,1.5-1.3,.2,.2-1.5,1.3Z" style="fill: #dfdc00;"/>
  <path d="M1025,1218.2h-.2c0-.1,1-1.9,1-1.9h.2c0,.1-1,1.9-1,1.9Zm1.9-3.5h-.2c0-.1,1-1.9,1-1.9h.2c0,.1-1,1.9-1,1.9Zm1.9-3.5h-.2c0-.1,1-1.9,1-1.9h.2c0,.1-1,1.9-1,1.9Zm1.9-3.5h-.2c0-.1,1-1.9,1-1.9h.2c0,.1-1,1.9-1,1.9Zm1.9-3.5h-.2c0-.1,1-1.9,1-1.9h.2c0,.1-1,1.9-1,1.9Zm1.9-3.5h-.2c0-.1,1-1.9,1-1.9h.2c0,.1-1,1.9-1,1.9Zm1.9-3.5h-.2c0-.1,1-1.9,1-1.9h.2c0,.1-1,1.9-1,1.9Zm1.9-3.5h-.2c0-.1,1-1.9,1-1.9h.2c0,.1-1,1.9-1,1.9Zm1.9-3.5h-.2c.2-.6,.6-1.2,1-1.8h.2c-.4,.8-.8,1.4-1,1.8Zm2.2-3.3h-.2c.4-.7,.8-1.2,1.2-1.8l.2,.2c-.4,.5-.8,1.1-1.2,1.6Zm2.4-3.2l-.2-.2c.4-.5,.8-1,1.2-1.6l.2,.2c-.4,.6-.9,1.1-1.2,1.6Zm2.5-3.1l-.2-.2c.4-.5,.8-1,1.3-1.5l.2,.2c-.4,.5-.9,1-1.3,1.5Zm2.6-3.1l-.2-.2c.4-.5,.8-1,1.3-1.5l.2,.2c-.5,.5-.9,1-1.3,1.5Zm2.6-3l-.2-.2c.4-.5,.9-1,1.3-1.5l.2,.2c-.5,.5-.9,1-1.3,1.5Zm2.6-3l-.2-.2c.4-.5,.9-1,1.3-1.5l.2,.2c-.5,.5-.9,1-1.3,1.5Zm2.7-3l-.2-.2c.4-.5,.9-1,1.3-1.5l.2,.2c-.5,.5-.9,1-1.3,1.5Zm2.7-3l-.2-.2c.4-.4,.8-.9,1.2-1.3h.1c0-.1,.2,0,.2,0h-.1c-.4,.6-.8,1-1.2,1.5Zm2.7-2.9l-.2-.2c.5-.5,.9-1,1.4-1.5l.2,.2c-.5,.5-.9,1-1.4,1.5Zm2.8-2.9l-.2-.2c.5-.5,.9-1,1.4-1.4l.2,.2c-.5,.5-.9,1-1.4,1.4Zm2.8-2.9l-.2-.2c.5-.5,.9-1,1.4-1.4l.2,.2c-.5,.5-.9,1-1.4,1.4Zm2.8-2.9l-.2-.2c.5-.5,.9-.9,1.4-1.4l.2,.2c-.5,.5-.9,.9-1.4,1.4Zm2.8-2.8l-.2-.2c.5-.5,.9-.9,1.4-1.4l.2,.2c-.5,.5-1,.9-1.4,1.4Zm2.8-2.8l-.2-.2c.5-.5,1-.9,1.4-1.4l.2,.2c-.5,.5-1,.9-1.4,1.4Zm2.9-2.8l-.2-.2c.5-.5,.9-.9,1.4-1.4h0s.2,.2,.2,.2h0c-.5,.5-.9,.9-1.4,1.4Zm2.9-2.8l-.2-.2c.5-.5,1-.9,1.4-1.4l.2,.2c-.5,.5-1,.9-1.4,1.4Zm2.9-2.8l-.2-.2,1.4-1.4,.2,.2-1.4,1.4Zm2.9-2.8l-.2-.2,1.5-1.4,.2,.2-1.5,1.4Zm2.9-2.7l-.2-.2,1.5-1.4,.2,.2-1.5,1.4Zm2.9-2.7l-.2-.2c.5-.5,1-.9,1.5-1.4l.2,.2c-.5,.5-1,.9-1.5,1.4Zm2.9-2.7l-.2-.2c.5-.5,1-.9,1.5-1.4l.2,.2c-.5,.5-1,.9-1.5,1.4Zm2.9-2.7l-.2-.2,1.5-1.4,.2,.2-1.5,1.4Zm2.9-2.7l-.2-.2,1.5-1.4,.2,.2-1.5,1.4Zm3-2.7l-.2-.2,1.5-1.4,.2,.2-1.5,1.3Zm3-2.7l-.2-.2c.5-.5,1-.9,1.5-1.3l.2,.2c-.5,.4-1,.9-1.5,1.3Zm3-2.7l-.2-.2,1.5-1.3,.2,.2-1.5,1.3Zm3-2.7l-.2-.2,1.5-1.3,.2,.2-1.5,1.3Zm3-2.7l-.2-.2,1.5-1.3,.2,.2-1.5,1.3Z" style="fill: #dfdc00;"/>
  <path d="M932.1,1242.2v-.2c-.1,0,1.5-1.1,1.5-1.1v.2c.1,0-1.5,1.1-1.5,1.1Zm3.3-2.2v-.2c-.1,0,1.5-1.1,1.5-1.1v.2c.1,0-1.5,1.1-1.5,1.1Zm3.3-2.2v-.2c-.1,0,1.5-1.1,1.5-1.1v.2c.1,0-1.5,1.1-1.5,1.1Zm3.3-2.2v-.2c-.1,0,1.5-1.1,1.5-1.1v.2c.1,0-1.5,1.1-1.5,1.1Zm3.3-2.2v-.2c-.1,0,1.5-1.1,1.5-1.1v.2c.1,0-1.5,1.1-1.5,1.1Zm3.3-2.2v-.2c-.1,0,1.5-1.1,1.5-1.1v.2c.1,0-1.5,1.1-1.5,1.1Zm3.3-2.2v-.2c-.1,0,1.5-1.1,1.5-1.1v.2c.1,0-1.5,1.1-1.5,1.1Zm3.3-2.2v-.2c-.1,0,1.5-1.1,1.5-1.1v.2c.1,0-1.5,1.1-1.5,1.1Zm3.3-2.2v-.2c-.1,0,1.5-1.1,1.5-1.1v.2c.1,0-1.5,1.1-1.5,1.1Zm3.3-2.2v-.2c-.1,0,1.5-1.1,1.5-1.1v.2c.1,0-1.5,1.1-1.5,1.1Zm3.3-2.2v-.2c-.1,0,1.5-1.1,1.5-1.1v.2c.1,0-1.5,1.1-1.5,1.1Zm3.3-2.2v-.2c-.1,0,1.5-1.1,1.5-1.1v.2c.1,0-1.5,1.1-1.5,1.1Zm3.3-2.2v-.2c-.1,0,1.5-1.1,1.5-1.1v.2c.1,0-1.5,1.1-1.5,1.1Zm3.3-2.2v-.2c-.1,0,1.5-1.1,1.5-1.1v.2c.1,0-1.5,1.1-1.5,1.1Zm3.3-2.2v-.2c-.1,0,1.5-1.1,1.5-1.1v.2c.1,0-1.5,1.1-1.5,1.1Zm3.3-2.2v-.2c-.1,0,1.5-1.1,1.5-1.1v.2c.1,0-1.5,1.1-1.5,1.1Zm3.3-2.2v-.2c-.1,0,1.5-1.1,1.5-1.1v.2c.1,0-1.5,1.1-1.5,1.1Zm3.3-2.2v-.2c-.1,0,1.5-1.1,1.5-1.1v.2c.1,0-1.5,1.1-1.5,1.1Zm3.3-2.2v-.2c-.1,0,1.5-1.1,1.5-1.1v.2c.1,0-1.5,1.1-1.5,1.1Zm3.3-2.2v-.2c-.1,0,1.5-1.1,1.5-1.1v.2c.1,0-1.5,1.1-1.5,1.1Zm3.3-2.2v-.2c-.1,0,1.5-1.1,1.5-1.1v.2c.1,0-1.5,1.1-1.5,1.1Zm3.3-2.2v-.2c-.1,0,1.5-1.1,1.5-1.1v.2c.1,0-1.5,1.1-1.5,1.1Zm3.3-2.2v-.2c-.1,0,1.5-1.1,1.5-1.1v.2c.1,0-1.5,1.1-1.5,1.1Zm3.3-2.2v-.2c-.1,0,1.5-1.1,1.5-1.1v.2c.1,0-1.5,1.1-1.5,1.1Zm3.3-2.2v-.2c-.1,0,1.5-1.1,1.5-1.1v.2c.1,0-1.5,1.1-1.5,1.1Zm3.3-2.2v-.2c-.1,0,1.5-1.1,1.5-1.1v.2c.1,0-1.5,1.1-1.5,1.1Zm3.3-2.2v-.2c-.1,0,1.5-1.1,1.5-1.1v.2c.1,0-1.5,1.1-1.5,1.1Zm3.3-2.2v-.2c-.1,0,1.5-1.1,1.5-1.1v.2c.1,0-1.5,1.1-1.5,1.1Zm3.3-2.2v-.2c-.1,0,1.5-1.1,1.5-1.1v.2c.1,0-1.5,1.1-1.5,1.1Zm3.3-2.2v-.2c-.1,0,1.5-1.1,1.5-1.1v.2c.1,0-1.5,1.1-1.5,1.1Zm3.3-2.2v-.2c-.1,0,1.5-1.1,1.5-1.1v.2c.1,0-1.5,1.1-1.5,1.1Zm3.3-2.2v-.2c-.1,0,1.5-1.1,1.5-1.1v.2c.1,0-1.5,1.1-1.5,1.1Zm3.3-2.2v-.2c-.1,0,1.5-1.1,1.5-1.1v.2c.1,0-1.5,1.1-1.5,1.1Zm3.3-2.2v-.2c-.1,0,1.5-1.1,1.5-1.1v.2c.1,0-1.5,1.1-1.5,1.1Zm3.3-2.2v-.2c-.1,0,1.5-1.1,1.5-1.1v.2c.1,0-1.5,1.1-1.5,1.1Zm3.3-2.2v-.2c-.1,0,1.5-1.1,1.5-1.1v.2c.1,0-1.5,1.1-1.5,1.1Zm3.3-2.2v-.2c-.1,0,1.5-1.1,1.5-1.1v.2c.1,0-1.5,1.1-1.5,1.1Zm3.3-2.2v-.2c-.1,0,1.5-1.1,1.5-1.1v.2c.1,0-1.5,1.1-1.5,1.1Zm3.3-2.2v-.2c-.1,0,1.5-1.1,1.5-1.1v.2c.1,0-1.5,1.1-1.5,1.1Zm3.3-2.2v-.2c-.1,0,1.5-1.1,1.5-1.1v.2c.1,0-1.5,1.1-1.5,1.1Zm3.3-2.2l-.2-.2,1.4-1.4,.2,.2-1.4,1.4Zm2.8-2.8l-.2-.2,1.4-1.4,.2,.2-1.4,1.4Zm2.8-2.8l-.2-.2,1.4-1.4,.2,.2-1.4,1.4Zm2.8-2.8l-.2-.2,1.4-1.4,.2,.2-1.4,1.4Zm2.8-2.8l-.2-.2,1.4-1.4,.2,.2-1.4,1.4Zm2.8-2.8l-.2-.2,1.4-1.4,.2,.2-1.4,1.4Zm2.8-2.8l-.2-.2,1.4-1.4,.2,.2-1.4,1.4Zm2.8-2.8l-.2-.2,1.4-1.4,.2,.2-1.4,1.4Zm2.8-2.8l-.2-.2,1.4-1.4,.2,.2-1.4,1.4Zm2.8-2.8l-.2-.2,1.4-1.4,.2,.2-1.4,1.4Zm2.8-2.8l-.2-.2,1.4-1.4,.2,.2-1.4,1.4Zm2.8-2.8l-.2-.2,1.4-1.4,.2,.2-1.4,1.4Zm2.8-2.8l-.2-.2,1.4-1.4,.2,.2-1.4,1.4Zm2.8-2.8l-.2-.2,1.4-1.4,.2,.2-1.4,1.4Zm2.8-2.8l-.2-.2,1.4-1.4,.2,.2-1.4,1.4Zm2.8-2.8l-.2-.2,1.4-1.4,.2,.2-1.4,1.4Zm2.8-2.8l-.2-.2,1.4-1.4,.2,.2-1.4,1.4Zm2.8-2.8l-.2-.2,1.4-1.4,.2,.2-1.4,1.4Zm2.8-2.8l-.2-.2,1.4-1.4,.2,.2-1.4,1.4Z" style="fill: #dfdc00;"/>
  <path d="M1153.3,1066.1l-.2-.2,1.4-1.4,.2,.2-1.4,1.4Zm2.9-2.8l-.2-.2,1.4-1.4,.2,.2-1.4,1.4Zm2.9-2.8l-.2-.2,1.4-1.4,.2,.2-1.4,1.4Zm2.9-2.8l-.2-.2,1.4-1.4,.2,.2-1.4,1.4Zm2.9-2.8l-.2-.2,1.4-1.4,.2,.2-1.4,1.4Zm2.9-2.8l-.2-.2,1.4-1.4,.2,.2-1.4,1.4Zm2.9-2.8l-.2-.2,1.4-1.4,.2,.2-1.4,1.4Zm2.9-2.8l-.2-.2,1.4-1.4,.2,.2-1.4,1.4Zm2.9-2.8l-.2-.2,1.4-1.4,.2,.2-1.4,1.4Zm2.9-2.8l-.2-.2,1.4-1.4,.2,.2-1.4,1.4Zm2.9-2.8l-.2-.2,1.4-1.4,.2,.2-1.4,1.4Zm2.9-2.8l-.2-.2,1.4-1.4,.2,.2-1.4,1.4Zm2.9-2.8l-.2-.2,1.4-1.4,.2,.2-1.4,1.4Zm2.9-2.8l-.2-.2,1.4-1.4,.2,.2-1.4,1.4Zm2.9-2.8l-.2-.2,1.4-1.4,.2,.2-1.4,1.4Zm2.9-2.8l-.2-.2,1.4-1.4,.2,.2-1.4,1.4Zm2.9-2.8l-.2-.2,1.4-1.4,.2,.2-1.4,1.4Zm2.9-2.8l-.2-.2,1.4-1.4,.2,.2-1.4,1.4Zm2.9-2.8l-.2-.2,1.4-1.4,.2,.2-1.4,1.4Zm2.9-2.8l-.2-.2,1.4-1.4,.2,.2-1.4,1.4Zm2.9-2.8l-.2-.2,1.4-1.4,.2,.2-1.4,1.4Zm2.9-2.8l-.2-.2,1.4-1.4,.2,.2-1.4,1.4Zm2.9-2.8l-.2-.2,1.4-1.4,.2,.2-1.4,1.4Zm2.9-2.8l-.2-.2,1.4-1.4,.2,.2-1.4,1.4Zm2.9-2.8l-.2-.2,1.4-1.4,.2,.2-1.4,1.4Zm2.9-2.8l-.2-.2,1.4-1.4,.2,.2-1.4,1.4Zm2.9-2.8l-.2-.2,1.4-1.4,.2,.2-1.4,1.4Zm2.9-2.8l-.2-.2,1.4-1.4,.2,.2-1.4,1.4Zm2.9-2.8l-.2-.2,1.4-1.4,.2,.2-1.4,1.4Zm2.9-2.8l-.2-.2,1.4-1.4,.2,.2-1.4,1.4Zm2.9-2.8l-.2-.2,1.4-1.4,.2,.2-1.4,1.4Zm2.9-2.8l-.2-.2,1.4-1.4,.2,.2-1.4,1.4Zm2.9-2.8l-.2-.2,1.4-1.4,.2,.2-1.4,1.4Zm2.9-2.8l-.2-.2,1.4-1.4,.2,.2-1.4,1.4Zm2.9-2.8l-.2-.2,1.4-1.4,.2,.2-1.4,1.4Zm2.9-2.8l-.2-.2,1.4-1.4,.2,.2-1.4,1.4Zm2.9-2.8l-.2-.2,1.4-1.4,.2,.2-1.4,1.4Z" style="fill: #dfdc00;"/>
  <path d="M923.6,1272.5v-.3s.2,0,.2,0v.3s-.2,0-.2,0Zm-.3-2.3c0-.7-.2-1.3-.2-2h.2c0,.6,.1,1.3,.2,2h-.2Zm-.4-4c0-.7,0-1.3,0-2h.2c0,.7,0,1.3,0,2h-.2Zm.2-4h-.2c0-.7,0-1.4,.1-2h.2c0,.7,0,1.3-.1,2Zm.4-4h-.2c0-.7,.2-1.4,.3-2h.2c-.1,.7-.2,1.4-.3,2Zm.8-3.9h-.2c.2-.7,.4-1.4,.6-2h.2c-.2,.7-.4,1.3-.6,2Zm1.3-3.8h-.2c.3-.7,.6-1.3,.9-1.9h.2c-.3,.7-.6,1.3-.9,1.9Zm1.9-3.5h-.2c.4-.7,.8-1.3,1.2-1.8l.2,.2c-.4,.5-.8,1-1.2,1.6Zm2.5-3.1l-.2-.2c.9-.9,1.5-1.3,1.6-1.3v.2c.1,0-.5,.4-1.4,1.3Z" style="fill: #dfdc00;"/>
  <path d="M996.2,1311.7c-.2-.3-.6-.9-1.1-1.7h.2c.5,.7,.9,1.3,1,1.6h-.2Zm-2-3.3c-.3-.6-.6-1.2-.9-1.8h.2c.3,.5,.6,1.1,.9,1.7h-.2Zm-1.7-3.5c-.3-.6-.5-1.2-.7-1.9h.2c.2,.5,.5,1.2,.7,1.8h-.2Zm-1.4-3.7c-.2-.6-.4-1.3-.5-1.9h.2c.2,.6,.3,1.2,.5,1.9h-.2Zm-1-3.8c-.1-.7-.2-1.3-.3-2h.2c0,.6,.2,1.3,.3,1.9h-.2Zm-.5-3.9c0-.6,0-1.3,0-2h.2c0,.7,0,1.3,0,2h-.2Zm.2-4h-.2c0-.7,0-1.3,0-2h.2c0,.7,0,1.4,0,2Zm.3-4h-.2c0-.7,.1-1.4,.2-2h.2c0,.7-.2,1.4-.2,2Zm.5-4h-.2c.1-.7,.2-1.3,.3-2h.2c-.1,.7-.2,1.4-.3,2Zm.7-3.9h-.2c.1-.7,.3-1.4,.4-2h.2c-.2,.7-.3,1.3-.4,2Zm.9-3.9h-.2c.2-.7,.3-1.3,.5-2h.2c-.2,.7-.4,1.4-.5,2Zm1.1-3.8h-.2c.2-.7,.4-1.4,.6-2h.2c-.2,.7-.4,1.3-.6,2Zm1.3-3.8h-.2c0,0,0-.3,0-.3,.2-.5,.4-1.1,.6-1.7h.2c-.2,.6-.4,1.2-.6,1.7v.2Zm1.4-3.7h-.2c.3-.7,.5-1.3,.8-1.9h.2c-.3,.7-.6,1.3-.8,1.9Zm1.7-3.6h-.2c.3-.7,.6-1.3,.9-1.9h.2c-.3,.7-.6,1.3-.9,1.9Zm1.8-3.6h-.2c.3-.7,.7-1.3,1-1.9h.2c-.3,.7-.6,1.2-1,1.9Zm1.9-3.5h-.2c.3-.7,.5-1.3,.7-2h.2c-.2,.7-.5,1.3-.7,2Zm1.3-3.8h-.2c.1-.7,.3-1.4,.3-2h.2c0,.7-.2,1.4-.3,2Zm.5-4h-.2s0-.2,0-.2c0-.6,0-1.2,0-1.8h.2c0,.6,0,1.2,0,1.8v.2Zm-.4-4c0-.7-.1-1.3-.2-2h.2c0,.6,.2,1.3,.2,2h-.2Zm-.6-3.9c-.1-.7-.3-1.3-.5-1.9h.2c.2,.6,.3,1.2,.5,1.9h-.2Zm-1.1-3.8c-.2-.6-.5-1.2-.8-1.8h.2c.3,.5,.6,1.1,.8,1.7h-.2Zm-1.7-3.5c-.3-.6-.7-1.1-1.1-1.6l.2-.2c.4,.5,.8,1.1,1.1,1.7h-.2Zm-2.4-3c-.5-.5-1-.9-1.5-1.3l.2-.2c.5,.4,1,.9,1.5,1.4l-.2,.2Zm-3.1-2.5c-.6-.4-1.1-.7-1.7-1v-.2c.7,.3,1.3,.7,1.8,1v.2Zm-3.6-1.9c-.6-.3-1.2-.5-1.8-.8v-.2c.7,.2,1.3,.5,1.9,.8v.2Zm-3.8-1.5c-.6-.2-1.3-.4-1.9-.6v-.2c.7,.2,1.4,.4,2,.6v.2Zm-3.9-1c-.6-.1-1.3-.2-2-.3v-.2c.7,0,1.4,.2,2,.3v.2Zm-13.9-.2v-.2s.7-.2,1.9-.3v.2c-1.2,.1-1.9,.3-1.9,.3Zm9.9-.4c-.7,0-1.3,0-2-.1v-.2c.7,0,1.4,0,2,.1v.2Zm-6,0v-.2c.6,0,1.3,0,2,0v.2c-.7,0-1.3,0-2,0Z" style="fill: #dfdc00;"/>
  <path d="M1014.5,1223.8c-.1,0-.2,0-.3,0v-.2c.7,0,1.3,0,2-.1v.2c-.5,0-1.1,.1-1.7,.1Zm-2.3-.2c-.6-.1-1.3-.2-2-.4v-.2c.7,.2,1.4,.3,2,.4v.2Zm6-.3v-.2c.6-.2,1.2-.4,1.8-.7v.2c-.5,.3-1.1,.5-1.8,.7Zm-9.9-.8c-.6-.2-1.2-.5-1.8-.8v-.2c.7,.3,1.3,.6,1.9,.8v.2Zm13.4-.9v-.2c.4-.3,.9-.7,1.5-1.2l.2,.2c-.5,.4-1.1,.8-1.6,1.2Zm-17.1-.9c-.6-.3-1.1-.7-1.7-1.1v-.2c.7,.4,1.3,.8,1.8,1.1v.2Zm-3.4-2.3c0,0-.2-.2-.3-.2,0,0-.5-.5-1.1-1.2l.2-.2c.6,.8,1.1,1.2,1.1,1.2,0,0,.2,.1,.3,.2l-.2,.2Zm-2.6-3.1c-.4-.6-.7-1.1-1-1.7h.2c.3,.5,.7,1,1,1.6h-.2Zm-1.9-3.4c-.3-.6-.5-1.3-.6-1.9h.2c.2,.6,.4,1.2,.6,1.8h-.2Zm-1-3.8c0-.5,0-.9,0-1.4,0-.2,0-.4,0-.6h.2c0,.2,0,.4,0,.6,0,.4,0,.9,0,1.3h-.2Zm.5-3.9h-.2c.1-.7,.3-1.3,.6-2h.2c-.2,.7-.4,1.4-.6,2Zm1.4-3.7h-.2c.3-.7,.7-1.3,1.1-1.8h.2c-.4,.7-.8,1.3-1.1,1.8Zm2.4-3.2l-.2-.2c0,0,.1-.1,.2-.2l.2,.2c0,0-.1,.1-.2,.2Z" style="fill: #dfdc00;"/>
  <path d="M1012.7,1328.1l-.9-1.8h.2c0-.1,.9,1.7,.9,1.7h-.2Zm-1.8-3.4l-.9-1.8h.2c0-.1,.9,1.7,.9,1.7h-.2Zm-1.8-3.4l-.9-1.8h.2c0-.1,.9,1.7,.9,1.7h-.2Zm-1.8-3.4l-.9-1.8h.2c0-.1,.9,1.7,.9,1.7h-.2Zm-1.8-3.4l-.9-1.8h.2c0-.1,.9,1.7,.9,1.7h-.2Zm-1.8-3.4l-.9-1.8h.2c0-.1,.9,1.7,.9,1.7h-.2Zm-1.8-3.4l-.9-1.8h.2c0-.1,.9,1.7,.9,1.7h-.2Zm-1.8-3.4l-.9-1.8h.2c0-.1,.9,1.7,.9,1.7h-.2Zm-1.8-3.4l-.5-1.1s-.1-.3-.3-.8h.2c.2,.4,.3,.7,.3,.7l.5,1h-.2Zm-1.4-3.7c-.2-.6-.3-1.3-.4-2h.2c.1,.6,.3,1.3,.4,1.9h-.2Zm-.7-3.9c0-.6-.1-1.3-.2-2h.2c0,.7,.1,1.3,.2,2h-.2Zm-.3-4c0-.4,0-.9,0-1.3s0-.5,0-.7h.2c0,.2,0,.5,0,.7,0,.4,0,.9,0,1.3h-.2Zm.3-4h-.2c0-.7,0-1.3,.1-2h.2c0,.7-.1,1.4-.1,2Zm.4-4h-.2c0-.7,.2-1.4,.3-2h.2c-.1,.7-.2,1.4-.3,2Zm.6-3.9h-.2c.1-.7,.3-1.4,.4-2h.2c-.1,.7-.3,1.4-.4,2Zm.9-3.9h-.2c.2-.7,.3-1.4,.5-2h.2c-.2,.7-.4,1.4-.5,2Zm1.1-3.8h-.2c.2-.7,.4-1.4,.6-2h.2c-.2,.7-.4,1.3-.6,2Zm1.3-3.8h-.2c.2-.7,.5-1.3,.7-2h.2c-.2,.7-.5,1.3-.7,2Zm1.5-3.7h-.2c.2-.5,.3-.9,.5-1.3l.3-.6h.2c0,0-.3,.7-.3,.7-.2,.4-.4,.8-.5,1.2Zm1.6-3.7h-.2c.3-.7,.5-1.3,.8-1.9h.2c-.3,.7-.5,1.3-.8,1.9Zm1.7-3.6h-.2c.3-.7,.6-1.3,.9-1.9h.2c-.3,.7-.6,1.3-.9,1.9Zm1.7-3.6h-.2c.3-.7,.6-1.3,.9-1.9h.2c-.3,.7-.6,1.3-.9,1.9Zm1.8-3.6h-.2c.3-.7,.6-1.3,.9-1.9h.2c-.3,.7-.6,1.3-.9,1.9Zm1.8-3.6h-.2c.3-.7,.6-1.3,.9-1.9h.2c-.3,.7-.6,1.3-.9,1.9Zm1.9-3.5h-.2c.3-.7,.6-1.3,1-1.9h.2c-.3,.7-.6,1.3-1,1.9Zm1.9-3.5h-.2c.3-.7,.7-1.3,1-1.9h.2c-.3,.7-.7,1.3-1,1.9Zm2-3.5h-.2c.3-.7,.7-1.3,1-1.8h.2c-.3,.7-.7,1.3-1,1.8Zm2.1-3.4h-.2c.4-.7,.7-1.3,1-1.8h.2c-.3,.7-.7,1.2-1,1.8Zm2.1-3.4h-.2c.4-.7,.7-1.3,1.1-1.8h.2c-.3,.7-.7,1.2-1.1,1.8Zm2.2-3.4h-.2c.4-.8,.8-1.3,1.1-1.8h.2c-.3,.6-.7,1.2-1.1,1.8Z" style="fill: #dfdc00;"/>
  <path d="M1068.8,1147.7l-.2-.2c9.8-8.4,35-44.7,35.3-45l.2,.2c-.3,.4-25.5,36.6-35.3,45.1Z" style="fill: #ad1480;"/>
  <path d="M1056.2,1173.5l-.2-.2c8.3-9,39.4-34.4,39.7-34.7l.2,.2c-.3,.3-31.4,25.7-39.7,34.7Z" style="fill: #ad1480;"/>
  <path d="M1008.7,1304.7v-.2c-.1,0,1.5-1.1,1.5-1.1v.2c.1,0-1.5,1.1-1.5,1.1Zm3.3-2.2v-.2c-.1,0,1.5-1.1,1.5-1.1v.2c.1,0-1.5,1.1-1.5,1.1Zm3.3-2.2v-.2c-.1,0,1.5-1.1,1.5-1.1v.2c.1,0-1.5,1.1-1.5,1.1Zm3.3-2.2v-.2c-.1,0,1.5-1.1,1.5-1.1v.2c.1,0-1.5,1.1-1.5,1.1Zm3.3-2.2v-.2c-.1,0,1.5-1.1,1.5-1.1v.2c.1,0-1.5,1.1-1.5,1.1Zm3.3-2.2v-.2c-.1,0,1.5-1.1,1.5-1.1v.2c.1,0-1.5,1.1-1.5,1.1Zm3.3-2.2v-.2c-.1,0,1.5-1.1,1.5-1.1v.2c.1,0-1.5,1.1-1.5,1.1Zm3.3-2.2v-.2c-.1,0,1.5-1.1,1.5-1.1v.2c.1,0-1.5,1.1-1.5,1.1Zm3.3-2.2v-.2c-.1,0,1.5-1.1,1.5-1.1v.2c.1,0-1.5,1.1-1.5,1.1Zm3.3-2.2v-.2c-.1,0,1.5-1.1,1.5-1.1v.2c.1,0-1.5,1.1-1.5,1.1Zm3.3-2.2v-.2c-.1,0,1.5-1.1,1.5-1.1v.2c.1,0-1.5,1.1-1.5,1.1Zm3.3-2.2v-.2c-.1,0,1.5-1.1,1.5-1.1v.2c.1,0-1.5,1.1-1.5,1.1Zm3.3-2.2v-.2c-.1,0,1.5-1.1,1.5-1.1v.2c.1,0-1.5,1.1-1.5,1.1Zm3.3-2.2v-.2c-.1,0,1.5-1.1,1.5-1.1v.2c.1,0-1.5,1.1-1.5,1.1Zm3.3-2.2v-.2c-.1,0,1.5-1.1,1.5-1.1v.2c.1,0-1.5,1.1-1.5,1.1Zm3.3-2.2v-.2c-.1,0,1.5-1.1,1.5-1.1v.2c.1,0-1.5,1.1-1.5,1.1Zm3.3-2.2v-.2c-.1,0,1.5-1.1,1.5-1.1v.2c.1,0-1.5,1.1-1.5,1.1Zm3.3-2.2v-.2c-.1,0,1.5-1.1,1.5-1.1v.2c.1,0-1.5,1.1-1.5,1.1Zm3.3-2.2v-.2c-.1,0,1.5-1.1,1.5-1.1v.2c.1,0-1.5,1.1-1.5,1.1Zm3.3-2.2v-.2c-.1,0,1.5-1.1,1.5-1.1v.2c.1,0-1.5,1.1-1.5,1.1Zm3.3-2.2v-.2c-.1,0,1.5-1.1,1.5-1.1v.2c.1,0-1.5,1.1-1.5,1.1Zm3.3-2.2v-.2c-.1,0,1.5-1.1,1.5-1.1v.2c.1,0-1.5,1.1-1.5,1.1Zm3.3-2.2v-.2c-.1,0,1.5-1.1,1.5-1.1v.2c.1,0-1.5,1.1-1.5,1.1Zm3.3-2.2v-.2c-.1,0,1.5-1.1,1.5-1.1v.2c.1,0-1.5,1.1-1.5,1.1Zm3.3-2.2v-.2c-.1,0,1.5-1.1,1.5-1.1v.2c.1,0-1.5,1.1-1.5,1.1Zm3.3-2.2v-.2c-.1,0,1.5-1.1,1.5-1.1v.2c.1,0-1.5,1.1-1.5,1.1Zm3.3-2.2v-.2c-.1,0,1.5-1.1,1.5-1.1v.2c.1,0-1.5,1.1-1.5,1.1Zm3.3-2.2v-.2c-.1,0,1.5-1.1,1.5-1.1v.2c.1,0-1.5,1.1-1.5,1.1Zm3.3-2.2v-.2c-.1,0,1.5-1.1,1.5-1.1v.2c.1,0-1.5,1.1-1.5,1.1Zm3.3-2.2v-.2c-.1,0,1.5-1.1,1.5-1.1v.2c.1,0-1.5,1.1-1.5,1.1Zm3.3-2.2v-.2c-.1,0,1.5-1.1,1.5-1.1v.2c.1,0-1.5,1.1-1.5,1.1Zm3.3-2.2v-.2c-.1,0,1.5-1.1,1.5-1.1v.2c.1,0-1.5,1.1-1.5,1.1Zm3.3-2.2v-.2c-.1,0,1.5-1.1,1.5-1.1v.2c.1,0-1.5,1.1-1.5,1.1Zm3.3-2.2v-.2c-.1,0,1.5-1.1,1.5-1.1v.2c.1,0-1.5,1.1-1.5,1.1Zm3.3-2.2v-.2c-.1,0,1.5-1.1,1.5-1.1v.2c.1,0-1.5,1.1-1.5,1.1Zm3.3-2.2v-.2c-.1,0,1.5-1.1,1.5-1.1v.2c.1,0-1.5,1.1-1.5,1.1Zm3.3-2.2v-.2c-.1,0,1.5-1.1,1.5-1.1v.2c.1,0-1.5,1.1-1.5,1.1Zm3.3-2.2v-.2c-.1,0,1.5-1.1,1.5-1.1v.2c.1,0-1.5,1.1-1.5,1.1Zm3.3-2.2v-.2c-.1,0,1.5-1.1,1.5-1.1v.2c.1,0-1.5,1.1-1.5,1.1Zm3.3-2.2v-.2c-.1,0,1.5-1.1,1.5-1.1v.2c.1,0-1.5,1.1-1.5,1.1Zm3.3-2.2v-.2c-.1,0,1.5-1.1,1.5-1.1v.2c.1,0-1.5,1.1-1.5,1.1Zm3.3-2.2v-.2c-.1,0,1.5-1.1,1.5-1.1v.2c.1,0-1.5,1.1-1.5,1.1Zm3.3-2.2v-.2c-.1,0,1.5-1.1,1.5-1.1v.2c.1,0-1.5,1.1-1.5,1.1Zm3.3-2.2v-.2c-.1,0,1.5-1.1,1.5-1.1v.2c.1,0-1.5,1.1-1.5,1.1Zm3.3-2.2v-.2c-.1,0,1.5-1.1,1.5-1.1v.2c.1,0-1.5,1.1-1.5,1.1Zm3.3-2.2v-.2c-.1,0,1.5-1.1,1.5-1.1v.2c.1,0-1.5,1.1-1.5,1.1Zm3.3-2.2v-.2c-.1,0,1.5-1.1,1.5-1.1v.2c.1,0-1.5,1.1-1.5,1.1Zm3.3-2.2v-.2c-.1,0,1.5-1.1,1.5-1.1v.2c.1,0-1.5,1.1-1.5,1.1Zm3.3-2.2v-.2c-.1,0,0-.1,0-.1v.2c.1,0,0,.1,0,.1Z" style="fill: #dfdc00;"/>
  <path d="M1228.4,1284.4s-.2-.3-.5-.8v-.2c-.1,0,0-.1,0-.1l.2,.2q.5,.9,.5,.9h-.2Zm-1.7-2.7c-.3-.5-.7-1.1-1.1-1.7h.2c.4,.5,.8,1.1,1.1,1.6h-.2Zm-2.1-3.3l-1.1-1.7h.2c0-.1,1.1,1.6,1.1,1.6h-.2Zm-2.1-3.3l-1.1-1.7h.2c0-.1,1.1,1.6,1.1,1.6h-.2Zm-2.1-3.3l-1.1-1.7h.2c0-.1,1.1,1.6,1.1,1.6h-.2Zm-2.1-3.3l-1.1-1.7h.2c0-.1,1.1,1.6,1.1,1.6h-.2Zm-2.1-3.3l-1.1-1.7h.2c0-.1,1.1,1.6,1.1,1.6h-.2Zm-2.1-3.3l-1.1-1.7h.2c0-.1,1.1,1.6,1.1,1.6h-.2Zm-2.1-3.3c-.3-.5-.6-1-1-1.5v-.2c-.1,0,.1-.1,.1-.1v.2c.4,.5,.7,1,1.1,1.5h-.2Zm-2.1-3.3l-1.1-1.7h.2c0-.1,1.1,1.6,1.1,1.6h-.2Zm-2.1-3.3l-1.1-1.7h.2c0-.1,1.1,1.6,1.1,1.6h-.2Zm-2.1-3.3l-1.1-1.7h.2c0-.1,1.1,1.6,1.1,1.6h-.2Zm-2.1-3.3l-1.1-1.7h.2c0-.1,1.1,1.6,1.1,1.6h-.2Zm-105.1-1.7l-1.1-1.7h.2c0-.1,1.1,1.5,1.1,1.5h-.2Zm102.9-1.4l-1.1-1.7h.2c0-.1,1.1,1.6,1.1,1.6h-.2Zm-105.1-1.6l-1.1-1.7h.2c0-.1,1.1,1.5,1.1,1.5h-.2Zm103-1.5c-.4-.6-.7-1.1-1.1-1.7h.2c.4,.4,.7,1,1.1,1.6h-.2Zm-105.2-1.6l-1.1-1.7h.2c0-.1,1.1,1.5,1.1,1.5h-.2Zm103.1-1.5l-1.1-1.7h.2c0-.1,1.1,1.6,1.1,1.6h-.2Zm-105.3-1.5l-1.1-1.7h.2c0-.1,1.1,1.5,1.1,1.5h-.2Zm103.2-1.6l-1.1-1.7h.2c0-.1,1.1,1.6,1.1,1.6h-.2Zm-105.4-1.5l-1.1-1.7h.2c0-.1,1.1,1.5,1.1,1.5h-.2Zm103.3-1.7l-1.1-1.7h.2c0-.1,1.1,1.6,1.1,1.6h-.2Zm-105.5-1.4l-1.1-1.7h.2c0-.1,1.1,1.5,1.1,1.5h-.2Zm103.4-1.7l-1.1-1.7h.2c0-.1,1.1,1.6,1.1,1.6h-.2Zm-105.6-1.3l-1.1-1.7h.2c0-.1,1.1,1.5,1.1,1.5h-.2Zm103.4-1.8l-1.1-1.7h.2c0-.1,1.1,1.6,1.1,1.6h-.2Zm-105.7-1.3l-1.1-1.7h.2c0-.1,1.1,1.5,1.1,1.5h-.2Zm103.5-1.8l-1.1-1.7h.2c0-.1,1.1,1.6,1.1,1.6h-.2Zm-105.7-1.2l-1.1-1.7h.2c0-.1,1.1,1.5,1.1,1.5h-.2Zm103.6-1.9l-1.1-1.7h.2c0-.1,1.1,1.6,1.1,1.6h-.2Zm-105.8-1.2l-1.1-1.7h.2c0-.1,1.1,1.5,1.1,1.5h-.2Zm103.7-2c-.4-.6-.7-1.1-1.1-1.7h.2c.4,.4,.7,1,1.1,1.6h-.2Zm-105.9-1.1l-1.1-1.7h.2c0-.1,1.1,1.5,1.1,1.5h-.2Zm103.8-2l-1.1-1.7h.2c0-.1,1.1,1.6,1.1,1.6h-.2Zm-106-1l-1.1-1.7h.2c0-.1,1.1,1.5,1.1,1.5h-.2Zm103.9-2.1c-.4-.6-.7-1.1-1.1-1.7h.2c.4,.4,.7,1,1.1,1.6h-.2Zm-106.1-1l-1.1-1.7h.2c0-.1,1.1,1.5,1.1,1.5h-.2Zm104-2.2l-1.1-1.7h.2c0-.1,1.1,1.6,1.1,1.6h-.2Zm-106.2-.9l-1.1-1.7h.2c0-.1,1.1,1.5,1.1,1.5h-.2Zm104.1-2.2l-1.1-1.7h.2c0-.1,1.1,1.6,1.1,1.6h-.2Zm-106.3-.9l-1.1-1.7h.2c0-.1,1.1,1.5,1.1,1.5h-.2Zm104.2-2.3l-1.1-1.7h.2c0-.1,1.1,1.6,1.1,1.6h-.2Zm-106.4-.8l-1.1-1.7h.2c0-.1,1.1,1.5,1.1,1.5h-.2Zm104.2-2.3l-1.1-1.7h.2c0-.1,1.1,1.6,1.1,1.6h-.2Zm-106.5-.7l-1.1-1.7h.2c0-.1,1.1,1.5,1.1,1.5h-.2Zm104.3-2.4l-1.1-1.7h.2c0-.1,1.1,1.6,1.1,1.6h-.2Zm-106.5-.7l-1.1-1.7h.2c0-.1,1.1,1.5,1.1,1.5h-.2Zm104.4-2.5c-.3-.5-.7-1.1-1-1.6h0c0-.1,.2-.2,.2-.2h0c.3,.6,.7,1.2,1,1.7h-.2Zm-106.6-.6l-1.1-1.7h.2c0-.1,1.1,1.5,1.1,1.5h-.2Zm104.5-2.5c-.4-.6-.7-1.1-1.1-1.7h.2c.3,.4,.7,1,1.1,1.6h-.2Zm-106.7-.5l-.5-.8s-.2-.4-.3-1h.2c0,.5,.3,.9,.3,.9l.5,.8h-.2Zm104.6-2.6c-.4-.6-.7-1.1-1.1-1.7h.2c.3,.4,.7,1,1.1,1.6h-.2Zm-104.8-.9h-.2c.3-.7,.8-1.2,1.3-1.7l.2,.2c-.6,.5-1,1-1.3,1.5Zm102.7-2.4l-1.1-1.7h.2c0-.1,1.1,1.6,1.1,1.6h-.2Zm-99.8-.1l-.2-.2,1.5-1.3,.2,.2-1.5,1.3Zm3-2.6l-.2-.2,1.5-1.3,.2,.2-1.5,1.3Zm94.7-.5c-.4-.6-.7-1.1-1.1-1.7h.2c.3,.4,.7,1,1.1,1.6h-.2Zm-91.7-2l-.2-.2,1.5-1.3,.2,.2-1.5,1.3Zm89.6-1.3l-1.1-1.7h.2c0-.1,1.1,1.6,1.1,1.6h-.2Zm-86.5-1.2l-.2-.2,1.5-1.3,.2,.2-1.5,1.3Zm84.4-2.1l-1.1-1.7h.2c0-.1,1.1,1.6,1.1,1.6h-.2Zm-81.4-.4l-.2-.2,.5-.4,1.1-.9,.2,.2-1.5,1.3Zm3.1-2.6l-.2-.2,1.5-1.3,.2,.2-1.5,1.3Zm76.2-.3c-.4-.6-.7-1.1-1.1-1.7h.2c.3,.4,.7,1,1.1,1.6h-.2Zm-73.2-2.1l-.2-.2,1.5-1.3,.2,.2-1.5,1.3Zm71.1-1.1l-1.1-1.7h.2c0-.1,1.1,1.6,1.1,1.6h-.2Zm-68-1.3l-.2-.2,1.5-1.3,.2,.2-1.5,1.3Zm65.9-2l-1-1.7h.2c0-.1,1,1.6,1,1.6h-.2Zm-62.8-.4l-.2-.2,1.5-1.3,.2,.2-1.5,1.3Zm3.1-2.6l-.2-.2,.7-.6,.9-.6v.2c.1,0-.7,.6-.7,.6l-.7,.6Zm57.7-.3c-.4-.6-.7-1.2-1-1.7h.2c.3,.4,.7,1,1,1.6h-.2Zm-54.4-1.9v-.2c-.1,0,1.5-1.1,1.5-1.1v.2c.1,0-1.5,1.1-1.5,1.1Zm52.3-1.4c-.4-.6-.7-1.2-1-1.7h.2c.3,.4,.7,1,1,1.6h-.2Zm-49.1-.8v-.2c-.1,0,1.5-1.1,1.5-1.1v.2c.1,0-1.5,1.1-1.5,1.1Zm3.3-2.3v-.2c-.1,0,1.5-1.1,1.5-1.1v.2c.1,0-1.5,1.1-1.5,1.1Zm43.7-.3c-.3-.5-.6-1-.7-1.3,0-.2-.2-.3-.3-.5h.2c.1,0,.2,.2,.3,.4,.2,.3,.4,.7,.7,1.2h-.2Zm-40.4-1.9v-.2c-.1,0,1-.8,1-.8,.2-.1,.3-.2,.5-.4v.2c0,.1-.2,.2-.4,.3l-1.1,.8Zm38.2-1.3c-.4-.5-.9-.9-1.4-1.4l.2-.2c.5,.5,1,.9,1.4,1.4l-.2,.2Zm-34.9-.9v-.2c.2-.2,.5-.3,.8-.5l.8-.4v.2c.1,0-.7,.4-.7,.4-.3,.2-.6,.3-.9,.5Zm31.9-1.7c-.5-.4-1.1-.7-1.7-1v-.2c.7,.3,1.3,.7,1.8,1.1v.2Zm-28.4,0v-.2c-.1,0,1.7-.9,1.7-.9v.2c.1,0-1.7,.9-1.7,.9Zm3.6-1.8v-.2c.5-.3,1.1-.5,1.8-.8v.2c-.5,.2-1.2,.5-1.8,.7Zm21.2-.1c-.6-.3-1.2-.5-1.8-.7v-.2c.7,.2,1.3,.5,1.9,.8v.2Zm-17.6-1.2v-.2c.6-.2,1.2-.3,1.9-.5v.2c-.6,.1-1.2,.3-1.9,.5Zm13.8-.1c-.6-.2-1.3-.3-1.9-.4v-.2c.7,.1,1.4,.3,2,.4v.2Zm-9.9-.7v-.2c.6,0,1.3-.1,2-.2v.2c-.7,0-1.3,0-2,.2Zm6,0c-.7,0-1.3-.1-2-.1v-.2c.7,0,1.4,0,2,.1v.2Z" style="fill: #dfdc00;"/>
  <path d="M1120.3,1128.8h-.2c.4-.7,.8-1.2,1.1-1.8h.2c-.3,.7-.7,1.3-1.1,1.8Zm2-3.5h-.2c.3-.7,.5-1.3,.7-2h.2c-.2,.7-.4,1.3-.7,2Zm1.2-3.8h-.2c.1-.7,.2-1.4,.3-2h.2c0,.7-.1,1.4-.3,2Zm0-4c0-.7,0-1.3-.2-2h.2c0,.6,.1,1.3,.2,2h-.2Zm-.5-3.9c-.1-.6-.3-1.3-.5-1.9h.2c.2,.6,.4,1.2,.5,1.9h-.2Zm-1.2-3.7c-.5-1.1-.8-1.8-.9-1.8h.2c0,0,.4,.6,.9,1.7h-.2Z" style="fill: #dfdc00;"/>
  <path d="M1130.8,1217.5l-1.1-1.6h.2c0-.1,1.1,1.5,1.1,1.5h-.2Zm-2.3-3.2l-1.1-1.6h.2c0-.1,1.1,1.5,1.1,1.5h-.2Zm-2.3-3.2l-1.1-1.6h.2c0-.1,1.1,1.5,1.1,1.5h-.2Zm-45.5-.8v-.2c-.1,0,1.5-1.1,1.5-1.1v.2c.1,0-1.5,1.1-1.5,1.1Zm3.3-2.2v-.2c-.1,0,1.5-1.1,1.5-1.1v.2c.1,0-1.5,1.1-1.5,1.1Zm39.9-.2l-1.1-1.6h.2c0-.1,1.1,1.5,1.1,1.5h-.2Zm-36.5-1.9v-.2c-.1,0,1.5-1.1,1.5-1.1v.2c.1,0-1.5,1.1-1.5,1.1Zm34.3-1.3l-1.1-1.6h.2c0-.1,1.1,1.5,1.1,1.5h-.2Zm-30.9-.8v-.2c-.1,0,1.5-1.1,1.5-1.1v.2c.1,0-1.5,1.1-1.5,1.1Zm3.3-2.2v-.2c-.1,0,1.5-1.1,1.5-1.1v.2c.1,0-1.5,1.1-1.5,1.1Zm25.3-.1l-1.1-1.6h.2c0-.1,1.1,1.5,1.1,1.5h-.2Zm-22-1.9v-.2c-.1,0,1.5-1.1,1.5-1.1v.2c.1,0-1.5,1.1-1.5,1.1Zm19.7-1.2l-1.1-1.6h.2c0-.1,1.1,1.5,1.1,1.5h-.2Zm-16.4-.9v-.2c-.1,0,1.5-1.1,1.5-1.1v.2c.1,0-1.5,1.1-1.5,1.1Zm3.3-2.2v-.2c-.1,0,1.5-1.1,1.5-1.1v.2c.1,0-1.5,1.1-1.5,1.1Zm10.8,0l-1.1-1.6h.2c0-.1,1.1,1.5,1.1,1.5h-.2Zm-7.5-2v-.2c-.1,0,1.5-1.1,1.5-1.1v.2c.1,0-1.5,1.1-1.5,1.1Zm5.2-1.1c-.5-.4-1.1-.6-1.7-.6v-.2s0,0,0,0c.7,0,1.4,.2,1.9,.7l-.2,.2Z" style="fill: #dfdc00;"/>
  <path d="M1133.7,1218.2l-1.1-1.6h.2c0-.1,1.1,1.5,1.1,1.5h-.2Zm-2.3-3.2l-1.1-1.6h.2c0-.1,1.1,1.5,1.1,1.5h-.2Zm-2.3-3.2l-1.1-1.6h.2c0-.1,1.1,1.5,1.1,1.5h-.2Zm-2.3-3.2l-1.1-1.6h.2c0-.1,1.1,1.5,1.1,1.5h-.2Zm-2.3-3.2l-1.1-1.6h.2c0-.1,1.1,1.5,1.1,1.5h-.2Zm-2.3-3.2l-1.1-1.6h.2c0-.1,1.1,1.5,1.1,1.5h-.2Zm-2.3-3.2l-1.1-1.6h.2c0-.1,1.1,1.5,1.1,1.5h-.2Zm-2.3-3.2l-1.1-1.6h.2c0-.1,1.1,1.5,1.1,1.5h-.2Zm-2.3-3.2l-1.1-1.6h.2c0-.1,1.1,1.5,1.1,1.5h-.2Zm-2.3-3.2c0-.2-.2-.7-.2-1.3s0-.5,0-.8h.2c0,.3,0,.5,0,.8,0,.6,.1,1,.2,1.2h-.2Zm.8-3.8h-.2c.3-.7,.7-1.2,1.2-1.7l.2,.2c-.5,.5-.9,1-1.2,1.6Zm2.7-2.8v-.2c.3-.3,.9-.7,1.5-1.2v.2c-.5,.4-1,.8-1.5,1.2Zm3.3-2.3v-.2c.4-.4,1-.7,1.5-1.1v.2c-.4,.4-1,.8-1.5,1.1Zm3.4-2.2v-.2c.4-.4,1-.7,1.6-1.1v.2c-.4,.4-1,.7-1.6,1.1Zm3.4-2.2v-.2c.4-.4,1-.7,1.6-1.1v.2c-.4,.4-1,.7-1.6,1.1Zm3.4-2.1v-.2c.4-.4,1-.7,1.6-1.1v.2c-.4,.4-1,.7-1.6,1.1Zm3.4-2.1v-.2c.4-.4,1-.7,1.6-1.1v.2c-.4,.3-1,.7-1.6,1.1Zm3.4-2.1v-.2c-.1,0,1.6-1.1,1.6-1.1v.2c.1,0-1.6,1.1-1.6,1.1Zm3.4-2.1v-.2c-.1,0,1.6-1,1.6-1v.2c.1,0-1.6,1-1.6,1Zm3.4-2.1v-.2c.5-.4,1.1-.7,1.6-1v.2c-.4,.3-1,.7-1.6,1Zm3.4-2.1v-.2c-.1,0,.6-.5,.6-.5v.2c.1,0-.6,.5-.6,.5Z" style="fill: #dfdc00;"/>
  <path d="M1111.2,1182.8v-.2c-.1,0,1.5-1.1,1.5-1.1v.2c.1,0-1.5,1.1-1.5,1.1Zm-1.4-1.4l-1.1-1.7h.2c0-.1,1.1,1.5,1.1,1.5h-.2Zm4.7-.7v-.2c-.1,0,1.5-1.1,1.5-1.1v.2c.1,0-1.5,1.1-1.5,1.1Zm3.4-2.2v-.2c-.1,0,1.5-1.1,1.5-1.1v.2c.1,0-1.5,1.1-1.5,1.1Zm-10.3-.4l-1.1-1.7h.2c0-.1,1.1,1.5,1.1,1.5h-.2Zm13.7-1.7v-.2c-.1,0,1.5-1.1,1.5-1.1v.2c.1,0-1.5,1.1-1.5,1.1Zm-15.9-1.5l-1.1-1.7h.2c0-.1,1.1,1.5,1.1,1.5h-.2Zm19.3-.5v-.2c-.1,0,1.5-1.1,1.5-1.1v.2c.1,0-1.5,1.1-1.5,1.1Zm3.4-2.2v-.2c-.1,0,1.5-1.1,1.5-1.1v.2c.1,0-1.5,1.1-1.5,1.1Zm-24.9-.5l-1.1-1.7h.2c0-.1,1.1,1.5,1.1,1.5h-.2Zm28.3-1.5v-.2c-.1,0,1.5-1.1,1.5-1.1v.2c.1,0-1.5,1.1-1.5,1.1Zm-30.5-1.7l-1.1-1.7h.2c0-.1,1.1,1.5,1.1,1.5h-.2Zm33.9-.3v-.2c-.1,0,1.6-1.1,1.6-1.1v.2c.1,0-1.6,1.1-1.6,1.1Zm3.4-2.2v-.2c-.1,0,1.5-1.1,1.5-1.1v.2c.1,0-1.5,1.1-1.5,1.1Zm-39.5-.7l-1.1-1.7h.2c0-.1,1.1,1.5,1.1,1.5h-.2Zm42.9-1.3v-.2c-.1,0,1.6-1.1,1.6-1.1v.2c.1,0-1.6,1.1-1.6,1.1Zm-45.1-1.9l-1.1-1.7h.2c0-.1,1.1,1.5,1.1,1.5h-.2Zm48.5-.2v-.2c-.1,0,1.5-1.1,1.5-1.1v.2c.1,0-1.5,1.1-1.5,1.1Zm-50.7-3l-1.1-1.7h.2c0-.1,1.1,1.5,1.1,1.5h-.2Zm-2.2-3.2l-1.1-1.7h.2c0-.1,1.1,1.5,1.1,1.5h-.2Zm-2.2-3.2l-1.1-1.7h.2c0-.1,1.1,1.5,1.1,1.5h-.2Z" style="fill: #dfdc00;"/>
  <path d="M1191.5,1313.5v-.2c0,0,.1-.1,.1-.1v.2c0,0-.1,.1-.1,.1Zm-1.2-1.8l-1.1-1.7h.2c0-.1,1.1,1.6,1.1,1.6h-.2Zm-2.1-3.3l-1.1-1.7h.2c0-.1,1.1,1.6,1.1,1.6h-.2Zm-2.1-3.3l-1.1-1.7h.2c0-.1,1.1,1.6,1.1,1.6h-.2Zm-2.1-3.3l-1.1-1.7h.2c0-.1,1.1,1.6,1.1,1.6h-.2Zm-2.1-3.3l-1.1-1.7h.2c0-.1,1.1,1.6,1.1,1.6h-.2Zm-2.1-3.3l-1.1-1.7h.2c0-.1,1.1,1.6,1.1,1.6h-.2Zm-2.1-3.3l-1.1-1.7h.2c0-.1,1.1,1.6,1.1,1.6h-.2Zm-2.1-3.3l-1.1-1.7h.2c0-.1,1.1,1.6,1.1,1.6h-.2Zm-2.1-3.3l-1.1-1.7h.2c0-.1,1.1,1.6,1.1,1.6h-.2Zm-2.1-3.3l-1.1-1.7h.2c0-.1,1.1,1.6,1.1,1.6h-.2Zm-2.1-3.3l-1.1-1.7h.2c0-.1,1.1,1.6,1.1,1.6h-.2Zm-2.1-3.3l-1.1-1.7h.2c0-.1,1.1,1.6,1.1,1.6h-.2Zm-2.1-3.3l-1.1-1.7h.2c0-.1,1.1,1.6,1.1,1.6h-.2Zm-2.1-3.3l-1.1-1.7h.2c0-.1,1.1,1.6,1.1,1.6h-.2Zm-2.1-3.3l-1.1-1.7h.2c0-.1,1.1,1.6,1.1,1.6h-.2Zm-2.1-3.3l-1.1-1.7h.2c0-.1,1.1,1.6,1.1,1.6h-.2Zm-2.1-3.3l-1.1-1.7h.2c0-.1,1.1,1.6,1.1,1.6h-.2Zm-2.1-3.3l-1.1-1.7h.2c0-.1,1.1,1.6,1.1,1.6h-.2Zm-2.1-3.3l-1.1-1.7h.2c0-.1,1.1,1.6,1.1,1.6h-.2Zm-2.1-3.3l-1.1-1.7h.2c0-.1,1.1,1.6,1.1,1.6h-.2Zm-2.1-3.3l-1.1-1.7h.2c0-.1,1.1,1.6,1.1,1.6h-.2Zm-2.1-3.3l-1.1-1.7h.2c0-.1,1.1,1.6,1.1,1.6h-.2Zm-2.1-3.3l-1.1-1.7h.2c0-.1,1.1,1.6,1.1,1.6h-.2Zm-2.1-3.3l-1.1-1.7h.2c0-.1,1.1,1.6,1.1,1.6h-.2Zm-2.1-3.3l-1.1-1.7h.2c0-.1,1.1,1.6,1.1,1.6h-.2Zm-2.1-3.3l-1.1-1.7h.2c0-.1,1.1,1.6,1.1,1.6h-.2Z" style="fill: #dfdc00;"/>
  <path d="M1123.1,1329.3v-.2c-.1,0,1.6-1.1,1.6-1.1v.2c.1,0-1.6,1.1-1.6,1.1Zm3.4-2.1v-.2c-.1,0,1.6-1.1,1.6-1.1v.2c.1,0-1.6,1.1-1.6,1.1Zm3.4-2.1v-.2c-.1,0,1.6-1.1,1.6-1.1v.2c.1,0-1.6,1.1-1.6,1.1Zm3.4-2.1v-.2c-.1,0,1.6-1.1,1.6-1.1v.2c.1,0-1.6,1.1-1.6,1.1Zm3.4-2.1v-.2c-.1,0,1.6-1.1,1.6-1.1v.2c.1,0-1.6,1.1-1.6,1.1Zm3.4-2.1v-.2c-.1,0,1.6-1.1,1.6-1.1v.2c.1,0-1.6,1.1-1.6,1.1Zm3.4-2.1v-.2c-.1,0,1.6-1.1,1.6-1.1v.2c.1,0-1.6,1.1-1.6,1.1Zm3.4-2.1v-.2c-.1,0,1.6-1.1,1.6-1.1v.2c.1,0-1.6,1.1-1.6,1.1Zm3.4-2.1v-.2c-.1,0,1.6-1.1,1.6-1.1v.2c.1,0-1.6,1.1-1.6,1.1Zm3.4-2.1v-.2c-.1,0,1.6-1.1,1.6-1.1v.2c.1,0-1.6,1.1-1.6,1.1Zm3.4-2.1v-.2c-.1,0,1.6-1.1,1.6-1.1v.2c.1,0-1.6,1.1-1.6,1.1Zm3.4-2.1v-.2c-.1,0,1.6-1.1,1.6-1.1v.2c.1,0-1.6,1.1-1.6,1.1Zm3.4-2.2v-.2c-.1,0,1.6-1.1,1.6-1.1v.2c.1,0-1.6,1.1-1.6,1.1Zm3.4-2.2v-.2c-.1,0,1.6-1.1,1.6-1.1v.2c.1,0-1.6,1.1-1.6,1.1Zm3.4-2.2v-.2c-.1,0,1.6-1.1,1.6-1.1v.2c.1,0-1.6,1.1-1.6,1.1Zm3.4-2.2v-.2c-.1,0,1.6-1.1,1.6-1.1v.2c.1,0-1.6,1.1-1.6,1.1Z" style="fill: #dfdc00;"/>
  <path d="M1181.1,1292.9v-.2c-.1,0,1.5-1,1.5-1v.2c.1,0-1.5,1-1.5,1Zm3.3-2.1v-.2c-.1,0,1.6-1.1,1.6-1.1v.2c.1,0-1.6,1.1-1.6,1.1Zm3.4-2.2v-.2c-.1,0,1.6-1.1,1.6-1.1v.2c.1,0-1.6,1.1-1.6,1.1Zm3.4-2.2v-.2c-.1,0,1.6-1.1,1.6-1.1v.2c.1,0-1.6,1.1-1.6,1.1Zm3.4-2.2v-.2c-.1,0,1.6-1.1,1.6-1.1v.2c.1,0-1.6,1.1-1.6,1.1Zm3.4-2.2v-.2c-.1,0,1.6-1.1,1.6-1.1v.2c.1,0-1.6,1.1-1.6,1.1Zm3.4-2.2v-.2c-.1,0,1.6-1.1,1.6-1.1v.2c.1,0-1.6,1.1-1.6,1.1Zm3.4-2.2v-.2c-.1,0,1.6-1.1,1.6-1.1v.2c.1,0-1.6,1.1-1.6,1.1Zm3.4-2.2v-.2c-.1,0,1.6-1.1,1.6-1.1v.2c.1,0-1.6,1.1-1.6,1.1Zm3.4-2.2v-.2c-.1,0,1.6-1.1,1.6-1.1v.2c.1,0-1.6,1.1-1.6,1.1Zm3.4-2.2v-.2c-.1,0,1.6-1.1,1.6-1.1v.2c.1,0-1.6,1.1-1.6,1.1Z" style="fill: #dfdc00;"/>
  <path d="M1142.8,1313l-.7-1h.2c0-.1,.7,.9,.7,.9h-.2Zm-1.7-2.6l-1.1-1.7h.2c0-.1,1.1,1.6,1.1,1.6h-.2Zm-2.1-3.3l-1.1-1.7h.2c0-.1,1.1,1.6,1.1,1.6h-.2Zm-2.1-3.3l-1.1-1.7h.2c0-.1,1.1,1.6,1.1,1.6h-.2Zm-2.1-3.3l-1.1-1.7h.2c0-.1,1.1,1.6,1.1,1.6h-.2Zm-2.1-3.3l-1.1-1.7h.2c0-.1,1.1,1.6,1.1,1.6h-.2Zm-2.1-3.3l-1.1-1.7h.2c0-.1,1.1,1.6,1.1,1.6h-.2Zm-2.1-3.3l-1.1-1.7h.2c0-.1,1.1,1.6,1.1,1.6h-.2Zm-2.1-3.3l-1.1-1.7h.2c0-.1,1.1,1.6,1.1,1.6h-.2Zm-2.1-3.3l-1.1-1.7h.2c0-.1,1.1,1.6,1.1,1.6h-.2Zm-2.1-3.3l-1.1-1.7h.2c0-.1,1.1,1.6,1.1,1.6h-.2Zm-2.1-3.3l-1.1-1.7h.2c0-.1,1.1,1.6,1.1,1.6h-.2Zm-2.1-3.3l-1.1-1.7h.2c0-.1,1.1,1.6,1.1,1.6h-.2Zm-2.1-3.3l-1.1-1.7h.2c0-.1,1.1,1.6,1.1,1.6h-.2Zm-2.1-3.3l-1.1-1.7h.2c0-.1,1.1,1.6,1.1,1.6h-.2Zm-2.1-3.3l-1.1-1.7h.2c0-.1,1.1,1.6,1.1,1.6h-.2Zm-2.1-3.3l-1.1-1.7h.2c0-.1,1.1,1.6,1.1,1.6h-.2Zm-2.1-3.3l-1.1-1.7h.2c0-.1,1.1,1.6,1.1,1.6h-.2Zm-2.1-3.3l-1.1-1.7h.2c0-.1,1.1,1.6,1.1,1.6h-.2Zm-2.1-3.3l-1.1-1.7h.2c0-.1,1.1,1.6,1.1,1.6h-.2Z" style="fill: #dfdc00;"/>
  <path d="M1130.6,1321.1l-1.1-1.7h.2c0-.1,1.1,1.5,1.1,1.5h-.2Zm-2.2-3.2l-1.1-1.7h.2c0-.1,1.1,1.5,1.1,1.5h-.2Zm-2.2-3.2l-1.1-1.7h.2c0-.1,1.1,1.5,1.1,1.5h-.2Zm-2.2-3.2l-1.1-1.7h.2c0-.1,1.1,1.5,1.1,1.5h-.2Zm-2.2-3.2l-1.1-1.7h.2c0-.1,1.1,1.5,1.1,1.5h-.2Zm-2.2-3.2l-1.1-1.7h.2c0-.1,1.1,1.5,1.1,1.5h-.2Zm-2.2-3.2l-1.1-1.7h.2c0-.1,1.1,1.5,1.1,1.5h-.2Zm-2.2-3.2l-1.1-1.7h.2c0-.1,1.1,1.5,1.1,1.5h-.2Zm-2.2-3.2l-1.1-1.7h.2c0-.1,1.1,1.5,1.1,1.5h-.2Zm-2.2-3.2l-1.1-1.7h.2c0-.1,1.1,1.5,1.1,1.5h-.2Zm-2.2-3.2l-1.1-1.7h.2c0-.1,1.1,1.5,1.1,1.5h-.2Zm-2.2-3.2l-1.1-1.7h.2c0-.1,1.1,1.5,1.1,1.5h-.2Zm-2.2-3.2l-1.1-1.7h.2c0-.1,1.1,1.5,1.1,1.5h-.2Zm-2.2-3.2l-1.1-1.7h.2c0-.1,1.1,1.5,1.1,1.5h-.2Zm-2.2-3.2l-1.1-1.7h.2c0-.1,1.1,1.5,1.1,1.5h-.2Zm-2.2-3.2l-1.1-1.7h.2c0-.1,1.1,1.5,1.1,1.5h-.2Zm-2.2-3.2l-1.1-1.7h.2c0-.1,1.1,1.5,1.1,1.5h-.2Zm-2.2-3.2l-1.1-1.7h.2c0-.1,1.1,1.5,1.1,1.5h-.2Zm-2.2-3.2l-1.1-1.7h.2c0-.1,1.1,1.5,1.1,1.5h-.2Zm-2.2-3.2l-.6-.9h.2c0-.1,.6,.8,.6,.8h-.2Z" style="fill: #dfdc00;"/>
  <path d="M1085.1,1249l-1.1-1.7h.2c0-.1,1.1,1.5,1.1,1.5h-.2Zm-2.2-3.2l-1.1-1.7h.2c0-.1,1.1,1.5,1.1,1.5h-.2Zm-2.2-3.2l-1.1-1.7h.2c0-.1,1.1,1.5,1.1,1.5h-.2Zm-2.2-3.2l-1.1-1.7h.2c0-.1,1.1,1.5,1.1,1.5h-.2Zm-2.2-3.2l-1.1-1.7h.2c0-.1,1.1,1.5,1.1,1.5h-.2Zm-2.2-3.2l-1.1-1.7h.2c0-.1,1.1,1.5,1.1,1.5h-.2Zm-2.2-3.2l-1.1-1.7h.2c0-.1,1.1,1.5,1.1,1.5h-.2Zm-2.2-3.2l-1.1-1.7h.2c0-.1,1.1,1.5,1.1,1.5h-.2Zm-2.2-3.2l-1.1-1.7h.2c0-.1,1.1,1.5,1.1,1.5h-.2Zm-2.2-3.2l-1.1-1.7h.2c0-.1,1.1,1.5,1.1,1.5h-.2Zm-2.2-3.2l-1.1-1.7h.2c0-.1,1.1,1.5,1.1,1.5h-.2Zm-2.2-3.2l-1.1-1.7h.2c0-.1,1.1,1.5,1.1,1.5h-.2Zm-2.2-3.2l-1.1-1.7h.2c0-.1,1.1,1.5,1.1,1.5h-.2Zm-2.2-3.2l-1.1-1.7h.2c0-.1,1.1,1.5,1.1,1.5h-.2Zm-2.2-3.2l-1.1-1.7h.2c0-.1,1.1,1.5,1.1,1.5h-.2Zm-2.2-3.2l-1.1-1.7h.2c0-.1,1.1,1.5,1.1,1.5h-.2Zm-2.2-3.2l-1.1-1.7h.2c0-.1,1.1,1.5,1.1,1.5h-.2Zm-2.2-3.2l-1.1-1.7h.2c0-.1,1.1,1.5,1.1,1.5h-.2Z" style="fill: #dfdc00;"/>
  <path d="M1010.9,1315.4s-.1,0-.4-.3l.2-.2c.2,.2,.4,.3,.4,.3v.2Zm-1.9-1.7c-.4-.5-.8-1-1.2-1.6h.2c.4,.5,.8,1,1.1,1.5l-.2,.2Zm-2.2-3.4c-.3-.5-.6-1.1-.9-1.8h.2c.3,.5,.6,1.1,.9,1.7h-.2Zm-1.7-3.5c-.2-.6-.5-1.2-.8-1.9h.2c.2,.6,.5,1.2,.8,1.8h-.2Zm-1.5-3.6c-.2-.6-.4-1.3-.6-1.9h.2c.2,.5,.4,1.2,.6,1.8h-.2Zm-1.2-3.7c-.2-.6-.4-1.3-.6-1.9h.2c.2,.6,.4,1.2,.6,1.8h-.2Zm-1.1-3.8c-.2-.6-.3-1.3-.5-1.9h.2c.2,.6,.3,1.2,.5,1.9h-.2Zm-1-3.8c0-.1,0-.3,0-.4-.1-.5-.2-1-.3-1.5h.2c0,.5,.2,1,.3,1.5,0,.1,0,.3,0,.4h-.2Zm-.7-3.9c0-.7-.2-1.3-.2-2h.2c0,.6,.1,1.3,.2,2h-.2Zm-.4-4c0-.6,0-1.3,0-1.9h0c0-.1,.2-.1,.2-.1h0c0,.7,0,1.4,0,2h-.2Zm.3-4h-.2c0-.7,0-1.3,.1-2h.2c0,.7-.1,1.4-.1,2Zm.4-4h-.2c0-.7,.2-1.3,.3-2h.2c-.1,.7-.2,1.4-.3,2Zm.7-3.9h-.2c.1-.7,.3-1.3,.5-2h.2c-.2,.7-.3,1.4-.5,2Zm1-3.9h-.2c.2-.7,.4-1.4,.6-2h.2c-.2,.7-.4,1.3-.6,2Zm1.3-3.8h-.2c.2-.7,.5-1.3,.7-2h.2c-.3,.7-.5,1.3-.7,2Zm1.6-3.7h-.2c.3-.7,.6-1.3,.9-1.9h.2c-.3,.7-.6,1.3-.9,1.9Zm1.8-3.6h-.2c.3-.7,.7-1.3,1-1.9h.2c-.3,.7-.7,1.3-1,1.9Zm2.1-3.4h-.2c.6-1,.9-1.4,.9-1.5l.2-.3h.2c0,.1-.2,.5-.2,.5,0,0-.4,.5-.9,1.3Zm2.2-3.3h-.2c0-.1,1.1-1.8,1.1-1.8h.2c0,.1-1.1,1.8-1.1,1.8Zm2.1-3.4h-.2c0-.1,1.1-1.8,1.1-1.8h.2c0,.1-1.1,1.8-1.1,1.8Zm2.2-3.4h-.2c0-.1,1.1-1.8,1.1-1.8h.2c0,.1-1.1,1.8-1.1,1.8Zm2.2-3.4h-.2c0-.1,1.1-1.8,1.1-1.8h.2c0,.1-1.1,1.8-1.1,1.8Zm2.1-3.4h-.2c0-.1,1.1-1.8,1.1-1.8h.2c0,.1-1.1,1.8-1.1,1.8Zm2.2-3.3h-.2c.4-.7,.8-1.2,1.2-1.8l.2,.2c-.4,.5-.8,1.1-1.2,1.6Zm2.5-3.1l-.2-.2c.4-.5,.9-1,1.4-1.5l.2,.2c-.5,.5-.9,1-1.4,1.5Zm2.8-2.8l-.2-.2c.5-.4,1-.9,1.5-1.3l.2,.2c-.5,.4-1,.8-1.5,1.3Zm3.1-2.5v-.2c0,0,0-.1,.1-.2l1.4-1v.2c.1,0-1.3,1-1.3,1,0,0-.2,.1-.2,.2Zm3.3-2.3v-.2c-.1,0,1.5-1.1,1.5-1.1v.2c.1,0-1.5,1.1-1.5,1.1Zm3.3-2.3v-.2c-.1,0,1.5-1.1,1.5-1.1v.2c.1,0-1.5,1.1-1.5,1.1Zm3.3-2.3v-.2c-.1,0,1.5-1.1,1.5-1.1v.2c.1,0-1.5,1.1-1.5,1.1Zm3.3-2.3v-.2c-.1,0,1.5-1.1,1.5-1.1v.2c.1,0-1.5,1.1-1.5,1.1Zm3.3-2.3v-.2c-.1,0,1.5-1.1,1.5-1.1v.2c.1,0-1.5,1.1-1.5,1.1Zm3.3-2.3v-.2c-.1,0,1.5-1.1,1.5-1.1v.2c.1,0-1.5,1.1-1.5,1.1Zm3.3-2.3v-.2c-.1,0,1.5-1.1,1.5-1.1v.2c.1,0-1.5,1.1-1.5,1.1Z" style="fill: #dfdc00;"/>
  <path d="M1050.4,1272.1l-1-1.7h.2c0-.1,1,1.6,1,1.6h-.2Zm-2-3.3l-1-1.7h.2c0-.1,1,1.6,1,1.6h-.2Zm-2-3.3l-1-1.7h.2c0-.1,1,1.6,1,1.6h-.2Zm-2-3.3l-1-1.7h.2c0-.1,1,1.6,1,1.6h-.2Zm-2-3.3l-1-1.7h.2c0-.1,1,1.6,1,1.6h-.2Zm-2-3.3l-.6-1s-.2-.3-.5-.7h.2c.3,.4,.4,.5,.5,.6h0s.6,1,.6,1h-.2Zm-2.1-3.3c-.4-.6-.8-1.2-1.2-1.6l.2-.2c.4,.5,.8,1,1.2,1.6h-.2Zm-2.4-3c-.6-.7-1.1-1-1.4-1.1h0s0-.3,0-.3h0c.4,.1,.9,.5,1.6,1.2l-.2,.2Zm-21.4-.4v-.2s2-.2,2-.2v.2s-2,.2-2,.2Zm4-.3v-.2s2-.2,2-.2v.2s-2,.2-2,.2Zm4-.3v-.2s2-.2,2-.2v.2s-2,.2-2,.2Zm4-.3v-.2c.5,0,1.2,0,2,0v.2c-.8,0-1.5,0-2,0Zm6,0c-.6,0-1.2,0-2,0v-.2c.8,0,1.4,0,2,0v.2Z" style="fill: #dfdc00;"/>
  <path d="M1072.4,1325.4l-.2-.2,1.5-1.4,.2,.2-1.5,1.4Zm2.9-2.7l-.2-.2,.6-.6c.3-.3,.5-.6,.7-.9h.2c-.2,.5-.5,.8-.8,1.1l-.6,.6Zm2.2-3.4h-.2c0-.4,0-.7,0-1,0-.3,0-.6,0-1h.2c0,.3,0,.6,0,1,0,.3,0,.7-.1,1Zm-1-3.8l-1.1-1.7h.2c0-.1,1.1,1.6,1.1,1.6h-.2Zm-2.1-3.3l-1.1-1.7h.2c0-.1,1.1,1.6,1.1,1.6h-.2Zm-2.1-3.3l-1.1-1.7h.2c0-.1,1.1,1.6,1.1,1.6h-.2Zm-2.1-3.3l-1.1-1.7h.2c0-.1,1.1,1.6,1.1,1.6h-.2Zm-2.1-3.3l-1.1-1.7h.2c0-.1,1.1,1.6,1.1,1.6h-.2Zm-2.1-3.3l-1.1-1.7h.2c0-.1,1.1,1.6,1.1,1.6h-.2Zm-2.1-3.3l-1.1-1.7h.2c0-.1,1.1,1.6,1.1,1.6h-.2Zm-2.1-3.3l-1.1-1.7h.2c0-.1,1.1,1.6,1.1,1.6h-.2Zm-2.1-3.3l-1.1-1.7h.2c0-.1,1.1,1.6,1.1,1.6h-.2Zm-2.1-3.3l-1.1-1.7h.2c0-.1,1.1,1.6,1.1,1.6h-.2Zm-2.1-3.3l-1.1-1.7h.2c0-.1,1.1,1.6,1.1,1.6h-.2Z" style="fill: #dfdc00;"/>
  <path d="M1107.6,1004.9l-.2-.2,.4-.4,.2,.2-.4,.4Zm1.9-1.7l-.2-.2,1.5-1.3,.2,.2-1.5,1.3Zm3-2.7l-.2-.2,1.5-1.4,.2,.2-1.5,1.4Zm3-2.7l-.2-.2,1.5-1.4,.2,.2-1.5,1.4Zm3-2.7l-.2-.2,1.5-1.4,.2,.2-1.5,1.4Zm3-2.7l-.2-.2,1.5-1.3,.2,.2-1.5,1.3Zm3-2.7l-.2-.2,1.5-1.3,.2,.2-1.5,1.3Zm3-2.7l-.2-.2,1.5-1.3,.2,.2-1.5,1.3Zm2.9-2.7l-.2-.2c.5-.5,.9-1,1.3-1.5l.2,.2c-.4,.5-.9,1-1.4,1.5Zm2.6-3.1h-.2c.4-.7,.7-1.3,1.1-1.8h.2c-.3,.7-.7,1.3-1.1,1.8Zm2-3.5h-.2c.3-.7,.5-1.3,.7-1.9h.2c-.2,.7-.5,1.3-.8,1.9Zm1.3-3.8h-.2c0-.2,0-.3,0-.4,.1-.5,.2-1.1,.3-1.6h.2c0,.6-.2,1.1-.3,1.6,0,.1,0,.3,0,.4Zm.6-4h-.2c0-.4,0-.7,0-1.1s0-.6,0-.9h.2c0,.3,0,.6,0,.9s0,.8,0,1.1Zm-.4-4c-.1-.7-.2-1.3-.4-1.9h.2c.2,.6,.3,1.2,.4,1.9h-.2Zm-1-3.8c-.2-.6-.5-1.2-.8-1.8h.2c.3,.5,.6,1.1,.8,1.7h-.2Zm-1.8-3.4c-.4-.6-.8-1.1-1.2-1.6l.2-.2c.4,.5,.8,1,1.2,1.6h-.2Zm-2.6-2.9c-.3-.3-.5-.4-.5-.4l-1-1,.2-.2,1,1h0s.2,.1,.5,.4l-.2,.2Zm-2.9-2.8l-1.4-1.4,.2-.2,1.4,1.4-.2,.2Zm-2.9-2.8l-1.4-1.4,.2-.2,1.4,1.4-.2,.2Zm-2.9-2.8l-1.4-1.4,.2-.2,1.4,1.4-.2,.2Zm-2.9-2.8l-1.4-1.4,.2-.2,1.4,1.4-.2,.2Zm-2.9-2.8l-1.4-1.4,.2-.2,1.4,1.4-.2,.2Zm-2.9-2.8l-1.4-1.4,.2-.2,1.4,1.4-.2,.2Zm-2.9-2.8l-1.4-1.4,.2-.2,1.4,1.4-.2,.2Zm-2.9-2.8l-1.4-1.4,.2-.2,1.4,1.4-.2,.2Zm-2.9-2.8l-1.4-1.4,.2-.2,1.4,1.4-.2,.2Zm-2.9-2.8l-1.4-1.4,.2-.2,1.4,1.4-.2,.2Zm-46.6-.1l-.2-.2,1.4-1.4,.2,.2-1.4,1.4Zm43.8-2.7l-1.4-1.4,.2-.2,1.4,1.4-.2,.2Zm-40.9-.1l-.2-.2,1.4-1.4,.2,.2-1.4,1.4Zm38.1-2.7l-1.4-1.4,.2-.2,1.4,1.4-.2,.2Zm-35.2,0l-.2-.2,1.4-1.4,.2,.2-1.4,1.4Zm32.3-2.7l-1.4-1.4,.2-.2,1.4,1.4-.2,.2Zm-29.4,0l-.2-.2,1.4-1.4,.2,.2-1.4,1.4Zm26.6-2.8s0,0-.1-.1c-.4-.5-.8-.9-1.2-1.3l.2-.2c.4,.4,.8,.9,1.2,1.4,0,0,0,0,.1,.1l-.2,.2Zm-23.7,0l-.2-.2,1.4-1.4,.2,.2-1.4,1.4Zm2.9-2.8l-.2-.2,1.4-1.4,.2,.2-1.4,1.4Zm18.1-.1c-.5-.5-1-.9-1.5-1.3l.2-.2c.5,.4,1,.9,1.5,1.4l-.2,.2Zm-3-2.6c-.6-.4-1.1-.8-1.6-1.1v-.2c.7,.3,1.2,.7,1.8,1.1v.2Zm-12.3,0l-.2-.2,1.4-1.4,.2,.2-1.4,1.4Zm8.8-2c-.6-.3-1.3-.5-1.9-.6v-.2c.7,.1,1.3,.4,2,.6v.2Zm-5.8-.5v-.2c.5-.2,1.2-.4,1.9-.4v.2c-.7,0-1.3,.1-1.9,.4Z" style="fill: #dfdc00;"/>
  <path d="M1112.3,1011.1l-.2-.2,.5-.4,.2,.2-.5,.4Zm2-1.8l-.2-.2,1.5-1.3,.2,.2-1.5,1.3Zm3-2.7l-.2-.2,1.5-1.3,.2,.2-1.5,1.3Zm3-2.7l-.2-.2,1.5-1.3,.2,.2-1.5,1.3Zm3-2.7l-.2-.2,1.5-1.3,.2,.2-1.5,1.3Zm3-2.7l-.2-.2,1.5-1.3,.2,.2-1.5,1.3Zm3-2.7l-.2-.2,1.5-1.3,.2,.2-1.5,1.3Zm3-2.7l-.2-.2,1.5-1.3,.2,.2-1.5,1.3Zm3-2.7l-.2-.2,1.5-1.3,.2,.2-1.5,1.3Zm3-2.7l-.2-.2,1.5-1.3,.2,.2-1.5,1.3Zm2.9-2.7l-.2-.2c.5-.5,.9-1,1.4-1.4l.2,.2c-.4,.5-.9,1-1.4,1.5Zm2.6-3l-.2-.2c.4-.5,.8-1.1,1.1-1.6h.2c-.4,.7-.7,1.2-1.1,1.8Zm2.2-3.4h-.2c.1-.3,.2-.5,.3-.7,.2-.3,.3-.6,.4-.9,0,0,0-.2,.1-.3h.2c0,.2,0,.3-.1,.4-.1,.3-.3,.6-.4,.9-.1,.2-.2,.4-.3,.6Zm1.5-3.7h-.2c.2-.7,.3-1.4,.5-2h.2c-.1,.7-.3,1.4-.5,2Zm.7-4h-.2c0-.4,0-.8,0-1.2s0-.5,0-.8h.2c0,.2,0,.5,0,.8,0,.4,0,.8,0,1.2Zm-.4-4c0-.7-.2-1.3-.4-1.9h.2c.2,.6,.3,1.2,.4,1.9h-.2Zm-1-3.8c-.2-.6-.5-1.2-.8-1.8h.2c.3,.5,.6,1.1,.8,1.7h-.2Zm-1.8-3.5c-.4-.6-.7-1.1-1.1-1.6l.2-.2c.4,.5,.8,1.1,1.2,1.6h-.2Zm-2.4-3l-1.4-1.5,.2-.2,1.4,1.5-.2,.2Zm-2.7-2.9l-1.4-1.5,.2-.2,1.4,1.5-.2,.2Zm-2.8-2.9l-1.4-1.5,.2-.2,1.4,1.5-.2,.2Zm-2.7-2.9l-1.4-1.5,.2-.2,1.4,1.5-.2,.2Zm-2.7-2.9l-1.4-1.5,.2-.2,1.4,1.5-.2,.2Zm-2.8-2.9l-1.4-1.5,.2-.2,1.4,1.5-.2,.2Zm-2.7-2.9l-1.4-1.5,.2-.2,1.4,1.5-.2,.2Zm-2.7-2.9l-1.4-1.5,.2-.2,1.4,1.5-.2,.2Zm-2.8-2.9l-1.4-1.5,.2-.2,1.4,1.5-.2,.2Zm-2.7-2.9l-1.4-1.5,.2-.2,1.4,1.5-.2,.2Zm-2.8-2.9l-1.4-1.5,.2-.2,1.4,1.5-.2,.2Zm-2.7-2.9l-1.4-1.5,.2-.2,1.4,1.5-.2,.2Zm-2.7-2.9l-1.4-1.5,.2-.2,1.4,1.5-.2,.2Zm-2.8-2.9l-1.4-1.5,.2-.2,1.4,1.5-.2,.2Zm-2.7-2.9l-1.4-1.5,.2-.2,1.4,1.5-.2,.2Zm-2.7-2.9l-1.4-1.5,.2-.2,1.4,1.5-.2,.2Zm-2.8-2.9l-1.4-1.5,.2-.2,1.4,1.5-.2,.2Zm-2.7-2.9l-1.4-1.5,.2-.2,1.4,1.5-.2,.2Zm-2.8-2.9l-1.4-1.5,.2-.2,1.4,1.5-.2,.2Zm-2.7-2.9l-1.4-1.5,.2-.2,1.4,1.5-.2,.2Zm-2.7-2.9l-1.4-1.5,.2-.2,1.4,1.5-.2,.2Z" style="fill: #dfdc00;"/>
  <path d="M1167.7,976.4l-1.4-1.4,.2-.2,1.4,1.4-.2,.2Zm-2.8-2.9l-1.4-1.4,.2-.2,1.4,1.4-.2,.2Zm-2.8-2.9l-1.4-1.4,.2-.2,1.4,1.4-.2,.2Zm-2.8-2.9l-1.4-1.4,.2-.2,1.4,1.4-.2,.2Zm-2.8-2.9l-1.4-1.4,.2-.2,1.4,1.4-.2,.2Zm-2.8-2.9l-1.4-1.4,.2-.2,1.4,1.4-.2,.2Zm-2.8-2.9l-1.4-1.4,.2-.2,1.4,1.4-.2,.2Zm-2.8-2.9l-1.4-1.4,.2-.2,1.4,1.4-.2,.2Zm-2.8-2.9l-1.4-1.4,.2-.2,1.4,1.4-.2,.2Zm-2.8-2.9l-1.4-1.4,.2-.2,1.4,1.4-.2,.2Zm-2.8-2.9l-1.4-1.4,.2-.2,1.4,1.4-.2,.2Zm-2.8-2.9l-1.4-1.4,.2-.2,1.4,1.4-.2,.2Zm-2.8-2.9l-1.4-1.4,.2-.2,1.4,1.4-.2,.2Zm-2.8-2.9l-1.4-1.4,.2-.2,1.4,1.4-.2,.2Zm-2.8-2.9l-1.4-1.4,.2-.2,1.4,1.4-.2,.2Zm-2.8-2.9l-1.4-1.4,.2-.2,1.4,1.4-.2,.2Zm-2.8-2.9l-1.4-1.4,.2-.2,1.4,1.4-.2,.2Zm-2.8-2.9l-1.4-1.4,.2-.2,1.4,1.4-.2,.2Zm-2.8-2.9l-1.4-1.4,.2-.2,1.4,1.4-.2,.2Zm-2.8-2.9l-1.4-1.4,.2-.2,1.4,1.4-.2,.2Zm-2.8-2.9l-1.4-1.4,.2-.2,1.4,1.4-.2,.2Zm-2.8-2.9l-1.4-1.4,.2-.2,1.4,1.4-.2,.2Zm-2.8-2.9l-1.4-1.4,.2-.2,1.4,1.4-.2,.2Zm-2.8-2.9l-1.4-1.4,.2-.2,1.4,1.4-.2,.2Zm-2.8-2.9l-1.4-1.4,.2-.2,1.4,1.4-.2,.2Zm-2.8-2.9l-1.4-1.4,.2-.2,1.4,1.4-.2,.2Zm-2.8-2.9l-1.4-1.4,.2-.2,1.4,1.4-.2,.2Zm-2.8-2.9l-1.4-1.4,.2-.2,1.4,1.4-.2,.2Zm-2.8-2.9l-1.4-1.4,.2-.2,1.4,1.4-.2,.2Z" style="fill: #dfdc00;"/>
  <path d="M1231,984.1l-.3-.3,.2-.2,.3,.3-.2,.2Zm-1.8-1.7l-1.4-1.4,.2-.2,1.4,1.4-.2,.2Zm-2.9-2.8l-1.4-1.4,.2-.2,1.4,1.4-.2,.2Zm-2.9-2.8l-1.4-1.4,.2-.2,1.4,1.4-.2,.2Zm-2.8-2.8l-1.4-1.4,.2-.2,1.4,1.4-.2,.2Zm-2.8-2.8l-1.4-1.4,.2-.2,1.4,1.4-.2,.2Zm-2.8-2.8l-1.4-1.4,.2-.2,1.4,1.4-.2,.2Zm-2.8-2.8l-1.4-1.4,.2-.2,1.4,1.4-.2,.2Zm-2.8-2.8l-1.4-1.4,.2-.2,1.4,1.4-.2,.2Zm-2.8-2.8l-1.4-1.4,.2-.2,1.4,1.4-.2,.2Zm-2.8-2.8l-1.4-1.4,.2-.2,1.4,1.4-.2,.2Zm-2.8-2.8l-1.4-1.4,.2-.2,1.4,1.4-.2,.2Zm-2.8-2.8l-1.4-1.4,.2-.2,1.4,1.4-.2,.2Zm-2.8-2.8l-1.4-1.4,.2-.2,1.4,1.4-.2,.2Zm-2.8-2.8l-1.4-1.4,.2-.2,1.4,1.4-.2,.2Zm-2.8-2.8l-1.4-1.4,.2-.2,1.4,1.4-.2,.2Zm-2.8-2.8l-1.4-1.4,.2-.2,1.4,1.4-.2,.2Zm-2.8-2.8l-1.4-1.4,.2-.2,1.4,1.4-.2,.2Zm-2.8-2.8l-1.4-1.4,.2-.2,1.4,1.4-.2,.2Zm-2.8-2.8l-1.4-1.4,.2-.2,1.4,1.4-.2,.2Zm-2.8-2.8l-1.4-1.4,.2-.2,1.4,1.4-.2,.2Zm-2.8-2.8l-1.4-1.4,.2-.2,1.4,1.4-.2,.2Zm-2.8-2.8l-1.4-1.4,.2-.2,.2,.2,1.2,1.2-.2,.2Zm-2.8-2.9l-1.4-1.5,.2-.2,1.4,1.5-.2,.2Zm-2.7-2.9l-1.4-1.5,.2-.2,1.4,1.5-.2,.2Zm-2.7-2.9l-1.4-1.5,.2-.2,1.4,1.5-.2,.2Zm-2.7-2.9l-1.4-1.5,.2-.2,1.4,1.5-.2,.2Zm-2.7-2.9l-1.4-1.5,.2-.2,1.4,1.5-.2,.2Zm-2.7-2.9l-1.4-1.5,.2-.2,1.4,1.5-.2,.2Zm-2.7-2.9l-1.4-1.5,.2-.2,1.4,1.5-.2,.2Zm-2.7-2.9l-1.4-1.5,.2-.2,1.4,1.5-.2,.2Zm-2.7-2.9l-1.4-1.5,.2-.2,1.4,1.5-.2,.2Zm-2.7-2.9l-1.4-1.5,.2-.2,1.4,1.5-.2,.2Zm-2.7-2.9l-1.4-1.5,.2-.2,1.4,1.5-.2,.2Zm-2.7-2.9l-1.4-1.5,.2-.2,1.4,1.5-.2,.2Zm-2.7-2.9l-1.4-1.5,.2-.2,1.4,1.5-.2,.2Zm-2.7-2.9l-1.4-1.5,.2-.2,1.4,1.5-.2,.2Zm-2.7-2.9l-1.4-1.5,.2-.2,1.4,1.5-.2,.2Zm-2.7-2.9l-1.4-1.5,.2-.2,1.4,1.5-.2,.2Zm-2.7-2.9l-1.4-1.5,.2-.2,1.4,1.5-.2,.2Zm-2.7-2.9l-1.4-1.5,.2-.2,1.4,1.5-.2,.2Zm-2.7-2.9l-1.4-1.5,.2-.2,1.4,1.5-.2,.2Z" style="fill: #dfdc00;"/>
  <path d="M1106.1,907.4l-.2-.2,1.4-1.4,.2,.2-1.4,1.4Zm2.8-2.8l-.2-.2,1.4-1.4,.2,.2-1.4,1.4Zm2.8-2.8l-.2-.2,1.4-1.4,.2,.2-1.4,1.4Zm2.8-2.8l-.2-.2,1.4-1.4,.2,.2-1.4,1.4Zm2.8-2.8l-.2-.2,1.4-1.4,.2,.2-1.4,1.4Zm2.8-2.8l-.2-.2,1.4-1.4,.2,.2-1.4,1.4Zm2.8-2.8l-.2-.2,1.4-1.4,.2,.2-1.4,1.4Zm2.8-2.8l-.2-.2,1.4-1.4,.2,.2-1.4,1.4Zm2.8-2.8l-.2-.2,1.4-1.4,.2,.2-1.4,1.4Z" style="fill: #dfdc00;"/>
  <path d="M1124.8,924.6l-.2-.2,1.4-1.4,.2,.2-1.4,1.4Zm2.8-2.9l-.2-.2,1.4-1.4,.2,.2-1.4,1.4Zm2.8-2.9l-.2-.2,1.4-1.4,.2,.2-1.4,1.4Zm2.8-2.9l-.2-.2,1.4-1.4,.2,.2-1.4,1.4Zm2.8-2.9l-.2-.2,1.4-1.4,.2,.2-1.4,1.4Zm2.8-2.9l-.2-.2,1.4-1.4,.2,.2-1.4,1.4Zm2.8-2.9l-.2-.2,1.4-1.4,.2,.2-1.4,1.4Zm2.8-2.9l-.2-.2,1.4-1.4,.2,.2-1.4,1.4Z" style="fill: #dfdc00;"/>
  <path d="M1141,942.4l-.2-.2,1.4-1.4,.2,.2-1.4,1.4Zm2.9-2.8l-.2-.2,1.4-1.4,.2,.2-1.4,1.4Zm2.9-2.8l-.2-.2,1.4-1.4,.2,.2-1.4,1.4Zm2.9-2.8l-.2-.2,1.4-1.4,.2,.2-1.4,1.4Zm2.9-2.8l-.2-.2,1.4-1.4,.2,.2-1.4,1.4Zm2.9-2.8l-.2-.2,1.4-1.4,.2,.2-1.4,1.4Zm2.9-2.8l-.2-.2,1.4-1.4,.2,.2-1.4,1.4Zm2.9-2.8l-.2-.2,1.4-1.4,.2,.2-1.4,1.4Z" style="fill: #dfdc00;"/>
  <path d="M1159,960.6l-.2-.2,1.4-1.4,.2,.2-1.4,1.4Zm2.9-2.8l-.2-.2,1.4-1.4,.2,.2-1.4,1.4Zm2.9-2.8l-.2-.2,1.4-1.4,.2,.2-1.4,1.4Zm2.9-2.8l-.2-.2,1.4-1.4,.2,.2-1.4,1.4Zm2.9-2.8l-.2-.2,1.4-1.4,.2,.2-1.4,1.4Zm2.9-2.8l-.2-.2,1.4-1.4,.2,.2-1.4,1.4Zm2.9-2.8l-.2-.2,1.4-1.4,.2,.2-1.4,1.4Zm2.9-2.8l-.2-.2,1.4-1.4,.2,.2-1.4,1.4Z" style="fill: #dfdc00;"/>
  <path d="M1142.8,1005.5l-.2-.2,1.5-1.4,.2,.2-1.5,1.4Zm2.9-2.8l-.2-.2,1.5-1.4,.2,.2-1.5,1.4Zm2.9-2.7l-.2-.2,1.5-1.4,.2,.2-1.5,1.4Zm2.9-2.8l-.2-.2,1.5-1.4,.2,.2-1.5,1.4Zm2.9-2.8l-.2-.2,1.5-1.4,.2,.2-1.5,1.4Zm2.9-2.7l-.2-.2,1.5-1.4,.2,.2-1.5,1.4Zm2.9-2.8l-.2-.2,1.5-1.4,.2,.2-1.5,1.4Zm2.9-2.7l-.2-.2,1.5-1.4,.2,.2-1.5,1.4Zm2.9-2.8l-.2-.2,1.5-1.4,.2,.2-1.5,1.4Zm2.9-2.8l-.2-.2,1.5-1.4,.2,.2-1.5,1.4Zm2.9-2.7l-.2-.2,1.5-1.4,.2,.2-1.5,1.4Zm2.9-2.8l-.2-.2,1.5-1.4,.2,.2-1.5,1.4Zm2.9-2.8l-.2-.2,1.5-1.4,.2,.2-1.5,1.4Zm2.9-2.7l-.2-.2,1.5-1.4,.2,.2-1.5,1.4Zm2.9-2.8l-.2-.2,1.5-1.4,.2,.2-1.5,1.4Zm2.9-2.8l-.2-.2,1.5-1.4,.2,.2-1.5,1.4Zm2.9-2.7l-.2-.2,1.5-1.4,.2,.2-1.5,1.4Zm2.9-2.8l-.2-.2,1.5-1.4,.2,.2-1.5,1.4Zm2.9-2.7l-.2-.2,1.5-1.4,.2,.2-1.5,1.4Z" style="fill: #dfdc00;"/>
  <path d="M1203.1,950l-.2-.2,1.5-1.4,.2,.2-1.5,1.4Zm2.9-2.8l-.2-.2,1.5-1.4,.2,.2-1.5,1.4Zm2.9-2.8l-.2-.2,1.5-1.4,.2,.2-1.5,1.4Zm2.9-2.8l-.2-.2,1.5-1.4,.2,.2-1.5,1.4Zm2.9-2.8l-.2-.2,1.5-1.4,.2,.2-1.5,1.4Zm2.9-2.8l-.2-.2,1.4-1.4,.2,.2-1.4,1.4Zm2.9-2.8l-.2-.2,1.5-1.4,.2,.2-1.5,1.4Zm2.9-2.8l-.2-.2,1.5-1.4,.2,.2-1.5,1.4Zm2.9-2.8l-.2-.2,1.5-1.4,.2,.2-1.5,1.4Zm2.9-2.8l-.2-.2,1.5-1.4,.2,.2-1.5,1.4Zm2.9-2.8l-.2-.2,1.5-1.4,.2,.2-1.5,1.4Zm2.9-2.8l-.2-.2,1.5-1.4,.2,.2-1.5,1.4Zm2.9-2.8l-.2-.2,1.5-1.4,.2,.2-1.5,1.4Zm2.9-2.8l-.2-.2,1.5-1.4,.2,.2-1.5,1.4Z" style="fill: #dfdc00;"/>
  <path d="M1205.5,922.3l-.3-.3,.2-.2,.3,.3-.2,.2Zm-1.7-1.8l-1.4-1.4,.2-.2,1.4,1.4-.2,.2Zm-2.8-2.9l-1.4-1.5,.2-.2,1.4,1.5-.2,.2Zm-2.8-2.9l-1.4-1.4,.2-.2,1.4,1.4-.2,.2Zm-2.8-2.9l-1.4-1.5,.2-.2,1.4,1.5-.2,.2Zm-2.8-2.9l-1.4-1.4,.2-.2,1.4,1.4-.2,.2Zm-2.8-2.9l-1.4-1.5,.2-.2,1.4,1.5-.2,.2Zm-2.8-2.9l-1.4-1.4,.2-.2,1.4,1.4-.2,.2Zm-2.8-2.9l-1.4-1.5,.2-.2,1.4,1.5-.2,.2Zm-2.8-2.9l-1.4-1.4,.2-.2,1.4,1.4-.2,.2Z" style="fill: #dfdc00;"/>
  <path d="M1168.9,915l-.2-.2,1.4-1.4,.2,.2-1.4,1.4Zm2.9-2.8l-.2-.2,1.4-1.4,.2,.2-1.4,1.4Zm2.9-2.8l-.2-.2,1.4-1.4,.2,.2-1.4,1.4Zm2.9-2.8l-.2-.2,1.4-1.4,.2,.2-1.4,1.4Zm2.9-2.8l-.2-.2,1.4-1.4,.2,.2-1.4,1.4Z" style="fill: #dfdc00;"/>
  <path d="M1152.4,897.1l-.2-.2,1.4-1.4,.2,.2-1.4,1.4Zm2.9-2.8l-.2-.2,1.4-1.4,.2,.2-1.4,1.4Zm2.9-2.8l-.2-.2,1.4-1.4,.2,.2-1.4,1.4Zm2.9-2.8l-.2-.2,1.4-1.4,.2,.2-1.4,1.4Zm2.9-2.8l-.2-.2,1.4-1.4,.2,.2-1.4,1.4Zm2.9-2.8l-.2-.2,1.4-1.4,.2,.2-1.4,1.4Zm2.9-2.8l-.2-.2,1.4-1.4,.2,.2-1.4,1.4Zm2.9-2.8l-.2-.2,1.4-1.4,.2,.2-1.4,1.4Zm2.9-2.8l-.2-.2,1.4-1.4,.2,.2-1.4,1.4Zm2.9-2.8l-.2-.2,1.4-1.4,.2,.2-1.4,1.4Zm2.9-2.8l-.2-.2,1.4-1.4,.2,.2-1.4,1.4Zm2.9-2.8l-.2-.2,1.4-1.4,.2,.2-1.4,1.4Zm2.9-2.8l-.2-.2,.5-.5,.2,.2-.5,.5Z" style="fill: #dfdc00;"/>
  <path d="M1149.8,1055.4c-.6,0-1.1,0-1.6,0v-.2c.5,0,1.1,0,1.6,0,.1,0,.2,0,.4,0v.2c-.1,0-.2,0-.4,0Zm2.4-.2v-.2c.6,0,1.2-.2,1.9-.3v.2c-.6,.1-1.3,.2-1.9,.3Zm-5.9-.6c-.5-.3-1.1-.6-1.7-1.1v-.2c.8,.4,1.3,.8,1.8,1v.2Zm9.8-.2v-.2c.8-.2,1.5-.4,1.9-.5v.2c-.3,.1-1,.3-1.9,.5Zm3.8-1.2v-.2c.5-.2,1.1-.5,1.7-.8v.2c-.5,.3-1.1,.6-1.7,.8Zm-17.1-.9c-.5-.4-1-.8-1.6-1.2l.2-.2c.6,.5,1.1,.9,1.6,1.2l-.2,.2Zm20.7-.9v-.2c.4-.4,1-.7,1.5-1.1l.2,.2c-.5,.4-1.1,.8-1.7,1.1Zm-23.8-1.6c-.5-.4-1-.9-1.5-1.3l.2-.2c.5,.4,1,.9,1.5,1.3l-.2,.2Zm27-.8l-.2-.2h.2c.5-.6,.9-1,1.2-1.5h.2c-.3,.6-.7,1-1.2,1.5h-.2Zm-30.1-1.6c-.5-.4-1-.9-1.5-1.3l.2-.2c.5,.4,1,.9,1.5,1.3l-.2,.2Zm32.2-1.6h-.2c0,0,0-.1,0-.2,0-.8-.5-1.3-.7-1.5l.2-.2c.3,.3,.8,.8,.8,1.7s0,.1,0,.2Zm-35.2-1.1c-.5-.5-1-.9-1.5-1.4l.2-.2c.5,.4,1,.9,1.5,1.4l-.2,.2Zm33-2.2l-1.1-1.7h.2c0-.1,1.1,1.5,1.1,1.5h-.2Zm-35.9-.4c-.4-.4-.8-.7-1.1-1l-.4-.4,.2-.2,.4,.4c.3,.3,.7,.6,1.1,1l-.2,.2Zm33.7-2.8l-1.1-1.7h.2c0-.1,1.1,1.5,1.1,1.5h-.2Zm-2.3-3.2l-1.1-1.7h.2c0-.1,1.1,1.5,1.1,1.5h-.2Zm-2.3-3.2l-1.1-1.7h.2c0-.1,1.1,1.5,1.1,1.5h-.2Zm-2.3-3.2l-1.1-1.7h.2c0-.1,1.1,1.5,1.1,1.5h-.2Zm-2.3-3.2l-1.1-1.7h.2c0-.1,1.1,1.5,1.1,1.5h-.2Zm-2.3-3.2l-1.1-1.7h.2c0-.1,1.1,1.5,1.1,1.5h-.2Zm-2.3-3.2l-1.1-1.7h.2c0-.1,1.1,1.5,1.1,1.5h-.2Zm-2.3-3.2l-1.1-1.7h.2c0-.1,1.1,1.5,1.1,1.5h-.2Zm-2.3-3.2l-1.1-1.7h.2c0-.1,1.1,1.5,1.1,1.5h-.2Zm-2.3-3.2l-1.1-1.7h.2c0-.1,1.1,1.5,1.1,1.5h-.2Zm-2.3-3.2l-1.1-1.7h.2c0-.1,1.1,1.5,1.1,1.5h-.2Zm-2.3-3.2l-1.1-1.7h.2c0-.1,1.1,1.5,1.1,1.5h-.2Z" style="fill: #dfdc00;"/>
  <path d="M1157.9,1022.5l-.2-.2,1.6-1.3,.2,.2-1.6,1.3Zm3.1-2.5l-.2-.2,1.6-1.3,.2,.2-1.6,1.3Zm3.1-2.5l-.2-.2,1.6-1.3,.2,.2-1.6,1.3Zm3.1-2.5l-.2-.2,1.6-1.3,.2,.2-1.6,1.3Zm3.1-2.5l-.2-.2,1.6-1.3,.2,.2-1.6,1.3Zm3.1-2.5l-.2-.2,1.6-1.3,.2,.2-1.6,1.3Zm3.1-2.5l-.2-.2,1.6-1.3,.2,.2-1.6,1.3Zm3.1-2.5l-.2-.2,1.6-1.3,.2,.2-1.6,1.3Zm3.1-2.5l-.2-.2,1.6-1.3,.2,.2-1.6,1.3Zm3.1-2.5l-.2-.2,1.6-1.3,.2,.2-1.6,1.3Zm3-2.7l-.2-.2,1.4-1.4,.2,.2-1.4,1.4Zm2.8-2.9l-.2-.2,1.4-1.4,.2,.2-1.4,1.4Zm2.8-2.9l-.2-.2,1.4-1.4,.2,.2-1.4,1.4Zm2.8-2.9l-.2-.2,1.4-1.4,.2,.2-1.4,1.4Zm2.8-2.9l-.2-.2,1.4-1.4,.2,.2-1.4,1.4Zm2.8-2.9l-.2-.2,1.4-1.4,.2,.2-1.4,1.4Zm2.8-2.9l-.2-.2,1.4-1.4,.2,.2-1.4,1.4Zm2.8-2.9l-.2-.2,1.4-1.4,.2,.2-1.4,1.4Zm2.8-2.9l-.2-.2,1.4-1.4,.2,.2-1.4,1.4Zm2.8-2.9l-.2-.2h.1c0-.1,.2,0,.2,0h-.1Z" style="fill: #dfdc00;"/>
  <path d="M1218.3,966.6l-.2-.2,1.5-1.4,.2,.2-1.5,1.4Zm2.9-2.7l-.2-.2,1.5-1.4,.2,.2-1.5,1.4Zm2.9-2.7l-.2-.2,1.5-1.4,.2,.2-1.5,1.4Zm2.9-2.7l-.2-.2,1.5-1.4,.2,.2-1.5,1.4Zm2.9-2.7l-.2-.2,1.5-1.4,.2,.2-1.5,1.4Zm2.9-2.7l-.2-.2,1.5-1.4,.2,.2-1.5,1.4Zm2.9-2.7l-.2-.2,1.5-1.4,.2,.2-1.5,1.4Zm2.9-2.7l-.2-.2,1.5-1.4,.2,.2-1.5,1.4Zm2.9-2.7l-.2-.2,1.5-1.4,.2,.2-1.5,1.4Zm2.9-2.7l-.2-.2,1.5-1.4,.2,.2-1.5,1.4Zm2.9-2.7l-.2-.2,1.5-1.4,.2,.2-1.5,1.4Zm2.9-2.7l-.2-.2,1.5-1.4,.2,.2-1.5,1.4Zm2.9-2.7l-.2-.2,1.5-1.4,.2,.2-1.5,1.4Z" style="fill: #dfdc00;"/>
  <path d="M1267.7,1210.2l-1.6-1.2,.2-.2,1.6,1.2-.2,.2Zm-3.1-2.5l-1.6-1.2,.2-.2,1.6,1.2-.2,.2Zm-3.1-2.5l-1.6-1.2,.2-.2,1.6,1.2-.2,.2Zm-3.1-2.5l-1.6-1.2,.2-.2,1.6,1.2-.2,.2Zm-3.1-2.5l-1.6-1.2,.2-.2,1.6,1.2-.2,.2Zm-3.1-2.5l-1.6-1.2,.2-.2,1.6,1.2-.2,.2Zm-3.1-2.5l-1.6-1.2,.2-.2,1.6,1.2-.2,.2Zm-3.1-2.5l-1.6-1.2,.2-.2,1.6,1.2-.2,.2Zm-3.1-2.5l-1.6-1.2,.2-.2,1.6,1.2-.2,.2Zm-3.1-2.5l-1.6-1.2,.2-.2,1.6,1.2-.2,.2Zm-3.1-2.5l-1.6-1.2,.2-.2,1.6,1.2-.2,.2Zm-3.1-2.5l-1.6-1.2,.2-.2,1.6,1.2-.2,.2Zm-3.1-2.5l-1.6-1.2,.2-.2,1.6,1.2-.2,.2Zm-3.1-2.5l-1.6-1.2,.2-.2,1.6,1.2-.2,.2Zm-3.1-2.5l-1.6-1.2,.2-.2,1.6,1.2-.2,.2Zm-3.1-2.5l-1.6-1.2,.2-.2,1.6,1.2-.2,.2Zm-3.1-2.5l-1.6-1.2,.2-.2,1.6,1.2-.2,.2Zm-3.1-2.5l-1.6-1.2,.2-.2,1.6,1.2-.2,.2Zm-3.1-2.5l-1.6-1.2,.2-.2,1.6,1.2-.2,.2Zm-3.1-2.5l-1.3-1.1,.2-.2,1.3,1.1-.2,.2Z" style="fill: #dfdc00;"/>
  <path d="M981.5,1199.6l-1.1-1.7h.2c0-.1,1.1,1.5,1.1,1.5h-.2Zm-2.2-3.2l-1.1-1.7h.2c0-.1,1.1,1.5,1.1,1.5h-.2Zm-2.2-3.2l-1.1-1.7h.2c0-.1,1.1,1.5,1.1,1.5h-.2Zm-2.2-3.2l-1.1-1.7h.2c0-.1,1.1,1.5,1.1,1.5h-.2Zm-2.2-3.2l-1.1-1.7h.2c0-.1,1.1,1.5,1.1,1.5h-.2Zm-2.2-3.2l-1.1-1.7h.2c0-.1,1.1,1.5,1.1,1.5h-.2Zm-2.1-3.3c-.3-.6-.5-1.2-.7-1.9h.2c.2,.5,.4,1.2,.7,1.8h-.2Zm-1.2-3.7c-.1-.7-.2-1.3-.2-2h.2c0,.6,0,1.3,.2,2h-.2Zm.1-4h-.2c0-.7,.2-1.4,.3-2h.2c-.2,.7-.3,1.4-.3,2Zm.9-3.8h-.2c.2-.7,.5-1.3,.9-1.9h.2c-.3,.7-.6,1.3-.9,1.9Zm2-3.4l-.2-.2c0,0,.1-.2,.2-.3l.2-.2c.2-.3,.6-.7,.9-1.1l.2,.2c-.4,.4-.7,.8-.9,1.1l-.2,.2c0,0-.1,.2-.2,.3Zm2.6-3.1l-.2-.2,1.3-1.5,.2,.2-1.3,1.5Zm2.6-3l-.2-.2,1.3-1.5,.2,.2-1.3,1.5Zm2.6-3l-.2-.2,1.3-1.5,.2,.2-1.3,1.5Zm2.6-3l-.2-.2,1.3-1.5,.2,.2-1.3,1.5Zm2.6-3l-.2-.2,1.3-1.5,.2,.2-1.3,1.5Zm2.6-3l-.2-.2,1.3-1.5,.2,.2-1.3,1.5Zm2.6-3l-.2-.2,1.3-1.5,.2,.2-1.3,1.5Zm2.6-3l-.2-.2,1.3-1.5,.2,.2-1.3,1.5Zm2.6-3l-.2-.2,1.3-1.5,.2,.2-1.3,1.5Zm2.6-3l-.2-.2,1.3-1.5,.2,.2-1.3,1.5Zm2.6-3l-.2-.2,1.3-1.5,.2,.2-1.3,1.5Zm2.6-3l-.2-.2,1.3-1.5,.2,.2-1.3,1.5Zm2.6-3l-.2-.2,1.3-1.5,.2,.2-1.3,1.5Zm2.7-3l-.2-.2,1.3-1.5,.2,.2-1.3,1.5Zm2.7-3l-.2-.2,1.3-1.5,.2,.2-1.3,1.5Zm2.7-3l-.2-.2,.8-.9,.5-.6,.2,.2-.5,.7-.8,.9Zm2.6-3.1l-.2-.2,1.3-1.5,.2,.2-1.3,1.5Zm2.5-3.1l-.2-.2,1.3-1.5,.2,.2-1.3,1.5Zm2.5-3.1l-.2-.2,1.3-1.5,.2,.2-1.3,1.5Zm2.5-3.1l-.2-.2,.8-1,.2,.2-.8,1Z" style="fill: #dfdc00;"/>
  <path d="M988.4,1138.8l-1.4-1.4,.2-.2,1.4,1.4-.2,.2Zm-2.9-2.8l-1.4-1.4,.2-.2,1.4,1.4-.2,.2Zm-2.9-2.8l-1.4-1.4,.2-.2,1.4,1.4-.2,.2Zm-2.9-2.8l-1.4-1.4,.2-.2,1.4,1.4-.2,.2Zm-2.9-2.8l-1.4-1.4,.2-.2,1.4,1.4-.2,.2Zm-2.9-2.8l-1.4-1.4,.2-.2,1.4,1.4-.2,.2Zm-2.9-2.8l-1.4-1.4,.2-.2,1.4,1.4-.2,.2Zm-2.9-2.8l-1.4-1.4,.2-.2,1.4,1.4-.2,.2Zm-2.9-2.8l-1.4-1.4,.2-.2,1.4,1.4-.2,.2Zm-2.9-2.8l-1.4-1.4,.2-.2,1.4,1.4-.2,.2Zm-2.9-2.8l-1.4-1.4,.2-.2,1.4,1.4-.2,.2Zm-1.7-2.9l-.2-.2,1.3-1.5,.2,.2-1.3,1.5Zm2.5-3.1l-.2-.2,1.3-1.5,.2,.2-1.3,1.5Zm2.6-3.1l-.2-.2,1.3-1.5,.2,.2-1.3,1.5Zm2.6-3.1l-.2-.2,1.3-1.5,.2,.2-1.3,1.5Zm2.5-3.1l-.2-.2,1.3-1.5,.2,.2-1.3,1.5Zm2.5-3.1l-.2-.2,1.3-1.5,.2,.2-1.3,1.5Zm2.5-3.1l-.2-.2,1.3-1.5,.2,.2-1.3,1.5Zm2.5-3.1l-.2-.2,1-1.2,.2,.2-1,1.2Z" style="fill: #dfdc00;"/>
  <path d="M1012.2,1112.1l-1.5-1.3,.2-.2,1.5,1.3-.2,.2Zm-3-2.6l-1.5-1.3,.2-.2,1.5,1.3-.2,.2Zm-3-2.6l-1.5-1.3,.2-.2,1.5,1.3-.2,.2Zm-3-2.6l-1.5-1.3,.2-.2,1.5,1.3-.2,.2Zm-3-2.6l-1.5-1.3,.2-.2,1.5,1.3-.2,.2Zm-3-2.6l-1.5-1.3,.2-.2,1.5,1.3-.2,.2Zm-3-2.6l-1.5-1.3,.2-.2,1.5,1.3-.2,.2Zm-3-2.6l-1.5-1.3,.2-.2,1.5,1.3-.2,.2Zm-3-2.6l-1.5-1.3,.2-.2,1.5,1.3-.2,.2Zm-3-2.6l-1.5-1.3,.2-.2,1.5,1.3-.2,.2Zm-3-2.6l-1.5-1.3,.2-.2,1.5,1.3-.2,.2Zm-3-2.6l-1.5-1.3,.2-.2,1.5,1.3-.2,.2Zm-3-2.6l-1.5-1.3,.2-.2,1.5,1.3-.2,.2Zm-3-2.6l-1.5-1.3,.2-.2,1.5,1.3-.2,.2Zm-3-2.6l-1.5-1.3,.2-.2,1.5,1.3-.2,.2Zm-3-2.6l-1.5-1.3,.2-.2,1.5,1.3-.2,.2Zm-3-2.6l-1.5-1.3,.2-.2,1.5,1.3-.2,.2Zm-3-2.6l-1.5-1.3,.2-.2,1.5,1.3-.2,.2Zm-3-2.6l-1.5-1.3,.2-.2,1.5,1.3-.2,.2Zm-3-2.6l-1.5-1.3,.2-.2,1.5,1.3-.2,.2Zm-3-2.6l-1.5-1.3,.2-.2,1.5,1.3-.2,.2Zm-3-2.6l-1.5-1.3,.2-.2,1.5,1.3-.2,.2Zm-3-2.6l-.2-.2,.2-.2,.2,.2-.2,.2Z" style="fill: #dfdc00;"/>
  <path d="M987.2,1085.4l-.2-.2,1.4-1.4,.2,.2-1.4,1.4Zm2.9-2.8l-.2-.2,1.4-1.4,.2,.2-1.4,1.4Zm2.9-2.8l-.2-.2,1.4-1.4,.2,.2-1.4,1.4Z" style="fill: #dfdc00;"/>
  <path d="M893.8,1208.8l-.2-.2,1.2-1.6,.2,.2-1.2,1.6Zm2.4-3.2l-.2-.2,1.2-1.6,.2,.2-1.2,1.6Zm2.4-3.2l-.2-.2,1.2-1.6,.2,.2-1.2,1.6Zm2.4-3.2l-.2-.2,1.2-1.6,.2,.2-1.2,1.6Zm2.4-3.2l-.2-.2,1.2-1.6,.2,.2-1.2,1.6Zm2.4-3.2l-.2-.2,1.2-1.6,.2,.2-1.2,1.6Zm2.4-3.2l-.2-.2,1.2-1.6,.2,.2-1.2,1.6Zm2.4-3.2l-.2-.2,1.2-1.6,.2,.2-1.2,1.6Zm2.4-3.2l-.2-.2,1.2-1.6,.2,.2-1.2,1.6Zm2.4-3.2l-.2-.2,1.2-1.6,.2,.2-1.2,1.6Zm2.4-3.2l-.2-.2,1.2-1.6,.2,.2-1.2,1.6Zm2.2-3.3h-.2c.2-.7,.4-1.3,.6-2h.2c-.2,.7-.3,1.4-.6,2Zm.9-3.9h-.2c0-.4,0-.8,0-1.1,0-.3,0-.6,0-.9h.2c0,.3,0,.6,0,.9,0,.4,0,.8,0,1.1Zm-.5-4c-.1-.6-.3-1.3-.5-1.9h.2c.2,.6,.4,1.2,.5,1.9h-.2Zm-1.3-3.7c-.3-.6-.6-1.1-1-1.7h.2c.4,.4,.7,1,1,1.6h-.2Zm-2.2-3.2c-.4-.5-.9-1-1.3-1.5l.2-.2c.5,.5,.9,1,1.4,1.5l-.2,.2Zm-2.8-2.8l-1.5-1.3,.2-.2,1.5,1.3-.2,.2Zm-3-2.6l-1.5-1.3,.2-.2,1.5,1.3-.2,.2Zm-3-2.6l-1.5-1.3,.2-.2,1.5,1.3-.2,.2Zm-3-2.6l-1.5-1.3,.2-.2,1.5,1.3-.2,.2Zm-3-2.6c-.5-.4-1-.9-1.5-1.3l.2-.2c.5,.4,1,.9,1.5,1.3l-.2,.2Zm-3-2.6l-1.5-1.3,.2-.2,1.5,1.3-.2,.2Zm-3-2.6l-1.5-1.3,.2-.2,1.5,1.3-.2,.2Zm-3-2.6l-1.5-1.3,.2-.2,1.5,1.3-.2,.2Zm-3-2.6l-1.5-1.3,.2-.2,1.5,1.3-.2,.2Zm-3-2.6l-1.5-1.3,.2-.2,1.5,1.3-.2,.2Zm-3-2.6l-1.5-1.3,.2-.2,1.5,1.3-.2,.2Z" style="fill: #dfdc00;"/>
  <path d="M892.3,1202.1h-.2c0-.1,1.2-1.8,1.2-1.8h.2c0,.1-1.2,1.8-1.2,1.8Zm2.3-3.3h-.2c0-.1,1.2-1.8,1.2-1.8h.2c0,.1-1.2,1.8-1.2,1.8Zm2.3-3.3h-.2c0-.1,1.2-1.8,1.2-1.8h.2c0,.1-1.2,1.8-1.2,1.8Zm2.3-3.2h-.2c.4-.7,.8-1.2,1.2-1.8h.2c-.4,.7-.8,1.2-1.2,1.8Zm2.3-3.2h-.2c0-.1,1.2-1.8,1.2-1.8h.2c0,.1-1.2,1.8-1.2,1.8Zm2.4-3.2h-.2c.4-.7,.8-1.2,1.2-1.8h.2c-.4,.7-.8,1.2-1.2,1.8Zm2.4-3.2h-.2c.4-.7,.8-1.2,1.2-1.8h.2c-.4,.7-.8,1.2-1.2,1.8Zm2.4-3.2h-.2c.4-.7,.8-1.2,1.2-1.8h.2c-.4,.7-.8,1.2-1.2,1.8Zm2.3-3.3h-.2c.4-.7,.7-1.3,.9-1.9h.2c-.3,.7-.6,1.3-.9,1.9Zm1.6-3.7h-.2c.2-.7,.3-1.4,.4-2h.2c0,.7-.2,1.4-.4,2Zm.2-4c0-.7-.1-1.3-.3-2h.2c.1,.6,.2,1.3,.3,1.9h-.2Zm-.9-3.8c-.2-.6-.5-1.2-.9-1.8h.2c.3,.5,.6,1.1,.9,1.7h-.2Zm-1.9-3.4c-.4-.5-.8-1-1.2-1.5l.2-.2c.5,.5,.9,1,1.3,1.6h-.2Zm-2.6-2.8c-.7-.6-1.3-1.1-1.5-1.3v-.2c.4,.2,1,.6,1.7,1.3l-.2,.2Zm-3.1-2.6l-1.5-1.3,.2-.2,1.5,1.3-.2,.2Zm-3.1-2.6l-1.5-1.3,.2-.2,1.5,1.3-.2,.2Zm-3.1-2.6l-1.5-1.3,.2-.2,1.5,1.3-.2,.2Zm-3.1-2.6l-1.5-1.3,.2-.2,1.5,1.3-.2,.2Zm-3.1-2.6l-1.5-1.3,.2-.2,1.5,1.3-.2,.2Zm-3.1-2.6l-1.5-1.3,.2-.2,1.5,1.3-.2,.2Zm-3.1-2.6l-1.5-1.3,.2-.2,1.5,1.3-.2,.2Zm-3.1-2.6l-1.5-1.3,.2-.2,1.5,1.3-.2,.2Zm-3.1-2.6l-1.5-1.3,.2-.2,1.5,1.3-.2,.2Z" style="fill: #dfdc00;"/>
  <path d="M917.3,1152.6l-.2-.2,1.2-1.6,.2,.2-1.2,1.6Zm2.4-3.2l-.2-.2,1.2-1.6,.2,.2-1.2,1.6Zm2.4-3.2l-.2-.2,1.2-1.6,.2,.2-1.2,1.6Zm2.4-3.2l-.2-.2,1.2-1.6,.2,.2-1.2,1.6Zm2.4-3.2l-.2-.2,1.2-1.6,.2,.2-1.2,1.6Zm2.4-3.2l-.2-.2,1.2-1.6,.2,.2-1.2,1.6Zm2.4-3.2l-.2-.2,1.2-1.6,.2,.2-1.2,1.6Zm2.4-3.2l-.2-.2,1.2-1.6,.2,.2-1.2,1.6Zm2.4-3.2l-.2-.2,1.2-1.6,.2,.2-1.2,1.6Zm2.4-3.2l-.2-.2,1.2-1.6,.2,.2-1.2,1.6Zm2.4-3.2l-.2-.2,1.2-1.6h0c0,0,0,0,0,0h.1c0,0-1.3,1.8-1.3,1.8Zm-.5-2.9l-1.5-1.3,.2-.2,1.5,1.3-.2,.2Zm-3-2.6l-1.5-1.3,.2-.2,1.5,1.3-.2,.2Zm-3-2.6l-1.5-1.3,.2-.2,1.5,1.3-.2,.2Zm-3-2.6l-1.5-1.3,.2-.2,1.5,1.3-.2,.2Zm-3-2.6l-1.5-1.3,.2-.2,1.5,1.3-.2,.2Zm-3-2.6l-1.5-1.3,.2-.2,1.5,1.3-.2,.2Zm-3-2.6l-1.5-1.3,.2-.2,1.5,1.3-.2,.2Zm-3-2.6l-1.5-1.3,.2-.2,1.5,1.3-.2,.2Zm-3-2.6l-1.5-1.3,.2-.2,1.5,1.3-.2,.2Zm-3-2.6l-1.1-.9,.2-.2,1.1,.9-.2,.2Z" style="fill: #dfdc00;"/>
  <path d="M882.9,1088.2l-1.5-1.3,.2-.2,1.5,1.3-.2,.2Zm-48.5-2.5l-.2-.2,1.3-1.5,.2,.2-1.3,1.5Zm45.5-.2l-1.5-1.3,.2-.2,1.5,1.3-.2,.2Zm-3-2.7l-1.5-1.3,.2-.2,1.5,1.3-.2,.2Zm-40.1-.2l-.2-.2,1.3-1.5,.2,.2-1.3,1.5Zm37.1-2.5l-1.5-1.3,.2-.2,1.5,1.3-.2,.2Zm-34.6-.6l-.2-.2,1.3-1.5,.2,.2-1.3,1.5Zm31.6-2.1l-1.5-1.3,.2-.2,1.5,1.3-.2,.2Zm-29.1-1l-.2-.2,1.3-1.5,.2,.2-1.3,1.5Zm26.1-1.7l-1.5-1.3,.2-.2,1.5,1.3-.2,.2Zm-23.6-1.4l-.2-.2,1.3-1.5,.2,.2-1.3,1.5Zm20.6-1.3l-1.5-1.3,.2-.2,1.5,1.3-.2,.2Zm-18.1-1.8l-.2-.2,1.3-1.5,.2,.2-1.3,1.5Zm15.2-.9l-1.5-1.3,.2-.2,1.5,1.3-.2,.2Zm-12.6-2.2l-.2-.2,1.3-1.5,.2,.2-1.3,1.5Zm9.7-.5l-.5-.5-1-.8,.2-.2,1,.8,.6,.5-.2,.2Zm-3.1-2.6l-1.5-1.3,.2-.2,1.5,1.3-.2,.2Zm-4.1,0l-.2-.2,1.3-1.5,.2,.2-1.3,1.5Z" style="fill: #dfdc00;"/>
  <path d="M869.4,1068.8l-.2-.2,1.3-1.5,.2,.2-1.3,1.5Zm2.6-3l-.2-.2,1.3-1.5,.2,.2-1.3,1.5Zm2.6-3l-.2-.2,1.3-1.5,.2,.2-1.3,1.5Zm2.6-3l-.2-.2,1.3-1.5,.2,.2-1.3,1.5Zm2.6-3l-.2-.2,1.3-1.5,.2,.2-1.3,1.5Zm2.6-3l-.2-.2,1.3-1.5,.2,.2-1.3,1.5Zm2.6-3l-.2-.2,1.3-1.5,.2,.2-1.3,1.5Zm2.6-3l-.2-.2,1.3-1.5,.2,.2-1.3,1.5Zm2.6-3l-.2-.2,1.3-1.5,.2,.2-1.3,1.5Zm2.6-3l-.2-.2,1.3-1.5,.2,.2-1.3,1.5Zm2.6-3l-.2-.2,1.3-1.5,.2,.2-1.3,1.5Zm2.6-3l-.2-.2,1.3-1.5,.2,.2-1.3,1.5Zm2.6-3l-.2-.2,1.3-1.5,.2,.2-1.3,1.5Zm2.6-3l-.2-.2,1.3-1.5,.2,.2-1.3,1.5Zm2.6-3l-.2-.2,1.3-1.5,.2,.2-1.3,1.5Zm2.6-3l-.2-.2,1.3-1.5,.2,.2-1.3,1.5Zm2.6-3l-.2-.2,1.3-1.5,.2,.2-1.3,1.5Zm2.6-3l-.2-.2,1.3-1.5,.2,.2-1.3,1.5Zm2.6-3l-.2-.2,1.3-1.5,.2,.2-1.3,1.5Zm2.6-3l-.2-.2,1.3-1.5,.2,.2-1.3,1.5Zm2.6-3l-.2-.2,1.3-1.5,.2,.2-1.3,1.5Zm2.6-3l-.2-.2,1.3-1.5,.2,.2-1.3,1.5Zm2.6-3l-.2-.2,1.3-1.5,.2,.2-1.3,1.5Zm2.6-3l-.2-.2,1.3-1.5,.2,.2-1.3,1.5Zm2.6-3l-.2-.2,1.3-1.5,.2,.2-1.3,1.5Zm2.6-3l-.2-.2,1.3-1.5,.2,.2-1.3,1.5Zm2.6-3l-.2-.2,1.3-1.5,.2,.2-1.3,1.5Zm2.6-3l-.2-.2,.4-.4,.9-1.1,.2,.2-.9,1.1-.4,.4Zm2.6-3.1l-.2-.2,1.3-1.5,.2,.2-1.3,1.5Zm2.6-3.1l-.2-.2,1.3-1.5,.2,.2-1.3,1.5Zm2.6-3.1l-.2-.2,1.3-1.5,.2,.2-1.3,1.5Zm34.5-3.1s0,0,0-.2c0-.2,.2-.7,.4-1.4h.2c-.2,.8-.3,1.3-.4,1.5h0c0,0-.1,0-.1,0h0s0,0,0,0Zm-32,0l-.2-.2,1.3-1.5,.2,.2-1.3,1.5Zm2.6-3.1l-.2-.2,.4-.4,1.3-.7v.2c.1,0-1.1,.7-1.1,.7l-.3,.4Zm30.5-.4h-.2c.1-.7,.3-1.3,.4-2h.2c-.2,.8-.3,1.4-.4,2Zm-27.1-1.7v-.2c-.1,0,1.6-1,1.6-1v.2c.1,0-1.6,1-1.6,1Zm3.5-1.9v-.2c-.1,0,1.6-1,1.6-1v.2c.1,0-1.6,1-1.6,1Zm24.4-.3h-.2c.1-.7,.2-1.3,.4-2h.2c-.1,.7-.2,1.4-.4,2Zm-20.9-1.6v-.2c-.1,0,1.6-1,1.6-1v.2c.1,0-1.6,1-1.6,1Zm3.5-1.9v-.2c-.1,0,1.6-.9,1.6-.9v.2c.1,0-1.6,.9-1.6,.9Zm18.1-.5h-.2c0-.7,.2-1.4,.3-2h.2c0,.7-.2,1.3-.3,2Zm-14.6-1.4v-.2c-.1,0,0,0,0,0l1.1-1.4,.2,.2-1.1,1.4h-.2Zm15-2.5h-.2c0-.7,0-1.4,.1-2h.2c0,.6,0,1.3-.1,2Zm-12.5-.5l-.2-.2,1.2-1.6,.2,.2-1.2,1.6Zm2.5-3.2l-.2-.2,1.2-1.6,.2,.2-1.2,1.6Zm9.9-.3c0-.7,0-1.4-.2-2h.2c0,.6,.2,1.2,.2,2h-.2Zm-7.4-2.8l-.2-.2,.7-.9s.2-.3,.5-.7l.2,.2c-.3,.4-.5,.6-.5,.6l-.7,1Zm6.8-1c-.3-.7-.6-1.3-.9-1.7l.2-.2c.3,.5,.7,1.1,.9,1.8h-.2Zm-4.2-1.9l-.2-.2c.6-.5,1.3-.8,1.8-.8s0,0,0,0v.2s0,0,0,0c-.5,0-1.1,.2-1.7,.7Z" style="fill: #dfdc00;"/>
  <path d="M974.3,935.7h0s.2-.2,.2-.2h0s-.2,.2-.2,.2Zm-1.3-1.5l-1.3-1.5,.2-.2,1.3,1.5-.2,.2Zm-2.6-3l-1.3-1.5,.2-.2,1.3,1.5-.2,.2Zm-2.6-3l-1.3-1.5,.2-.2,1.3,1.5-.2,.2Zm-2.6-3l-1.3-1.5,.2-.2,1.3,1.5-.2,.2Zm-2.6-3l-1.3-1.5,.2-.2,1.3,1.5-.2,.2Zm-2.6-3l-1.3-1.5,.2-.2,1.3,1.5-.2,.2Zm-2.6-3l-1.3-1.5,.2-.2,1.3,1.5-.2,.2Zm-2.6-3l-1.3-1.5,.2-.2,1.3,1.5-.2,.2Zm-2.6-3l-1.3-1.5,.2-.2,1.3,1.5-.2,.2Zm-2.6-3l-1.3-1.5,.2-.2,1.3,1.5-.2,.2Zm-2.6-3l-1.3-1.5,.2-.2,1.3,1.5-.2,.2Z" style="fill: #dfdc00;"/>
  <path d="M967.6,951.3s-.7,0-1.9-.1v-.2c1.2,0,1.9,.1,1.9,.1v.2Zm-3.9-.3c-.6,0-1.3,0-2-.1v-.2c.7,0,1.4,0,2,.1v.2Zm-4-.2h-2c0-.1,0-.4,0-.4h2c0,.1,0,.4,0,.4Zm-4-.2c-.7,0-1.3,0-2,0v-.2c.7,0,1.3,0,2,0v.2Zm-4-.2c-.7,0-1.3,0-2,0v-.2c.7,0,1.3,0,2,0v.2Zm-4-.1c-.7,0-1.4,0-2,0v-.2c.6,0,1.3,0,2,0v.2Zm-4.6,0c-.6,0-1,0-1.5-.2v-.2c.5,.1,1.1,.2,1.8,.1,0,0,.2,0,.3,0v.2c0,0-.2,0-.2,0-.1,0-.2,0-.3,0Zm-3.2-1.2c-.3-.4-.4-.9-.4-1.6s0-.3,0-.4h.2c0,.2,0,.3,0,.4,0,.6,.1,1,.4,1.4h-.2Zm.4-3.7h-.2c.2-.6,.4-1,.4-1l.6-.8,.2,.2-.6,.8h0s-.2,.4-.4,.9Zm2.2-3.3l-.2-.2,1.2-1.6,.2,.2-1.2,1.6Zm2.4-3.2l-.2-.2,1.2-1.6,.2,.2-1.2,1.6Zm2.4-3.2l-.2-.2,1.2-1.6,.2,.2-1.2,1.6Zm2.4-3.2l-.2-.2,1.2-1.6,.2,.2-1.2,1.6Z" style="fill: #dfdc00;"/>
  <path d="M978.7,934.8c-.3-.5-.7-1.1-1-1.7h.2c.3,.5,.7,1.1,1,1.6h-.2Zm-1.8-3.4c-.2-.6-.5-1.2-.7-1.9h.2c.2,.6,.5,1.2,.7,1.8h-.2Zm-1.3-3.7c-.2-.6-.4-1.3-.5-1.9h.2c.2,.6,.4,1.3,.5,1.9h-.2Zm-1-3.8c-.2-.6-.3-1.3-.4-2h.2c.1,.6,.3,1.3,.4,1.9h-.2Zm-.8-3.9c-.1-.7-.3-1.3-.4-2h.2c.1,.6,.2,1.3,.4,1.9h-.2Zm-.7-3.9c-.1-.7-.2-1.3-.3-2h.2c0,.6,.2,1.3,.3,1.9h-.2Zm-.6-3.9c0-.7-.2-1.4-.3-2h.2c0,.6,.2,1.2,.3,2h-.2Zm-.5-3.9c-.1-1.2-.2-1.9-.2-1.9h0s0-.1,0-.1h.2s0,.1,0,.1c0,.1,0,.8,.2,1.9h-.2Zm.4-3.9h-.2c0-.6,.2-1.3,.3-2h.2c-.1,.8-.2,1.5-.3,2Zm.7-4h-.2c0-.7,.2-1.3,.3-2h.2c-.1,.7-.2,1.4-.3,2Zm.6-4h-.2c0-.7,.2-1.3,.3-2h.2c0,.7-.2,1.4-.3,2Zm.5-4h-.2c0-.7,.2-1.4,.2-2h.2c0,.7-.1,1.4-.2,2Zm.4-4h-.2c0-.7,.1-1.4,.1-2h.2c0,.6,0,1.3-.1,2Zm.2-4h-.2c0-.3,0-.6,0-.9,0-.4,0-.7,0-1.1h.2c0,.3,0,.7,0,1.1,0,.3,0,.6,0,.9Zm-.5-4c-.1-.6-.3-1.2-.4-1.9h.2c.2,.6,.3,1.3,.4,1.9h-.2Zm-1-3.8c-.2-.6-.4-1.3-.6-1.9h.2c.2,.6,.4,1.2,.6,1.8h-.2Zm-1.3-3.7c-.2-.6-.5-1.3-.7-1.9h.2c.2,.5,.5,1.1,.7,1.8h-.2Zm-1.4-3.7c-.3-.7-.5-1.3-.8-1.9h.2c.2,.4,.5,1.1,.8,1.8h-.2Z" style="fill: #dfdc00;"/>
  <path d="M1000.5,947.7c-.4,0-.8,0-1.2,0v-.2c.4,0,.8,0,1.2,0,.3,0,.5,0,.8,0v.2c-.3,0-.5,0-.8,0Zm2.8-.1v-.2c.6,0,1.2-.1,1.9-.3v.2c-.6,.2-1.3,.3-1.9,.3Zm-6-.2c-.7-.2-1.3-.4-1.9-.7v-.2c.7,.3,1.3,.5,2,.7v.2Zm9.9-.7v-.2c.5-.2,1.1-.5,1.7-.8v.2c-.5,.3-1.1,.6-1.7,.8Zm-13.6-1c-.5-.4-1-.8-1.5-1.3l.2-.2c.5,.5,1,.9,1.5,1.3v.2Zm17-.8v-.2c.4-.3,1-.7,1.6-1v.2c-.4,.4-1,.7-1.6,1Zm-20.1-2c-.4-.5-.8-1-1.2-1.6h.2c.4,.4,.8,.9,1.2,1.4l-.2,.2Zm23.5-.2v-.2c.4-.4,.9-.8,1.5-1.2l.2,.2c-.5,.4-1.1,.8-1.6,1.2Zm3.2-2.4l-.2-.2c.9-.8,1.5-1.2,1.5-1.2h0c0,0,.1,0,.1,0,0,0,0,.1-1.5,1.3Zm-29.1-.6c-.3-.5-.7-1.1-1.1-1.7h.2c.4,.5,.7,1,1,1.6h-.2Zm-2-3.3c-.3-.6-.6-1.1-.9-1.8h.2c.3,.5,.6,1.1,.9,1.7h-.2Zm-1.8-3.4c-.3-.6-.6-1.2-.8-1.8h.2c.3,.5,.6,1.1,.8,1.7h-.2Zm-1.7-3.5c-.3-.6-.5-1.2-.8-1.8h.2c.3,.5,.5,1.1,.8,1.7h-.2Zm-1.5-3.6c-.2-.6-.5-1.3-.7-1.9h.2c.2,.5,.4,1.2,.7,1.8h-.2Zm-1.3-3.7c-.2-.6-.4-1.3-.6-1.9h.2c.2,.6,.4,1.2,.6,1.8h-.2Zm-1.1-3.8c-.2-.6-.3-1.3-.5-2h.2c.1,.6,.3,1.3,.5,1.9h-.2Zm-.9-3.9c-.1-.7-.2-1.3-.3-2h.2c0,.6,.2,1.3,.3,1.9h-.2Zm-.6-3.9c0-.7-.2-1.3-.2-2h.2c0,.6,.1,1.3,.2,2h-.2Zm-.3-4c0-.7,0-1.3,0-2h.2c0,.6,0,1.3,0,2h-.2Zm.2-4h-.2c0-.7,0-1.4,0-2h.2c0,.7,0,1.3,0,2Zm.3-4h-.2c0-.7,.2-1.1,.2-1.1,0-.3,0-.6,.1-.9h.2c0,.3,0,.6-.1,1,0,0,0,.4-.2,1.1Zm.9-3.9h-.2c.3-.7,.6-1.3,1-1.8l.2,.2c-.4,.5-.7,1.1-1,1.7Zm2.4-3v-.2c.4-.4,1-.7,1.7-.9v.2c-.6,.2-1.2,.5-1.7,.9Zm9.6-1s-.8-.2-2-.3v-.2c1.2,.1,2,.4,2,.4v.2Zm-6-.3v-.2c.6,0,1.3-.1,1.9-.1h0v.2h0c-.7,0-1.3,0-1.9,.1Z" style="fill: #dfdc00;"/>
  <path d="M882.1,1047.6l-1.5-1.3,.2-.2,1.5,1.3-.2,.2Zm-3-2.6l-1.5-1.3,.2-.2,1.5,1.3-.2,.2Zm-3-2.6l-1.5-1.3,.2-.2,1.5,1.3-.2,.2Zm-3-2.6l-1.5-1.3,.2-.2,1.5,1.3-.2,.2Zm-3-2.6l-1.5-1.3,.2-.2,1.5,1.3-.2,.2Zm-3-2.6l-1.5-1.3,.2-.2,1.5,1.3-.2,.2Zm-3-2.6l-1.5-1.3,.2-.2,1.5,1.3-.2,.2Zm-3-2.6l-1.5-1.3,.2-.2,1.5,1.3-.2,.2Zm-3-2.6l-1.5-1.3,.2-.2,1.5,1.3-.2,.2Zm-3-2.6l-1.5-1.3,.2-.2,1.5,1.3-.2,.2Z" style="fill: #dfdc00;"/>
  <path d="M898.2,1026.5l-1.5-1.3,.2-.2,1.5,1.3-.2,.2Zm-3-2.7l-1.5-1.3,.2-.2,1.5,1.3-.2,.2Zm-3-2.7l-1.5-1.3,.2-.2,1.5,1.3-.2,.2Zm-3-2.7l-1.5-1.3,.2-.2,1.5,1.3-.2,.2Zm-3-2.7l-1.5-1.3,.2-.2,1.5,1.3-.2,.2Zm-3-2.7l-1.5-1.3,.2-.2,1.5,1.3-.2,.2Zm-3-2.7l-1.5-1.3,.2-.2,1.5,1.3-.2,.2Zm-3-2.7l-1.5-1.3,.2-.2,1.5,1.3-.2,.2Zm-3-2.7l-1.5-1.3,.2-.2,1.5,1.3-.2,.2Zm-3-2.7l-1.5-1.3,.2-.2,1.5,1.3-.2,.2Zm-3-2.7l-1.5-1.3,.2-.2,1.5,1.3-.2,.2Zm-3-2.7l-1.5-1.3,.2-.2,1.5,1.3-.2,.2Zm-3-2.7l-1.5-1.3,.2-.2,1.5,1.3-.2,.2Zm-3-2.7l-1.5-1.3,.2-.2,1.5,1.3-.2,.2Zm-3-2.7l-1.5-1.3,.2-.2,1.5,1.3-.2,.2Zm-3-2.7l-1.5-1.3,.2-.2,1.5,1.3-.2,.2Z" style="fill: #dfdc00;"/>
  <path d="M917.3,1006.2l-.2-.2,.2-.2,.2,.2-.2,.2Zm-1.7-1.6l-1.4-1.4,.2-.2,1.4,1.4-.2,.2Zm-2.8-2.8l-1.4-1.4,.2-.2,1.4,1.4-.2,.2Zm-2.8-2.8l-1.4-1.4,.2-.2,1.4,1.4-.2,.2Zm-2.8-2.8l-1.4-1.4,.2-.2,1.4,1.4-.2,.2Zm-2.8-2.8l-1.4-1.4,.2-.2,1.4,1.4-.2,.2Zm-2.8-2.8l-1.4-1.4,.2-.2,1.4,1.4-.2,.2Zm-2.8-2.8l-1.4-1.4,.2-.2,1.4,1.4-.2,.2Zm-2.8-2.8l-1.4-1.4,.2-.2,1.4,1.4-.2,.2Zm-2.8-2.8l-1.4-1.4,.2-.2,1.4,1.4-.2,.2Zm-2.8-2.8l-1.4-1.4,.2-.2,1.4,1.4-.2,.2Zm-2.8-2.8l-1.4-1.4,.2-.2,1.4,1.4-.2,.2Zm-2.8-2.8l-1.4-1.4,.2-.2,1.4,1.4-.2,.2Z" style="fill: #dfdc00;"/>
  <path d="M1046.2,909l-.2-.2c.4-.5,.8-1,1.2-1.6h.2c-.4,.7-.8,1.2-1.2,1.8Zm2.2-3.3h-.2c.3-.7,.6-1.3,.9-1.9h.2c-.3,.7-.6,1.3-.9,1.9Zm1.8-3.6h-.2c.3-.7,.5-1.3,.7-2h.2c-.2,.7-.5,1.4-.7,2Zm1.4-3.8h-.2c.2-.6,.3-1.1,.5-1.6,0-.1,0-.2,0-.4h.2c0,.2,0,.3,0,.4-.1,.5-.3,1.1-.5,1.6Zm1-3.9h-.2c.1-.7,.2-1.4,.3-2h.2c0,.7-.2,1.4-.3,2Zm.4-4h-.2c0-.2,0-.4,0-.6,0-.5,0-1,0-1.4h.2c0,.5,0,1,0,1.4s0,.4,0,.6Zm-.5-4c0-.7-.2-1.3-.3-2h.2c.1,.6,.2,1.3,.3,1.9h-.2Zm-.8-3.9c-.2-.6-.4-1.3-.6-1.9h.2c.2,.5,.4,1.2,.6,1.8h-.2Zm-1.2-3.7c-.2-.6-.5-1.3-.8-1.8h.2c.3,.5,.5,1.1,.8,1.8h-.2Zm-1.6-3.6c-.3-.6-.6-1.2-1-1.8h.2c.3,.4,.7,1,1,1.6h-.2Zm-2-3.3c-.4-.6-.8-1.1-1.2-1.6l.2-.2c.4,.5,.8,1.1,1.2,1.6h-.2Zm-2.4-3c-.4-.5-.9-1-1.4-1.4l.2-.2c.5,.5,1,.9,1.4,1.4l-.2,.2Zm-30.1-.7l-.2-.2s.6-.5,1.5-1.3l.2,.2c-1,.7-1.5,1.3-1.5,1.3Zm27.2-2c-.5-.4-1.1-.8-1.6-1.2v-.2c.7,.4,1.2,.8,1.8,1.2l-.2,.2Zm-24-.4v-.2c.4-.4,1-.7,1.6-1v.2c-.4,.3-1,.7-1.6,1Zm20.7-1.7c-.6-.3-1.2-.6-1.8-.8v-.2c.7,.2,1.3,.5,1.9,.9v.2Zm-17.3-.2v-.2c.5-.3,1.1-.5,1.8-.8v.2c-.5,.2-1.1,.5-1.8,.8Zm13.5-1.3c-.6-.2-1.3-.3-1.9-.4v-.2c.7,.1,1.4,.3,2,.4v.2Zm-9.9,0v-.2c.6-.2,1.3-.3,1.9-.4v.2c-.6,.1-1.3,.2-1.9,.4Zm5.9-.6c-.3,0-.7,0-1,0h0c-.3,0-.6,0-.9,0v-.2c.3,0,.6,0,.9,0h0c.3,0,.7,0,1,0v.2Z" style="fill: #dfdc00;"/>
  <path d="M1065,886.1l-1-1.7h.2c0-.1,1,1.6,1,1.6h-.2Zm-2.1-3.3l-1-1.7h.2c0-.1,1,1.6,1,1.6h-.2Zm-2.1-3.3l-1-1.7h.2c0-.1,1,1.6,1,1.6h-.2Zm-2.1-3.3l-1-1.7h.2c0-.1,1,1.6,1,1.6h-.2Zm-2.1-3.3l-1-1.7h.2c0-.1,1,1.6,1,1.6h-.2Zm-2.1-3.3l-1-1.7h.2c0-.1,1,1.6,1,1.6h-.2Zm-2.1-3.3l-1-1.7h.2c0-.1,1,1.6,1,1.6h-.2Zm-2.1-3.3l-1-1.7h.2c0-.1,1,1.6,1,1.6h-.2Zm-2.1-3.3l-1-1.7h.2c0-.1,1,1.6,1,1.6h-.2Zm-2.1-3.3l-1-1.7h.2c0-.1,1,1.6,1,1.6h-.2Zm-2.1-3.3l-1-1.7h.2c0-.1,1,1.6,1,1.6h-.2Zm-2.1-3.3l-1-1.7h.2c0-.1,1,1.6,1,1.6h-.2Zm-2.1-3.3l-1-1.7h.2c0-.1,1,1.6,1,1.6h-.2Zm-2.1-3.3l-1-1.7h.2c0-.1,1,1.6,1,1.6h-.2Zm-2.1-3.3l-1-1.7h.2c0-.1,1,1.6,1,1.6h-.2Z" style="fill: #dfdc00;"/>
  <path d="M1063.1,887.3c-.1-.1-.3-.3-.4-.5l.2-.2c.2,.2,.3,.4,.4,.5l-.2,.2Zm-1.7-2.1c-.4-.5-.8-1-1.2-1.6l.2-.2c.4,.6,.8,1.1,1.2,1.6l-.2,.2Zm-2.4-3.2c-.4-.6-.8-1.1-1.2-1.6h.2c.4,.3,.8,.9,1.2,1.5l-.2,.2Zm-2.4-3.3c-.2-.6-.4-1.3-.7-1.9h.2c.2,.5,.5,1.1,.7,1.8h-.2Zm-1.5-3.6c-.3-.6-.6-1.2-.9-1.8h.2c.3,.5,.6,1,.9,1.7h-.2Zm-2-3.4c-.4-.5-.8-1.1-1.2-1.6l.2-.2c.4,.5,.8,1.1,1.2,1.6h-.2Zm-2.4-3c-.4-.5-.9-1-1.4-1.4l.2-.2c.5,.5,.9,.9,1.4,1.4l-.2,.2Zm-2.9-2.8c-.5-.4-1-.8-1.6-1.2v-.2c.7,.4,1.2,.8,1.7,1.2l-.2,.2Zm-3.2-2.3c-.6-.3-1.1-.7-1.7-1v-.2c.7,.3,1.3,.6,1.9,1v.2Zm-3.7-1.9c-.6-.3-1.2-.5-1.8-.7v-.2c.7,.2,1.3,.5,1.9,.8v.2Zm-3.8-1.4c-1.2-.3-1.9-.5-1.9-.5v-.2c0,0,.8,.1,2,.5v.2Z" style="fill: #dfdc00;"/>
  <path d="M1297.6,1105.5l.2-.2h0s-.2,.2-.2,.2Zm-1.4-1.4l-1.4-1.4,.2-.2,1.4,1.4-.2,.2Zm-2.8-2.9l-1.4-1.4,.2-.2,1.4,1.4-.2,.2Zm-2.8-2.9l-1.4-1.4,.2-.2,1.4,1.4-.2,.2Zm-2.8-2.9l-1.4-1.4,.2-.2,1.4,1.4-.2,.2Zm-2.8-2.9l-1.4-1.4,.2-.2,1.4,1.4-.2,.2Zm-2.8-2.9l-1.4-1.4,.2-.2,1.4,1.4-.2,.2Zm-2.8-2.9l-1.4-1.4,.2-.2,1.4,1.4-.2,.2Zm-2.8-2.9l-1.4-1.4,.2-.2,1.4,1.4-.2,.2Zm-2.8-2.9l-1.4-1.4,.2-.2,1.4,1.4-.2,.2Zm-2.8-2.9l-1.4-1.4,.2-.2,1.4,1.4-.2,.2Zm-2.8-2.9l-1.4-1.4,.2-.2,1.4,1.4-.2,.2Zm-2.8-2.9l-1.4-1.4,.2-.2,1.4,1.4-.2,.2Zm-2.8-2.9l-1.4-1.4,.2-.2,1.4,1.4-.2,.2Zm-2.8-2.9l-1.4-1.4,.2-.2,1.4,1.4-.2,.2Zm-2.8-2.9l-1.4-1.4,.2-.2,1.4,1.4-.2,.2Zm-2.8-2.9l-1.4-1.4,.2-.2,1.4,1.4-.2,.2Zm-2.8-2.9l-1.4-1.4,.2-.2,1.4,1.4-.2,.2Zm-2.8-2.9l-1.4-1.4,.2-.2,1.4,1.4-.2,.2Zm-2.8-2.9l-1.4-1.4,.2-.2,1.4,1.4-.2,.2Zm-2.8-2.9l-1.4-1.4,.2-.2,1.4,1.4-.2,.2Zm-2.8-2.9l-1.4-1.4,.2-.2,1.4,1.4-.2,.2Zm-2.8-2.9l-1.4-1.4,.2-.2,1.4,1.4-.2,.2Zm-2.8-2.9l-1.4-1.4,.2-.2,1.4,1.4-.2,.2Zm-2.8-2.9l-1.4-1.4,.2-.2,1.4,1.4-.2,.2Zm-2.8-2.9l-1.4-1.4,.2-.2,1.4,1.4-.2,.2Zm-2.8-2.9l-1.4-1.4,.2-.2,1.4,1.4-.2,.2Zm-2.8-2.9l-1.4-1.4,.2-.2,1.4,1.4-.2,.2Z" style="fill: #dfdc00;"/>
  <path d="M1172.6,1086.2l-.2-.2,1.5-1.3,.2,.2-1.5,1.3Zm3-2.7l-.2-.2,1.5-1.3,.2,.2-1.5,1.3Zm3-2.7l-.2-.2,1.5-1.3,.2,.2-1.5,1.3Zm3-2.7l-.2-.2,1.5-1.3,.2,.2-1.5,1.3Zm3-2.7l-.2-.2,1.5-1.3,.2,.2-1.5,1.3Zm3-2.7l-.2-.2,1.5-1.3,.2,.2-1.5,1.3Zm3-2.7l-.2-.2,1.5-1.3,.2,.2-1.5,1.3Zm3-2.7l-.2-.2,1.5-1.3,.2,.2-1.5,1.3Zm3-2.7l-.2-.2,1.5-1.3,.2,.2-1.5,1.3Zm3-2.7l-.2-.2,1.5-1.3,.2,.2-1.5,1.3Zm3-2.7l-.2-.2,1.5-1.3,.2,.2-1.5,1.3Zm3-2.7l-.2-.2,1.5-1.3,.2,.2-1.5,1.3Zm3-2.7l-.2-.2,1.5-1.3,.2,.2-1.5,1.3Zm3-2.7l-.2-.2,1.5-1.3,.2,.2-1.5,1.3Zm3-2.7l-.2-.2,1.5-1.3,.2,.2-1.5,1.3Zm3-2.7l-.2-.2,1.5-1.3,.2,.2-1.5,1.3Zm3-2.7l-.2-.2,1.5-1.3,.2,.2-1.5,1.3Zm3-2.7l-.2-.2,1.5-1.3,.2,.2-1.5,1.3Zm3-2.7l-.2-.2,1.5-1.3,.2,.2-1.5,1.3Z" style="fill: #dfdc00;"/>
  <path d="M1187.4,1111.4l-.2-.2,.3-.3,.2,.2-.3,.3Zm1.8-1.6l-.2-.2,1.5-1.4,.2,.2-1.5,1.4Zm2.9-2.7l-.2-.2,1.5-1.4,.2,.2-1.5,1.4Zm2.9-2.7l-.2-.2,1.5-1.4,.2,.2-1.5,1.4Zm2.9-2.7l-.2-.2,1.5-1.4,.2,.2-1.5,1.4Zm2.9-2.7l-.2-.2,1.5-1.4,.2,.2-1.5,1.4Zm2.9-2.7l-.2-.2,1.5-1.4,.2,.2-1.5,1.4Zm2.9-2.7l-.2-.2,1.5-1.4,.2,.2-1.5,1.4Zm2.9-2.7l-.2-.2,1.5-1.4,.2,.2-1.5,1.4Zm2.9-2.7l-.2-.2,1.5-1.4,.2,.2-1.5,1.4Zm2.9-2.7l-.2-.2,1.5-1.4,.2,.2-1.5,1.4Zm2.9-2.7l-.2-.2,1.5-1.4,.2,.2-1.5,1.4Zm2.9-2.7l-.2-.2,1.5-1.4,.2,.2-1.5,1.4Zm2.9-2.7l-.2-.2,1.5-1.4,.2,.2-1.5,1.4Zm2.9-2.7l-.2-.2,1.5-1.4,.2,.2-1.5,1.4Zm2.9-2.7l-.2-.2,1.5-1.4,.2,.2-1.5,1.4Zm2.9-2.7l-.2-.2,1.5-1.4,.2,.2-1.5,1.4Zm2.9-2.7l-.2-.2,1.5-1.4,.2,.2-1.5,1.4Zm2.9-2.7l-.2-.2,1.5-1.4,.2,.2-1.5,1.4Zm2.9-2.7l-.2-.2,1.5-1.4,.2,.2-1.5,1.4Zm2.9-2.7l-.2-.2,1.5-1.4,.2,.2-1.5,1.4Z" style="fill: #dfdc00;"/>
  <polygon points="1051.6 1168 1051.4 1167.8 1071.5 1150.5 1071.7 1150.7 1051.6 1168" style="fill: #ad1480;"/>
  <path d="M1122.2,1172.8l-.4-.7h.2c0-.1,.4,.6,.4,.6h-.2Zm-1.4-2.3l-1-1.7h.2c0-.1,1,1.6,1,1.6h-.2Zm-2-3.3l-1-1.7h.2c0-.1,1,1.6,1,1.6h-.2Zm-2-3.3l-1-1.7h.2c0-.1,1,1.6,1,1.6h-.2Zm-2-3.3l-1-1.7h.2c0-.1,1,1.6,1,1.6h-.2Zm-2-3.3l-1-1.7h.2c0-.1,1,1.6,1,1.6h-.2Z" style="fill: #dfdc00;"/>
  <polygon points="841.1 1160.5 840.9 1160.4 1023.3 946 1023.5 946.2 841.1 1160.5" style="fill: #ad1480;"/>
  <polygon points="1051 915 1050.8 914.8 1128.7 837 1128.9 837.3 1051 915" style="fill: #ad1480;"/>
  <path d="M968.5,951.3v-.2c0,0,.7-.3,1.7-.8v.2c-1,.5-1.7,.8-1.7,.8Zm3.6-1.7v-.2c.5-.3,1-.7,1.6-1v.2c-.4,.4-1,.7-1.6,1.1Zm3.3-2.3l-.2-.2c.5-.5,1-1,1.3-1.4h.2c-.4,.6-.8,1.1-1.4,1.6Zm2.2-3.3h-.2c0-.3,0-.7,0-1s0-.7,0-1h.2c0,.3,0,.7,0,1s0,.7,0,1Zm-.8-3.9c-.2-.6-.5-1.2-.9-1.8h.2c.3,.5,.6,1.1,.9,1.7h-.2Zm-1.9-3.4c-.5-.7-.9-1.2-1-1.4h0c0-.1,.1,0,.1,0h0c.2,.1,.6,.6,1.1,1.3h-.2Z" style="fill: #dfdc00;"/>
  <path d="M984.6,951.7l-.5-1.4h.2c0,0,.5,1.3,.5,1.3h-.2Zm-1.1-3.2l-.6-1.9h.2c0,0,.6,1.8,.6,1.8h-.2Zm-1.3-3.7l-.6-1.9h.2c0,0,.6,1.8,.6,1.8h-.2Zm-1.3-3.7l-.6-1.9h.2c0,0,.6,1.8,.6,1.8h-.2Zm-1.3-3.7l-.6-1.9h.2c0,0,.6,1.8,.6,1.8h-.2Z" style="fill: #dfdc00;"/>
</svg>