<?xml version="1.0" encoding="UTF-8"?>
<svg id="vecinos" xmlns="http://www.w3.org/2000/svg" width="2152" height="2152" viewBox="0 0 2152 2152">
  <polygon points="1021.8 1083 1021.5 1083.2 1022.5 1084.9 1022 1085.2 1022.2 1085.6 1019.8 1087 1017.3 1082.8 1017.5 1082.7 1016.9 1081.8 1017.7 1081.3 1017.3 1080.5 1016.5 1081 1016 1080.2 1015.8 1080.4 1013 1075.7 1020.3 1071.3 1027.1 1082.6 1023 1085 1021.8 1083" style="fill: #6581c1;"/>
  <polygon points="1029.8 1084.4 1029.4 1084.6 1028.4 1083 1027.9 1083.3 1027.7 1082.9 1025.4 1084.3 1027.9 1088.5 1028.1 1088.4 1028.6 1089.3 1029.5 1088.8 1029.9 1089.6 1029.1 1090.1 1029.6 1090.8 1029.4 1090.9 1032.2 1095.5 1039.5 1091.1 1032.6 1079.9 1028.6 1082.4 1029.8 1084.4" style="fill: #6581c1;"/>
  <polygon points="1052 1061.8 1048.8 1063.8 1048.6 1063.6 1047.8 1064.1 1043.5 1057 1044.3 1056.5 1044.1 1056.2 1047.4 1054.2 1047.6 1054.5 1049 1053.6 1053.3 1060.7 1051.9 1061.6 1052 1061.8" style="fill: #6581c1;"/>
  <polygon points="1046.4 1065.3 1043.1 1067.3 1042.9 1067 1042.1 1067.5 1037.8 1060.4 1038.6 1059.9 1038.4 1059.6 1041.7 1057.6 1041.9 1057.9 1043.3 1057.1 1047.6 1064.2 1046.2 1065 1046.4 1065.3" style="fill: #6581c1;"/>
  <polygon points="1040.7 1068.7 1037.4 1070.7 1037.2 1070.5 1036.4 1071 1032.1 1063.9 1032.9 1063.4 1032.7 1063.1 1036 1061.1 1036.2 1061.4 1037.6 1060.5 1041.9 1067.6 1040.5 1068.5 1040.7 1068.7" style="fill: #6581c1;"/>
  <polygon points="1035 1072.2 1031.7 1074.2 1031.5 1073.9 1030.7 1074.4 1026.4 1067.4 1027.2 1066.9 1027.1 1066.6 1030.4 1064.5 1030.5 1064.8 1031.9 1064 1036.2 1071.1 1034.8 1071.9 1035 1072.2" style="fill: #6581c1;"/>
  <polygon points="1065.3 1056.1 1065.6 1055.9 1066.6 1057.6 1067.1 1057.3 1067.3 1057.6 1069.5 1056.3 1066.9 1052.1 1066.7 1052.2 1066.2 1051.3 1065.4 1051.8 1065 1051 1065.7 1050.5 1065.2 1049.8 1065.4 1049.7 1062.6 1045 1055.9 1049.1 1062.7 1060.4 1066.5 1058.1 1065.3 1056.1" style="fill: #6581c1;"/>
  <polygon points="1063.2 1063.6 1063.5 1063.4 1062.5 1061.7 1063 1061.4 1062.8 1061.1 1065 1059.8 1067.5 1063.9 1067.3 1064 1067.9 1064.9 1067.1 1065.4 1067.6 1066.2 1068.3 1065.7 1068.8 1066.5 1069 1066.4 1071.8 1071 1065.1 1075 1058.3 1063.8 1062 1061.6 1063.2 1063.6" style="fill: #6581c1;"/>
  <polygon points="1056.5 1132.8 1062.8 1141.7 1058.7 1144.6 1060.4 1146.9 1054.9 1150.8 1052.5 1147.5 1052.1 1147.8 1052.6 1148.4 1048.2 1151.5 1047.7 1150.9 1046 1152.1 1040.6 1144.6 1042.4 1143.4 1041.8 1142.6 1046.2 1139.5 1046.8 1140.3 1047.2 1140 1044.1 1135.6 1049.6 1131.7 1052.4 1135.7 1056.5 1132.8" style="fill: #6581c1;"/>
  <polygon points="1040.3 1144.9 1045.6 1152.4 1044 1153.6 1044.4 1154.2 1040.2 1157.2 1039.7 1156.6 1039.4 1156.8 1041.7 1160.2 1036.5 1163.9 1034.7 1161.4 1030.4 1164.4 1024.1 1155.6 1028.4 1152.5 1025.7 1148.7 1030.9 1145 1034 1149.3 1034.4 1149.1 1033.9 1148.3 1038.1 1145.3 1038.6 1146.1 1040.3 1144.9" style="fill: #6581c1;"/>
  <polygon points="1030.6 1114.5 1039.2 1121.2 1036.1 1125.2 1038.4 1126.9 1034.3 1132.2 1031 1129.7 1030.7 1130.1 1031.3 1130.6 1028 1134.8 1027.4 1134.4 1026.1 1136.1 1018.8 1130.4 1020.1 1128.7 1019.4 1128.2 1022.7 1123.9 1023.4 1124.5 1023.8 1124.1 1019.5 1120.8 1023.6 1115.5 1027.5 1118.5 1030.6 1114.5" style="fill: #6581c1;"/>
  <polygon points="1018.6 1130.8 1025.8 1136.4 1024.6 1138 1025.2 1138.5 1022 1142.6 1021.4 1142.1 1021.1 1142.5 1024.3 1145 1020.4 1150 1018 1148.2 1014.8 1152.3 1006.2 1145.7 1009.4 1141.5 1005.7 1138.6 1009.6 1133.6 1013.8 1136.8 1014.1 1136.5 1013.4 1135.9 1016.6 1131.8 1017.3 1132.4 1018.6 1130.8" style="fill: #6581c1;"/>
</svg>