<?xml version="1.0" encoding="utf-8"?>
<!-- Generator: Adobe Illustrator 26.5.0, SVG Export Plug-In . SVG Version: 6.00 Build 0)  -->
<svg version="1.1" id="Capa_1" xmlns="http://www.w3.org/2000/svg" xmlns:xlink="http://www.w3.org/1999/xlink" x="0px" y="0px"
	 viewBox="0 0 208 202" style="enable-background:new 0 0 208 202;" xml:space="preserve">
<style type="text/css">
	.st0{fill:#FF00FF;}
</style>
<g id="Capa_1_00000152258078725016664230000012519684855567849089_">
</g>
<g>
	<path class="st0" d="M108.7,148.1c-0.5-0.1-1.1,0.1-1.6,0.5c-0.6,0.4-1,1.1-1,1.7c-0.1,1.1-8.2,50.8-8.3,51.3l1,0.2
		c0.3-2,8.2-50.2,8.3-51.3c0-0.4,0.3-0.8,0.6-1c0.3-0.2,0.6-0.3,0.9-0.3c0.5,0.1,1.3,0.2,1,2c-0.3,2-8.6,49.9-8.7,50.4l1,0.2
		c0.1-0.5,8.3-48.4,8.7-50.4C110.9,149,109.8,148.3,108.7,148.1z"/>
	<path class="st0" d="M113.4,76.1c0,0.4-0.2,1.4-0.4,2.1l-18-1c-3.5-0.2-6.4,2.5-6.4,6l0,13.5c0,1.7,1.4,3,3.1,2.8l19.4-1.9
		c0.4,0,0.7,0.2,0.9,0.6l1.1,1.9c-0.1,0.5-0.2,0.9-0.2,1.4l0,0l0,0c-1.5,8.7-3.4,19.2-4.9,27.8l-42.8-12.8l-0.2,0l0.4-11.2l-1,0
		l-0.4,10.9l-49.8-14.9l-0.3,1l49.9,14.9l-3.3,8.9l-9.4-3l-3.2,9.8l-34.2-10l-0.3,1l34.2,10l0,0l12.3,3.6v0l0.7,0.2l0.3-1l-0.7-0.2
		l5.9-18.5l41.6,12.4c-1.5,8.8-2.8,16.1-2.8,16.3l0,0l-4.1,24.2l-21.1-5.9l1.8-7.2l-1-0.2l-3.2,12.6l-14-4.4l3.6-12l-1-0.3l-3.6,12
		l-17-5.4l4-12.2l-1-0.3l-4,12.3l-9.9-3.1l-0.3,1l9.8,3.1l-2.6,8l-9-4.3l-0.4,0.9l41.2,19.9L58.5,201l0.7,0.7l15.2-16.4
		c16.7,2.6,21.8,3.4,23.4,3.5l-2.2,12.8l1,0.2l9.5-55.5c0.7-3.7,4.9-27.9,7.8-44.6l0-0.1c0.2-0.7,0.3-1.3,0.7-1.7
		c0.6-0.6,1.6-0.9,2.4-0.6c0.8,0.2,1.4,0.9,1.6,1.7c0.1,0.5,0.1,1,0,1.6l0,0.2l-15.8,99.8l19.3-9.6l6.1-20.4l-1-0.3l-2.2,7.5
		l-17.1-3.1l2.7-16.8c0.4,0.2,0.7,0.6,1,0.9c0.2,0.2,0.4,0.4,0.6,0.6c0.2,0.2,0.5,0.3,0.7,0.4c0.4,0.2,0.7,0.3,0.9,0.6
		c0.1,0.2,0,0.8-0.1,1.2c-0.1,0.4-0.2,0.7-0.2,1c0,0.2,0.1,0.4,0.1,0.6c-0.4,0.1-1.1,0.4-1.6,0.5l0.3,1c0.3-0.1,0.6-0.2,0.8-0.3
		l0.3,0.6c0,0,1-0.5,1.3-0.6c0.3-0.1,0.6-0.2,0.8-0.2c0,0,0.1,0.1,0.2,0.1c0.4,0.3,1,0.8,2.3,0.9l0.1-1c-1-0.1-1.4-0.5-1.8-0.7
		c0,0,0,0-0.1,0c0.1-0.3,0.2-0.6,0.1-0.9c-0.1-0.4-0.5-0.5-0.8-0.6c-0.1,0-0.2,0-0.1,0c-0.2-0.3-0.1-0.4,0-0.5
		c0.1-0.1,0.1-0.2,0.2-0.2c0.1-0.2,0.1-0.2,0.5-0.2c0.4,0.1,0.8,0.3,1,0.3c0.4,0,1.7,0.4,2.6,0.6c0.5,0.1,0.9,0.2,1.1,0.3l0.2,0
		c0.5,0.1,1.4,0.3,2.3,0.3c0.3,0,0.5,0,0.8-0.1c0.9-0.1,2-0.7,2.8-1.1c0.2-0.1,0.4-0.2,0.6-0.3c0.4-0.2,0.9-0.4,1.3-0.6
		c0.2-0.1,0.4-0.2,0.4-0.2l-0.2-1c-0.1,0-0.2,0.1-0.7,0.3c-0.3,0.2-0.8,0.4-1.2,0.6c-0.2,0.1-0.4,0.2-0.7,0.3
		c-0.8,0.4-1.7,0.9-2.5,1c-0.9,0.1-2.3-0.1-2.8-0.2l-0.2,0c-0.1,0-0.5-0.1-1-0.2c-1.2-0.3-2.3-0.6-2.7-0.6c-0.4,0-2.1-0.7-3.1-1.1
		c-0.2-0.2-0.5-0.3-0.7-0.4c-0.2-0.1-0.4-0.2-0.5-0.3c-0.1-0.1-0.3-0.3-0.5-0.5c-0.4-0.4-0.9-1-1.5-1.2l3.1-19.5
		c3.6,0.4,10.5,1.2,14.9,1.7c-0.3,0-0.5,0.1-0.7,0.3c-0.2,0.2-0.2,0.4-0.2,0.7c0.1,0.3-0.2,1.3-0.5,1.7c-0.2,0.2-0.3,0.3-0.5,0.4
		c-0.2,0.1-0.4,0.2-0.6,0.4c-0.4,0.3-0.6,0.6-0.6,0.9c0,0.1-0.1,0.2-0.2,0.3c-0.1,0.1-0.2,0.3-0.4,0.5c-0.2,0.3-0.2,0.6-0.2,0.8
		c-0.1,0.1-0.5,0.5-0.9,0.8l0.6,0.8c0.1-0.1,0.8-0.7,1-1c0.2-0.2,0.2-0.5,0.2-0.6c0-0.1,0-0.2,0.1-0.3c0.1-0.2,0.2-0.3,0.3-0.4
		c0.1-0.2,0.3-0.3,0.4-0.5c0.1-0.2,0.1-0.3,0.1-0.4c0,0,0.1-0.1,0.2-0.2c0.2-0.2,0.4-0.3,0.5-0.4c0.3-0.2,0.5-0.3,0.8-0.7
		c0.4-0.5,0.8-1.6,0.7-2.3c0.2,0,0.4,0,0.5,0c0.7,0,3.5,0.5,4,0.8c0.6,0.4,2.8,1.4,3.6,1.5l0.1-1c-0.5-0.1-2.5-1-3.2-1.4
		c-0.2-0.2-0.7-0.3-1.3-0.4c0.2,0,0.3,0.1,0.4,0.1c0.9,0.2,9.8-0.2,12.9-0.4c-3.4,11.3-11.8,38.6-16.7,54.5l1,0.3
		c0.6-2,12.6-40.8,16.8-54.8l0.7,0c-3.4,11.3-11.8,38.6-16.7,54.5l1,0.3c0.6-2,12.5-40.7,16.7-54.7l22.6,1v7.7h6v-1.1h6.5v-6.1
		l0.2,0l17.1,5.2l0.3-1l-17.2-5.2l-0.4,0v0l-12.5-0.5v0l-10.2-0.4c0.2-0.7,0.5-1.9,0.3-2.7c-0.1-0.4-0.6-1.7-1.2-3.5
		c-0.9-2.6-2.4-6.9-2.4-7.5l0-0.2c0.1-0.8,0.1-1.9,1.1-2.5c0.9-0.5,1.2-0.4,2.4,0.1c0.3,0.1,0.6,0.2,1,0.4c1.5,0.5,7.5,2.3,9.3,2.1
		c1.4-0.2,7,0.3,8,0.5c0.3,0.3,0.1,2.1-0.3,3.8l1,0.3c0.1-0.6,0.9-3.5,0.2-4.5c-0.2-0.3-0.4-0.4-0.6-0.5c-1.1-0.3-6.8-0.7-8.4-0.5
		c-1.3,0.2-6.5-1.3-8.8-2.1c-0.4-0.1-0.7-0.3-1-0.4c-1.2-0.5-2-0.8-3.3,0c-1.5,0.9-1.6,2.5-1.6,3.3l0,0.2c0,0.5,0.7,2.9,2.5,7.9
		c0.6,1.6,1.1,3,1.1,3.4c0.1,0.6-0.1,1.7-0.4,2.4l-11.1-0.5c0.7-2.3,1.1-3.8,1.1-4c0.1-0.9-3.1-11.9-6.6-23.3c0.7-0.4,2-1,2.8-1
		c1.4,0.1,40,9.1,54.8,12.5l0.2-1c-5.5-1.3-53.6-12.5-55-12.5c-1.1,0-2.4,0.6-3.1,1c-3.9-12.7-8.1-25.6-8.1-25.9
		c-0.6-1.4-7.7-15.6-9.6-19.3l2.9,0.4c0.3,1.4,1.4,6.3,2.5,7.6c0.6,0.7,1.9,1.7,3,2.5c0.8,0.6,1.8,1.3,2,1.6
		c0.1,0.2,0.3,0.4,0.5,0.7c0.7,1,2,3,2.1,3.8c0.1,0.4,0,1.1-0.1,1.7c-0.2,1.2-0.3,2.4,0.2,3.2c0.6,0.8,1.1,1,1.9,1
		c0.4,0,0.8-0.1,1.3-0.1l-0.1-0.5l-0.2-0.5c-1.4,0.2-1.6,0.2-2.1-0.5c-0.3-0.4-0.2-1.6,0-2.5c0.1-0.7,0.2-1.5,0.1-2
		c-0.1-1-1.2-2.7-2.3-4.3c-0.2-0.3-0.3-0.5-0.4-0.7c-0.3-0.5-1.2-1.1-2.7-2.2c0.1-0.5,0-0.1,0.2-0.6c1.2-0.1,2.6-0.3,3.3-0.3
		c0.4,0,0.8,0.1,1.1,0.2c0.8,0.2,1.6,0.3,2.7-0.2l0.7-0.3c1.2-0.6,3-1.4,3.6-1.3c0.9,0.2,45.2,6.5,47.1,6.8l0.1-1
		c-0.5-0.1-46.2-6.6-47.1-6.7c-0.9-0.2-2.3,0.5-4.2,1.4l-0.7,0.3c-0.8,0.4-1.4,0.3-2.1,0.1c-0.4-0.1-0.8-0.2-1.3-0.2
		c-1.2,0-4.4,0.4-5.3,0.5c-0.2-0.2-0.4-0.4-0.6-0.6c-0.8-0.9-1.7-4.7-2.2-6.8l78.9,11.5l0.1-1l-84-12.3c0.1-0.8,0.2-1.7,0.4-2.6
		c2-1.8,21.2-18.7,22.3-19.8c0.1-0.1,0.3-0.3,0.4-0.4c1.1-1.1,2.8-2.8,6.5-3.3c4.2-0.6,28.4-3.1,32.4-2.9c3.9,0.2,14.6,1.2,14.7,1.2
		l0.1-1c-0.1,0-10.7-1-14.7-1.2c-4.1-0.2-27.9,2.2-32.6,2.9c-4.1,0.6-6,2.5-7.1,3.6c-0.2,0.2-0.3,0.3-0.4,0.4
		c-1,0.9-17,15.1-21.3,18.9c0.2-1.2,0.5-2.2,0.7-3.2c0.7-2.2,2.3-8.9,2.5-10.5c0.2-1.5,2.1-15.3,2.3-18.1c0.2-2.3,1.6-11.5,2.3-15.5
		c0.1-0.8,0.2-1.4,0.3-1.6c0.2-1.2,2.3-11.4,2.3-11.5l-1-0.2c-0.1,0.4-2.2,10.3-2.3,11.6c0,0.2-0.1,0.8-0.3,1.6
		c-0.6,4-2.1,13.3-2.3,15.6c-0.2,2.8-2.1,16.5-2.3,18c-0.2,1.5-1.9,8.2-2.5,10.3c-0.4,1.3-0.7,2.9-1,4.5c-0.3,0.2-0.9,0.5-1.6,0.5
		c-0.7,0-1-0.7-1.1-1c0.3-3.5,1.1-14.9,1.2-15.7c0.1-0.8,3.1-17.2,5.2-28.1c0.2-0.9-0.1-1.8-0.2-1.8l-0.9,0.4c0,0,0.2,0.6,0.1,1.2
		c-0.5,2.8-5.2,27.3-5.2,28.2c0,0.8-1.1,15.9-1.2,16.5c0,0-0.3,1.3-0.6,3.1l-12.7-0.7c0.1-1.1,0.3-3.6-0.1-4.6
		c-0.2-0.7-0.9-1.2-1.6-1.7c-0.7-0.5-1.4-1-1.5-1.7c-0.3-1.6,0.6-6.4,1-7c0.1-0.1,0.6-0.5,1-0.9c1.9-1.5,3.8-3.1,4.3-4.6
		c4,0.4,8.2,0.9,8.7,0.9c1.1,0,2-0.4,2.2-1c0-0.1,0.1-0.3,0.2-0.4c0.2-0.4,0.4-0.8,0.5-1.3c0.1-0.7,0.6-4.4,0.6-4.4l-1-0.1
		c0,0-0.5,3.7-0.6,4.4c0,0.3-0.2,0.7-0.4,1c-0.1,0.2-0.2,0.5-0.3,0.6c0,0.1-0.4,0.3-1.1,0.3c-0.9,0-15.1-1.7-15.9-1.8
		c-0.7-0.1-5.2-0.9-5.3-0.9c-1.7,0-1.8,0-2,0c-0.9,0.2-1.1,0.3-1.2,0.4c-0.1,0.1-0.5,0.4-0.4,0.9c0,0.2,0.1,0.4,0.4,0.7
		c-0.7-0.3-1.4-0.5-1.5-0.6c-0.2-0.1-0.4-0.1-1-0.1c-0.5,0-1.3-0.1-1.5-0.2c-0.4-0.2-5.5-1.1-6-1.1c-0.3,0-0.6,0.2-0.8,0.3
		c-0.1,0-0.2,0.1-0.1,0.1c-0.2,0-3.1,0.2-3.5,0.3c-0.5,0.2-0.7,0.6-0.8,1.1L78.9,44c0,0,0,0,0,0l7.5-44.4l-1-0.2l-6.4,38
		c-0.3-0.1-0.6-0.1-0.9-0.2c-0.1-0.1-0.2-0.4-0.3-0.6c-0.1-0.4-0.2-0.8-0.7-0.9c-0.3,0-7.6-1.3-10.9-1.9l0,0l-29-3.8l-1.2,6.6
		l-4.1,24l-32.5-1.9l-0.1,1l75.1,4.3c-0.3,2.5-1.8,13-1.9,13.6c-0.1,0.3-0.1,1.1-0.2,1.9c-0.1,0.9-0.1,2.2-0.2,2.5
		c-0.1,0.2-0.2,0.4-0.4,0.4c-0.1,0-0.3,0-0.5-0.2c-2.7-1.8-5-2.5-7-2.2c-2.8,0.5-17.4,5.1-18,5.3l0.3,1c0.2,0,15.1-4.8,17.9-5.3
		c1.7-0.3,3.8,0.4,6.3,2c0.6,0.4,1,0.3,1.4,0.2c0.4-0.1,0.8-0.5,1-1c0.1-0.4,0.2-1.3,0.3-2.8c0-0.8,0.1-1.5,0.1-1.8
		c0-0.1,0.1-0.4,0.1-0.8c1.7,0.7,5.9,2.4,6.3,2.5l0.3-1c-0.3-0.1-3.8-1.5-6.4-2.6c0.5-3.3,1.4-10.1,1.7-11.9l34.3,2 M33,60.9
		l0.7-3.8c0.5-0.2,1.7-0.5,2.5-0.9c0.5-0.2,1.1-0.6,1.8-1c0.9-0.5,1.8-1.1,2.4-1.2l0.3-0.1c1.2-0.3,3.4-0.9,4.7-1.8
		c1.3-0.9,5.5-3.1,6-3.2c0.1,0,0.3,0.2,0.9,1.1l0,0.1c0,0,0,0.1,0,0.1c-0.1,0.3-0.2,0.8,0,1.7c0.2,0.7,0.5,1.7,0.8,2.7
		c0.2,0.6,0.3,1.2,0.5,1.6c0.3,0.9,0.3,1.7,0.3,2.5l0,0.3c0,0.7,0.3,2.3,0.4,3.2L33,60.9z M55.2,62.2c-0.1-0.8-0.4-2.6-0.5-3.3
		l0-0.3c0-0.8-0.1-1.7-0.4-2.7c-0.1-0.4-0.3-1-0.5-1.6c-0.3-0.9-0.6-1.9-0.7-2.6c-0.2-0.6-0.1-0.9,0-1.2c0.1-0.2,0.1-0.5-0.1-0.8
		L53,49.5c-0.5-0.8-1-1.6-1.7-1.6c-0.8,0-5.7,2.7-6.6,3.4c-1.1,0.8-3.3,1.4-4.4,1.6L40,53c-0.6,0.2-1.6,0.8-2.6,1.3
		c-0.7,0.4-1.3,0.8-1.7,0.9c-0.6,0.2-1.3,0.5-1.9,0.7l3.2-19l1-5.6l27,3.5c-0.2,2.4-0.6,5.7-0.7,6.3c-0.2,0.8-3.2,18.5-3.6,21.4
		L55.2,62.2z M74.7,63.3l-12.9-0.7c1-6.1,3.4-20.6,3.6-21.2c0.2-0.7,0.6-4.8,0.8-6.4c2.2,0.4,9.4,1.6,10.7,1.8c0,0.1,0,0.1,0.1,0.2
		c0.1,0.4,0.3,1.1,0.9,1.3c0.3,0.1,0.7,0.2,1,0.2L74.7,63.3z M105.8,65.1l-30.2-1.7l2.5-14.8c1-1,1.4-2.9,1.7-3.9
		c0-0.1,0.1-0.3,0.1-0.3l0.1-0.3c0-0.1,0.1-0.3,0.1-0.3c0.3-0.1,3-0.3,3.3-0.3c0.3,0,0.5-0.2,0.7-0.3c0.1-0.1,0.2-0.2,0.2-0.2
		c0.5,0,5.2,0.9,5.6,1c0.3,0.1,0.9,0.2,1.8,0.2c0.3,0,0.7,0.1,0.8,0.1c0.2,0.1,1.8,0.7,2.8,1.1l0.6,0.2l0.3-2.1l-0.4-0.1
		c0,0-0.3-0.1-0.7-0.3c0.1,0,0.3-0.1,0.8-0.2c0.1,0,1,0,1.6,0c0.2,0,4.6,0.8,5.3,0.9c0.1,0,3,0.3,6.3,0.7c-0.5,1.3-2.7,3-3.9,3.9
		c-0.4,0.4-0.7,0.6-1,0.8c-0.9-0.3-3.6-1-4.6-1.1l-0.1,1c0.7,0,2.9,0.6,4.1,1c-0.6,1.7-1.1,5.7-0.9,7.1c0.2,1.1,1.1,1.8,2,2.3
		c0.6,0.4,1.1,0.8,1.2,1.1C106.1,61.6,106,63.8,105.8,65.1z M59.3,136l-3.9-1.1l-6.5-1.9l2.9-8.8l9.4,3l3.7-9.8l0.4,0.1L59.3,136z
		 M42.5,168.9l2.7-8.2l17,5.4L59,176.8L42.5,168.9z M73.9,184l-14-6.8l3.3-10.9l14.1,4.4L73.9,184z M98,187.8
		c-0.8-0.1-3.3-0.4-6.6-0.9l1.4-9.4l-1-0.1l-1.4,9.4c-4.7-0.7-10.7-1.6-15.5-2.4l4.7-18.6l21.2,5.9L98,187.8z M124.8,180.6
		l-3.4,11.5l-17.2,8.6l3.7-23.1L124.8,180.6z M114.6,164.3C114.6,164.3,114.6,164.3,114.6,164.3c0.2,0.4,0.6,0.5,0.8,0.5
		c0,0.1-0.1,0.1-0.1,0.2c-0.2,0-0.3,0.1-0.5,0.1c0-0.1-0.1-0.3-0.1-0.3C114.6,164.7,114.6,164.6,114.6,164.3
		C114.6,164.3,114.6,164.3,114.6,164.3z M172.4,142.2l10.5,0.4v5.1h-6.5v1.1h-4V142.2z M110.8,66.4l8.6,0.5
		c-0.7,3.5-1.7,8.5-2.5,12.3l-0.7-0.6c-0.2-0.1-0.4-0.2-0.6-0.2l-1.6-0.1c0.2-0.6,0.4-1.6,0.4-2.2 M113.4,98.5l-0.5-0.9
		c-0.4-0.6-1-1-1.7-1.1l-19.3,2.1c-1.4,0.1-2.5-0.9-2.5-2.3l0.1-13c0-3,2.5-5.3,5.5-5.1l20.6,1.2l1.1,0.9c-0.4,2.3-0.8,3.9-0.8,4.2
		C115.8,84.8,114.8,90.6,113.4,98.5z M117.4,98.2c-1-0.3-2.1-0.1-3,0.5c1.4-8,2.4-13.8,2.5-14.1c0.1-0.8,3.1-15.5,4.2-21.2
		c0.3,0.3,0.7,0.5,1.3,0.5c0.1,0,0.1,0,0.2,0c0.5,0,0.9-0.1,1.3-0.3c-0.3,2.1-0.6,4.3-0.7,6.1c-0.1,1.2-3.2,24.6-3.9,29.9
		C118.7,99,118.1,98.5,117.4,98.2z M121.3,90.9l9.1,1.6l-1.4,9.4l-9-1.5l0-0.2C120.3,98.9,120.8,95.2,121.3,90.9z M119.7,102.9
		L119.7,102.9L119.7,102.9l0.2-1.4l9,1.5l-1.5,9.6l-9.1-1.5L119.7,102.9z M118.2,112.1l9.1,1.5l-1.2,7.9l-9.2-1.4L118.2,112.1z
		 M125.8,69.4c2.7,5.3,8,15.8,8.4,16.9c1.1,2.7,15.1,47.6,15,49.6c0,0.2-0.5,1.7-1.2,4.2l-0.7,0c0.7-2.3,1.1-3.7,1.1-4
		c0.3-2-14.9-49.7-15.1-50.1c-0.6-1.4-6.1-12.4-7.5-15.2C125.8,70.6,125.8,69.9,125.8,69.4z M132.4,86.4c1.1,2.7,15.1,47.6,15,49.6
		c0,0.2-0.5,1.7-1.2,4.1c-4.8,0.2-12.3,0.6-12.9,0.4c-0.9-0.2-16.2-1.9-19.3-2.3l2.7-17.2l24.8,3.7l-0.4-1.1l-14-2.1l1.2-7.9
		l9.1,1.5l0.2-1l-9.1-1.5l1.5-9.6l5.5,0.9l-0.2-1l-5.1-0.9l1.9-12.3l-1-0.2l-0.3,2l-9.1-1.6c1.1-8.6,2.5-19.3,2.6-20.1
		c0.1-0.9,0.2-2,0.3-3.1c0.2,0.3,0.4,0.8,0.8,1.5c-0.3,0.8-0.5,2.5-0.4,2.7C126.2,73.6,131.9,85,132.4,86.4z"/>
	<path class="st0" d="M185.4,173.2L185.4,173.2c-0.2,0-0.4,0.1-0.6,0.1v-12.2l-0.4-0.1c-1.8-0.2-3.9-0.6-4.2-0.7
		c-0.2-0.1-2.7-1.4-3.4-1.5c-0.5-0.1-8.5,0-10.5,0l-1.8-1.2l-4-0.4l0.2-13.1c0.1,0,0.2,0,0.3,0c0.1,0,0.2,0,0.4,0
		c0.3-0.1,0.5-0.2,0.6-0.3c0.1,0,0.1-0.1,0.2-0.1c0.4-0.1,5.1,0.1,8,0.2l0-1c-1.8-0.1-7.7-0.3-8.2-0.2c-0.3,0.1-0.5,0.2-0.6,0.3
		c-0.1,0-0.1,0.1-0.3,0.1c-0.2,0-0.3,0-0.5-0.1v-0.1l-9.1-1c-0.9-0.1-1.6,0.5-1.8,1.3c-0.6,3.1-2.6,13.3-2.7,14c0,0.3,0,0.6,0.1,0.9
		l-0.7,2.1c-0.5,1.4-0.7,2.9-0.6,4.5l1.2,14.1l0.5,0c0.1,0,10.9-0.7,12.3-0.6c0,0,0,0,0,0c1.8,0,22.6-3.4,25.4-3.8l14.3,2.7l6.2,2.7
		l0.4-0.9L200,176L185.4,173.2z M159.5,177.1c-2.2,0-9.4,0.5-11.4,0.6l-1.1-13.1c-0.1-1.4,0.1-2.7,0.5-4l0.5-1.4
		c0.2,0.1,0.4,0.2,0.6,0.2c0.3,0,6.6,0.6,11.1,1L159.5,177.1z M159.6,159.4c-3.1-0.3-10.7-1-11-1c0,0,0,0,0,0
		c-0.1-0.1-0.6-0.5-0.5-1c0.1-0.6,1.5-7.6,2.7-14c0.1-0.3,0.4-0.5,0.7-0.5l8.2,0.9L159.6,159.4z M183.8,173.5
		c-8.8,1.4-20.7,3.3-23.3,3.6l0.1-17.1h0l0-1.7l3.7,0.4l1.8,1.2l0.2,0c3.8,0,10-0.1,10.4,0c0.4,0.1,2.4,1,3.1,1.4
		c0.4,0.2,2.7,0.6,4.1,0.8V173.5z"/>
	<path class="st0" d="M84.2,37.6l-0.2,1c0.1,0,0.3,0.1,0.6,0.1c0.2,0,0.3,0,0.5-0.1c0.8,2.4,1.1,2.5,1.3,2.6l0.2-0.6l0.3-0.2
		c-0.2-0.2-0.6-1.4-1-2.5c0.3-0.9,0.9-3.8,1.8-8.6l-1-0.2c-0.7,3.8-1.5,8.1-1.7,8.5C85,37.6,84.6,37.7,84.2,37.6z"/>
</g>
</svg>
